<svg width="9" height="19" viewBox="0 0 9 19" fill="none" xmlns="http://www.w3.org/2000/svg">
<path fill-rule="evenodd" clip-rule="evenodd" d="M6.41523 0H1.96679C1.44527 0.000336357 0.945201 0.207659 0.57643 0.57643C0.207659 0.945201 0.000336357 1.44527 0 1.96679L0 17.0307C0.000167485 17.5525 0.207355 18.0529 0.57609 18.4221C0.944825 18.7913 1.44498 18.9992 1.96679 19H6.41206C6.93432 18.9993 7.43504 18.7917 7.80451 18.4226C8.17399 18.0535 8.38211 17.5529 8.38329 17.0307V1.96679C8.38245 1.4452 8.17479 0.945237 7.80585 0.576538C7.43691 0.207839 6.93682 0.000503597 6.41523 0Z" fill="#FFFFFE"/>
<path fill-rule="evenodd" clip-rule="evenodd" d="M5.31187 3.48282L5.31631 3.54758C5.45217 3.6263 5.52074 3.69105 5.65787 3.77866C6.02037 4.00721 6.46731 4.41352 6.41081 5.81211C6.51238 6.11684 6.55746 6.71615 6.65205 6.90851C6.84061 7.28307 6.96694 7.52686 7.02218 7.88047C7.02218 7.88047 7.07614 8.4309 7.14724 8.47089C7.52244 8.55596 7.41388 8.59278 7.46912 8.6569C7.52752 8.73245 7.74401 8.72864 7.74401 8.93053C7.81892 9.03084 7.87479 9.13559 7.91669 9.24415V1.96678C7.91635 1.5685 7.75812 1.18661 7.47667 0.904802C7.19523 0.622998 6.81353 0.46428 6.41525 0.46344H4.97794C5.20902 0.545971 5.3398 0.64247 5.41535 0.796105C5.60073 0.811976 5.82166 1.22781 5.47757 1.84298C5.62993 1.94456 5.51122 2.09566 5.40202 2.27151C5.37028 2.32801 5.33536 2.42832 5.23315 2.42134C5.103 2.69623 4.94492 2.96224 4.82621 2.97874C4.79002 3.02318 4.76399 3.14127 4.81795 3.19713C4.99317 3.27522 5.20648 3.38315 5.31187 3.48282ZM7.91669 10.2301C7.81739 10.4797 7.64533 10.6937 7.42287 10.8442C7.20041 10.9948 6.93782 11.075 6.66919 11.0744C6.49323 11.0745 6.31897 11.0399 6.15638 10.9727C5.99378 10.9054 5.84604 10.8067 5.72158 10.6823C5.59713 10.5579 5.4984 10.4102 5.43104 10.2477C5.36368 10.0851 5.32901 9.91086 5.32901 9.73489C5.32901 9.10321 5.76325 8.5731 6.35304 8.43153C6.19877 8.04427 5.87245 7.41766 5.77532 7.21261C5.6839 7.00818 5.46297 5.73339 5.41535 5.48135C5.40456 5.42612 4.837 5.81084 4.83573 5.83433C4.80272 5.86607 4.41037 6.892 4.39387 6.94723C4.38561 6.98215 4.38498 7.11865 4.38498 7.11865C4.38498 7.11865 4.57798 7.14277 4.68908 7.47988C4.79891 7.81635 5.13348 9.04353 5.13348 9.04353C5.13348 9.04353 5.04333 9.13749 5.03952 9.13241C5.46297 10.5494 5.31504 11.1595 5.50487 11.5753C5.74357 12.1607 5.80833 12.0839 6.01275 12.5765C6.16004 12.9352 6.32383 14.3465 6.37843 14.4087C6.60698 14.6988 6.73014 14.9248 6.73014 15.088C6.73014 15.2531 6.53651 15.7387 6.60698 16.0219C6.65015 16.1888 6.67237 16.5615 6.74982 16.6326C6.74982 16.6326 6.82093 16.7729 6.78601 16.8358C6.77585 16.8567 6.75554 16.8891 6.76506 16.9151C6.89076 17.3595 7.29834 18.1188 6.63872 18.5162H6.65269C7.00643 18.4612 7.32863 18.2809 7.56062 18.0082C7.79261 17.7356 7.91897 17.3887 7.91669 17.0307V10.2301Z" fill="#B52532"/>
<path fill-rule="evenodd" clip-rule="evenodd" d="M6.22413 16.7418C5.98289 16.526 6.14414 16.4352 6.13398 16.3501C5.97527 15.6917 5.45215 15.2937 5.7226 15.0766C5.65594 14.8595 5.52008 14.5865 5.52516 14.5871C4.71063 14.1192 4.01674 13.3593 3.89929 13.2475C3.75644 13.0926 3.51266 12.9365 3.46758 12.8108C3.27141 12.6311 2.31151 11.2693 2.08804 10.7678L1.69824 10.7126C1.52048 9.98883 0.928791 9.38127 0.914189 8.65563C0.90911 8.38074 1.03862 7.79286 1.08687 7.67604C1.13448 7.55669 1.36113 7.36179 1.36113 7.36179V7.16752C0.511055 7.19165 0.755475 7.10467 0.609458 6.77391C0.506611 6.54536 0.580254 6.49458 0.617076 6.33586C0.73135 5.86797 1.11036 5.1455 1.26653 4.81728C1.31478 4.65159 1.47858 4.25226 1.47858 4.25226C2.11216 2.96223 2.34897 3.05682 3.10127 2.98382L3.13809 2.93049C3.8923 2.89748 3.76851 2.84097 3.87453 2.1147C3.76533 2.16168 3.73232 1.88678 3.73232 1.88678C3.67264 1.47413 3.84659 1.55221 3.92912 1.54396C3.94754 0.864663 4.01674 0.650082 4.50684 0.462799H1.96742C1.7698 0.462799 1.57413 0.501743 1.39158 0.577404C1.20902 0.653065 1.04317 0.763961 0.903496 0.903752C0.763822 1.04354 0.653066 1.20949 0.577559 1.39211C0.502052 1.57473 0.463274 1.77043 0.46344 1.96805V17.0313C0.46344 17.8623 1.13639 18.5359 1.96805 18.5359H6.41522C5.90607 18.2604 6.20699 17.736 6.22413 16.7418Z" fill="#253B73"/>
</svg>
