<svg width="166" height="40" viewBox="0 0 166 40" fill="none" xmlns="http://www.w3.org/2000/svg">
<path d="M7.056 38.376H0.384V1.32H15.408V7.992H7.056V16.536H13.2V23.208H7.056V38.376ZM30.7163 1.32L32.7803 38.376H25.8203L25.6283 32.472H23.1803L22.9883 38.376H16.0283L18.0923 1.32H30.7163ZM23.4203 25.8H25.3403L24.7163 7.992H24.0923L23.4203 25.8ZM44.7034 13.8V9C44.7034 8.088 43.9834 7.272 43.0714 7.272C42.5914 7.272 42.1594 7.464 41.8714 7.752C41.5834 8.088 41.3914 8.472 41.3914 8.952V10.872C41.3914 11.448 41.4874 12.024 41.6314 12.6C41.8714 13.464 42.3514 14.328 43.0234 15L45.1354 17.256L48.0634 20.328C50.1754 22.536 51.3754 25.512 51.3754 28.584V31.8C51.3754 32.328 51.3274 32.808 51.2314 33.288C50.5594 36.6 47.5834 39.096 44.0794 39.096H42.0154C37.9834 39.096 34.7194 35.832 34.7194 31.8V25.944H41.3914V30.744C41.3914 31.656 42.1114 32.424 43.0234 32.424C43.5034 32.424 43.9354 32.28 44.2234 31.944C44.5114 31.656 44.7034 31.224 44.7034 30.792V28.824C44.7034 27.288 44.1274 25.848 43.0714 24.696L41.9674 23.592L38.0314 19.416C37.7434 19.08 37.4554 18.744 37.1674 18.408C35.5834 16.344 34.7194 13.8 34.7194 11.16V7.896C34.7194 7.56 34.7674 7.224 34.8154 6.888C34.8154 6.744 34.8634 6.6 34.8634 6.408C34.9594 6.12 35.0074 5.784 35.1514 5.496C36.1114 2.664 38.8474 0.599999 42.0154 0.599999H44.0794C48.1114 0.599999 51.3754 3.864 51.3754 7.896V13.8H44.7034ZM70.3009 1.32V7.992H65.3089V38.376H58.6369V7.992H53.5489V1.32H58.6369H65.3089H70.3009ZM82.6928 38.376H72.7088V1.32H82.6928C86.3888 1.32 89.3648 4.296 89.3648 7.992V14.952C89.3648 16.392 88.9328 17.784 88.2128 18.888C88.9328 20.04 89.3648 21.384 89.3648 22.872V31.752C89.3648 35.4 86.3888 38.376 82.6928 38.376ZM79.3808 7.992V15.576H81.0608C81.9728 15.576 82.6928 14.808 82.6928 13.896V9.672C82.6928 8.76 81.9728 7.992 81.0608 7.992H79.3808ZM82.6928 30.024V23.88C82.6928 22.968 81.9728 22.248 81.0608 22.248H79.3808V31.656H81.0608C81.9728 31.656 82.6928 30.936 82.6928 30.024ZM108.477 17.208C108.477 19.608 107.325 21.72 105.549 23.016L109.053 38.376H101.709L99.0206 24.504H98.4926V38.376H91.8206V1.32H101.181C105.213 1.32 108.477 4.584 108.477 8.616V17.208ZM98.4926 7.992V17.832H100.125C101.037 17.832 101.805 17.112 101.805 16.152V9.672C101.805 8.76 101.037 7.992 100.125 7.992H98.4926ZM117.508 7.992V16.536H124.756V23.208H117.508V31.752H125.86V38.376H110.836V1.32H125.86V7.992H117.508ZM142.856 1.32L144.92 38.376H137.96L137.768 32.472H135.32L135.128 38.376H128.168L130.232 1.32H142.856ZM135.56 25.8H137.48L136.856 7.992H136.232L135.56 25.8ZM165.568 1.32L160.624 19.848L165.568 38.376H158.32L154.528 23.16H153.952V38.376H147.28V1.32H153.952V16.488H154.528L158.32 1.32H165.568Z" fill="#6366F1"/>
</svg>
