<svg width="24" height="24" viewBox="0 0 24 24" fill="none" xmlns="http://www.w3.org/2000/svg">
<g id="Team=ATL">
<g id="Layer_2_2_">
<path id="Vector" d="M18.774 5.622C17.046 3.774 14.532 2.718 11.874 2.718C11.646 2.718 11.418 2.724 11.196 2.748C6.90602 3.036 4.83602 6.09 4.62002 6.426C4.29602 6.828 1.57802 10.506 3.40202 15.582L3.43802 15.69C3.45602 15.744 5.23202 21.18 11.58 21.18C11.916 21.18 12.27 21.162 12.624 21.132C17.37 20.718 20.892 17.214 21.192 12.618C21.378 9.972 20.52 7.488 18.774 5.622Z" fill="white"/>
<path id="Vector_2" d="M18.324 6.036C16.542 4.13399 13.914 3.156 11.226 3.342C6.96002 3.63 5.06402 6.804 5.06402 6.804C5.06402 6.804 8.44802 7.83 8.91002 7.97399C9.23402 8.06999 11.334 8.59799 12.288 9.114C12.486 9.22199 12.678 9.44399 12.87 9.64199C13.014 9.792 13.146 9.936 13.284 10.05C13.536 10.254 13.776 10.428 14.016 10.602C14.598 11.028 15.108 11.388 15.348 11.946C15.552 12.426 15.558 12.93 15.378 13.392C15.216 13.794 14.898 14.16 14.514 14.412C14.556 14.208 14.604 13.914 14.328 13.734C14.202 13.656 13.572 13.506 13.146 13.458C12.942 13.44 10.656 13.332 7.48802 15.042C8.43602 13.77 9.12002 13.56 9.12002 13.56C9.09002 13.41 3.99002 15.474 3.99002 15.474C3.99002 15.474 5.75402 21.12 12.558 20.52C16.992 20.13 20.292 16.884 20.58 12.558C20.748 10.092 19.944 7.77 18.324 6.036ZM16.908 14.028C17.55 12.612 17.232 11.076 16.14 9.858C15.84 9.522 15.462 9.288 15.102 9.072C14.868 8.928 14.622 8.778 14.406 8.598C14.304 8.514 14.22 8.4 14.13 8.286C14.022 8.136 13.896 7.962 13.716 7.842C12.714 7.11 11.526 6.852 10.362 6.51C9.81002 6.348 9.27602 6.228 8.77202 6.048C9.40202 5.616 10.2 5.328 11.076 5.25C11.352 5.22 11.622 5.208 11.898 5.208C14.484 5.208 16.728 6.504 17.928 8.688C19.122 10.866 19.05 13.512 17.724 15.6C16.362 17.742 13.95 18.876 11.22 18.648C9.58802 18.516 7.84202 17.652 7.30802 16.728C7.63802 16.524 10.62 14.946 12.666 15.582C13.248 15.582 12.318 17.004 12.318 17.004C12.318 17.004 15.696 16.704 16.908 14.028Z" fill="#E03A3E"/>
<path id="Vector_3" d="M11.862 9.738C10.77 9.78 9.75602 8.46 8.91602 9.33C9.07802 9.372 9.41402 9.246 9.46202 9.396C9.03002 11.1 11.838 11.544 11.862 9.738Z" fill="#E03A3E"/>
</g>
</g>
</svg>
