<svg width="24" height="24" viewBox="0 0 24 24" fill="none" xmlns="http://www.w3.org/2000/svg">
<g id="Team=BRK">
<g id="Group">
<path id="Vector" d="M12.438 18.18C12.702 18.18 13.506 18.18 14.172 17.604C14.766 17.064 14.826 16.434 14.844 15.72L14.838 13.71C14.838 13.08 14.838 12.312 14.184 11.766C14.046 11.652 13.884 11.556 13.692 11.472C13.998 11.268 14.202 10.986 14.322 10.632C14.424 10.32 14.418 9.924 14.418 9.774L14.412 7.986C14.394 7.488 14.34 6.924 13.938 6.468C13.584 6.078 13.05 5.874 12.378 5.874C12.372 5.874 12.372 5.874 12.366 5.874L9.93598 5.88C9.86398 5.88 9.79798 5.91 9.73798 5.964C9.68398 6.018 9.65998 6.084 9.65998 6.156L9.67798 17.904C9.67798 18 9.72598 18.09 9.80998 18.138C9.85198 18.168 9.90598 18.18 9.96598 18.18H12.438ZM13.374 12.978C13.446 13.206 13.458 13.452 13.458 13.686L13.464 15.354C13.464 16.116 13.416 16.47 13.128 16.692C12.954 16.818 12.744 16.89 12.204 16.908C12.204 16.908 11.274 16.908 11.202 16.908C11.118 16.908 11.088 16.86 11.088 16.776C11.088 16.092 11.076 12.312 11.076 12.282C11.076 12.246 11.088 12.198 11.154 12.198C11.484 12.198 11.808 12.198 12.132 12.228C12.414 12.258 12.72 12.312 12.966 12.468C13.158 12.594 13.29 12.762 13.374 12.978ZM11.13 7.134H11.796C12.666 7.134 13.044 7.26 13.044 8.154C13.044 8.154 13.044 9.618 13.044 9.66C13.032 10.02 13.026 10.638 12.312 10.848C12.114 10.902 12.018 10.92 11.58 10.938H11.148H11.142C11.076 10.938 11.058 10.902 11.058 10.848C11.058 10.812 11.052 7.23 11.052 7.23C11.046 7.17 11.07 7.14 11.13 7.134ZM12.03 2.808C6.94198 2.808 2.80798 6.948 2.80798 12.03C2.80798 17.112 6.94798 21.252 12.03 21.252C17.112 21.252 21.252 17.112 21.252 12.03C21.252 6.948 17.118 2.808 12.03 2.808ZM20.382 9.78C20.538 10.368 20.64 10.974 20.67 11.604C20.418 12.108 19.914 12.522 19.548 12.726C19.518 12.486 19.476 12.216 19.422 11.97C19.368 11.718 19.302 11.466 19.236 11.22C19.53 11.034 19.782 10.812 19.98 10.542C20.166 10.29 20.298 10.032 20.382 9.78ZM12.03 3.384C15.342 3.384 18.222 5.256 19.674 7.992C20.034 8.67 20.004 9.498 19.566 10.128C19.548 10.152 19.53 10.176 19.518 10.2C19.392 10.368 19.242 10.518 19.062 10.644C18.594 9.162 17.928 7.872 17.082 6.798C16.2 5.682 15.12 4.794 13.866 4.152C13.152 3.78 12.468 3.54 11.874 3.384C11.928 3.384 11.976 3.384 12.03 3.384ZM6.40798 18.6C4.60798 17.058 3.44398 14.784 3.38398 12.246C3.75598 12.642 4.33798 13.164 5.14798 13.668C6.04798 14.232 7.36198 14.832 9.10198 15.12V14.538C7.51198 14.262 6.31198 13.716 5.47798 13.2C4.28398 12.462 3.61798 11.664 3.40798 11.388C3.50998 9.99 3.94798 8.688 4.63798 7.554C5.00398 7.416 6.70198 6.894 8.84398 8.064C8.92798 8.106 9.01198 8.154 9.09598 8.202V7.542C7.41598 6.63 5.98198 6.666 5.13598 6.822C5.98198 5.7 7.09798 4.794 8.38198 4.194C9.34198 3.744 10.428 3.63 11.46 3.876C12.084 4.02 12.828 4.266 13.608 4.662C14.784 5.262 15.804 6.102 16.638 7.152C17.466 8.202 18.108 9.468 18.558 10.926C18.282 11.04 17.964 11.124 17.604 11.178C16.782 11.292 15.858 11.088 14.898 10.722C14.838 10.944 14.802 11.04 14.676 11.25C15.522 11.574 16.356 11.784 17.136 11.784C17.322 11.784 17.502 11.772 17.682 11.748C18.06 11.694 18.408 11.61 18.714 11.484C18.768 11.682 18.816 11.886 18.864 12.096C18.93 12.402 18.984 12.708 19.014 13.008C18.168 13.44 16.968 13.884 15.426 14.214V14.796C16.824 14.502 18.078 14.1 19.056 13.632C19.068 14.136 19.032 14.64 18.948 15.138C18.534 15.384 18.054 15.756 17.49 16.248C16.122 17.46 14.79 18.522 12.396 19.29C11.19 19.674 9.97798 19.722 9.07198 19.668C8.08798 19.614 7.15798 19.236 6.40798 18.6ZM18.33 17.112C18.234 17.328 18.132 17.526 18.03 17.706C17.526 18.618 16.752 19.344 15.816 19.8C14.67 20.364 13.38 20.676 12.024 20.676C11.1 20.676 10.206 20.532 9.37198 20.262C9.46798 20.262 9.56398 20.268 9.66598 20.268C10.518 20.268 11.538 20.172 12.564 19.842C15.066 19.044 16.5 17.892 17.868 16.68C18.216 16.374 18.51 16.134 18.756 15.954C18.648 16.344 18.504 16.728 18.33 17.112ZM18.876 17.31C19.098 16.818 19.314 16.212 19.452 15.516C19.8 15.342 19.956 15.354 20.01 15.372C19.716 16.068 19.332 16.722 18.876 17.31ZM20.238 14.754C20.22 14.742 20.166 14.736 20.034 14.736C19.818 14.742 19.566 14.838 19.566 14.838C19.626 14.37 19.644 13.866 19.614 13.338C19.8 13.23 19.974 13.116 20.136 13.002C20.352 12.846 20.526 12.696 20.67 12.552C20.616 13.314 20.472 14.052 20.238 14.754Z" fill="black"/>
<g id="Group_2">
<path id="Vector_2" d="M11.148 10.938H11.58C12.018 10.926 12.114 10.908 12.312 10.848C13.032 10.632 13.038 10.02 13.044 9.65999C13.044 9.61199 13.044 8.15399 13.044 8.15399C13.044 7.25999 12.666 7.134 11.796 7.134H11.13C11.07 7.14 11.046 7.17599 11.046 7.23599C11.046 7.23599 11.052 10.818 11.052 10.854C11.052 10.908 11.07 10.944 11.136 10.944C11.142 10.938 11.142 10.938 11.148 10.938Z" fill="white"/>
<path id="Vector_3" d="M13.374 12.978C13.29 12.756 13.158 12.594 12.966 12.474C12.72 12.318 12.42 12.264 12.132 12.234C11.808 12.198 11.478 12.204 11.154 12.204C11.082 12.204 11.076 12.252 11.076 12.288C11.076 12.318 11.088 16.098 11.088 16.782C11.088 16.86 11.118 16.914 11.202 16.914C11.274 16.914 12.204 16.914 12.204 16.914C12.744 16.896 12.96 16.824 13.128 16.698C13.416 16.476 13.464 16.116 13.464 15.36L13.458 13.692C13.458 13.458 13.452 13.206 13.374 12.978Z" fill="white"/>
<path id="Vector_4" d="M19.05 13.632C18.072 14.106 16.818 14.502 15.42 14.796V14.214C16.962 13.884 18.168 13.44 19.008 13.008C18.978 12.702 18.924 12.402 18.858 12.096C18.81 11.886 18.762 11.688 18.708 11.484C18.402 11.604 18.054 11.694 17.676 11.748C17.496 11.772 17.316 11.784 17.13 11.784C16.35 11.784 15.516 11.574 14.67 11.25C14.796 11.04 14.826 10.944 14.892 10.722C15.846 11.088 16.776 11.292 17.598 11.178C17.952 11.13 18.27 11.046 18.552 10.926C18.102 9.468 17.46 8.20199 16.632 7.15199C15.804 6.10199 14.784 5.26199 13.602 4.66199C12.822 4.26599 12.078 4.01999 11.454 3.87599C10.422 3.63599 9.33599 3.74399 8.37599 4.19399C7.09199 4.794 5.97599 5.70599 5.12999 6.82199C5.97599 6.66599 7.40999 6.62999 9.08999 7.54199V8.20199C9.00599 8.154 8.92199 8.10599 8.83799 8.06399C6.69599 6.89399 4.99799 7.416 4.63199 7.554C3.94199 8.68799 3.50399 9.99 3.40199 11.388C3.61199 11.664 4.27799 12.456 5.47199 13.2C6.30599 13.716 7.50599 14.268 9.09599 14.538V15.12C7.35599 14.832 6.04199 14.232 5.14199 13.668C4.33199 13.164 3.75599 12.642 3.37799 12.246C3.43799 14.784 4.60199 17.058 6.40199 18.6C7.14599 19.236 8.08199 19.614 9.05999 19.674C9.95999 19.722 11.178 19.68 12.384 19.296C14.778 18.528 16.11 17.466 17.478 16.254C18.036 15.756 18.522 15.39 18.936 15.144C19.026 14.64 19.062 14.136 19.05 13.632ZM14.172 17.604C13.5 18.174 12.696 18.18 12.438 18.18L9.96599 18.186C9.91199 18.186 9.85799 18.168 9.80999 18.144C9.72599 18.096 9.67799 18.006 9.67799 17.91L9.65999 6.15599C9.65999 6.08399 9.68399 6.01799 9.73799 5.96399C9.79199 5.91 9.86399 5.87999 9.93599 5.87999L12.366 5.874C12.372 5.874 12.372 5.874 12.378 5.874C13.05 5.874 13.584 6.078 13.938 6.468C14.34 6.924 14.394 7.488 14.412 7.986L14.418 9.77399C14.424 9.92399 14.424 10.32 14.322 10.632C14.208 10.986 13.998 11.268 13.692 11.472C13.89 11.55 14.052 11.652 14.184 11.766C14.838 12.312 14.838 13.08 14.838 13.71L14.844 15.72C14.832 16.434 14.766 17.064 14.172 17.604Z" fill="white"/>
<path id="Vector_5" d="M17.868 16.68C16.5 17.886 15.066 19.038 12.564 19.842C11.538 20.172 10.518 20.268 9.66598 20.268C9.56398 20.268 9.46798 20.268 9.37198 20.262C10.206 20.532 11.1 20.676 12.024 20.676C13.386 20.676 14.67 20.358 15.816 19.8C16.752 19.344 17.526 18.618 18.03 17.706C18.132 17.526 18.234 17.328 18.33 17.112C18.504 16.728 18.642 16.344 18.756 15.954C18.51 16.134 18.216 16.374 17.868 16.68Z" fill="white"/>
<path id="Vector_6" d="M20.382 9.78C20.298 10.032 20.172 10.296 19.98 10.542C19.776 10.812 19.53 11.034 19.236 11.22C19.302 11.466 19.362 11.712 19.422 11.97C19.476 12.216 19.518 12.486 19.548 12.726C19.914 12.522 20.412 12.108 20.67 11.604C20.634 10.974 20.538 10.362 20.382 9.78Z" fill="white"/>
<path id="Vector_7" d="M19.452 15.516C19.308 16.218 19.092 16.824 18.876 17.31C19.332 16.716 19.716 16.068 20.01 15.366C19.956 15.354 19.8 15.342 19.452 15.516Z" fill="white"/>
<path id="Vector_8" d="M17.082 6.792C17.934 7.872 18.6 9.162 19.062 10.638C19.242 10.512 19.392 10.362 19.518 10.194C19.536 10.17 19.554 10.146 19.566 10.122C19.998 9.492 20.028 8.664 19.674 7.986C18.222 5.244 15.342 3.378 12.03 3.378C11.976 3.378 11.928 3.378 11.874 3.378C12.468 3.54 13.152 3.78 13.866 4.14C15.114 4.788 16.2 5.676 17.082 6.792Z" fill="white"/>
<path id="Vector_9" d="M20.238 14.754C20.472 14.052 20.616 13.314 20.664 12.552C20.52 12.696 20.346 12.846 20.13 13.002C19.974 13.116 19.8 13.23 19.608 13.338C19.638 13.866 19.62 14.37 19.56 14.838C19.56 14.838 19.818 14.748 20.028 14.736C20.172 14.73 20.22 14.742 20.238 14.754Z" fill="white"/>
</g>
</g>
</g>
</svg>
