<svg width="24" height="24" viewBox="0 0 24 24" fill="none" xmlns="http://www.w3.org/2000/svg">
<g id="Team=BOS">
<g id="Layer_3">
<path id="Vector" d="M20.682 12.042C20.682 9.732 19.782 7.56 18.144 5.928C16.74 4.518 14.928 3.648 12.96 3.444C12.912 3.396 12.858 3.354 12.81 3.324C12.12 2.874 11.544 3.21 11.142 3.402C11.118 3.414 11.076 3.426 11.04 3.456C10.29 3.546 9.558 3.732 8.874 3.99C8.796 3.87 8.7 3.756 8.592 3.648C8.178 3.234 7.62 3 7.02 3C5.802 3 4.806 3.99 4.806 5.214C4.806 5.724 4.98 6.216 5.298 6.6C4.092 8.082 3.366 9.978 3.366 12.048C3.366 14.358 4.266 16.53 5.904 18.162C6.702 18.96 7.626 19.584 8.64 20.016C8.58 20.472 8.658 20.778 8.742 20.91C8.616 21.018 8.562 21.084 8.538 21.204C8.334 21.48 8.826 21.828 9.03 21.984C9.438 22.302 9.654 22.248 9.984 22.23C10.38 22.212 10.758 21.75 10.962 21.444C11.394 21.384 11.472 21.45 11.484 21.504C11.616 21.486 11.808 21.45 12.06 21.342C12.642 21.102 12.468 20.808 12.414 20.754C12.396 20.742 12.39 20.718 12.372 20.694C13.74 20.64 15.06 20.274 16.23 19.614C16.272 19.662 16.32 19.716 16.356 19.776C16.482 19.962 16.548 20.574 16.578 20.88C16.602 21.198 16.656 21.408 16.812 21.9C16.968 22.398 17.028 22.032 17.034 21.9C17.04 21.768 17.07 21.282 17.046 20.934C17.028 20.586 17.022 20.088 17.088 19.872C17.154 19.656 17.034 19.602 16.998 19.566C16.962 19.524 16.998 19.512 16.908 19.242C16.902 19.224 16.896 19.218 16.896 19.194C17.34 18.894 17.748 18.552 18.138 18.162C19.782 16.524 20.682 14.352 20.682 12.042Z" fill="black"/>
</g>
<g id="Layer_5">
<g id="Group">
<path id="Vector_2" d="M11.22 20.286C11.118 20.196 10.956 20.082 10.932 20.064C10.914 20.046 10.854 20.07 10.806 20.088C10.806 20.088 10.848 20.106 10.878 20.148C10.926 20.196 11.058 20.298 11.112 20.352C11.166 20.4 11.148 20.46 11.13 20.502C11.124 20.544 11.19 20.496 11.268 20.448C11.352 20.4 11.322 20.37 11.22 20.286Z" fill="#BB9753"/>
<path id="Vector_3" d="M10.878 20.622C10.824 20.64 10.764 20.622 10.728 20.586C10.686 20.544 10.464 20.358 10.428 20.316C10.386 20.274 10.392 20.22 10.428 20.196C10.356 20.202 10.308 20.202 10.254 20.202C10.206 20.208 10.128 20.208 10.188 20.268C10.242 20.322 10.542 20.604 10.596 20.658C10.65 20.712 10.704 20.712 10.758 20.7C10.812 20.694 10.938 20.604 10.878 20.622Z" fill="#BB9753"/>
<path id="Vector_4" d="M11.988 9.408C12.012 9.342 12.066 9.204 12.108 9.102C12.012 9.102 11.88 9.114 11.802 9.114C11.73 9.114 11.754 9.222 11.742 9.288C11.73 9.366 11.868 9.3 11.85 9.402C11.844 9.444 11.964 9.474 11.988 9.408Z" fill="#BB9753"/>
<path id="Vector_5" d="M10.074 18.876C10.056 18.876 10.008 18.87 9.984 18.858H9.972L9.924 18.852C9.948 18.87 9.966 18.912 9.93 18.93C9.876 18.966 9.702 18.99 9.522 18.978C9.342 18.972 9.3 18.87 9.294 18.804C9.294 18.762 9.3 18.726 9.3 18.654C9.3 18.582 9.282 18.528 9.318 18.498C9.36 18.474 9.354 18.54 9.378 18.54C9.492 18.54 9.888 18.582 9.984 18.594C10.08 18.6 10.074 18.552 10.05 18.486C10.044 18.468 10.026 18.474 10.038 18.486C10.026 18.522 9.936 18.504 9.936 18.504C9.936 18.504 9.762 18.492 9.648 18.486C9.528 18.48 9.438 18.468 9.372 18.45C9.306 18.438 9.216 18.438 9.222 18.468C9.228 18.504 9.24 18.918 9.246 18.978C9.246 19.038 9.252 19.056 9.282 19.056C9.354 19.056 9.87 19.062 9.99 19.062C10.11 19.062 10.098 19.05 10.104 18.984C10.116 18.93 10.098 18.876 10.074 18.876Z" fill="#BB9753"/>
<path id="Vector_6" d="M10.662 5.898C10.698 5.94 10.734 5.97 10.782 6.006C10.86 5.916 10.938 5.844 11.016 5.772C11.016 5.772 11.016 5.772 11.016 5.766C11.064 5.718 11.118 5.664 11.178 5.604C11.352 5.442 11.52 5.31 11.712 5.184C11.82 5.118 11.904 5.052 12.006 4.992C12.006 4.986 12.006 4.986 12.006 4.98C12.12 4.914 12.198 4.872 12.198 4.872C12.198 4.872 12.312 4.824 12.462 4.758C12.63 4.698 12.828 4.644 13.086 4.59C13.104 4.53 13.104 4.386 13.092 4.338C13.086 4.152 12.882 3.972 12.882 3.972C12.9 3.96 12.87 3.864 12.858 3.78C12.624 3.846 12.324 3.972 12.06 4.104C12.018 4.122 12.018 4.122 11.922 4.176V4.17C11.874 4.188 11.82 4.224 11.784 4.242C11.706 4.284 11.58 4.356 11.454 4.452C11.268 4.578 11.04 4.746 10.83 4.932C10.71 5.034 10.5 5.286 10.5 5.286C10.464 5.334 10.434 5.376 10.41 5.418C10.428 5.466 10.434 5.508 10.452 5.544C10.47 5.598 10.542 5.796 10.662 5.898Z" fill="#BB9753"/>
</g>
<path id="Vector_7" d="M11.61 9.114C11.46 9.048 11.328 8.886 11.232 8.706C11.232 8.706 11.238 8.682 11.196 8.682C11.154 8.682 11.01 8.67 10.758 8.58C10.506 8.49 10.476 8.544 10.44 8.652C10.404 8.76 10.38 8.952 10.374 9.276C10.368 9.6 10.506 9.798 10.596 9.768C10.638 9.75 10.746 9.702 10.866 9.642L11.196 9.504C11.334 9.456 11.496 9.366 11.55 9.33L11.64 9.336C11.652 9.21 11.646 9.138 11.61 9.114Z" fill="#BB9753"/>
<path id="Vector_8" d="M13.5 8.592C13.278 8.58 13.02 8.616 12.774 8.718L12.654 8.754C12.588 8.79 12.504 8.82 12.444 8.862C12.102 9.072 12.09 9.252 12.168 9.312C12.234 9.372 12.39 9.402 12.636 9.558L12.732 9.648L12.738 9.654C13.104 9.924 13.194 9.774 13.254 9.648C13.308 9.522 13.428 9.144 13.464 8.946C13.482 8.814 13.512 8.694 13.5 8.592Z" fill="#BB9753"/>
<path id="Vector_9" d="M11.106 10.584C11.052 10.464 11.04 10.56 10.884 10.794C10.812 10.914 10.422 11.346 10.392 11.376C10.05 11.796 9.39 12.324 9.39 12.324C9.096 12.594 8.934 12.792 8.832 12.954L9.216 14.16C9.384 14.394 9.624 14.73 9.714 14.868C9.846 15.09 9.846 15.36 9.9 15.318C9.954 15.276 10.08 15.156 10.122 15.126C10.164 15.09 10.2 15.054 10.182 14.976C10.164 14.904 10.08 14.508 10.11 14.232C10.134 13.914 10.284 13.572 10.392 13.38C10.5 13.188 10.8 12.582 10.884 12.42C10.956 12.258 11.094 12.072 11.124 11.922C11.154 11.772 11.286 11.43 11.34 11.274C11.34 11.178 11.25 10.908 11.106 10.584Z" fill="#BB9753"/>
<path id="Vector_10" d="M14.292 14.118C14.292 13.962 14.202 13.842 14.028 13.554C13.854 13.272 13.818 13.152 13.794 12.858C13.776 12.672 13.794 12.426 13.812 12.192L13.308 11.688L13.296 11.244L13.278 11.148C13.14 10.482 13.458 9.69 13.548 9.474C13.644 9.24 13.998 8.58 14.13 8.382C14.064 8.346 13.89 8.262 13.788 8.208C13.686 8.154 13.638 8.136 13.614 8.172C13.59 8.208 13.554 8.232 13.506 8.292C13.41 8.424 13.494 8.406 13.518 8.406C13.542 8.406 13.656 8.556 13.68 8.586C13.698 8.622 13.68 8.646 13.632 8.754C13.566 8.892 13.53 9.216 13.482 9.414C13.32 9.996 13.074 9.942 12.954 9.864C12.84 9.792 12.804 9.906 12.69 10.068C12.666 10.11 12.6 10.194 12.51 10.29L12.408 10.446L11.778 11.052C11.778 11.052 11.562 11.274 11.496 11.304C11.406 11.454 11.334 11.634 11.226 11.952C11.076 12.402 10.746 13.002 10.602 13.236C10.242 13.818 10.182 14.364 10.236 14.706C10.29 15.042 10.338 15.024 10.41 15.024C10.482 15.024 10.662 15.252 10.776 15.39C10.896 15.528 10.944 15.468 11.004 15.426C11.196 15.276 11.586 15.024 12.138 14.76C12.372 14.652 12.684 14.526 12.984 14.436L13.29 14.34C13.578 14.262 13.836 14.214 13.968 14.226C14.166 14.238 14.304 14.292 14.292 14.118Z" fill="#BB9753"/>
</g>
<g id="Layer_2_2_">
<g id="Layer_2_1_">
<path id="Vector_11" d="M9.98399 20.118C10.308 20.106 10.758 20.004 10.956 19.914C10.98 19.92 11.022 19.95 11.094 19.974C11.118 19.758 10.986 19.308 10.908 19.11C10.854 18.978 10.806 18.882 10.746 18.744C10.566 18.708 10.338 18.612 10.182 18.552C10.182 18.678 10.2 19.008 10.236 19.23C10.17 19.236 10.074 19.242 9.95999 19.242C9.97799 19.476 9.99599 19.914 9.98399 20.118Z" fill="#008348"/>
<path id="Vector_12" d="M16.032 19.404C15.972 19.344 16.104 19.158 16.164 18.816C16.224 18.468 16.23 17.892 15.978 17.556C15.858 17.4 15.792 17.292 15.774 17.226C14.982 17.802 14.076 18.186 13.11 18.348C13.098 18.366 13.092 18.39 13.074 18.402C12.936 18.582 12.666 18.846 12.456 18.948C12.252 19.056 12.018 19.134 11.892 19.176C11.868 19.392 11.826 19.866 11.886 20.028C11.904 20.088 12.156 20.238 12.24 20.394C12.252 20.412 12.258 20.43 12.258 20.442C13.62 20.4 14.91 20.034 16.032 19.422C16.05 19.41 16.044 19.404 16.032 19.404Z" fill="#008348"/>
<path id="Vector_13" d="M17.97 6.096C16.656 4.782 14.976 3.948 13.164 3.708C13.314 3.996 13.332 4.332 13.344 4.542C13.608 4.428 13.8 4.368 13.914 4.194C14.022 4.02 14.166 4.056 14.262 4.182C14.358 4.308 14.358 4.464 14.112 4.626C13.866 4.782 13.68 4.854 13.632 4.878C13.578 4.902 13.626 4.95 13.686 5.052C13.746 5.154 13.902 5.4 13.92 5.922C13.92 5.928 13.92 5.934 13.92 5.94C14.898 6.24 15.804 6.78 16.548 7.53C17.754 8.736 18.42 10.344 18.42 12.048C18.42 13.026 18.198 13.974 17.79 14.832C17.85 14.856 17.916 15.054 17.946 15.306C17.958 15.438 17.952 15.588 17.91 15.672C17.868 15.768 17.556 16.242 17.394 16.38C17.334 16.434 17.19 16.428 17.13 16.338C17.07 16.248 17.064 16.296 17.016 16.344C16.968 16.392 16.806 16.626 16.77 16.686C16.728 16.746 16.596 16.806 16.68 17.046C16.77 17.286 16.866 17.466 16.836 17.604C16.8 17.736 16.788 17.778 16.968 17.928C17.148 18.078 17.142 18.27 17.064 18.384C17.01 18.456 16.938 18.666 16.902 18.864C19.032 17.334 20.43 14.838 20.43 12.024C20.442 9.798 19.56 7.686 17.97 6.096Z" fill="#008348"/>
<path id="Vector_14" d="M8.32198 18.246C8.30398 18.018 8.26198 17.61 8.42398 17.322C8.09998 17.1 7.79998 16.848 7.51198 16.566C6.29998 15.354 5.63998 13.746 5.63998 12.042C5.63998 10.212 6.41398 8.568 7.64398 7.398C7.65598 7.38 7.66798 7.35 7.69198 7.332C7.48198 7.398 7.25998 7.434 7.03198 7.434C6.44998 7.434 5.89198 7.206 5.47198 6.792C4.27798 8.274 3.61798 10.116 3.61798 12.048C3.61798 14.292 4.49398 16.41 6.07798 17.988C6.83398 18.744 7.72198 19.344 8.68198 19.764C8.71798 19.584 8.77798 19.386 8.85598 19.182C8.92798 18.99 8.81398 18.54 8.62798 18.306C8.53798 18.27 8.40598 18.252 8.32198 18.246Z" fill="#008348"/>
<path id="Vector_15" d="M10.548 3.774C10.02 3.87 9.49799 4.008 9.00599 4.206C9.16799 4.512 9.24599 4.866 9.24599 5.22C9.24599 5.694 9.09599 6.144 8.82599 6.528C9.28799 6.258 9.79199 6.048 10.308 5.898C10.344 5.862 10.374 5.832 10.416 5.802C10.224 5.478 9.96599 4.962 10.188 4.272C10.248 4.068 10.392 3.906 10.548 3.774Z" fill="#008348"/>
<path id="Vector_16" d="M7.65598 9.282C7.56598 9.258 7.49998 9.354 7.46398 9.438C7.42198 9.516 7.37398 9.606 7.50598 9.786C7.63198 9.966 7.70998 10.074 7.93798 10.062C8.04598 10.056 8.14198 9.972 8.17198 9.93C8.20198 9.888 8.21398 9.966 8.15998 10.044C8.10598 10.122 8.06398 10.314 8.16598 10.44C8.26798 10.566 8.47198 10.674 8.74798 10.512C9.02398 10.35 9.13798 10.158 9.18598 10.068C9.23398 9.978 9.23398 9.942 9.18598 9.888C9.13798 9.834 8.98198 9.582 8.95198 9.084C8.93398 8.784 8.98798 8.586 8.80198 8.478C8.61598 8.37 8.18398 8.118 8.13598 7.626C8.11798 7.44 8.12998 7.152 7.94398 7.302C7.75798 7.458 7.75798 7.566 7.73398 7.668C7.71598 7.782 7.80598 7.938 7.88398 8.034C7.96198 8.142 8.05798 8.376 8.12998 8.436C8.20198 8.496 8.24998 8.544 8.30998 8.55C8.36998 8.556 8.60998 8.556 8.66998 8.574C8.72998 8.592 8.76598 8.67 8.61598 8.67C8.46598 8.67 8.24998 8.712 8.14198 8.724C8.03998 8.736 7.94998 8.742 7.90798 8.946C7.85998 9.15 7.79398 9.384 7.78798 9.456C7.78198 9.528 7.73998 9.57 7.73998 9.612C7.73998 9.654 7.81798 9.846 8.00398 9.654C8.18998 9.462 8.25598 9.264 8.29198 9.174C8.32798 9.078 8.36398 9.096 8.33398 9.24C8.29798 9.39 8.29198 9.756 8.35798 9.882C8.42998 10.02 8.58598 10.164 8.77798 10.062C8.81998 10.044 8.88598 10.008 8.93998 10.014C8.99398 10.02 8.92798 10.116 8.87998 10.152C8.83198 10.194 8.67598 10.362 8.41198 10.116C8.34598 10.056 8.24998 9.924 8.23198 9.756C8.22598 9.702 8.15398 9.684 8.11798 9.732C8.08198 9.78 7.90198 9.948 7.77598 9.828C7.64998 9.708 7.59598 9.642 7.66798 9.384C7.66198 9.342 7.68598 9.294 7.65598 9.282Z" fill="#F9A980"/>
<path id="Vector_17" d="M7.79398 8.91C7.76998 9 7.73998 9.114 7.72798 9.144C7.71598 9.186 7.65598 9.27 7.60198 9.156C7.54798 9.042 7.54798 8.952 7.63798 8.868C7.66198 8.844 7.70398 8.79 7.73398 8.814C7.74598 8.856 7.79398 8.886 7.79398 8.91Z" fill="#F9A980"/>
<path id="Vector_18" d="M8.09397 8.598C8.03997 8.622 7.91997 8.622 7.87797 8.718C7.85397 8.778 7.74597 8.712 7.79997 8.64C7.85397 8.568 7.89597 8.574 7.92597 8.55C7.96197 8.532 7.97397 8.472 8.03997 8.502C8.09997 8.544 8.11197 8.592 8.09397 8.598Z" fill="#F9A980"/>
<path id="Vector_19" d="M11.706 7.386C11.67 7.464 11.568 7.548 11.34 7.524C11.226 7.512 11.106 7.506 11.094 7.596C11.082 7.662 11.028 7.656 10.956 7.656C10.884 7.65 10.794 7.638 10.794 7.662C10.788 7.686 11.118 7.89 11.232 7.938C11.34 7.992 11.508 8.106 11.634 8.094C11.808 8.076 11.958 7.986 12.216 7.716C12.324 7.608 12.408 7.548 12.312 7.5C12.246 7.476 12.174 7.458 12.084 7.458C11.976 7.458 11.79 7.446 11.706 7.386Z" fill="#F9A980"/>
<path id="Vector_20" d="M10.458 7.392C10.362 7.386 10.356 7.326 10.416 7.224C10.476 7.122 10.53 7.032 10.608 6.972C10.62 7.014 10.65 7.074 10.686 7.092C10.632 7.152 10.566 7.218 10.578 7.362L10.458 7.392Z" fill="#F9A980"/>
<path id="Vector_21" d="M14.082 6.63C13.944 6.378 13.704 6.504 13.59 6.69C13.476 6.876 13.35 7.086 13.344 7.398C13.266 7.374 13.182 7.398 13.14 7.464C13.122 7.5 12.822 7.458 12.732 7.482C12.63 7.506 12.6 7.446 12.708 7.308C12.816 7.17 13.188 6.66 13.164 6.282C13.158 6.168 13.17 6.15 13.188 6.06C13.206 5.952 13.224 5.952 13.08 5.874C12.99 5.826 12.984 5.688 12.972 5.58C12.954 5.466 12.93 5.466 12.804 5.49C12.726 5.502 12.564 5.4 12.486 5.286C12.3 5.304 12.126 5.418 11.952 5.538C11.778 5.658 11.16 6.198 11.004 6.3C11.154 6.378 11.196 6.534 11.142 6.81C11.13 6.87 11.142 6.888 11.184 6.852C11.226 6.81 11.412 6.618 11.406 6.45C11.4 6.288 11.328 6.198 11.31 6.174C11.298 6.156 11.364 6.072 11.436 6.24C11.508 6.408 11.49 6.642 11.268 6.906C11.046 7.17 10.872 7.158 10.776 7.206C10.68 7.254 10.59 7.326 10.674 7.47C10.758 7.614 10.926 7.56 10.998 7.512C11.064 7.464 11.16 7.41 11.364 7.434C11.58 7.452 11.646 7.32 11.502 7.17C11.454 7.122 11.334 7.02 11.484 7.02C11.574 7.02 11.676 7.212 11.736 7.266C11.796 7.32 11.928 7.338 12.102 7.356C12.282 7.368 12.558 7.434 12.558 7.608C12.558 7.716 12.498 7.746 12.426 7.662C12.402 7.626 12.354 7.68 12.318 7.716C12.204 7.83 11.91 8.136 11.706 8.19C11.496 8.244 11.424 8.184 11.148 8.04C10.872 7.89 10.62 7.746 10.542 7.698C10.47 7.65 10.314 7.542 10.386 7.758C10.458 7.974 10.638 8.196 11.004 8.316C11.364 8.436 11.412 8.478 11.502 8.52C11.58 8.562 11.538 8.598 11.43 8.586C11.334 8.574 11.238 8.49 11.316 8.676C11.394 8.856 11.52 9.054 11.886 9C12.252 8.952 12.264 8.88 12.498 8.49C12.54 8.424 12.576 8.472 12.552 8.646C12.732 8.556 12.834 8.532 12.942 8.508C13.05 8.484 13.326 8.388 13.512 8.046C13.608 7.872 13.662 7.812 13.638 7.638C13.632 7.572 13.734 7.434 13.83 7.344C13.95 7.236 14.214 6.882 14.082 6.63ZM12.474 6.966C12.51 6.972 12.51 6.972 12.498 6.972C12.384 6.972 12.216 6.936 12.09 6.852C11.964 6.762 11.928 6.726 11.94 6.606C11.952 6.534 11.958 6.492 11.958 6.456C11.964 6.438 11.964 6.42 11.964 6.402C11.976 6.342 11.97 6.3 11.952 6.288C11.94 6.276 11.934 6.27 11.91 6.27C11.892 6.27 11.85 6.288 11.802 6.324C11.736 6.27 11.664 6.216 11.616 6.168C11.574 6.132 11.55 6.108 11.538 6.102C11.526 6.09 11.514 6.084 11.502 6.06C11.502 6.048 11.508 6.036 11.52 6.012C11.532 6 11.538 6 11.562 6H11.568H11.574C11.586 6 11.61 6 11.622 5.982C11.634 5.964 11.64 5.934 11.634 5.892C11.634 5.892 11.64 5.886 11.67 5.886C11.676 5.886 11.688 5.886 11.688 5.886C11.7 5.886 11.706 5.886 11.706 5.886C11.724 5.886 11.73 5.886 11.742 5.88C11.76 5.874 11.76 5.862 11.76 5.844C11.766 5.826 11.766 5.826 11.784 5.826C11.796 5.826 11.808 5.826 11.838 5.832C11.844 5.832 11.844 5.832 11.85 5.832C11.868 5.832 11.886 5.814 11.892 5.808L11.898 5.802C11.904 5.79 11.916 5.784 11.934 5.784C11.94 5.784 11.946 5.784 11.952 5.784C11.97 5.79 11.988 5.79 12 5.796C12.018 5.802 12.036 5.808 12.054 5.808C12.096 5.808 12.108 5.784 12.114 5.754C12.126 5.706 12.132 5.694 12.156 5.694C12.174 5.694 12.198 5.706 12.222 5.718C12.246 5.736 12.276 5.736 12.288 5.736C12.312 5.736 12.342 5.718 12.348 5.682C12.348 5.682 12.348 5.676 12.36 5.676C12.378 5.676 12.414 5.688 12.456 5.712L12.474 5.724C12.54 5.76 12.666 5.832 12.816 6.006C12.852 6.048 12.864 6.072 12.858 6.078C12.858 6.078 12.852 6.078 12.846 6.078C12.828 6.084 12.786 6.09 12.78 6.144C12.774 6.168 12.768 6.198 12.762 6.198C12.762 6.198 12.756 6.192 12.75 6.18C12.738 6.162 12.732 6.144 12.708 6.144C12.702 6.144 12.702 6.144 12.696 6.144C12.696 6.144 12.69 6.138 12.69 6.126C12.684 6.114 12.678 6.09 12.648 6.09C12.636 6.09 12.63 6.096 12.624 6.102C12.624 6.102 12.624 6.102 12.618 6.102C12.612 6.09 12.606 6.066 12.576 6.066C12.57 6.066 12.564 6.066 12.558 6.066H12.552C12.552 6.066 12.552 6.06 12.546 6.054C12.54 6.042 12.534 6.036 12.522 6.036C12.51 6.036 12.504 6.042 12.498 6.042C12.486 6.048 12.48 6.048 12.474 6.048C12.468 6.048 12.468 6.048 12.468 6.042C12.456 6.024 12.45 6.024 12.444 6.024C12.432 6.024 12.426 6.03 12.408 6.036C12.402 6.042 12.39 6.048 12.39 6.048C12.39 6.048 12.384 6.048 12.378 6.042C12.372 6.036 12.36 6.024 12.354 6.024C12.336 6.024 12.336 6.036 12.318 6.042L12.312 6.048C12.306 6.06 12.3 6.06 12.294 6.06C12.294 6.06 12.288 6.06 12.282 6.06C12.276 6.054 12.264 6.054 12.264 6.054C12.246 6.054 12.228 6.072 12.222 6.072C12.216 6.084 12.216 6.084 12.216 6.084C12.216 6.084 12.21 6.084 12.204 6.078C12.198 6.072 12.186 6.072 12.186 6.072C12.162 6.072 12.144 6.09 12.138 6.114C12.132 6.132 12.126 6.132 12.12 6.132H12.114C12.102 6.132 12.096 6.126 12.09 6.126C12.054 6.126 12.048 6.162 12.042 6.192C12.042 6.198 12.042 6.204 12.036 6.21C12.024 6.264 12 6.492 12.012 6.546C12.018 6.6 12.084 6.6 12.114 6.6C12.168 6.6 12.228 6.588 12.318 6.582C12.48 6.564 12.786 6.468 12.942 6.342C12.984 6.306 13.008 6.306 13.02 6.306C13.032 6.306 13.032 6.306 13.038 6.312C13.038 6.318 13.02 6.366 12.978 6.39C12.972 6.396 12.972 6.396 12.966 6.402C12.918 6.444 12.804 6.552 12.57 6.588C12.348 6.63 12.15 6.666 12.072 6.666C12.06 6.666 12.06 6.666 12.054 6.666C12.048 6.666 12.048 6.666 12.042 6.666C12.03 6.666 12.024 6.672 12.024 6.684C12.018 6.696 12.024 6.708 12.042 6.726C12.06 6.744 12.096 6.75 12.12 6.75C12.132 6.75 12.138 6.75 12.144 6.75C12.15 6.75 12.18 6.768 12.198 6.792C12.246 6.84 12.318 6.9 12.414 6.9C12.534 6.9 12.702 6.774 12.756 6.732C12.774 6.714 12.828 6.684 12.864 6.678C12.858 6.684 12.852 6.696 12.846 6.702L12.84 6.714C12.702 6.846 12.588 6.966 12.474 6.966ZM13.908 6.822C13.836 6.876 13.788 6.894 13.782 6.99C13.776 7.086 13.764 7.242 13.722 7.26C13.674 7.278 13.68 7.17 13.668 7.206C13.65 7.254 13.596 7.23 13.572 7.188C13.566 7.17 13.398 7.17 13.53 6.978C13.65 6.804 13.746 6.708 13.83 6.672C13.92 6.63 14.076 6.708 13.908 6.822Z" fill="#F9A980"/>
<path id="Vector_22" d="M17.184 14.772C17.16 14.694 17.202 14.562 17.376 14.658C17.544 14.754 17.67 14.832 17.55 15.192C17.43 15.558 17.34 15.774 17.298 15.93C17.256 16.086 17.07 16.278 17.13 16.02C17.19 15.756 17.226 15.444 17.196 15.282C17.148 14.988 17.244 15 17.214 14.874C17.202 14.832 17.196 14.796 17.184 14.772Z" fill="#F9A980"/>
<path id="Vector_23" d="M17.82 15.084C17.868 15.234 17.922 15.558 17.838 15.696C17.76 15.828 17.508 16.194 17.418 16.29C17.322 16.386 17.25 16.344 17.31 16.242C17.37 16.14 17.448 16.008 17.448 15.96C17.448 15.912 17.442 15.858 17.52 15.708C17.598 15.558 17.742 15.042 17.754 15C17.772 14.958 17.808 15.048 17.82 15.084Z" fill="#F9A980"/>
<path id="Vector_24" d="M16.092 16.32C16.05 16.2 16.032 16.026 15.966 15.924C16.02 15.774 16.2 15.39 16.494 15.258C16.53 15.246 16.548 15.21 16.536 15.186C16.524 15.162 16.578 15.138 16.602 15.234C16.626 15.33 16.674 15.594 16.674 15.594C16.686 15.654 16.662 15.702 16.65 15.78C16.638 15.858 16.602 16.044 16.626 16.134C16.644 16.23 16.68 16.296 16.86 16.254C16.956 16.236 16.95 16.206 16.974 16.128C16.998 16.05 17.076 15.822 17.1 15.69C17.124 15.564 17.106 15.252 17.082 15.174C17.058 15.096 17.094 14.82 17.07 14.766C17.052 14.712 17.034 14.634 16.866 14.58C16.698 14.526 16.65 14.514 16.542 14.628C16.428 14.742 16.392 14.79 16.332 14.844C16.278 14.898 16.146 14.85 16.26 14.742C16.374 14.634 16.482 14.526 16.512 14.496L16.476 14.406H16.416C16.236 14.586 15.996 14.694 15.834 14.73C15.774 14.742 15.66 14.748 15.738 14.856C15.756 14.88 15.762 14.958 15.81 14.928C15.858 14.904 15.93 14.778 15.996 14.832C16.062 14.886 15.984 15.012 15.9 15.072C15.822 15.132 15.732 15.192 15.672 15.222C15.612 15.258 15.576 15.288 15.582 15.396C15.588 15.504 15.594 15.696 15.534 15.846C15.474 15.996 15.51 16.032 15.558 16.128C15.612 16.23 15.696 16.314 15.726 16.476C15.75 16.638 15.768 16.68 15.876 16.662C15.984 16.65 16.026 16.602 16.062 16.536L16.092 16.32Z" fill="#F9A980"/>
<path id="Vector_25" d="M12.21 4.71C12.306 4.722 12.402 4.716 12.426 4.65C12.444 4.584 12.432 4.542 12.402 4.536C12.378 4.524 12.354 4.524 12.378 4.47C12.39 4.41 12.438 4.416 12.432 4.32C12.426 4.224 12.36 4.218 12.294 4.248C12.228 4.266 12.204 4.302 12.144 4.374C12.084 4.452 12.108 4.32 12.126 4.302C12.144 4.284 12.162 4.128 12.078 4.098C12.03 4.116 11.982 4.146 11.94 4.164C11.928 4.188 11.922 4.23 11.898 4.266C11.862 4.356 11.826 4.284 11.79 4.248C11.7 4.296 11.622 4.344 11.562 4.38C11.556 4.386 11.55 4.392 11.544 4.392C11.55 4.446 11.61 4.512 11.652 4.542C11.7 4.566 11.67 4.632 11.616 4.632C11.562 4.632 11.496 4.596 11.43 4.68C11.364 4.758 11.412 4.836 11.472 4.836C11.538 4.836 11.586 4.854 11.61 4.938C11.628 5.01 11.652 5.046 11.736 5.052C11.826 5.058 11.874 4.992 11.898 4.95C11.916 4.908 11.952 4.848 11.994 4.872C12.048 4.89 12.042 4.944 12.018 5.01C12.084 4.974 12.144 4.944 12.21 4.902C12.198 4.842 12.162 4.794 12.144 4.77C12.108 4.716 12.12 4.704 12.21 4.71Z" fill="#008348"/>
<path id="Vector_26" d="M12.954 3.738C12.93 3.744 12.888 3.756 12.852 3.756C12.87 3.828 12.9 3.93 12.876 3.948C12.858 3.966 12.774 3.972 12.72 3.996C12.66 4.014 12.516 4.146 12.594 4.242C12.666 4.344 12.696 4.398 12.702 4.446C12.714 4.5 12.834 4.554 12.918 4.458C12.996 4.356 13.068 4.248 13.086 4.32C13.104 4.38 13.098 4.524 13.086 4.602C13.104 4.596 13.122 4.596 13.14 4.59C13.182 4.212 13.086 3.948 12.954 3.738Z" fill="#008348"/>
<path id="Vector_27" d="M11.118 5.544C11.07 5.508 11.058 5.448 11.112 5.436C11.172 5.418 11.244 5.412 11.388 5.34C11.526 5.28 11.454 5.178 11.394 5.148C11.328 5.124 11.328 5.058 11.328 4.998C11.334 4.932 11.316 4.842 11.196 4.89C11.076 4.938 11.118 5.058 11.082 5.1C11.046 5.142 11.022 5.124 11.028 5.064C11.034 5.004 10.98 4.962 10.956 4.95C10.938 4.938 10.884 4.932 10.842 4.932C10.716 5.046 10.602 5.166 10.512 5.286C10.53 5.328 10.578 5.376 10.608 5.382C10.644 5.394 10.686 5.418 10.686 5.484C10.686 5.544 10.56 5.544 10.47 5.55C10.53 5.712 10.59 5.826 10.674 5.916C10.692 5.91 10.722 5.904 10.746 5.892C10.854 5.844 10.884 5.688 10.896 5.646C10.914 5.598 10.956 5.61 10.992 5.664C11.01 5.706 11.016 5.742 11.016 5.784C11.076 5.724 11.13 5.67 11.19 5.616C11.172 5.58 11.148 5.562 11.118 5.544Z" fill="#008348"/>
<path id="Vector_28" d="M12.894 9.534C12.912 9.528 12.858 9.3 12.906 9.288C12.948 9.276 12.972 9.414 13.062 9.402C13.158 9.384 13.176 9.294 13.17 9.186C13.158 9.078 13.218 9.138 13.266 9.066C13.314 8.994 13.212 8.892 13.098 8.958C12.984 9.024 13.002 8.94 13.062 8.898C13.122 8.856 13.08 8.73 12.954 8.772C12.858 8.796 12.816 8.748 12.774 8.718C12.738 8.73 12.708 8.742 12.672 8.76C12.666 8.778 12.672 8.82 12.678 8.856C12.69 8.898 12.702 9.006 12.636 8.964C12.57 8.922 12.486 8.898 12.468 8.976C12.45 9.048 12.486 9.054 12.486 9.102C12.486 9.15 12.36 9.162 12.42 9.252C12.48 9.354 12.558 9.3 12.612 9.258C12.672 9.222 12.72 9.264 12.708 9.318C12.69 9.36 12.66 9.486 12.654 9.57C12.678 9.588 12.708 9.606 12.732 9.63C12.768 9.6 12.828 9.546 12.894 9.534Z" fill="#008348"/>
<path id="Vector_29" d="M11.07 9.3C11.124 9.288 11.22 9.396 11.304 9.324C11.394 9.264 11.268 9.204 11.286 9.156C11.298 9.108 11.346 9.006 11.28 8.964C11.22 8.916 11.16 8.958 11.094 9.03C11.028 9.096 11.052 8.964 11.088 8.91C11.136 8.838 11.088 8.79 11.016 8.772C10.944 8.76 10.914 8.868 10.866 8.82C10.788 8.748 10.662 8.772 10.692 8.88C10.716 8.988 10.758 9.018 10.692 9.03C10.626 9.042 10.572 8.88 10.5 9.012C10.428 9.144 10.548 9.186 10.536 9.288C10.524 9.39 10.56 9.498 10.632 9.504C10.692 9.516 10.752 9.444 10.788 9.402C10.824 9.36 10.902 9.336 10.896 9.408C10.89 9.462 10.884 9.57 10.884 9.636C11.004 9.576 11.136 9.516 11.208 9.486C11.214 9.486 11.214 9.486 11.22 9.48C11.184 9.468 11.142 9.444 11.094 9.414C11.016 9.372 11.016 9.318 11.07 9.3Z" fill="#008348"/>
<path id="Vector_30" d="M9.59398 12.342C9.74398 12.294 9.75598 12.414 9.73198 12.516C9.70798 12.618 9.71398 12.834 9.71998 12.936L9.97198 12.948C9.95998 12.882 9.97198 12.684 9.97798 12.57C9.98398 12.456 10.098 12.282 10.14 12.456C10.182 12.63 10.356 12.636 10.476 12.564C10.596 12.492 10.686 12.33 10.812 12.102C10.938 11.874 10.77 11.814 10.674 11.826C10.578 11.838 10.47 11.85 10.698 11.664C10.908 11.49 10.548 11.4 10.392 11.37C10.122 11.652 9.79798 11.976 9.49798 12.222C9.46198 12.258 9.42598 12.288 9.38998 12.318C9.41998 12.348 9.48598 12.378 9.59398 12.342Z" fill="#008348"/>
<path id="Vector_31" d="M9.32997 14.028C9.45597 13.986 9.53997 14.262 9.72597 14.1C9.91197 13.938 9.77997 13.806 9.77397 13.668C9.76797 13.53 9.92397 13.482 9.87597 13.314C9.80997 13.062 9.56997 13.302 9.42597 13.44C9.27597 13.578 9.27597 13.464 9.41997 13.236C9.56997 13.008 9.32397 12.936 9.17997 12.996C9.04797 13.05 8.93397 12.996 8.85597 12.93C8.79597 13.026 8.75397 13.104 8.71797 13.194C8.59197 13.458 8.67597 13.464 8.77197 13.464C8.86797 13.464 9.06597 13.86 9.09597 13.932C9.10797 13.95 9.16797 14.058 9.26397 14.184C9.23397 14.124 9.24597 14.058 9.32997 14.028Z" fill="#008348"/>
<path id="Vector_32" d="M12.984 11.4C12.864 11.376 12.702 11.352 12.69 11.604C12.684 11.7 12.78 11.772 12.864 11.808C12.954 11.844 12.936 11.904 12.846 11.868C12.75 11.832 12.678 11.814 12.612 12.006C12.546 12.198 12.666 12.228 12.726 12.24C12.786 12.252 12.834 12.264 12.822 12.348C12.81 12.426 12.768 12.666 12.924 12.684C13.074 12.702 13.212 12.516 13.26 12.42C13.308 12.324 13.362 12.234 13.374 12.342C13.386 12.45 13.368 12.504 13.314 12.624C13.26 12.744 13.26 12.798 13.338 12.792C13.416 12.786 13.554 12.792 13.59 12.696C13.626 12.6 13.692 12.42 13.698 12.294C13.704 12.216 13.77 12.204 13.824 12.216C13.842 12.084 13.86 11.946 13.878 11.832C13.614 11.874 13.386 11.55 13.314 11.274C13.218 11.352 13.086 11.424 12.984 11.4Z" fill="#008348"/>
<path id="Vector_33" d="M11.736 11.352C11.688 11.43 11.556 11.658 11.616 11.736C11.676 11.814 11.742 11.664 11.796 11.718C11.85 11.772 11.97 11.832 11.97 11.79C11.97 11.748 11.982 11.67 12.006 11.562C12.024 11.454 12.072 11.394 12.12 11.484C12.168 11.574 12.234 11.646 12.402 11.604C12.57 11.562 12.552 11.388 12.516 11.262C12.48 11.136 12.606 11.076 12.666 11.04C12.726 11.004 12.882 10.884 12.768 10.776C12.654 10.668 12.552 10.824 12.45 10.842C12.348 10.86 12.39 10.776 12.6 10.614C12.78 10.476 12.624 10.332 12.522 10.29C12.234 10.578 11.724 11.046 11.61 11.154C11.568 11.196 11.538 11.232 11.502 11.292C11.754 11.172 11.778 11.268 11.736 11.352Z" fill="#008348"/>
<path id="Vector_34" d="M13.386 14.04C13.476 14.118 13.68 14.232 13.83 14.1C13.98 13.968 13.794 13.818 13.776 13.71C13.758 13.602 13.884 13.536 13.818 13.362C13.704 13.062 13.53 13.422 13.428 13.524C13.326 13.626 13.35 13.458 13.434 13.362C13.482 13.314 13.686 13.188 13.566 13.044C13.446 12.906 13.272 12.984 13.182 13.044C13.092 13.104 13.032 13.176 12.894 13.14C12.762 13.098 12.648 13.086 12.57 13.278C12.492 13.47 12.642 13.416 12.762 13.56C12.888 13.698 12.81 13.71 12.708 13.674C12.606 13.638 12.558 13.512 12.414 13.536C12.264 13.554 12.264 13.788 12.312 13.854C12.36 13.914 12.45 13.95 12.384 14.064C12.318 14.178 12.42 14.31 12.534 14.364C12.654 14.418 12.834 14.202 12.9 14.118C12.966 14.028 13.032 14.052 13.02 14.118C13.008 14.178 12.978 14.328 12.972 14.454C13.08 14.418 13.176 14.388 13.272 14.364C13.272 14.298 13.254 14.178 13.224 14.076C13.212 13.92 13.296 13.962 13.386 14.04Z" fill="#008348"/>
<path id="Vector_35" d="M11.652 14.748C11.49 14.796 11.466 14.724 11.358 14.682C11.25 14.64 11.244 14.736 11.316 14.85C11.388 14.964 11.472 15.072 11.382 15.072C11.292 15.072 11.226 15.084 11.214 15.15C11.202 15.216 11.058 15.138 11.028 15C10.992 14.862 10.962 14.592 10.89 14.724C10.818 14.856 10.752 15.078 10.566 14.976C10.38 14.874 10.506 14.742 10.41 14.652C10.314 14.556 10.23 14.436 10.32 14.268C10.41 14.1 10.494 14.244 10.584 14.244C10.674 14.244 10.686 14.166 10.602 14.106C10.524 14.046 10.422 13.758 10.788 13.782C10.926 13.788 11.082 13.74 11.196 13.656C11.316 13.566 11.634 13.614 11.502 13.836C11.376 14.058 11.412 14.106 11.49 14.022C11.562 13.944 11.658 13.794 11.796 13.836C11.934 13.878 11.874 13.986 11.79 14.106C11.7 14.226 11.754 14.31 11.826 14.352C11.898 14.394 12.024 14.646 11.652 14.748Z" fill="#008348"/>
<path id="Vector_36" d="M12.33 13.176C12.21 13.182 12.06 13.152 12.06 13.152C12.048 13.278 11.922 13.458 11.796 13.65C11.784 13.668 11.706 13.668 11.676 13.644C11.64 13.62 11.55 13.572 11.622 13.494C11.694 13.416 11.814 13.248 11.796 13.17C11.778 13.098 11.724 13.032 11.64 13.128C11.562 13.23 11.43 13.434 11.292 13.446C11.154 13.458 11.01 13.326 11.076 13.2C11.142 13.074 11.166 13.008 11.07 12.894C10.974 12.78 11.01 12.63 11.208 12.546C11.268 12.522 11.376 12.546 11.442 12.606C11.514 12.666 11.556 12.606 11.454 12.546C11.352 12.486 11.274 12.414 11.262 12.276C11.25 12.15 11.328 12.012 11.496 12.09C11.67 12.162 11.778 12.102 11.85 12.042C11.922 11.982 12.24 11.91 12.192 12.18C12.156 12.384 12.066 12.39 12.042 12.498C12.018 12.606 12.096 12.54 12.144 12.456C12.192 12.378 12.294 12.048 12.51 12.294C12.564 12.354 12.546 12.456 12.474 12.57C12.408 12.684 12.462 12.75 12.498 12.804C12.576 12.858 12.666 13.158 12.33 13.176Z" fill="#008348"/>
<path id="Vector_37" d="M11.892 4.254C11.904 4.218 11.91 4.188 11.928 4.152C11.88 4.17 11.826 4.206 11.79 4.224C11.814 4.284 11.856 4.344 11.892 4.254Z" fill="#BB9753"/>
</g>
</g>
<g id="Layer_6">
<g id="Group_2">
<path id="Vector_38" d="M6.46202 4.824C6.51002 4.89 6.55802 4.878 6.57602 4.83C6.61802 4.728 6.69602 4.41 6.69602 4.164C6.69602 3.6 6.76802 3.378 6.91202 3.12C6.26402 3.156 5.67602 3.486 5.32202 3.99C5.86802 4.134 6.28202 4.578 6.46202 4.824Z" fill="#A73832"/>
<path id="Vector_39" d="M6.40801 5.14199C6.47401 5.05199 6.39601 5.00399 6.36001 4.95599C6.18601 4.70999 5.78401 4.26599 5.23801 4.12199C5.04601 4.44599 4.93201 4.80599 4.93201 5.20799C4.93201 5.38799 4.95001 5.55599 4.99201 5.71199C6.01801 5.80199 6.34801 5.22599 6.40801 5.14199Z" fill="#A73832"/>
<path id="Vector_40" d="M7.134 3.102C6.984 3.336 6.9 3.516 6.84 4.134C6.78 4.746 6.726 5.172 6.282 5.544C5.94 5.82 5.268 5.898 5.052 5.886C5.154 6.18 5.316 6.444 5.526 6.666C6.162 6.45 6.624 6.174 7.236 5.604C7.848 5.034 8.154 4.452 8.25 4.236C8.31 4.098 8.424 3.912 8.346 4.224C8.268 4.53 7.98 5.19 7.38 5.754C6.792 6.318 6.252 6.606 5.628 6.768C5.994 7.104 6.492 7.314 7.038 7.314C7.056 7.314 7.062 7.314 7.086 7.314C7.206 6.558 7.392 6.306 7.764 5.988C8.124 5.664 8.64 5.496 9.078 5.682C9.114 5.544 9.126 5.382 9.132 5.208C9.132 4.068 8.25 3.156 7.134 3.102Z" fill="#A73832"/>
<path id="Vector_41" d="M7.99201 6.03C7.93801 6.066 7.89601 6.09 7.96801 6.15C8.08801 6.27 8.26801 6.498 8.40001 6.81C8.68801 6.57 8.90401 6.246 9.02401 5.886C8.91601 5.742 8.56201 5.676 7.99201 6.03Z" fill="#A73832"/>
<path id="Vector_42" d="M7.70401 6.264C7.38601 6.546 7.26601 6.966 7.20001 7.296C7.57801 7.272 7.93201 7.134 8.22601 6.936C8.10601 6.642 8.00401 6.426 7.89001 6.276C7.82401 6.198 7.81801 6.168 7.70401 6.264Z" fill="#A73832"/>
<path id="Vector_43" d="M16.746 18.732C16.866 18.342 17.064 18.348 16.998 18.198C16.932 18.048 16.83 17.934 16.752 17.85C16.674 17.76 16.734 17.556 16.734 17.466C16.728 17.304 16.602 17.28 16.584 17.1C16.566 16.92 16.56 16.776 16.692 16.59C16.824 16.41 16.644 16.416 16.584 16.302C16.524 16.188 16.488 16.032 16.542 15.804C16.566 15.684 16.554 15.654 16.524 15.636C16.488 15.624 16.35 15.594 16.35 15.594L16.14 16.002C16.176 16.08 16.188 16.206 16.188 16.284L16.134 16.626C16.086 16.704 16.008 16.836 16.008 16.95C16.008 17.064 15.894 17.184 15.906 17.238C15.918 17.292 16.068 17.43 16.152 17.58C16.242 17.73 16.344 17.946 16.344 18.318C16.344 18.69 16.224 19.188 16.212 19.248C16.2 19.314 16.164 19.368 16.266 19.464C16.368 19.56 16.53 19.734 16.59 20.13C16.65 20.526 16.692 20.736 16.716 20.754C16.74 20.772 16.734 20.808 16.734 20.88C16.734 20.952 16.8 21.378 16.848 21.456C16.896 21.534 16.89 21.006 16.884 20.844C16.878 20.694 16.89 19.956 16.92 19.842C16.944 19.734 16.974 19.614 16.878 19.482C16.788 19.35 16.626 19.116 16.746 18.732Z" fill="#A73832"/>
</g>
</g>
<g id="Layer_4">
<g id="Group_3">
<path id="Vector_44" d="M9.45 7.644C9.276 7.68 9.282 7.71 9.468 7.692C9.528 7.692 10.368 7.566 10.476 7.542C10.584 7.524 10.608 7.596 10.638 7.578C10.674 7.566 10.626 7.566 10.602 7.428L10.446 7.446C10.26 7.494 9.624 7.608 9.45 7.644Z" fill="white"/>
<path id="Vector_45" d="M16.446 7.626C15.726 6.906 14.862 6.384 13.926 6.09C13.92 6.186 13.914 6.27 13.914 6.306C14.1 6.402 14.31 6.6 14.232 6.978C14.196 7.134 14.07 7.278 14.058 7.338C14.04 7.44 13.824 7.614 13.764 7.746C13.704 7.878 13.692 7.986 13.704 8.046C13.812 8.148 14.052 8.28 14.184 8.328C14.286 8.364 14.286 8.388 14.244 8.448C14.232 8.46 14.208 8.472 14.208 8.49C14.046 8.712 13.788 9.27 13.674 9.618C13.554 9.966 13.278 10.8 13.482 11.34C13.674 11.886 14.058 11.544 14.148 11.334C14.238 11.124 14.37 10.77 14.412 10.674C14.454 10.578 14.472 10.524 14.544 10.746C14.616 10.968 14.724 11.496 14.724 11.544C14.724 11.592 14.652 11.724 14.574 11.934C14.496 12.144 14.448 12.288 14.526 12.414C14.604 12.54 14.922 13.08 15.024 13.314C15.084 13.452 15.138 13.482 15.3 13.44C15.462 13.398 15.852 13.266 15.966 13.212C16.08 13.158 16.026 13.062 15.99 12.948C15.936 12.774 15.738 11.808 15.738 11.682C15.738 11.556 15.774 11.388 15.606 11.574C15.546 11.64 15.468 11.574 15.486 11.478C15.504 11.382 15.708 10.074 15.72 9.924C15.606 9.678 15.27 8.898 15.186 8.748C15.09 8.61 15.06 8.598 14.916 8.676C14.772 8.754 14.466 8.862 14.346 8.598C14.334 8.574 14.322 8.526 14.328 8.49C14.364 8.508 14.388 8.544 14.43 8.592C14.502 8.682 14.7 8.628 14.82 8.568C14.94 8.508 15.096 8.49 15.216 8.634C15.336 8.784 15.516 9.054 15.606 9.306C15.696 9.558 15.786 9.762 15.816 9.804C15.84 9.846 15.72 10.584 15.69 10.872C15.654 11.166 15.63 11.292 15.624 11.34C15.618 11.388 15.81 11.172 15.816 11.43C15.822 11.634 15.918 12.282 16.026 12.762C16.05 12.882 16.086 12.996 16.116 13.086C16.194 13.098 16.266 13.26 16.308 13.506C16.356 13.752 16.458 13.908 16.458 14.028C16.464 14.148 16.5 14.166 16.536 14.19C16.578 14.208 16.56 14.268 16.44 14.412C16.464 14.43 16.506 14.472 16.536 14.502C16.572 14.466 16.662 14.364 16.662 14.364C16.662 14.364 17.028 14.514 17.112 14.538C17.19 14.562 17.286 14.37 17.52 14.472C17.586 14.496 17.658 14.592 17.712 14.682C18.078 13.884 18.294 12.984 18.294 12.048C18.276 10.38 17.622 8.802 16.446 7.626Z" fill="white"/>
<path id="Vector_46" d="M15.84 16.818C15.744 16.77 15.684 16.836 15.636 16.47C15.624 16.362 15.534 16.224 15.468 16.152C15.402 16.086 15.396 15.96 15.426 15.852C15.48 15.684 15.492 15.528 15.486 15.402C15.48 15.27 15.504 15.102 15.696 15.018C15.63 14.946 15.594 14.85 15.576 14.784C15.3 14.688 15.246 14.682 15.192 14.55C15.096 14.328 15.042 14.004 15.012 13.824C15 13.734 14.994 13.656 14.994 13.584C14.904 13.416 14.712 13.05 14.556 12.774C14.496 12.666 14.448 12.582 14.418 12.522C14.286 12.288 14.418 11.988 14.484 11.802C14.55 11.622 14.604 11.46 14.544 11.28C14.484 11.1 14.484 11.058 14.472 10.986C14.46 10.914 14.4 10.818 14.322 11.076C14.244 11.328 14.088 11.7 13.998 12.09C13.944 12.312 13.92 12.546 13.932 12.78C13.944 12.954 13.98 13.128 14.052 13.284C14.226 13.644 14.436 13.98 14.406 14.178C14.382 14.382 14.34 14.388 14.334 14.418C14.298 14.808 14.13 15.552 14.046 15.768C13.956 15.984 13.614 16.752 13.548 17.082C13.488 17.328 13.338 17.874 13.206 18.186C14.208 17.994 15.126 17.568 15.894 16.956C15.906 16.902 15.9 16.848 15.84 16.818Z" fill="white"/>
<path id="Vector_47" d="M8.418 8.046C8.49 8.148 8.586 8.232 8.712 8.292C9.036 8.46 9.108 8.574 9.108 8.868C9.108 9.156 9.162 9.744 9.258 9.84C9.318 9.78 9.384 9.69 9.396 9.666C9.492 9.84 9.678 10.164 9.978 10.362C9.984 10.362 9.984 10.368 9.984 10.374C9.984 10.38 9.978 10.38 9.978 10.386C9.954 10.44 9.9 10.422 9.864 10.41C9.792 10.392 9.54 10.122 9.456 9.972C9.372 9.822 9.354 9.84 9.324 9.948C9.288 10.056 9.162 10.29 9.078 10.398C8.988 10.512 8.76 10.806 8.7 10.872C8.64 10.938 8.7 10.968 8.754 11.022C8.808 11.076 9.078 11.412 9.144 11.478C9.204 11.55 9.27 11.688 9.432 11.538C9.594 11.388 9.786 11.13 9.876 10.848C9.954 10.602 9.972 10.458 10.026 10.446C10.032 10.452 10.038 10.452 10.044 10.458C10.146 10.482 10.794 10.584 10.806 10.722C10.938 10.59 11.154 10.254 11.196 10.14C11.238 10.026 11.472 9.666 11.646 9.468C11.646 9.39 11.646 9.342 11.652 9.318C11.604 9.36 11.532 9.456 11.424 9.504C11.316 9.552 10.944 9.714 10.674 9.846C10.578 9.894 10.41 9.948 10.35 9.456C10.284 8.964 10.35 8.712 10.398 8.604C10.446 8.49 10.53 8.388 10.698 8.436C10.866 8.484 11.136 8.586 11.208 8.586C11.22 8.532 11.268 8.436 11.088 8.412C10.962 8.4 10.626 8.304 10.428 8.046C10.356 7.938 10.302 7.812 10.296 7.644C9.912 7.704 9.036 7.818 8.85 7.866C8.658 7.914 8.49 7.956 8.43 7.512C8.406 7.326 8.358 7.062 8.49 7.158C8.598 7.08 8.742 6.984 9.006 7.026C9.054 7.032 9.114 7.074 9.132 7.116C9.144 7.182 9.12 7.284 9.084 7.392C9.024 7.572 8.916 7.698 9.276 7.62C9.66 7.53 10.14 7.458 10.266 7.434C10.284 7.308 10.386 7.104 10.512 6.96C10.638 6.81 10.662 6.69 10.668 6.642C10.674 6.594 10.632 6.582 10.566 6.642C10.494 6.708 10.272 6.846 10.068 6.792C9.99 6.774 9.888 6.618 9.834 6.528C9.882 6.432 9.99 6.282 10.122 6.12C9.414 6.348 8.748 6.702 8.148 7.17C8.142 7.242 8.154 7.41 8.202 7.608C8.232 7.722 8.292 7.896 8.418 8.046Z" fill="white"/>
<path id="Vector_48" d="M8.87999 17.178C9.15599 17.07 9.37199 17.07 9.58199 17.358C9.64199 17.436 9.68999 17.676 10.206 17.466C9.92999 17.142 9.76199 16.758 9.62399 16.23C9.38999 15.408 8.84999 14.472 9.04799 14.046C8.93399 13.938 8.80199 13.524 8.65799 13.572C8.56199 13.596 8.42999 13.608 8.53799 13.29C8.58599 13.152 8.66399 12.972 8.81999 12.774C9.00599 12.528 9.28799 12.222 9.75599 11.862C9.79799 11.826 9.80399 11.802 9.77399 11.772C9.72599 11.724 9.67799 11.67 9.63599 11.646C9.58799 11.622 9.53999 11.634 9.50399 11.67C9.46199 11.712 9.39599 11.76 9.35399 11.784C9.31199 11.808 8.99399 11.496 8.82599 11.268C8.65799 11.04 8.48399 10.968 8.42999 10.944C8.49599 10.872 8.65199 10.71 8.59199 10.728C8.48999 10.764 8.30999 10.788 8.14199 10.596C7.91999 10.362 8.00999 10.242 7.96199 10.206C7.91399 10.17 7.67399 10.224 7.49399 9.942C7.31399 9.66 7.24199 9.54 7.38599 9.336C7.45799 9.234 7.48799 9.186 7.46399 9.06C7.44599 8.934 7.46399 8.85 7.63199 8.694C7.79999 8.532 7.90199 8.388 7.97399 8.4C8.03399 8.412 7.86599 8.196 7.75799 8.04C7.73399 7.998 7.70999 7.962 7.69199 7.932C7.66799 7.866 7.62599 7.758 7.61999 7.638C6.44399 8.82 5.79599 10.38 5.79599 12.042C5.79599 13.704 6.44399 15.282 7.62599 16.458C7.90799 16.74 8.20199 16.98 8.51399 17.202C8.64599 17.052 8.80199 17.112 8.87999 17.178Z" fill="white"/>
<path id="Vector_49" d="M15.588 14.598C15.804 14.592 16.164 14.496 16.428 14.256C16.356 14.166 16.224 13.752 16.194 13.578C16.146 13.392 16.146 13.194 15.954 13.302C15.834 13.368 15.408 13.554 15.234 13.584C15.054 13.608 15.102 13.656 15.132 13.794C15.162 13.932 15.264 14.328 15.318 14.466C15.372 14.604 15.444 14.604 15.588 14.598Z" fill="white"/>
<path id="Vector_50" d="M12.666 9.75C12.576 9.69 12.258 9.486 12.21 9.456C12.156 9.414 12.138 9.414 12.114 9.45C12.102 9.474 12.054 9.558 11.946 9.558C11.838 9.558 11.754 9.522 11.682 9.618C11.616 9.714 11.244 10.152 11.166 10.434C11.244 10.602 11.352 10.902 11.436 11.112C11.7 10.89 12.528 10.08 12.684 9.924C12.75 9.864 12.756 9.81 12.666 9.75Z" fill="white"/>
<path id="Vector_51" d="M10.656 10.734C10.596 10.746 10.35 10.644 10.11 10.602C10.038 10.596 10.02 10.596 10.008 10.62C9.95399 10.83 9.85799 11.19 9.68399 11.466C9.74999 11.574 9.80399 11.67 9.88799 11.7C10.074 11.568 10.422 11.238 10.53 11.118C10.632 10.998 10.758 10.818 10.758 10.776C10.764 10.734 10.716 10.722 10.656 10.734Z" fill="white"/>
<path id="Vector_52" d="M14.154 4.248C14.076 4.158 14.028 4.182 13.95 4.266C13.77 4.482 13.416 4.668 12.804 4.824C12.192 4.98 11.616 5.406 11.364 5.616C11.118 5.826 10.494 6.336 10.188 6.456C10.11 6.492 9.942 6.606 10.152 6.63C10.314 6.648 10.428 6.558 10.776 6.306C11.124 6.054 11.394 5.868 11.664 5.61C11.91 5.37 12.36 5.142 12.846 5.004C13.332 4.866 13.962 4.662 14.142 4.47C14.232 4.374 14.238 4.326 14.154 4.248Z" fill="white"/>
<path id="Vector_53" d="M11.07 6.552C11.106 6.534 11.064 6.39 10.95 6.414C10.914 6.426 10.956 6.336 10.89 6.372C10.836 6.396 10.818 6.432 10.758 6.624C10.698 6.816 10.704 6.93 10.752 6.978C10.788 7.014 10.842 7.014 10.866 7.014C10.884 7.014 10.908 7.02 10.902 6.96C10.89 6.906 10.89 6.66 11.07 6.552Z" fill="white"/>
<path id="Vector_54" d="M8.97 7.248C8.97 7.14 8.916 7.14 8.82 7.14C8.706 7.14 8.586 7.182 8.496 7.218C8.508 7.26 8.502 7.428 8.52 7.536C8.586 7.878 8.706 7.83 8.79 7.818C8.868 7.806 9.018 7.746 8.958 7.746C8.898 7.746 8.898 7.704 8.904 7.608C8.916 7.5 8.964 7.35 8.97 7.248Z" fill="white"/>
<path id="Vector_55" d="M10.998 18.54C11.112 18.408 11.106 18.078 11.046 17.82C10.992 17.568 10.596 17.466 10.242 17.61C9.888 17.76 9.678 17.7 9.594 17.646C9.594 17.646 9.546 17.61 9.516 17.592C9.48 17.574 9.48 17.652 9.444 17.73C9.408 17.808 9.396 18.03 9.456 18.162C9.612 18.162 9.822 18.228 9.954 18.288C10.08 18.342 10.53 18.552 10.728 18.612C10.818 18.648 10.902 18.66 10.998 18.54Z" fill="white"/>
<path id="Vector_56" d="M11.79 20.046C11.778 19.998 11.754 19.716 11.754 19.638C11.754 19.56 11.772 19.356 11.778 19.29C11.784 19.224 11.802 19.164 11.688 19.17C11.58 19.182 11.322 19.152 11.28 19.02C11.226 18.858 11.07 18.828 10.986 18.828C10.83 18.828 10.986 18.996 11.034 19.122C11.088 19.254 11.28 20.01 11.196 20.016C11.106 20.022 11.196 20.094 11.268 20.148C11.406 20.25 11.628 20.184 11.688 20.154C11.754 20.13 11.802 20.1 11.79 20.046Z" fill="white"/>
<path id="Vector_57" d="M8.76601 17.478C8.80801 17.43 8.80201 17.388 8.77201 17.346C8.74801 17.298 8.72401 17.268 8.69401 17.25C8.61601 17.226 8.54401 17.262 8.47801 17.418C8.41201 17.556 8.40001 18.024 8.41801 18.168C8.47201 18.156 8.57401 18.174 8.62201 18.186C8.60401 17.928 8.68801 17.562 8.76601 17.478Z" fill="white"/>
<path id="Vector_58" d="M10.014 22.02C9.80398 22.038 9.65398 22.008 9.41998 21.906C9.19198 21.804 8.87398 21.516 8.71198 21.33C8.65798 21.27 8.60998 21.342 8.65798 21.408C8.86198 21.696 9.17398 21.9 9.37798 22.002C9.58198 22.11 9.88798 22.11 10.02 22.092C10.146 22.074 10.182 22.002 10.014 22.02Z" fill="white"/>
<path id="Vector_59" d="M12.186 20.862C12.054 20.928 11.796 21.048 11.562 21.108C11.586 21.228 11.598 21.282 11.598 21.318C11.748 21.318 12.03 21.21 12.264 21.072C12.318 21.036 12.336 21 12.318 20.952C12.288 20.91 12.264 20.826 12.186 20.862Z" fill="white"/>
<path id="Vector_60" d="M10.794 20.238C10.752 20.238 10.566 20.28 10.602 20.31C10.62 20.328 10.704 20.418 10.752 20.472C10.806 20.472 10.926 20.436 10.944 20.424C10.968 20.412 10.98 20.4 10.956 20.376C10.932 20.346 10.842 20.262 10.794 20.238Z" fill="white"/>
<path id="Vector_61" d="M12.234 16.326C12.174 16.332 11.736 16.332 11.43 16.29C10.884 16.224 10.344 15.912 10.17 15.708C10.146 15.672 9.98398 15.69 10.116 15.798C10.248 15.906 10.59 16.218 11.088 16.314C11.202 16.332 11.382 16.368 11.412 16.782C11.436 17.19 11.4 17.46 11.4 17.502C11.4 17.544 11.376 17.556 11.34 17.508C11.304 17.46 11.19 17.304 11.13 17.274C11.07 17.244 11.028 17.25 10.98 17.286C10.926 17.328 10.848 17.406 10.812 17.448L10.962 17.538C10.908 17.496 10.914 17.478 10.944 17.436C10.968 17.394 10.998 17.37 11.022 17.358C11.046 17.346 11.088 17.34 11.136 17.406C11.184 17.472 11.436 17.898 11.49 18.012C11.544 18.126 11.61 18.054 11.586 17.988C11.562 17.922 11.508 17.808 11.484 17.772C11.556 17.544 11.634 17.196 11.634 16.974C11.634 16.752 11.58 16.524 11.538 16.44C11.718 16.446 12.114 16.44 12.27 16.392C12.42 16.332 12.294 16.32 12.234 16.326Z" fill="white"/>
<path id="Vector_62" d="M9.006 19.26C8.988 19.308 8.916 19.494 8.898 19.626C8.88 19.764 8.844 19.974 8.898 20.274C8.952 20.574 8.976 20.67 8.994 20.724L9.156 20.67C9.066 20.616 8.97 20.37 8.946 19.872C8.94 19.704 9.006 19.422 9.06 19.29C9.114 19.158 9.024 19.212 9.006 19.26Z" fill="white"/>
<path id="Vector_63" d="M17.994 8.652L18.246 8.466L17.85 7.86L18.054 7.716L18.498 8.37L18.756 8.184L18.294 7.542L18.498 7.398L18.978 8.076L19.242 7.896L18.522 6.882L17.34 7.728L17.994 8.652Z" fill="white"/>
<path id="Vector_64" d="M18.702 10.14L19.092 9.96L18.822 9.378L19.728 9L19.566 8.64L18.288 9.198L18.702 10.14Z" fill="white"/>
<path id="Vector_65" d="M18.936 10.752L18.978 11.106L19.836 11.01L19.872 11.382L20.256 11.352L20.148 10.104L19.758 10.134L19.794 10.65L18.936 10.752Z" fill="white"/>
<path id="Vector_66" d="M18.978 11.976V12.396L20.244 12.39L20.238 11.97L18.978 11.976Z" fill="white"/>
<path id="Vector_67" d="M19.578 13.002C19.362 12.96 19.116 12.996 18.942 13.128C18.786 13.248 18.708 13.362 18.666 13.584C18.642 13.722 18.66 13.908 18.708 14.064L19.044 13.956C19.008 13.884 18.996 13.764 19.032 13.638C19.098 13.41 19.284 13.308 19.512 13.344C19.746 13.38 19.89 13.596 19.848 13.86C19.83 13.968 19.782 14.052 19.662 14.13L19.872 14.376C20.04 14.268 20.166 14.07 20.196 13.926C20.244 13.692 20.184 13.518 20.076 13.32C19.95 13.134 19.764 13.032 19.578 13.002Z" fill="white"/>
<path id="Vector_68" d="M19.338 14.766C19.164 14.718 18.924 14.916 18.804 15.03C18.738 15.096 18.504 15.33 18.396 15.294C18.294 15.258 18.33 15.114 18.36 15.012C18.408 14.874 18.48 14.748 18.594 14.676L18.384 14.58C18.282 14.67 18.168 14.802 18.12 14.94C18.066 15.096 18.048 15.288 18.066 15.402C18.09 15.552 18.144 15.648 18.318 15.636C18.45 15.624 18.786 15.402 18.984 15.228C19.086 15.132 19.164 15.12 19.212 15.156C19.278 15.198 19.278 15.312 19.254 15.39C19.218 15.492 19.176 15.642 19.092 15.708L19.374 15.9C19.488 15.786 19.554 15.606 19.584 15.444C19.668 15.036 19.452 14.79 19.338 14.766Z" fill="white"/>
<path id="Vector_69" d="M16.548 7.098C16.662 7.176 16.836 7.23 16.998 7.26L17.034 6.912C16.956 6.912 16.842 6.87 16.746 6.798C16.566 6.642 16.554 6.396 16.674 6.234C16.824 6.042 17.07 6 17.292 6.138C17.382 6.198 17.412 6.288 17.43 6.426L17.754 6.372C17.736 6.18 17.622 5.952 17.514 5.856C17.346 5.706 17.148 5.67 16.932 5.7C16.716 5.724 16.518 5.868 16.398 6.03C16.278 6.204 16.206 6.444 16.248 6.66C16.29 6.858 16.362 6.972 16.548 7.098Z" fill="white"/>
<path id="Vector_70" d="M4.81798 13.656C4.82998 13.56 4.82398 13.38 4.92598 13.368C5.02798 13.35 5.09398 13.44 5.11198 13.542C5.13598 13.692 5.17798 13.794 5.12398 13.926L5.39398 13.902C5.44198 13.776 5.41798 13.614 5.39398 13.464C5.35798 13.302 5.30398 13.182 5.18398 13.074C5.06998 12.966 4.97998 12.942 4.80598 12.978C4.69798 12.996 4.51798 13.188 4.51198 13.56C4.51198 13.626 4.49398 13.77 4.43398 13.77C4.35598 13.776 4.29598 13.674 4.27798 13.602C4.25998 13.494 4.28398 13.272 4.32598 13.182H4.04398C4.00198 13.344 3.98398 13.566 4.02598 13.734C4.09798 14.1 4.31998 14.214 4.49998 14.196C4.69198 14.166 4.78798 13.968 4.81798 13.656Z" fill="white"/>
<path id="Vector_71" d="M4.25999 12.126L5.24999 12.114V11.802L4.25999 11.814L4.24799 11.388L3.92999 11.4L3.94199 12.582L4.26599 12.576L4.25999 12.126Z" fill="white"/>
<path id="Vector_72" d="M6.05999 8.988L5.29199 8.556L5.29799 8.544L6.31199 8.526L6.55199 8.16L5.29799 7.434L5.10599 7.722L5.96999 8.256L4.79399 8.292L4.63199 8.604L5.86799 9.324L6.05999 8.988Z" fill="white"/>
<path id="Vector_73" d="M4.81199 10.902C5.24399 10.902 5.58599 10.554 5.58599 10.128C5.58599 9.696 5.23799 9.354 4.81199 9.354C4.37999 9.354 4.03799 9.702 4.03799 10.128C4.04399 10.554 4.38599 10.902 4.81199 10.902ZM4.81199 9.72C5.03399 9.72 5.21399 9.9 5.21399 10.122C5.21399 10.344 5.03399 10.524 4.81199 10.524C4.58999 10.524 4.40999 10.344 4.40999 10.122C4.40999 9.9 4.58999 9.72 4.81199 9.72Z" fill="white"/>
<path id="Vector_74" d="M6.08398 15.216C6.08398 14.784 5.73598 14.442 5.30998 14.442C4.87798 14.442 4.53598 14.79 4.53598 15.216C4.53598 15.648 4.88398 15.99 5.30998 15.99C5.73598 15.99 6.08398 15.636 6.08398 15.216ZM5.30998 15.612C5.08798 15.612 4.90798 15.432 4.90798 15.21C4.90798 14.988 5.08798 14.808 5.30998 14.808C5.53198 14.808 5.71198 14.988 5.71198 15.21C5.71198 15.432 5.53198 15.612 5.30998 15.612Z" fill="white"/>
<path id="Vector_75" d="M6.23998 16.092C6.12598 16.2 6.06598 16.446 6.17398 16.614C6.05398 16.554 5.80798 16.536 5.69398 16.632C5.41198 16.872 5.75398 17.22 6.02998 17.496L6.41998 17.88L7.43998 17.04L7.02598 16.56C6.88798 16.368 6.47998 15.876 6.23998 16.092ZM6.28198 17.442C6.17398 17.322 5.87398 17.082 5.99998 16.962C6.11998 16.848 6.43198 17.214 6.46198 17.262L6.28198 17.442ZM6.75598 17.01L6.73198 16.974C6.64198 16.866 6.36598 16.566 6.47998 16.458C6.58798 16.35 6.86398 16.698 6.93598 16.794L6.97198 16.836L6.75598 17.01Z" fill="white"/>
<path id="Vector_76" d="M9.67198 18.726C9.56398 18.726 9.46198 18.678 9.40798 18.714C9.35998 18.738 9.40198 18.822 9.46798 18.84C9.52198 18.858 9.82198 18.84 9.87598 18.84L9.97198 18.852C9.97198 18.726 9.92998 18.732 9.90598 18.714C9.88198 18.702 9.77398 18.726 9.67198 18.726Z" fill="white"/>
</g>
</g>
</g>
</svg>
