<svg width="24" height="24" viewBox="0 0 24 24" fill="none" xmlns="http://www.w3.org/2000/svg">
<g id="Team=CHO">
<g id="Layer_2_1_">
<path id="Vector" d="M6.70798 11.55H5.22598V13.152L4.33798 13.59L5.22598 14.052V15.48L6.20998 16.086C6.56998 16.038 7.03198 15.978 7.57198 15.924L11.37 18.114L12.06 21.3C12.066 21.294 12.756 18.114 12.756 18.114L16.548 15.924C17.082 15.978 17.544 16.032 17.91 16.086L18.888 15.48V14.052L19.776 13.596L18.888 13.146V11.544H17.412C17.412 11.544 17.64 11.322 17.934 10.824C18.054 10.614 18.174 10.356 18.312 10.05C19.392 9.726 20.19 9.03 20.526 8.364C21.45 6.672 22.146 4.608 22.146 4.608C22.146 4.608 21.75 4.8 21.264 5.04C21.654 3.852 21.888 2.838 21.888 2.838C21.888 2.838 17.628 5.652 14.316 8.304L14.028 8.13C14.028 8.1 14.04 7.86 14.04 7.842C14.04 7.842 14.076 7.56 13.578 7.392C13.542 7.38 13.518 7.368 13.488 7.362C13.728 7.182 14.1 6.906 14.376 6.72C14.808 6.42 14.76 6.096 14.76 6.096L13.188 7.266C11.97 6.876 10.956 7.266 10.956 7.266L9.38398 6.096C9.38398 6.096 9.33598 6.42 9.76798 6.72C10.038 6.906 10.416 7.182 10.656 7.362C10.626 7.374 10.602 7.386 10.566 7.392C10.068 7.56 10.104 7.842 10.104 7.842C10.104 7.866 10.11 8.1 10.116 8.13L9.82798 8.304C6.49198 5.664 2.23798 2.844 2.23798 2.844C2.23798 2.844 2.47198 3.846 2.86198 5.04C2.34598 4.788 1.97998 4.608 1.97998 4.608C1.97998 4.608 2.67598 6.678 3.59998 8.364C3.94198 9.036 4.73398 9.726 5.81398 10.05C5.81398 10.05 5.99398 10.464 6.14998 10.77C6.34198 11.142 6.70798 11.55 6.70798 11.55Z" fill="#1D1160"/>
<path id="Vector_2" d="M13.848 9.144C13.83 9.186 13.812 9.24 13.806 9.282C15.294 8.31 17.898 6.612 20.82 4.71C20.82 4.71 20.826 4.77 21.078 4.026C17.988 5.886 15.264 7.998 13.848 9.144Z" fill="#00788C"/>
<path id="Vector_3" d="M10.272 9.144C8.85599 7.998 6.12599 5.886 3.04199 4.026C3.29999 4.782 3.29999 4.716 3.29999 4.716C6.22199 6.612 8.81999 8.31 10.314 9.288C10.308 9.24 10.29 9.192 10.272 9.144Z" fill="#00788C"/>
<path id="Vector_4" d="M12.06 10.65C11.808 10.548 11.166 10.23 10.776 9.39599C11.094 9.66599 11.496 9.75599 11.82 9.43799C11.43 9.26399 11.376 8.56199 11.298 8.38199C11.142 8.00399 10.902 7.81799 10.704 7.73999C10.8 7.70399 10.884 7.67999 10.974 7.64999C11.154 7.75199 11.466 7.97999 11.568 8.44199C11.568 8.44199 11.604 7.91399 11.346 7.55399C11.85 7.43399 12.36 7.44599 12.774 7.55399C12.516 7.91999 12.552 8.44199 12.552 8.44199C12.654 7.97999 12.954 7.75199 13.146 7.64999C13.23 7.67999 13.32 7.70399 13.416 7.73999C13.224 7.81799 12.978 8.00999 12.822 8.38199C12.744 8.56199 12.696 9.26999 12.3 9.43799C12.39 9.97799 12.282 10.476 12.06 10.65ZM7.56598 11.634C7.56598 11.634 6.83398 11.106 6.41998 10.152L6.71398 10.242C7.66798 10.494 9.49198 10.746 9.49198 10.746C8.60998 10.77 7.87198 10.836 7.44598 10.878C7.35598 10.77 7.25998 10.632 7.21798 10.524C7.21798 10.524 7.25398 10.854 7.32598 11.064C7.42198 11.382 7.56598 11.634 7.56598 11.634Z" fill="#00788C"/>
<path id="Vector_5" d="M16.788 11.07C16.866 10.86 16.896 10.53 16.896 10.53C16.86 10.638 16.758 10.776 16.668 10.884C16.242 10.836 15.498 10.77 14.622 10.746C14.622 10.746 16.446 10.5 17.4 10.242L17.694 10.152C17.28 11.112 16.548 11.628 16.548 11.634C16.554 11.634 16.698 11.382 16.788 11.07Z" fill="#00788C"/>
<path id="Vector_6" d="M9.78598 16.164L7.92598 15.09C7.79398 15.102 7.66198 15.12 7.53598 15.126L10.116 16.614C9.98998 16.482 9.88198 16.326 9.78598 16.164Z" fill="#00788C"/>
<path id="Vector_7" d="M14.334 16.164L16.194 15.09C16.326 15.102 16.458 15.12 16.584 15.126L14.004 16.614C14.13 16.482 14.238 16.326 14.334 16.164Z" fill="#00788C"/>
<path id="Vector_8" d="M11.238 16.416C10.422 16.236 10.074 15.834 10.074 15.834C10.242 16.176 10.494 16.47 10.812 16.686C10.806 16.68 11.154 16.584 11.238 16.416Z" fill="#00788C"/>
<path id="Vector_9" d="M10.734 15.534C10.68 15.48 10.62 15.42 10.554 15.354C10.296 15.444 10.146 15.546 10.068 15.612C10.248 15.786 10.596 16.014 11.22 16.146C11.142 15.948 10.95 15.75 10.734 15.534Z" fill="#00788C"/>
<path id="Vector_10" d="M12.042 17.472C11.772 17.478 11.58 17.58 11.508 17.604C11.442 17.478 11.358 17.346 11.286 17.226C11.52 17.256 11.724 17.208 11.724 17.208C11.622 17.172 11.376 17.094 11.046 16.872C11.076 16.86 11.1 16.842 11.136 16.836C11.226 16.794 11.316 16.734 11.382 16.662C11.466 16.578 11.52 16.47 11.52 16.344C11.52 15.936 11.244 15.798 10.938 15.492C10.878 15.432 10.812 15.372 10.746 15.306C11.028 15.228 11.418 15.174 11.928 15.162L12.048 16.896H12.066L12.192 15.162C12.714 15.174 13.092 15.228 13.374 15.306C13.308 15.372 13.242 15.432 13.182 15.492C12.87 15.798 12.6 15.936 12.6 16.344C12.6 16.476 12.654 16.584 12.738 16.662C12.81 16.734 12.894 16.788 12.984 16.836C13.014 16.854 13.044 16.866 13.074 16.872C12.744 17.094 12.486 17.178 12.396 17.208C12.396 17.208 12.6 17.25 12.834 17.226C12.756 17.34 12.678 17.472 12.612 17.604C12.546 17.58 12.354 17.478 12.078 17.472H12.042Z" fill="#00788C"/>
<path id="Vector_11" d="M13.308 16.68C13.62 16.464 13.872 16.17 14.046 15.828C14.046 15.828 13.71 16.23 12.882 16.41C12.966 16.584 13.308 16.68 13.308 16.68Z" fill="#00788C"/>
<path id="Vector_12" d="M12.9 16.158C13.518 16.032 13.866 15.798 14.052 15.624C13.974 15.552 13.824 15.45 13.566 15.366C13.512 15.426 13.452 15.486 13.386 15.546C13.17 15.75 12.978 15.948 12.9 16.158Z" fill="#00788C"/>
<path id="Vector_13" d="M11.502 9.486C11.502 9.486 11.202 9.288 11.154 8.868C11.154 8.868 10.764 9.522 11.502 9.486Z" fill="white"/>
<path id="Vector_14" d="M12.636 9.486C12.636 9.486 12.936 9.288 12.984 8.868C12.99 8.868 13.374 9.522 12.636 9.486Z" fill="white"/>
<path id="Vector_15" d="M12.414 18.108C12.36 18.054 12.282 17.988 12.042 17.988C11.814 17.988 11.736 18.042 11.67 18.096L12.06 19.62L12.414 18.108Z" fill="white"/>
<path id="Vector_16" d="M14.976 11.388V11.946H14.79V11.388H14.634V11.226H15.132V11.388H14.976Z" fill="white"/>
<path id="Vector_17" d="M14.094 11.388V11.946H13.908V11.388H13.752V11.226H14.256V11.388H14.094Z" fill="white"/>
<path id="Vector_18" d="M11.454 11.688H11.52V11.298L11.442 11.22H10.968V11.94H11.148V11.688H11.28L11.388 11.94H11.568L11.454 11.688ZM11.34 11.532H11.142V11.388H11.34V11.532Z" fill="white"/>
<path id="Vector_19" d="M16.062 11.388V11.226H15.528V11.946H16.062V11.784H15.714V11.67H16.062V11.508H15.714V11.388H16.062Z" fill="white"/>
<path id="Vector_20" d="M12.162 11.784V11.226H11.97V11.946H12.426V11.784H12.162Z" fill="white"/>
<path id="Vector_21" d="M13.248 11.226H12.774V11.868L12.858 11.952H13.332V11.31L13.248 11.226ZM13.158 11.784H12.954V11.388H13.158V11.784Z" fill="white"/>
<path id="Vector_22" d="M10.536 11.946V11.304L10.458 11.22H9.97198V11.94H10.152V11.706H10.356V11.94L10.536 11.946ZM10.152 11.388H10.356V11.556H10.152V11.388Z" fill="white"/>
<path id="Vector_23" d="M9.39599 11.226V11.55H9.19199V11.226H9.01199V11.946H9.19199V11.712H9.39599V11.946H9.57599V11.226H9.39599Z" fill="white"/>
<path id="Vector_24" d="M20.196 6.11999C20.544 5.29799 20.808 4.71599 20.808 4.71599C17.886 6.61199 15.288 8.30999 13.794 9.28799C13.74 9.44999 13.674 9.59399 13.602 9.72599L19.482 6.52199L14.892 9.83399L15.102 9.79799L17.526 9.56399C17.526 9.56399 19.164 9.40199 20.076 8.17799C20.508 7.51799 21.24 5.59199 21.24 5.59199L20.196 6.11999Z" fill="white"/>
<path id="Vector_25" d="M6.14999 13.788L6.71399 13.542V14.826C6.87599 14.802 7.03799 14.784 7.21199 14.766V11.952H6.71399C6.71399 11.946 6.71399 12.966 6.71399 12.966L6.14999 13.206V11.958H5.65199V13.416L5.24399 13.614L5.65199 13.818V15C5.81399 14.97 5.98199 14.946 6.14999 14.916V13.788Z" fill="white"/>
<path id="Vector_26" d="M10.032 13.782C10.152 13.776 10.278 13.776 10.404 13.77C10.5 14.01 10.59 14.28 10.68 14.514C10.848 14.508 11.01 14.502 11.178 14.502C11.082 14.262 10.998 13.992 10.902 13.758C10.962 13.758 11.028 13.758 11.088 13.752V12.6L10.866 12.384H9.34198L9.52798 12.612V14.568C9.69598 14.556 9.85798 14.55 10.026 14.538L10.032 13.782ZM10.032 12.84H10.596C10.596 12.978 10.596 13.158 10.596 13.284C10.41 13.284 10.218 13.29 10.032 13.296V12.84Z" fill="white"/>
<path id="Vector_27" d="M11.97 12.84H12.54V14.496C12.714 14.496 12.888 14.502 13.062 14.502V12.612L12.834 12.384H11.274L11.46 12.612V14.502C11.634 14.502 11.796 14.496 11.97 14.496V12.84Z" fill="white"/>
<path id="Vector_28" d="M14.928 14.1C14.61 14.082 14.286 14.064 13.968 14.058C13.968 13.944 13.968 13.818 13.968 13.704C14.286 13.716 14.61 13.728 14.928 13.74V13.242C14.61 13.23 14.286 13.224 13.968 13.218C13.968 13.122 13.968 12.96 13.968 12.84H14.928V12.378H13.254L13.44 12.6V14.508C13.95 14.526 14.448 14.544 14.928 14.574V14.1Z" fill="white"/>
<path id="Vector_29" d="M16.182 12.84H16.614V12.378H15.21V12.84H15.648V14.634C15.828 14.652 16.014 14.664 16.188 14.676L16.182 12.84Z" fill="white"/>
<path id="Vector_30" d="M9.16199 12.612L8.93399 12.384H7.40399L7.58399 12.6V14.46L7.78199 14.7C8.21999 14.658 8.68199 14.616 9.16199 14.592V12.612ZM8.66399 14.124C8.47199 14.136 8.27999 14.148 8.09399 14.16V12.84H8.66399V14.124Z" fill="white"/>
<path id="Vector_31" d="M18.414 13.806C18.57 13.74 18.726 13.668 18.876 13.596C18.378 13.362 17.88 13.158 17.388 12.966V12.402H17.916V12.606H18.42V11.952H16.704L16.89 12.174V13.338L17.916 13.782V14.436C17.916 14.436 17.676 14.406 17.388 14.37V14.16L16.89 14.1V14.766C17.43 14.826 17.946 14.904 18.414 14.988C18.414 14.622 18.414 14.064 18.414 13.806Z" fill="white"/>
<path id="Vector_32" d="M8.42398 11.724V11.784H8.26198V11.388H8.42398V11.448H8.60998V11.226H8.08798V11.868L8.17198 11.946H8.60998V11.724H8.42398Z" fill="white"/>
<path id="Vector_33" d="M3.924 6.11999C3.576 5.29799 3.312 4.71599 3.312 4.71599C6.234 6.61199 8.83201 8.30999 10.326 9.28799C10.38 9.44999 10.446 9.59399 10.518 9.72599L4.63801 6.51599L9.228 9.82799L9.018 9.79199L6.594 9.55799C6.594 9.55799 4.956 9.39599 4.044 8.17199C3.612 7.51199 2.88 5.58599 2.88 5.58599L3.924 6.11999Z" fill="white"/>
<path id="Vector_34" d="M22.026 5.54999C21.564 6.792 20.94 8.07599 20.634 8.60999C20.112 9.49799 19.074 10.032 18.468 10.23C18.468 10.23 18.174 10.944 17.862 11.334H19.104V13.026L20.286 13.59L19.104 14.19V15.606L17.958 16.308C17.958 16.308 17.046 16.2 16.596 16.146L12.96 18.246C12.228 21.54 12.06 22.494 12.06 22.494C12.06 22.494 11.886 21.594 11.16 18.246L7.52399 16.152C7.08 16.194 6.16199 16.314 6.16199 16.314L5.016 15.612V14.196L3.834 13.596L5.00999 13.032V11.34H6.25199C5.95199 10.962 5.646 10.236 5.646 10.236C5.27999 10.116 4.93199 9.94799 4.62 9.74999C4.128 9.43199 3.732 9.042 3.474 8.616C2.982 7.74 2.394 6.43199 2.082 5.55599C1.878 5.016 1.62 4.20599 1.62 4.20599C1.62 4.20599 2.292 4.52399 2.508 4.63199C2.184 3.66599 1.908 2.37 1.908 2.37C1.908 2.37 6.558 5.43 9.828 8.046L9.876 8.00999C9.876 7.956 9.876 7.90199 9.876 7.84199C9.876 7.80599 9.876 7.74 9.906 7.66199C9.942 7.55399 10.026 7.41599 10.218 7.30199C9.97799 7.12199 9.54599 6.82799 9.50999 6.786C9.192 6.50999 9.138 6.204 9.16799 6.048L9.22199 5.7L10.992 7.014C11.952 6.738 12.636 6.876 13.14 7.014L14.91 5.7L14.964 6.048C14.988 6.198 14.934 6.50999 14.622 6.786C14.586 6.82199 14.154 7.12199 13.914 7.30199C14.1 7.41599 14.184 7.54799 14.226 7.66199C14.256 7.74 14.256 7.80599 14.256 7.84199C14.256 7.89599 14.256 7.95 14.256 8.00999L14.304 8.046C17.64 5.37 22.218 2.37 22.218 2.37C22.218 2.37 21.99 3.43199 21.618 4.63199C21.798 4.54199 22.506 4.20599 22.506 4.20599C22.296 4.848 22.026 5.54999 22.026 5.54999ZM6.708 11.55H5.226V13.152L4.338 13.59L5.226 14.052V15.48L6.20999 16.086C6.56999 16.038 7.03199 15.978 7.57199 15.924L11.37 18.114L12.06 21.3C12.066 21.294 12.756 18.114 12.756 18.114L16.548 15.924C17.082 15.978 17.544 16.032 17.91 16.086L18.888 15.48V14.052L19.776 13.596L18.888 13.146V11.544H17.412C17.412 11.544 17.64 11.322 17.934 10.824C18.054 10.614 18.174 10.356 18.312 10.05C19.392 9.726 20.19 9.02999 20.526 8.36399C21.45 6.67199 22.146 4.608 22.146 4.608C22.146 4.608 21.75 4.79999 21.264 5.03999C21.654 3.852 21.888 2.838 21.888 2.838C21.888 2.838 17.628 5.65199 14.316 8.30399L14.028 8.12999C14.028 8.1 14.04 7.85999 14.04 7.84199C14.04 7.84199 14.076 7.55999 13.578 7.39199C13.542 7.37999 13.518 7.36799 13.488 7.36199C13.728 7.18199 14.1 6.90599 14.376 6.72C14.808 6.41999 14.76 6.09599 14.76 6.09599L13.188 7.266C11.97 6.876 10.956 7.266 10.956 7.266L9.38399 6.09599C9.38399 6.09599 9.336 6.41999 9.76799 6.72C10.038 6.90599 10.416 7.18199 10.656 7.36199C10.626 7.37399 10.602 7.38599 10.566 7.39199C10.068 7.55999 10.104 7.84199 10.104 7.84199C10.104 7.86599 10.11 8.1 10.116 8.12999L9.828 8.30399C6.492 5.66399 2.238 2.844 2.238 2.844C2.238 2.844 2.472 3.846 2.862 5.03999C2.346 4.788 1.98 4.608 1.98 4.608C1.98 4.608 2.676 6.67799 3.6 8.36399C3.942 9.03599 4.734 9.726 5.81399 10.05C5.81399 10.05 5.994 10.464 6.14999 10.77C6.342 11.142 6.708 11.55 6.708 11.55Z" fill="#A1A1A4"/>
</g>
</g>
</svg>
