<svg width="24" height="24" viewBox="0 0 24 24" fill="none" xmlns="http://www.w3.org/2000/svg">
<g id="Team=CHI">
<g id="Layer_2_1_">
<path id="Vector" d="M21.186 7.062C21.114 5.772 20.532 4.614 20.19 3.924L20.148 3.84L19.998 3.54L20.028 3.876C20.07 4.338 20.172 5.922 19.698 6.822C19.11 8.034 17.394 7.92 16.83 7.878L16.788 7.872C15.858 7.812 12.84 7.698 11.916 7.704C10.692 7.71 9.34202 7.806 8.25602 7.89C7.72802 7.932 7.26602 7.962 6.96002 7.974C6.93602 7.974 6.90002 7.98 6.84602 7.986C5.32802 8.124 4.36202 7.68 3.99002 6.654C3.76202 6.024 3.76802 4.782 3.76802 4.182V4.008V3.756L3.64802 3.978C3.36002 4.506 2.83202 5.49 2.65202 7.122C2.55602 9.048 3.55202 9.732 4.31402 10.086C5.10602 10.452 5.91602 10.506 6.18602 10.524H6.20402H6.19802C6.25802 10.536 6.31802 10.536 6.37802 10.542C6.46202 10.548 6.55202 10.554 6.63602 10.566C6.49202 10.59 6.30602 10.626 6.13802 10.656C5.96402 10.686 5.79602 10.716 5.70602 10.734C5.52602 10.77 4.76402 10.95 4.34402 11.094C3.99002 11.214 3.61802 11.388 3.61202 11.394L3.54602 11.424L3.59402 11.484C3.60002 11.49 3.72602 11.664 3.85802 11.796C4.12802 12.06 4.87802 12.534 5.78402 12.426C6.50402 12.336 6.89402 12.168 7.04402 12.09C7.09202 12.246 7.20602 12.606 7.31402 12.888C7.64402 13.698 8.38202 15.246 8.66402 15.78C8.89201 16.218 9.11402 16.602 9.25802 16.854L9.31202 16.95C9.26402 17.118 9.14402 17.22 9.06002 17.298C9.03602 17.316 9.01802 17.334 9.00002 17.358L8.98202 17.376V17.4C8.97602 17.55 8.94002 18.894 9.85202 19.878L9.86402 19.89L9.88202 19.896C10.338 20.07 10.932 20.25 11.886 20.25C12.864 20.25 13.68 20.016 13.974 19.872L13.986 19.866L13.998 19.854C14.634 19.104 14.928 17.964 14.934 17.556V17.52L14.916 17.502C14.898 17.484 14.886 17.472 14.862 17.454C14.766 17.358 14.64 17.244 14.574 16.962C14.652 16.83 14.802 16.512 14.928 16.248C14.994 16.104 15.06 15.978 15.09 15.918C15.36 15.396 16.146 13.704 16.458 12.906C16.656 12.402 16.764 12.15 16.818 12.042C16.956 12.114 17.328 12.282 18.03 12.354C18.942 12.45 19.812 11.832 20.052 11.502C20.094 11.442 20.16 11.37 20.16 11.37L20.22 11.31L20.142 11.274C20.136 11.274 20.106 11.256 19.968 11.214L19.464 11.04L18.96 10.866C18.828 10.818 18.21 10.686 17.754 10.584L17.412 10.512L17.52 10.494C18.576 10.296 21.342 9.81 21.186 7.062Z" fill="black"/>
<path id="Vector_2" d="M2.89803 6.51C3.04803 5.724 3.30003 4.992 3.64803 4.284L3.65403 4.272H3.66003H3.66603H3.68403V4.29C3.67203 4.5 3.66603 4.716 3.66603 4.938C3.66603 5.46 3.70203 5.988 3.81603 6.462L3.82803 6.51L3.79203 6.48C3.64203 6.348 3.49203 6.192 3.33603 6.054C3.19803 6.21 3.06603 6.378 2.92803 6.528L2.89203 6.564L2.89803 6.51Z" fill="#CD1F43"/>
<path id="Vector_3" d="M20.916 6.186C20.712 5.52 20.538 4.854 20.202 4.242L20.178 4.248C20.19 4.458 20.196 4.668 20.196 4.878C20.196 5.388 20.154 5.886 20.07 6.372L20.064 6.396L20.088 6.384C20.25 6.306 20.406 6.204 20.568 6.132L20.97 6.42L20.916 6.186Z" fill="#CD1F43"/>
<path id="Vector_4" d="M14.424 13.29L14.394 13.308C14.166 13.404 13.938 13.506 13.692 13.56C13.53 13.602 13.368 13.62 13.212 13.62C12.714 13.62 12.24 13.41 11.946 12.966L11.934 12.948L11.922 12.96C11.862 13.014 11.826 13.074 11.766 13.134C11.454 13.494 10.998 13.632 10.536 13.632C10.176 13.632 9.81003 13.548 9.50403 13.422L9.47403 13.404L9.48603 13.434C9.72003 14.058 9.86403 14.748 9.86403 15.438C9.86403 15.75 9.83403 16.062 9.76803 16.368C9.72603 16.578 9.65403 16.806 9.59403 17.016L9.58203 17.046L9.61203 17.028C10.272 16.674 11.082 16.5 11.892 16.5C12.654 16.5 13.416 16.662 14.052 16.98C14.154 17.022 14.256 17.094 14.346 17.124L14.37 17.136L14.358 17.112C14.172 16.566 14.064 15.984 14.064 15.372C14.064 15.36 14.064 15.354 14.064 15.348C14.064 15.306 14.064 15.27 14.064 15.234C14.064 14.568 14.202 13.914 14.4 13.326L14.424 13.29Z" fill="#CD1F43"/>
<path id="Vector_5" d="M7.94402 13.932C7.87202 13.842 7.81202 13.752 7.79402 13.638L7.78802 13.602L7.81802 13.62C7.93802 13.698 8.07002 13.728 8.20202 13.728C8.47802 13.728 8.76602 13.596 8.98802 13.44L9.00002 13.434L9.01202 13.446L9.01802 13.452L9.02402 13.458V13.464C8.99402 13.746 8.89202 14.07 8.59202 14.178C8.54402 14.19 8.50202 14.196 8.46002 14.196C8.25602 14.19 8.08802 14.076 7.94402 13.932Z" fill="#CD1F43"/>
<path id="Vector_6" d="M14.982 13.824C14.922 13.728 14.886 13.626 14.862 13.506L14.856 13.47L14.886 13.494C15.036 13.614 15.222 13.662 15.414 13.662C15.636 13.662 15.87 13.59 16.05 13.476L16.086 13.458L16.068 13.5C15.978 13.752 15.756 14.022 15.486 14.076C15.462 14.082 15.438 14.082 15.42 14.082C15.246 14.07 15.084 13.98 14.982 13.824Z" fill="#CD1F43"/>
<path id="Vector_7" d="M15.324 14.196C15.36 14.202 15.396 14.208 15.426 14.208C15.528 14.208 15.63 14.184 15.726 14.148L15.756 14.136L15.744 14.166C15.372 15.096 14.922 15.996 14.46 16.884L14.442 16.914L14.43 16.884C14.334 16.632 14.31 16.356 14.31 16.08C14.31 15.876 14.328 15.672 14.334 15.462C14.4 14.868 14.544 14.286 14.724 13.734L14.736 13.704L14.754 13.734C14.88 13.944 15.09 14.16 15.324 14.196Z" fill="#CD1F43"/>
<path id="Vector_8" d="M9.46202 16.89C8.90402 16.032 8.47802 15.132 8.06402 14.214L8.04602 14.172L8.08202 14.19C8.19002 14.25 8.34002 14.298 8.48402 14.298C8.58002 14.298 8.67002 14.28 8.74802 14.226C8.92802 14.1 9.03602 13.902 9.10802 13.704L9.12002 13.674L9.13802 13.704C9.44402 14.328 9.59402 15.084 9.59402 15.834C9.59402 16.188 9.56402 16.542 9.49802 16.878V16.884L9.49202 16.89L9.47402 16.908L9.46202 16.89Z" fill="#CD1F43"/>
<path id="Vector_9" d="M9.95402 19.752C9.37802 19.122 9.16802 18.318 9.13202 17.46V17.454L9.13802 17.448C9.88802 16.902 10.89 16.614 11.886 16.614C12.534 16.614 13.176 16.74 13.74 16.998C14.1 17.16 14.448 17.334 14.76 17.592L14.766 17.598V17.61C14.67 18.408 14.382 19.128 13.878 19.746V19.752H13.872C13.272 19.986 12.558 20.118 11.85 20.118C11.184 20.106 10.518 19.992 9.95402 19.752Z" fill="#CD1F43"/>
<path id="Vector_10" d="M19.992 11.334C19.992 11.334 19.638 11.202 19.548 11.16C18.582 10.794 17.334 10.572 16.278 10.548C16.176 9.372 16.038 8.634 15.81 7.968L15.804 7.956H15.792C15.246 7.926 12.828 7.824 11.892 7.824C10.956 7.824 8.58601 7.968 8.04001 7.998L8.03401 8.01C7.81801 8.646 7.56601 9.432 7.44601 10.602C6.37801 10.668 4.93801 10.974 3.97201 11.34C3.90601 11.364 3.85201 11.394 3.81601 11.406C3.79801 11.418 3.78601 11.424 3.77401 11.424C3.77401 11.424 3.76801 11.424 3.76801 11.43L3.73801 11.4L3.75001 11.454C3.75001 11.46 3.75001 11.46 3.75601 11.46C3.90601 11.628 4.45201 12.282 5.46601 12.306C5.48401 12.306 5.50201 12.306 5.52001 12.306C5.85001 12.306 6.41401 12.246 6.78601 12.078C6.88201 12.036 7.05601 11.964 7.10401 11.946C7.12201 11.982 7.17601 12.078 7.20001 12.156C7.30801 12.456 7.44001 12.894 7.53001 13.08C7.66801 13.362 7.89601 13.59 8.27401 13.596C8.28001 13.596 8.28601 13.596 8.29201 13.596C8.62801 13.596 8.85601 13.326 8.89801 13.266L8.91601 13.248H8.89201C7.95601 13.2 7.57201 12.702 7.51201 11.958V11.946H7.50001C7.39201 11.928 7.32001 11.91 7.27801 11.886C7.23601 11.862 7.21801 11.832 7.20001 11.778C7.19401 11.754 7.18801 11.724 7.18801 11.7C7.18801 11.604 7.22401 11.508 7.29001 11.394C7.36201 11.298 7.47001 11.202 7.68001 11.202C7.77001 11.202 7.87201 11.22 8.00401 11.262C8.29201 11.358 8.52601 11.544 8.68801 11.682C8.88001 11.856 9.44401 12.438 9.78601 12.648C9.99001 12.768 10.296 12.882 10.608 12.882C10.86 12.882 11.112 12.81 11.316 12.612C11.754 12.186 11.802 11.82 11.862 11.592L11.868 11.574H11.85C11.1 11.556 10.386 11.478 9.73201 11.388C9.65401 11.376 9.63601 11.346 9.63601 11.322C9.63601 11.292 9.67201 11.25 9.73201 11.25C9.74401 11.25 9.75601 11.25 9.76801 11.256C9.76801 11.256 11.01 11.424 11.868 11.43H11.886V11.412C11.892 11.31 11.898 11.13 11.904 10.932V10.914H11.886C11.37 10.902 10.512 10.848 9.69601 10.686C9.62401 10.668 9.60001 10.626 9.60001 10.59C9.60001 10.554 9.62401 10.53 9.67201 10.524C9.68401 10.524 9.69601 10.524 9.70801 10.53C9.82801 10.56 11.16 10.746 11.88 10.746H11.886H11.904V10.728C11.91 10.572 11.91 10.356 11.91 10.146V10.128H11.88C11.862 10.128 11.85 10.128 11.832 10.128C11.364 10.128 10.686 10.08 9.72601 9.936C9.64801 9.924 9.61801 9.882 9.61801 9.858C9.61801 9.828 9.64201 9.798 9.70801 9.798C9.71401 9.798 9.72001 9.798 9.72601 9.798C9.72601 9.798 10.902 9.972 11.82 9.972C11.838 9.972 11.862 9.972 11.88 9.972H11.898V9.96C11.898 9.822 11.898 9.654 11.898 9.486V9.48C11.898 9.39 11.94 9.354 11.964 9.354C11.988 9.354 12.024 9.384 12.024 9.468C12.024 9.528 12.03 9.714 12.03 9.936V9.948V9.966H12.048C12.936 9.942 13.716 9.834 14.082 9.768C14.1 9.762 14.124 9.762 14.142 9.762C14.214 9.762 14.238 9.792 14.238 9.822C14.238 9.852 14.214 9.882 14.178 9.888C14.058 9.906 13.032 10.104 12.054 10.134H12.036V10.152C12.036 10.326 12.042 10.548 12.048 10.734V10.752H12.066C12.726 10.728 13.482 10.704 14.136 10.56C14.166 10.554 14.196 10.548 14.214 10.548C14.292 10.548 14.316 10.578 14.316 10.608C14.316 10.638 14.28 10.68 14.184 10.698C13.548 10.806 12.624 10.914 12.06 10.92H12.042V10.938C12.048 11.1 12.048 11.292 12.06 11.418V11.436H12.078C13.128 11.412 14.118 11.262 14.292 11.232C14.304 11.232 14.316 11.226 14.328 11.226C14.394 11.226 14.424 11.262 14.424 11.292C14.424 11.322 14.394 11.364 14.316 11.376C14.13 11.4 12.9 11.556 12.114 11.58H12.096L12.102 11.598C12.18 11.862 12.198 12.252 12.582 12.582C12.768 12.744 13.026 12.816 13.29 12.816C13.548 12.816 13.812 12.744 14.04 12.618C14.388 12.414 14.934 11.82 15.126 11.646C15.288 11.508 15.654 11.166 16.146 11.166C16.152 11.166 16.164 11.166 16.164 11.166C16.416 11.172 16.536 11.238 16.608 11.31C16.668 11.382 16.68 11.46 16.698 11.508C16.71 11.538 16.716 11.58 16.716 11.622C16.716 11.682 16.698 11.748 16.638 11.784C16.548 11.838 16.47 11.826 16.38 11.868L16.374 11.874V11.886C16.314 12.294 16.182 12.762 15.858 13.008C15.684 13.14 15.456 13.218 15.282 13.26C15.102 13.302 14.964 13.308 14.964 13.308H14.934L14.952 13.326C14.952 13.326 15.03 13.41 15.054 13.434C15.114 13.488 15.27 13.566 15.486 13.566C15.504 13.566 15.534 13.566 15.552 13.56C15.786 13.542 16.05 13.362 16.164 13.248C16.338 13.026 16.494 12.558 16.608 12.264C16.65 12.156 16.74 11.976 16.782 11.88C16.878 11.928 16.932 11.952 17.112 12.03C17.49 12.18 17.97 12.246 18.288 12.246C18.306 12.246 18.324 12.246 18.342 12.246C18.864 12.228 19.464 11.916 19.824 11.58C19.884 11.52 20.004 11.376 20.004 11.376L20.016 11.358L19.992 11.334Z" fill="#CD1F43"/>
<path id="Vector_11" d="M12.462 17.796C12.402 17.892 12.384 18 12.384 18.108C12.384 18.282 12.45 18.468 12.552 18.594C12.558 18.606 12.57 18.606 12.576 18.606C12.588 18.606 12.6 18.6 12.606 18.588V18.576C12.606 18.474 12.54 18.378 12.54 18.264C12.54 18.24 12.546 18.204 12.558 18.18L12.57 18.15L12.588 18.174C12.69 18.348 12.858 18.45 13.032 18.504C13.098 18.522 13.164 18.528 13.236 18.528C13.464 18.528 13.68 18.426 13.83 18.24C13.902 18.144 13.956 18.012 13.956 17.886C13.956 17.826 13.944 17.772 13.914 17.712C13.806 17.502 13.584 17.382 13.362 17.346C13.326 17.34 13.284 17.34 13.248 17.34C12.918 17.358 12.624 17.502 12.462 17.796Z" fill="black"/>
<path id="Vector_12" d="M11.208 18.678C11.226 18.678 11.25 18.66 11.268 18.63C11.352 18.498 11.406 18.324 11.406 18.156C11.406 18.048 11.382 17.94 11.322 17.844C11.232 17.67 11.052 17.538 10.878 17.478C10.782 17.448 10.674 17.43 10.572 17.43C10.326 17.43 10.086 17.526 9.93601 17.724C9.87601 17.802 9.84601 17.898 9.84601 18C9.84601 18.054 9.85801 18.102 9.87001 18.15C9.95401 18.372 10.164 18.552 10.392 18.594C10.446 18.606 10.494 18.612 10.542 18.612C10.806 18.612 11.04 18.48 11.208 18.252L11.226 18.234L11.238 18.258C11.244 18.276 11.25 18.3 11.25 18.318C11.25 18.366 11.238 18.414 11.232 18.45C11.226 18.516 11.172 18.57 11.172 18.618C11.172 18.636 11.178 18.648 11.19 18.666C11.196 18.678 11.202 18.678 11.208 18.678Z" fill="black"/>
<path id="Vector_13" d="M10.014 19.554C10.59 19.308 11.28 19.17 11.964 19.17C12.486 19.17 12.996 19.248 13.452 19.422C13.566 19.476 13.692 19.512 13.806 19.548C13.836 19.512 13.848 19.5 13.866 19.47C13.308 19.194 12.642 19.068 11.976 19.068C11.262 19.068 10.554 19.212 9.95401 19.482C9.97801 19.512 9.99001 19.53 10.014 19.554Z" fill="black"/>
<path id="Vector_14" d="M10.512 15.288C10.854 15.72 11.376 15.906 11.898 15.912C12.09 15.912 12.288 15.888 12.474 15.84C13.35 15.594 13.878 14.64 14.064 13.8C14.04 13.776 14.016 13.77 13.98 13.758C13.872 14.25 13.656 14.736 13.35 15.144C12.978 15.594 12.432 15.822 11.886 15.822C11.694 15.822 11.502 15.792 11.322 15.732C10.518 15.48 10.104 14.598 10.026 13.8C9.99602 13.8 9.96602 13.8 9.94202 13.818C10.008 14.376 10.17 14.868 10.512 15.288Z" fill="black"/>
<path id="Vector_15" d="M3.98402 7.02C4.44602 7.908 5.37602 8.196 6.31802 8.154C6.84602 8.148 7.35602 8.094 7.87802 8.058V8.094C7.61402 8.844 7.44002 9.606 7.33202 10.386C5.96402 10.44 4.56002 10.326 3.55202 9.414C2.86802 8.718 2.68802 7.764 2.83802 6.816C3.00002 6.624 3.16802 6.456 3.34202 6.264C3.56402 6.504 3.92402 6.69 3.98402 7.02Z" fill="white"/>
<path id="Vector_16" d="M20.994 6.618C21.03 6.75 21.036 6.882 21.048 7.026C21.114 8.082 20.658 9.048 19.758 9.582C18.78 10.176 17.64 10.38 16.44 10.41C16.422 10.302 16.404 10.164 16.392 10.044C16.296 9.354 16.17 8.652 15.972 7.986C17.262 7.968 18.834 8.316 19.686 7.122C19.8 6.954 19.914 6.804 20.016 6.63C20.208 6.546 20.388 6.42 20.574 6.324C20.718 6.408 20.838 6.528 20.994 6.618Z" fill="white"/>
<path id="Vector_17" d="M16.092 11.946C16.098 12.348 15.966 12.768 15.612 12.96C15.438 13.056 15.246 13.092 15.054 13.08C15.048 13.044 15.036 13.002 15.048 12.954C15.342 12.966 15.624 12.858 15.786 12.612C15.894 12.432 15.936 12.234 15.936 12.012C15.978 11.982 16.032 11.958 16.092 11.946Z" fill="white"/>
<path id="Vector_18" d="M8.80803 13.044C8.75403 13.056 8.73003 13.062 8.63403 13.044C8.16003 13.044 7.66203 12.666 7.69203 12.024C7.75203 12.006 7.81203 12.006 7.86603 12.03C7.86603 12.396 8.01003 12.894 8.79003 12.894C8.84403 12.972 8.79003 12.984 8.80803 13.044Z" fill="white"/>
</g>
</g>
</svg>
