<svg width="24" height="24" viewBox="0 0 24 24" fill="none" xmlns="http://www.w3.org/2000/svg">
<g id="Team=CLE">
<g id="Group">
<path id="Vector" d="M21.372 7.278V5.904L21.036 5.562C16.716 1.452 7.46399 6.846 4.31999 9.45L2.76599 11.856L4.69799 11.376C1.73399 15.096 2.78999 17.538 2.91599 17.79C3.22799 18.666 3.94199 19.368 5.09399 19.83C5.96999 20.178 6.96599 20.226 7.81799 20.184C11.502 20.01 15.858 17.712 18.672 15.27L18.738 15.216L19.296 12.39L18.204 12.996C14.406 14.664 11.352 15.588 11.352 15.588C9.35399 16.212 8.43599 16.314 7.78199 16.158L7.70399 16.134C7.52399 16.062 7.49399 15.9 7.49399 15.858C7.46399 14.61 9.61799 11.922 10.698 10.758C11.706 9.672 13.296 8.484 14.64 7.92C15.54 7.542 16.122 7.392 16.392 7.416C16.32 7.65 16.194 7.938 16.02 8.286C16.02 8.286 14.58 11.124 14.52 11.238L21.372 7.278Z" fill="#BC945C"/>
<path id="Vector_2" d="M12.834 7.08C11.598 7.734 10.176 9.048 9.732 9.522C6.108 13.38 3.57 18.54 11.502 16.068C11.502 16.068 14.586 15.132 18.414 13.452C7.578 22.608 -2.652 18.78 7.416 9.15C6.498 9.36 5.574 9.558 4.668 9.81C7.89 7.14 16.734 2.166 20.682 5.922L16.464 8.508C18.276 4.962 15.012 5.796 12.834 7.08Z" fill="#860038"/>
</g>
</g>
</svg>
