<svg width="24" height="24" viewBox="0 0 24 24" fill="none" xmlns="http://www.w3.org/2000/svg">
<g id="Team=DAL">
<g id="Group">
<g id="Group_2">
<path id="Vector" d="M3.82798 14.994C3.68398 14.778 3.20398 13.968 3.20398 12.66C3.20398 12.168 3.26998 11.61 3.44998 10.986C3.44998 10.98 3.44998 10.98 3.44998 10.974L3.52798 10.674L3.54598 10.692C3.55798 10.656 3.56998 10.62 3.58198 10.584C3.64198 10.398 3.70798 10.2 3.72598 10.158C3.73798 10.116 3.79198 9.89399 3.83998 9.73799C3.85198 9.68999 3.86398 9.654 3.87598 9.61799V9.59399C3.88798 9.47999 3.90598 9.36599 3.92998 9.25799C3.93598 9.19799 3.94798 9.14399 3.95398 9.09599L3.95998 9.07799L3.96598 9.05999C3.97198 9.04799 3.97798 9.03599 3.97798 9.02999C4.19998 8.11799 4.61998 7.57799 4.85398 7.33199V7.32599V7.31999C4.90198 7.27799 5.02798 7.15799 5.17798 7.06199C5.24398 6.97199 5.46598 6.68399 5.66998 6.45599C5.74198 6.37799 5.80798 6.31199 5.86798 6.25199C5.90398 6.17399 5.98198 6.01199 6.13198 5.81999C6.33598 5.56799 6.65998 5.26799 7.16398 5.08799C7.54798 4.82399 7.95598 4.59599 8.38198 4.39199C8.46598 4.30799 8.77198 4.00199 9.25198 3.69599C9.80998 3.34199 10.596 2.98199 11.532 2.98199C11.568 2.98199 11.604 2.98199 11.64 2.98199L11.982 2.99399L11.562 3.55799C11.784 3.53999 12.012 3.53399 12.24 3.53399C13.446 3.53399 14.604 3.76799 15.654 4.19399H15.66H15.666C15.708 4.21199 15.78 4.24799 15.852 4.29599C15.918 4.33799 15.978 4.37999 16.038 4.43999C16.11 4.44599 16.266 4.47599 16.434 4.54799H16.44H16.446C17.58 5.14199 18.57 5.97599 19.344 6.97199L19.35 6.97799L19.356 6.98999C19.368 7.00799 19.398 7.07399 19.422 7.19999C19.434 7.20599 19.452 7.21799 19.476 7.23599C19.518 7.26599 19.566 7.29599 19.608 7.34399L19.62 7.35599L19.626 7.36799C20.574 8.74799 21.132 10.41 21.132 12.198C21.132 13.89 20.634 15.474 19.77 16.812L19.764 16.818L19.758 16.824C19.746 16.842 19.74 16.848 19.728 16.86C19.716 16.872 19.704 16.884 19.686 16.896C19.662 16.914 19.626 16.938 19.584 16.968C19.578 16.986 19.578 17.004 19.572 17.034C19.56 17.088 19.542 17.154 19.5 17.22V17.226L19.494 17.232C17.88 19.44 15.234 20.88 12.24 20.88C8.34598 20.886 5.02198 18.426 3.82798 14.994Z" fill="white"/>
</g>
<path id="Vector_2" d="M19.5 7.48799C19.446 7.43399 19.326 7.36199 19.326 7.36199C19.284 7.34399 19.272 7.30199 19.272 7.30199C19.248 7.15199 19.218 7.09799 19.218 7.09799C18.462 6.11999 17.49 5.30999 16.374 4.72199C16.176 4.63199 15.996 4.62599 15.996 4.62599C15.954 4.62599 15.936 4.59599 15.936 4.59599C15.87 4.50599 15.672 4.40399 15.6 4.36799C14.568 3.94799 13.44 3.71999 12.252 3.71999C11.892 3.71999 11.538 3.74399 11.19 3.78599L11.646 3.17399C9.81596 3.11999 8.50796 4.54799 8.50796 4.54799C8.06996 4.75199 7.64996 4.99199 7.25396 5.26199C6.29996 5.60399 6.02396 6.37199 6.02396 6.37199C5.78396 6.57599 5.30396 7.21199 5.30396 7.21199C5.16596 7.28999 5.02196 7.42199 4.97996 7.46399C4.75796 7.69199 4.35596 8.20799 4.14596 9.09599C4.13996 9.108 4.13396 9.12599 4.12796 9.13799C4.12196 9.18599 4.10996 9.24599 4.10396 9.29999C4.08596 9.40799 4.06196 9.51599 4.04996 9.62999L4.06196 9.61799C4.05596 9.64199 4.05596 9.65399 4.05596 9.65399C4.03196 9.67199 3.89396 10.218 3.89396 10.218C3.86996 10.29 3.62396 11.034 3.62396 11.034V11.04C2.96996 13.332 3.83996 14.718 3.98996 14.928C5.14796 18.294 8.41196 20.724 12.258 20.724C15.192 20.724 17.79 19.314 19.368 17.148C19.41 17.076 19.434 16.932 19.434 16.932C19.434 16.884 19.47 16.866 19.47 16.866C19.59 16.8 19.632 16.758 19.638 16.746C20.484 15.438 20.97 13.89 20.97 12.228C20.976 10.464 20.43 8.83799 19.5 7.48799Z" fill="#061922"/>
<path id="Vector_3" d="M8.59797 5.84399C8.62197 5.81999 8.63997 5.79599 8.65797 5.77799C8.68797 5.74799 8.69997 5.74199 8.69997 5.74199C8.70597 5.73599 8.70597 5.73599 8.70597 5.73599C8.71197 5.29799 8.81397 4.94999 8.81397 4.94999C9.60597 3.83999 10.914 3.55199 10.914 3.55199C11.076 3.50399 10.974 3.57599 10.974 3.57599C10.152 4.49999 10.236 5.26199 10.236 5.26199L11.022 8.12999C11.022 8.12999 10.386 7.90799 9.89397 6.89999C9.66597 8.90999 11.562 10.542 11.562 10.542C11.646 10.614 11.514 10.536 11.514 10.536C11.04 10.302 10.494 9.79799 10.344 9.65999C10.386 9.81599 11.304 14.454 11.31 14.466C11.316 14.49 11.328 14.532 11.334 14.562L11.652 13.77L11.916 16.11C10.716 17.226 9.43797 16.788 9.35397 16.758C9.38397 16.806 9.40797 16.842 9.40797 16.842C9.40797 16.842 10.446 18.882 14.682 18.666C14.682 18.666 14.784 18.666 14.766 18.678C14.766 18.684 14.76 18.684 14.742 18.69C14.664 18.72 14.538 18.738 14.538 18.738C9.42597 20.106 6.77997 15.75 6.66597 15.552C6.63597 15.51 6.38397 15.156 6.24597 14.808C6.23997 14.796 6.23397 14.766 6.25797 14.79C6.25797 14.79 6.79797 15.354 8.33397 15.498C8.34597 15.498 8.35197 15.498 8.35197 15.498C7.16397 14.178 6.65997 13.218 6.58797 13.068C6.58797 13.068 6.44397 12.852 6.27597 12.246C6.27597 12.246 6.28197 12.216 6.29397 12.246C6.35397 12.366 6.74397 12.948 7.22397 13.074C6.81597 12.42 6.56397 11.388 6.53397 11.232C7.08597 12.006 8.06397 12.06 8.06397 12.06C8.06397 12.06 8.06397 12.054 8.05797 12.054C8.05797 12.06 8.06397 12.06 8.06397 12.06C6.45597 10.452 6.80397 8.70599 7.45197 7.44599C7.84797 6.69599 8.33997 6.11999 8.59797 5.84399Z" fill="white"/>
<g id="Group_3">
<g id="Group_4">
<path id="Vector_4" d="M13.416 16.47L12.36 17.58L13.662 16.578L12.99 14.25L13.284 11.454L12.768 14.124L13.416 16.47Z" fill="#BBC4CA"/>
</g>
<g id="Group_5">
<path id="Vector_5" d="M13.65 9.62401C13.56 10.104 13.41 10.59 13.146 10.812C13.164 10.8 13.188 10.788 13.218 10.776C13.296 10.728 13.398 10.656 13.506 10.548C13.716 10.332 13.926 9.97801 13.926 9.42001C13.926 9.16801 13.884 8.88001 13.782 8.54401C13.764 8.73001 13.734 9.17401 13.65 9.62401Z" fill="#BBC4CA"/>
</g>
<g id="Group_6">
<path id="Vector_6" d="M13.638 6.054C14.004 5.496 14.61 5.448 14.868 5.448C14.646 5.382 14.442 5.358 14.256 5.358C13.866 5.358 13.578 5.466 13.458 5.52C13.44 5.526 13.428 5.532 13.416 5.538C13.512 5.67 13.608 5.952 13.638 6.054Z" fill="#BBC4CA"/>
</g>
<g id="Group_7">
<path id="Vector_7" d="M13.176 7.218C13.188 7.218 13.194 7.224 13.194 7.236C13.194 7.29 13.194 7.338 13.194 7.392C13.194 8.586 12.876 9.9 12.756 10.356C13.212 9.306 13.338 8.328 13.338 7.578C13.338 7.14 13.296 6.774 13.254 6.522C13.23 6.39 13.212 6.288 13.194 6.222C13.08 7.122 12.738 7.53 12.732 7.536C12.726 7.542 12.72 7.542 12.714 7.542C12.708 7.542 12.702 7.536 12.702 7.53C12.138 6.492 11.304 5.856 10.926 5.604C10.86 5.562 10.806 5.526 10.776 5.508C11.85 7.836 12.162 9.636 12.24 10.23C12.24 10.164 12.246 10.092 12.246 10.02C12.246 8.958 11.976 7.674 11.838 7.098C11.79 6.906 11.76 6.792 11.76 6.792C11.76 6.786 11.76 6.774 11.766 6.774C11.772 6.768 11.778 6.768 11.79 6.774C12.27 7.146 12.612 8.214 12.672 8.412C12.762 8.298 12.882 8.022 12.978 7.76399C13.08 7.488 13.164 7.236 13.164 7.236C13.158 7.224 13.164 7.218 13.176 7.218C13.17 7.218 13.17 7.218 13.176 7.218Z" fill="#BBC4CA"/>
</g>
<g id="Group_8">
<path id="Vector_8" d="M4.15198 12.054C4.15198 13.164 4.34398 14.322 5.29798 15.804C6.19798 17.7 7.85998 18.72 8.63398 19.116C8.89198 19.248 9.04798 19.308 9.05398 19.308C10.284 19.89 11.442 20.1 12.48 20.1C14.652 20.1 16.296 19.164 16.986 18.696C17.214 18.54 17.34 18.438 17.34 18.438C17.388 18.402 17.418 18.372 17.448 18.348C17.436 18.354 17.418 18.366 17.406 18.372C17.358 18.402 17.31 18.432 17.31 18.432C15.624 19.422 14.07 19.722 12.798 19.722C10.812 19.722 9.52198 18.978 9.52198 18.978C5.30398 16.77 5.24398 12.936 5.24398 12.936C5.24398 12.93 5.24998 12.918 5.25598 12.918C5.26198 12.918 5.27398 12.918 5.27398 12.93C5.81998 13.986 6.47998 14.346 6.76798 14.46C6.80998 14.478 6.84598 14.49 6.86998 14.496C5.63998 12.942 5.29198 11.64 5.29198 10.662C5.29198 9.366 5.90398 8.628 5.90998 8.628C5.91598 8.622 5.92198 8.622 5.93398 8.622C5.93998 8.628 5.94598 8.634 5.94598 8.64C5.85598 9.096 5.82598 9.504 5.82598 9.852C5.82598 10.71 6.02398 11.238 6.12598 11.454C6.12598 11.46 6.13198 11.466 6.13198 11.472C6.09598 11.16 6.07798 10.86 6.07798 10.572C6.07798 7.68 7.76998 5.904 8.12998 5.556C7.85998 5.67 7.53598 5.958 7.27198 6.228C6.97798 6.528 6.75598 6.804 6.75598 6.804C6.74998 6.81 6.74398 6.81 6.73798 6.81C6.73198 6.81 6.72598 6.798 6.72598 6.792C6.72598 6.564 6.85798 6.276 6.92998 6.132C6.71398 6.33 6.53398 6.642 6.40198 6.912C6.25798 7.212 6.17998 7.464 6.17998 7.464L6.17398 7.47C5.50198 8.226 5.17798 9.042 5.05798 9.396C5.01598 9.516 4.99798 9.582 4.99798 9.582C4.97998 9.642 4.97398 9.672 4.96798 9.69C4.96198 9.696 4.96198 9.702 4.94398 9.708C4.93198 9.708 4.92598 9.696 4.92598 9.696C4.92598 9.69 4.92598 9.69 4.92598 9.684C4.92598 9.678 4.92598 9.666 4.92598 9.66C4.92598 9.624 4.93198 9.576 4.93198 9.576C4.94398 9.03 5.17198 8.418 5.26198 8.19C4.61998 8.88 4.46398 9.816 4.46398 10.566C4.46398 10.92 4.49998 11.232 4.53598 11.454C4.57198 11.676 4.60798 11.808 4.60798 11.808V11.814C4.60798 12.252 4.69798 12.798 4.78198 13.236C4.86598 13.668 4.95598 13.992 4.95598 13.992C4.98598 14.076 4.99798 14.112 4.99798 14.136C4.99798 14.142 4.99798 14.142 4.99798 14.148C4.99798 14.154 4.98598 14.16 4.97998 14.16C4.96798 14.16 4.96198 14.154 4.96198 14.148C4.95598 14.142 4.95598 14.136 4.94998 14.13C4.94398 14.118 4.93198 14.1 4.92598 14.088C4.90798 14.058 4.89598 14.028 4.89598 14.028C4.44598 13.338 4.22998 12.204 4.17598 11.922C4.15198 11.964 4.15198 12.006 4.15198 12.054Z" fill="#BBC4CA"/>
</g>
</g>
<g id="Group_9">
<g id="Group_10">
<path id="Vector_9" d="M14.04 6.642L14.028 6.636L14.034 6.624C14.238 6.072 15.21 5.586 15.396 5.49C14.946 5.238 14.514 5.16 14.154 5.16C13.884 5.16 13.656 5.202 13.494 5.25C13.332 5.292 13.242 5.334 13.242 5.334L13.23 5.34L13.224 5.328C13.056 5.118 12.84 4.914 12.666 4.758C12.498 4.608 12.372 4.512 12.36 4.5C12.336 4.482 12.318 4.476 12.318 4.452C12.318 4.44 12.33 4.428 12.336 4.428C12.342 4.422 12.354 4.422 12.36 4.422C12.378 4.416 12.402 4.416 12.42 4.416C12.444 4.416 12.462 4.416 12.468 4.416C16.332 4.416 18.384 7.176 18.384 7.176C18.408 7.206 18.426 7.236 18.426 7.266C18.42 7.35 18.33 7.386 18.246 7.416C18.162 7.44 18.072 7.452 18.072 7.452C17.7 7.506 17.352 7.524 17.034 7.524C15.012 7.524 14.04 6.642 14.04 6.642Z" fill="#0064B1"/>
</g>
<g id="Group_11">
<path id="Vector_10" d="M12.726 17.796C12.72 17.796 12.714 17.79 12.714 17.784C12.714 17.778 12.714 17.772 12.72 17.766L14.016 16.722L13.356 14.286V14.28L13.536 12.648C13.536 12.642 13.542 12.636 13.542 12.636C13.548 12.63 13.554 12.63 13.56 12.636C13.854 12.726 13.992 13.128 14.064 13.5C14.112 13.77 14.13 14.022 14.13 14.148C14.472 13.404 14.586 12.804 14.586 12.342C14.586 11.688 14.358 11.298 14.25 11.148C14.214 11.1 14.19 11.076 14.19 11.076C14.184 11.07 14.184 11.058 14.19 11.052C14.196 11.046 14.208 11.046 14.214 11.052C15.756 12.516 16.068 14.562 16.068 15.972C16.068 16.926 15.924 17.586 15.924 17.592C15.876 17.742 15.72 17.778 15.714 17.784C15.084 17.922 14.532 17.97 14.076 17.97C13.23 17.958 12.726 17.796 12.726 17.796Z" fill="#0064B1"/>
</g>
<g id="Group_12">
<path id="Vector_11" d="M16.35 17.622C16.326 17.604 16.308 17.568 16.314 17.526C16.314 17.508 16.314 17.484 16.326 17.454C16.326 17.454 16.374 17.262 16.428 16.926C16.476 16.596 16.53 16.122 16.53 15.57C16.53 14.1 16.176 12.048 14.538 10.458C14.532 10.452 14.508 10.44 14.496 10.422C14.49 10.416 14.484 10.41 14.484 10.398C14.484 10.392 14.49 10.38 14.496 10.374C14.502 10.368 14.508 10.368 14.52 10.368C14.538 10.368 14.556 10.374 14.592 10.38C14.592 10.38 15.03 10.512 15.336 10.854C15.336 10.83 15.33 10.806 15.324 10.776C15.312 10.686 15.288 10.566 15.246 10.422C15.162 10.134 15.012 9.768 14.736 9.45C14.736 9.45 14.7 9.408 14.676 9.384C14.67 9.372 14.664 9.372 14.664 9.354C14.664 9.348 14.664 9.342 14.67 9.342C14.676 9.336 14.682 9.336 14.682 9.336C14.694 9.336 14.7 9.342 14.712 9.348C14.724 9.354 14.742 9.366 14.766 9.384C14.862 9.432 18.978 11.424 19.122 15.438C19.122 15.438 19.122 15.462 19.122 15.498C19.122 15.594 19.104 15.792 18.978 15.906C18.936 15.954 17.964 17.166 16.53 17.634C16.53 17.634 16.488 17.652 16.44 17.652C16.404 17.646 16.374 17.64 16.35 17.622Z" fill="#0064B1"/>
</g>
<g id="Group_13">
<path id="Vector_12" d="M19.446 14.79C19.434 14.76 19.428 14.724 19.428 14.67C19.332 10.806 15.096 8.37001 14.034 7.82401C13.884 7.74601 13.8 7.70401 13.8 7.70401L13.728 7.66801H13.812C13.818 7.66801 13.818 7.66801 13.824 7.66801C14.382 7.66801 14.718 8.00401 14.82 8.11801C14.82 8.01601 14.802 7.90801 14.778 7.83001C14.76 7.74601 14.736 7.69201 14.736 7.69201L14.724 7.65601L14.76 7.66801C15.204 7.83601 15.774 7.89601 16.338 7.89001C16.878 7.89001 17.412 7.83601 17.808 7.78801C18.204 7.73401 18.462 7.68601 18.462 7.68601C18.48 7.68601 18.504 7.68601 18.522 7.68601C18.75 7.68601 18.822 7.81201 18.828 7.83601C19.356 8.42401 20.016 9.79801 20.124 11.442C20.136 11.646 20.142 11.85 20.142 12.042C20.142 13.488 19.794 14.538 19.59 14.784C19.56 14.82 19.536 14.844 19.5 14.844C19.476 14.838 19.458 14.82 19.446 14.79Z" fill="#0064B1"/>
</g>
</g>
<path id="Vector_13" d="M10.422 3.954C10.422 3.948 10.428 3.948 10.428 3.942C10.38 3.954 9.53396 4.206 9.28796 5.49C9.28796 5.49 9.28796 5.514 9.29996 5.49C9.37796 5.364 9.64196 4.968 9.88196 5.082C9.88196 5.082 9.88196 5.07 9.88796 5.058C9.89396 4.956 9.97796 4.506 10.422 3.954Z" fill="#061922"/>
<g id="Group_14">
<path id="Vector_14" d="M9.77399 15.594C9.59399 15.228 8.41799 12.666 8.41799 12.666C8.05199 12.78 7.60199 12.486 7.60199 12.486C8.17799 14.016 9.53399 15.36 9.75599 15.6C9.75599 15.6 9.75599 15.6 9.76199 15.606C9.79799 15.648 9.79799 15.63 9.79799 15.63C9.78599 15.624 9.77999 15.612 9.77399 15.594Z" fill="#061922"/>
</g>
<g id="Group_15">
<path id="Vector_15" d="M8.60999 7.254C7.55399 9.672 9.93599 10.668 9.96599 10.68L9.83999 10.122L9.76799 9.804C9.70799 9.786 9.65399 9.762 9.59999 9.738C9.58199 9.732 9.56399 9.72 9.54599 9.714C9.52199 9.702 9.50399 9.69 9.47999 9.684C8.44199 9.132 8.53799 7.806 8.60399 7.374C8.60399 7.368 8.60399 7.368 8.60399 7.362C8.60399 7.35 8.60999 7.338 8.60999 7.326C8.61599 7.284 8.62199 7.26 8.62199 7.242C8.62199 7.236 8.62199 7.23 8.62199 7.23C8.62799 7.206 8.61599 7.242 8.60999 7.254Z" fill="#061922"/>
</g>
<path id="Vector_16" d="M10.176 14.064L10.002 11.022L11.022 14.412C11.028 14.412 10.692 13.614 10.176 14.064Z" fill="#BBC4CA"/>
<g id="Group_16">
<path id="Vector_17" d="M10.242 5.322L10.47 7.14C10.47 7.14 10.578 7.638 9.89999 6.894C10.392 7.902 11.028 8.124 11.028 8.124L10.248 5.28C10.242 5.286 10.236 5.292 10.242 5.322Z" fill="#BBC4CA"/>
</g>
<path id="Vector_18" d="M9.15598 8.63999C9.08998 8.48999 9.06598 8.35199 9.06598 8.23199C9.06598 7.78799 9.38998 7.54199 9.38998 7.54199L9.40198 7.53599C9.40198 7.54199 9.38398 7.25399 9.41398 6.79799C9.14998 7.18199 8.59798 8.09399 9.26398 8.80799C9.25198 8.79599 9.24598 8.77799 9.23398 8.76599C9.19798 8.71199 9.17398 8.67599 9.15598 8.63999Z" fill="#BBC4CA"/>
<path id="Vector_19" d="M9.84598 9.012C9.73198 8.814 9.44398 8.184 9.40198 7.548C9.40198 7.542 9.40198 7.542 9.40198 7.536L9.38998 7.542C9.38998 7.542 9.06598 7.794 9.06598 8.232C9.06598 8.352 9.08998 8.49 9.15598 8.64C9.17398 8.676 9.19798 8.718 9.23398 8.766C9.23998 8.778 9.25198 8.79 9.26398 8.808C9.27598 8.826 9.28798 8.838 9.30598 8.856C9.41998 8.976 9.60598 9.102 9.91798 9.114C9.91198 9.114 9.88198 9.078 9.84598 9.012Z" fill="#061922"/>
<g id="Group_17">
<g id="Group_18">
<path id="Vector_20" d="M10.77 14.784C10.878 14.784 10.956 14.88 11.022 15.018C11.088 15.156 11.142 15.33 11.184 15.51C11.238 15.732 11.268 15.954 11.286 16.086C11.286 16.146 11.286 16.194 11.286 16.218C11.31 16.074 11.526 14.652 10.8 14.448C10.8 14.448 10.296 14.322 10.332 15.366C10.338 15.342 10.338 15.324 10.338 15.3C10.5 14.934 10.638 14.784 10.77 14.784Z" fill="#BBC4CA"/>
<path id="Vector_21" d="M11.286 16.08C11.286 16.038 11.238 15.726 11.184 15.504C11.142 15.324 11.088 15.15 11.022 15.012C10.956 14.88 10.878 14.784 10.77 14.778C10.638 14.778 10.5 14.928 10.332 15.3C10.32 15.324 10.326 15.33 10.326 15.366L10.572 15.912C10.572 15.912 10.716 14.448 11.274 16.206C11.286 16.188 11.292 16.158 11.286 16.08Z" fill="#061922"/>
</g>
</g>
</g>
</g>
</svg>
