<svg width="24" height="24" viewBox="0 0 24 24" fill="none" xmlns="http://www.w3.org/2000/svg">
<g id="Team=DEN">
<g id="Group">
<path id="Vector" d="M11.988 3C14.388 3 16.65 3.936 18.354 5.64C20.058 7.344 20.994 9.606 20.994 12.006C20.994 16.974 16.956 21.012 11.988 21.012C9.582 21.012 7.31399 20.076 5.61599 18.372C3.91799 16.668 2.98199 14.406 2.98199 12C2.98199 9.606 3.92399 7.332 5.61599 5.634C7.32599 3.936 9.588 3 11.988 3Z" fill="#FFC627"/>
<path id="Vector_2" d="M11.988 20.298C16.554 20.298 20.274 16.578 20.274 12C20.274 7.43399 16.554 3.70799 11.988 3.70799C7.41598 3.70799 3.69598 7.43399 3.69598 12C3.70198 16.578 7.42198 20.298 11.988 20.298Z" fill="#8B2332"/>
<path id="Vector_3" d="M4.314 12.006C4.314 7.78201 7.758 4.33801 11.988 4.33801C16.218 4.33201 19.662 7.77601 19.662 12.006C19.662 16.236 16.224 19.68 11.994 19.68C7.75799 19.686 4.314 16.242 4.314 12.006Z" fill="#0D2240"/>
<path id="Vector_4" d="M18.036 8.796L18.204 8.7L17.652 7.848L17.502 7.962C16.566 6.78 14.898 5.46 13.314 5.262C14.508 5.808 15.852 7.2 16.668 8.274L15.804 8.892L15.912 9.048L12.024 11.574L8.13599 9.048L8.24399 8.892L7.37999 8.262C8.20199 7.194 9.54599 5.802 10.734 5.25C9.14999 5.448 7.48199 6.762 6.55199 7.944L6.38999 7.83L5.83799 8.682L6.00599 8.784L5.99999 8.79C5.31599 10.134 4.81199 12.216 5.30399 13.734C5.29199 12.42 5.99999 10.614 6.62999 9.408L7.55999 9.936L7.65599 9.792L11.268 12.06L6.50399 15.156L6.49799 15.144L5.86199 15.312L5.86799 15.33C5.83799 15.444 5.89799 15.672 6.02999 15.882C6.16199 16.098 6.33599 16.236 6.46199 16.26L6.47399 16.278L6.89999 15.762L6.89399 15.75L16.386 9.78L16.482 9.924L17.412 9.396C18.042 10.602 18.75 12.408 18.744 13.722C19.23 12.222 18.72 10.14 18.036 8.796Z" fill="#FFC627"/>
<path id="Vector_5" d="M17.544 15.15L17.538 15.162L13.152 12.312L12.384 12.768L17.142 15.768L17.136 15.78L17.556 16.296L17.568 16.278C17.694 16.254 17.868 16.116 18 15.9C18.132 15.69 18.192 15.468 18.162 15.348L18.168 15.33L17.544 15.15Z" fill="#FFC627"/>
<path id="Vector_6" d="M12.774 6.024L12.444 6.45L11.988 5.364V10.392L13.518 8.43L15.06 8.826L12.774 6.024Z" fill="#FFC627"/>
<path id="Vector_7" d="M12.774 7.2V6.024L12.444 6.45L12.774 7.2Z" fill="white"/>
<path id="Vector_8" d="M11.988 5.364L9.20999 8.754L10.428 8.436L11.988 10.392V5.364Z" fill="white"/>
<path id="Vector_9" d="M10.356 18.048C10.746 17.67 11.25 17.442 11.796 17.388V16.632H9.72C9.762 17.184 9.99 17.676 10.356 18.048Z" fill="#FFC627"/>
<path id="Vector_10" d="M11.784 18.744V17.856C11.382 17.904 11.004 18.072 10.704 18.354C11.028 18.564 11.394 18.702 11.784 18.744Z" fill="#FFC627"/>
<path id="Vector_11" d="M12.246 14.124V15.012C12.648 14.964 13.026 14.796 13.326 14.52C13.014 14.304 12.648 14.166 12.246 14.124Z" fill="white"/>
<path id="Vector_12" d="M13.686 14.826C13.296 15.198 12.792 15.432 12.252 15.48V16.164H14.328C14.262 15.654 14.028 15.18 13.686 14.826Z" fill="white"/>
<path id="Vector_13" d="M11.784 15.012V14.124C11.388 14.166 11.016 14.304 10.71 14.52C11.016 14.796 11.388 14.97 11.784 15.012Z" fill="white"/>
<path id="Vector_14" d="M12.246 16.632V17.388C12.786 17.442 13.284 17.67 13.68 18.048C14.04 17.676 14.28 17.184 14.322 16.632H12.246Z" fill="#FFC627"/>
<path id="Vector_15" d="M9.71399 16.164H11.784V15.48C11.244 15.432 10.746 15.192 10.344 14.826C10.008 15.18 9.77399 15.654 9.71399 16.164Z" fill="white"/>
<path id="Vector_16" d="M12.246 18.744C12.642 18.702 13.014 18.564 13.326 18.348C13.026 18.066 12.648 17.898 12.246 17.85V18.744Z" fill="#FFC627"/>
</g>
</g>
</svg>
