<svg width="24" height="24" viewBox="0 0 24 24" fill="none" xmlns="http://www.w3.org/2000/svg">
<g id="Team=DET">
<g id="Group">
<path id="Vector" d="M21 12.006C21 16.98 16.968 21.012 11.994 21.012C7.01998 21.012 2.98798 16.98 2.98798 12.006C2.98198 7.032 7.01398 3 11.994 3C16.968 3 21 7.032 21 12.006Z" fill="#B3B2B1"/>
<g id="Group_2">
<path id="Vector_2" d="M20.742 12.006C20.742 16.836 16.824 20.754 11.994 20.754C7.16397 20.754 3.24597 16.836 3.24597 12.006C3.24597 7.176 7.16397 3.258 11.994 3.258C16.824 3.258 20.742 7.176 20.742 12.006Z" fill="#1D428A"/>
<g id="Group_3">
<path id="Vector_3" d="M19.452 12.006C19.452 16.122 16.116 19.47 11.988 19.47C7.87199 19.47 4.52399 16.134 4.52399 12.006C4.52399 7.89 7.85999 4.542 11.988 4.542C16.116 4.542 19.452 7.89 19.452 12.006Z" fill="#C8102E"/>
<path id="Vector_4" d="M11.994 4.542C7.884 4.542 4.53 7.89 4.53 12.006C4.53 16.122 7.878 19.47 11.994 19.47C16.11 19.47 19.458 16.122 19.458 12.006C19.452 7.896 16.104 4.542 11.994 4.542ZM4.962 12.228H6.336V11.79H4.962C4.968 11.628 4.974 11.46 4.992 11.298C5.478 8.844 8.43 6.96 11.988 6.96C15.546 6.96 18.498 8.85 18.984 11.298C19.002 11.46 19.008 11.628 19.014 11.79H17.634V12.228H19.008C19.002 12.39 18.996 12.558 18.978 12.72C18.492 15.168 15.534 17.058 11.982 17.058C8.43 17.058 5.478 15.168 4.992 12.72C4.98 12.558 4.974 12.39 4.962 12.228ZM11.994 4.974C14.97 4.974 17.526 6.834 18.546 9.456C17.298 7.746 14.832 6.576 11.994 6.576C9.156 6.576 6.69 7.74 5.442 9.456C6.462 6.84 9.012 4.974 11.994 4.974ZM11.994 19.044C9.018 19.044 6.462 17.184 5.442 14.562C6.69 16.272 9.156 17.442 11.994 17.442C14.832 17.442 17.298 16.278 18.546 14.562C17.52 17.172 14.97 19.044 11.994 19.044Z" fill="white"/>
<g id="Group_4">
<g id="Group_5">
<path id="Vector_5" d="M9.35998 12.204H8.83798V14.574H9.35998V12.204Z" fill="white"/>
<path id="Vector_6" d="M10.86 12.204H10.842C10.698 12.204 10.152 12.198 10.05 12.204H10.026C9.86998 12.204 9.76198 12.276 9.73798 12.42C9.73198 12.444 9.73198 12.456 9.73198 12.456C9.73198 12.462 9.69598 12.906 9.73798 13.032C9.80998 13.236 9.97798 13.314 10.122 13.356C10.128 13.356 10.134 13.362 10.14 13.362C10.152 13.362 10.158 13.368 10.17 13.374C10.188 13.38 10.2 13.392 10.206 13.398V14.25H9.77398V14.568H10.35C10.554 14.562 10.686 14.472 10.734 14.322C10.746 14.208 10.752 13.41 10.74 13.248C10.734 13.188 10.71 13.134 10.65 13.092C10.626 13.074 10.602 13.056 10.566 13.038C10.536 13.02 10.5 13.008 10.47 12.99C10.35 12.93 10.206 12.864 10.206 12.702V12.57H10.62C10.704 12.57 10.77 12.528 10.818 12.45C10.848 12.39 10.86 12.33 10.86 12.33C10.866 12.294 10.86 12.258 10.86 12.234V12.204Z" fill="white"/>
<path id="Vector_7" d="M13.278 12.204C13.164 12.204 13.032 12.21 12.936 12.234C12.678 12.294 12.552 12.468 12.552 12.762V14.172C12.552 14.532 12.81 14.604 13.2 14.604C13.668 14.604 13.938 14.442 13.938 14.148V12.678C13.932 12.204 13.632 12.204 13.278 12.204ZM13.098 12.738C13.098 12.678 13.104 12.63 13.116 12.594L13.128 12.588C13.152 12.582 13.176 12.582 13.2 12.582H13.212C13.386 12.582 13.398 12.636 13.398 12.96V13.95C13.398 13.98 13.398 14.004 13.398 14.034C13.398 14.064 13.392 14.088 13.386 14.112L13.374 14.124C13.344 14.13 13.314 14.13 13.284 14.13C13.218 14.13 13.176 14.118 13.146 14.088C13.104 14.046 13.104 13.974 13.104 13.884V12.882C13.098 12.882 13.098 12.774 13.098 12.738Z" fill="white"/>
<path id="Vector_8" d="M15.156 13.206C14.904 12.288 14.496 12.192 14.334 12.192C14.292 12.192 14.268 12.198 14.262 12.198L14.25 12.204V14.574H14.784V13.62L15.156 14.574H15.702V12.204H15.156V13.206Z" fill="white"/>
<path id="Vector_9" d="M8.19598 12.204H6.86398H6.84598V12.222C6.84598 12.222 6.83398 12.504 7.14598 12.57V14.58H7.69798V13.572H8.15398C8.39998 13.572 8.53798 13.416 8.53798 13.134V13.05C8.53198 12.372 8.50798 12.24 8.19598 12.204ZM7.98598 13.254H7.68598V12.564C7.68598 12.564 7.84198 12.558 7.87198 12.564C7.93198 12.57 7.97998 12.594 7.97998 12.666C7.98598 12.69 7.98598 13.254 7.98598 13.254Z" fill="white"/>
<path id="Vector_10" d="M12.384 12.21H11.154V12.582H11.508V14.58H12.054V12.576C12.06 12.576 12.066 12.576 12.072 12.576C12.168 12.576 12.246 12.546 12.306 12.492C12.402 12.39 12.396 12.228 12.396 12.222L12.384 12.21Z" fill="white"/>
<path id="Vector_11" d="M17.136 12.204H17.118C16.974 12.204 16.428 12.198 16.326 12.204H16.302C16.146 12.204 16.038 12.276 16.014 12.42C16.008 12.444 16.008 12.456 16.008 12.456C16.008 12.462 15.972 12.906 16.014 13.032C16.086 13.236 16.254 13.314 16.398 13.356C16.404 13.356 16.41 13.362 16.416 13.362C16.428 13.362 16.434 13.368 16.446 13.374C16.464 13.38 16.476 13.392 16.482 13.398V14.25H16.05V14.568H16.626C16.83 14.562 16.962 14.472 17.01 14.322C17.022 14.208 17.028 13.41 17.016 13.248C17.01 13.188 16.986 13.134 16.926 13.092C16.902 13.074 16.878 13.056 16.842 13.038C16.812 13.02 16.776 13.008 16.746 12.99C16.626 12.93 16.482 12.864 16.482 12.702V12.57H16.896C16.98 12.57 17.046 12.528 17.094 12.45C17.124 12.39 17.136 12.33 17.136 12.33C17.142 12.294 17.136 12.258 17.136 12.234V12.204Z" fill="white"/>
</g>
<g id="Group_6">
<path id="Vector_12" d="M12.294 10.734H12.384C12.468 10.734 12.624 10.764 12.624 10.926C12.624 10.998 12.63 11.238 12.636 11.328V11.364C12.636 11.376 12.642 11.49 12.648 11.514C12.684 11.652 12.792 11.736 12.96 11.754H13.11V10.914C13.11 10.842 13.074 10.746 13.014 10.668L13.002 10.656C13.086 10.56 13.116 10.464 13.116 10.32V10.236C13.116 9.582 13.092 9.45 12.786 9.42H11.76V11.73H12.282V10.734H12.294ZM12.294 9.774H12.384H12.396C12.534 9.774 12.588 9.774 12.582 10.02C12.582 10.218 12.582 10.23 12.576 10.32V10.338C12.576 10.368 12.564 10.398 12.546 10.416C12.534 10.428 12.522 10.434 12.504 10.434H12.288V9.774H12.294Z" fill="white"/>
<path id="Vector_13" d="M15.564 9.408H15.048V11.718H15.564V9.408Z" fill="white"/>
<path id="Vector_14" d="M10.626 11.724H11.154V9.774C11.16 9.774 11.166 9.774 11.172 9.774C11.268 9.774 11.34 9.744 11.4 9.69C11.496 9.588 11.49 9.438 11.49 9.426V9.408H10.284V9.774H10.626V11.724Z" fill="white"/>
<path id="Vector_15" d="M16.182 11.724H16.71V9.774C16.716 9.774 16.722 9.774 16.728 9.774C16.824 9.774 16.896 9.744 16.956 9.69C17.052 9.588 17.046 9.438 17.046 9.426V9.408H15.84V9.774H16.182V11.724Z" fill="white"/>
<path id="Vector_16" d="M10.002 11.352H9.44998V10.788H9.82798V10.284H9.44998V9.768H10.002V9.408H8.93998L8.92798 11.718H10.002V11.352Z" fill="white"/>
<path id="Vector_17" d="M8.26797 9.408H6.94797V9.42C6.94797 9.426 6.92997 9.558 7.01397 9.66C7.06797 9.726 7.14597 9.756 7.25997 9.768V11.712H8.24397C8.47197 11.712 8.61597 11.52 8.61597 11.238V10.164C8.61597 9.576 8.61597 9.42 8.26797 9.408ZM8.08197 11.352H7.78797V9.774C7.97397 9.768 8.00997 9.78 8.01597 9.786C8.08197 9.81 8.08197 9.936 8.08197 9.942C8.09397 10.122 8.08197 11.208 8.08197 11.352Z" fill="white"/>
<path id="Vector_18" d="M14.112 9.408C13.998 9.408 13.872 9.414 13.77 9.438C13.512 9.498 13.392 9.672 13.392 9.954V11.334C13.392 11.688 13.65 11.76 14.034 11.76C14.496 11.76 14.766 11.598 14.766 11.316V9.876C14.772 9.408 14.466 9.408 14.112 9.408ZM13.938 9.93C13.938 9.87 13.944 9.822 13.956 9.786L13.968 9.78C13.992 9.774 14.016 9.774 14.04 9.774H14.052C14.226 9.774 14.238 9.828 14.238 10.146V11.118C14.238 11.148 14.238 11.172 14.238 11.202C14.238 11.232 14.232 11.256 14.226 11.28L14.214 11.286C14.184 11.292 14.154 11.292 14.124 11.292C14.058 11.292 14.016 11.28 13.986 11.25C13.944 11.208 13.944 11.136 13.944 11.052V10.08C13.938 10.08 13.938 9.966 13.938 9.93Z" fill="white"/>
</g>
</g>
</g>
</g>
</g>
</g>
</svg>
