<svg width="24" height="24" viewBox="0 0 24 24" fill="none" xmlns="http://www.w3.org/2000/svg">
<g id="Team=GSW">
<g id="Group">
<path id="Vector" d="M21 11.994C21 16.962 16.974 20.988 12.006 20.988C7.03798 20.988 3.00598 16.962 3.00598 11.994C3.00598 7.026 7.03198 3 12.006 3C16.98 3 21 7.026 21 11.994Z" fill="#1D428A"/>
<path id="Vector_2" d="M17.892 6.108C16.32 4.536 14.226 3.672 12.006 3.672C9.78599 3.672 7.69799 4.536 6.11999 6.108C4.54799 7.68 3.68399 9.774 3.68399 11.994C3.68399 14.214 4.54799 16.302 6.11999 17.88C7.69199 19.452 9.78599 20.316 12.006 20.316C14.226 20.316 16.314 19.452 17.892 17.88C19.464 16.308 20.328 14.214 20.328 11.994C20.328 9.774 19.458 7.686 17.892 6.108ZM6.43199 6.426C7.91999 4.938 9.89399 4.116 12 4.116C14.1 4.116 16.08 4.938 17.568 6.426C19.056 7.914 19.878 9.888 19.878 11.994C19.878 13.128 19.644 14.22 19.194 15.222C18.24 14.898 17.304 14.538 16.38 14.124C16.26 14.07 16.14 14.016 16.014 13.962L15.654 13.794L15.474 13.71L15.294 13.626L14.934 13.446C14.82 13.386 14.7 13.326 14.58 13.26L14.406 13.17C14.346 13.14 14.292 13.104 14.232 13.074L13.884 12.882L13.542 12.678C12.63 12.144 11.748 11.544 10.92 10.89C10.506 10.56 10.104 10.212 9.71999 9.852C9.52799 9.666 9.34199 9.48 9.16199 9.294C9.11399 9.246 9.07199 9.198 9.02999 9.15C8.98199 9.102 8.94599 9.054 8.89799 9C8.84999 8.946 8.81399 8.904 8.77199 8.85L8.76599 8.844C8.74799 8.268 8.74199 7.92 8.74199 7.92L8.35199 7.83V8.358H8.01599V7.8L7.59599 7.896L7.60199 8.1L7.40399 8.208C7.40999 8.376 7.41599 8.586 7.41599 8.85C7.25399 9.126 5.51399 12.144 4.20599 13.068C4.16999 12.72 4.13999 12.36 4.13999 11.994C4.13399 9.894 4.94999 7.914 6.43199 6.426ZM16.776 15.858L15.96 15.888L15.3 14.172L15.426 14.238L15.792 14.418C15.912 14.478 16.032 14.532 16.158 14.592C16.194 14.61 16.23 14.628 16.26 14.64L16.776 15.858ZM16.578 14.784C16.908 14.934 17.238 15.078 17.562 15.21L17.832 15.816L17.016 15.846L16.578 14.784ZM15.72 15.894L14.892 15.924L14.028 13.476C14.082 13.506 14.136 13.542 14.19 13.566L14.37 13.662C14.484 13.728 14.604 13.794 14.724 13.86L14.994 14.004L15.72 15.894ZM14.646 15.93L13.908 15.954L12.828 12.738C12.996 12.846 13.158 12.954 13.326 13.056L13.674 13.272L13.722 13.302L14.646 15.93ZM13.662 15.96L12.888 15.99L11.604 11.886C11.898 12.108 12.198 12.318 12.504 12.528L13.662 15.96ZM12.636 15.996L11.892 16.02L10.374 10.896C10.482 10.986 10.59 11.082 10.698 11.172C10.89 11.334 11.082 11.49 11.28 11.64L12.636 15.996ZM11.652 16.032L10.824 16.062L9.01199 9.576C9.17399 9.75 9.33599 9.924 9.50399 10.092C9.67799 10.266 9.86399 10.44 10.038 10.608L11.652 16.032ZM10.584 16.068L9.86999 16.092L8.87399 12.282C8.84399 11.298 8.81399 10.392 8.79599 9.66L10.584 16.068ZM9.62999 16.092L9.01199 16.116C8.96999 15.21 8.93399 14.256 8.90999 13.332L9.62999 16.092ZM18.36 16.644C18.306 16.722 18.252 16.788 18.198 16.86L9.04799 16.68L9.04199 16.596L18.36 16.644ZM18.09 15.81L17.88 15.342C18.228 15.48 18.576 15.612 18.93 15.744C18.924 15.756 18.912 15.774 18.906 15.786L18.09 15.81ZM8.35799 10.056V10.542H7.98599V10.992H8.35799V11.478H7.98599V11.928H8.35799V12.834H7.98599V13.284H8.35799V14.22H7.98599V14.67H8.35799V16.14L8.01599 16.152V9.3H8.35199V9.606H7.97999V10.056H8.35799ZM4.81799 15.228L5.84399 11.772C6.25799 11.22 6.71399 10.524 7.19399 9.66L5.35799 16.23C5.15399 15.906 4.97399 15.57 4.81799 15.228ZM4.67399 14.886C4.49399 14.424 4.35599 13.95 4.26599 13.458C4.55399 13.23 4.96199 12.852 5.45399 12.264L4.67399 14.886ZM7.41599 9.744C7.41599 10.434 7.40399 11.28 7.38599 12.174L6.32999 16.206L5.59799 16.23L7.41599 9.744ZM7.36199 13.188C7.33199 14.184 7.29599 15.222 7.24799 16.176L6.56999 16.2L7.36199 13.188ZM5.95799 17.046L7.19399 17.094C7.16999 17.472 7.13999 17.838 7.11599 18.174C6.88199 17.982 6.64799 17.784 6.43799 17.568C6.26999 17.4 6.10799 17.226 5.95799 17.046ZM12.006 19.866C11.022 19.866 10.074 19.686 9.18599 19.344C9.14999 18.81 9.11399 18.162 9.08399 17.454L8.36999 17.214V18.972C8.25599 18.912 8.14199 18.852 8.02799 18.78V17.112L8.36999 17.124V17.136H8.74199L9.40799 17.16L17.694 17.454C17.658 17.49 17.628 17.526 17.598 17.556C16.086 19.05 14.106 19.866 12.006 19.866Z" fill="#FDB927"/>
</g>
</g>
</svg>
