<svg width="24" height="24" viewBox="0 0 24 24" fill="none" xmlns="http://www.w3.org/2000/svg">
<g id="Team=HOU">
<g id="Group">
<path id="Vector" d="M14.988 11.364L15.012 9.36599C15.012 8.42999 14.034 8.27399 13.314 8.27999C13.794 8.11799 14.376 7.84799 14.796 7.39199C15.24 6.98399 15.552 6.40799 15.498 5.60399C15.408 4.24799 13.71 3.57599 10.902 3.84599C10.854 3.85199 10.812 3.85799 10.764 3.85799C10.632 2.85599 10.428 1.88399 10.116 0.98999L9.978 1.12799C9.606 2.28599 9.384 3.20999 9.252 4.06799C7.578 4.35599 6.402 4.73999 6.402 4.73999L6.264 4.87799C6.264 4.87799 7.62 4.75799 9.162 4.77599C8.988 6.53399 9.168 8.20199 9.162 11.352C6.666 11.28 4.476 11.694 3.942 12.366C3.768 12.51 3.672 12.672 3.678 12.84C3.708 13.602 5.976 14.304 9.162 14.574L9.3 18.906L9.438 18.768L9.66 15.828C9.66 15.78 9.666 15.738 9.678 15.702C9.744 15.714 9.81 15.798 9.81 15.948L9.906 19.818L10.044 19.68L10.284 16.53C10.284 16.458 10.29 16.404 10.302 16.356C10.368 16.368 10.434 16.464 10.428 16.644L10.536 20.676L10.674 20.538L10.866 14.67C11.232 14.682 11.604 14.688 11.988 14.688C12.39 14.688 12.786 14.682 13.176 14.67L13.368 20.79L13.506 20.652L13.668 17.448C13.668 17.382 13.674 17.328 13.686 17.286C13.746 17.298 13.806 17.394 13.806 17.562L13.974 22.056L14.112 21.918L14.28 18.036C14.28 17.982 14.292 17.934 14.304 17.898C14.382 17.898 14.466 17.994 14.466 18.18L14.604 23.322L14.742 23.184L14.946 14.568C17.67 14.328 19.74 13.782 20.256 13.146C20.424 13.002 20.52 12.852 20.52 12.702C20.484 11.874 17.958 11.226 14.988 11.364ZM9.138 13.674C6.954 13.464 5.478 13.02 5.478 12.462C5.478 12.42 5.49 12.384 5.514 12.342C6.024 11.982 7.596 11.754 9.168 11.52C9.168 12.138 9.156 12.81 9.138 13.548V13.674ZM13.59 6.14999C13.674 6.76799 13.494 7.23599 13.176 7.58999C12.606 8.10599 11.712 8.33999 10.986 8.44799C10.998 7.28399 10.98 6.07199 10.878 4.88399C12.282 5.03399 13.488 5.38799 13.59 6.14999ZM13.176 13.794C12.834 13.806 12.486 13.812 12.126 13.812C11.706 13.812 11.292 13.806 10.896 13.788L10.914 13.29C10.878 12.03 10.956 10.446 10.98 8.75399C12.006 8.87399 13.236 9.16199 13.218 9.88199L13.176 13.794ZM18.612 12.822C18.102 13.224 16.752 13.536 14.964 13.692L14.988 11.544C17.034 11.808 18.696 12.108 18.696 12.6C18.696 12.672 18.666 12.75 18.612 12.822Z" fill="#061922"/>
<path id="Vector_2" d="M20.52 12.714C20.484 11.874 17.958 11.226 14.988 11.37L15.012 9.37198C15.006 8.13598 13.314 8.25598 12.744 8.33398C13.41 8.21398 15.636 7.65598 15.498 5.61598C15.408 4.25998 13.71 3.58798 10.902 3.85798C10.854 3.86398 10.812 3.86998 10.764 3.86998C10.632 2.86798 10.428 1.89598 10.116 1.00198C9.726 2.21398 9.498 3.16798 9.372 4.05598C7.632 4.34398 6.402 4.75198 6.402 4.75198C6.402 4.75198 7.758 4.63198 9.3 4.64998C9.126 6.43198 9.306 8.12398 9.3 11.37C6.348 11.268 3.786 11.838 3.816 12.714C3.84 13.476 6.114 14.178 9.3 14.448L9.438 18.78L9.66 15.84C9.666 15.474 9.942 15.51 9.942 15.822L10.044 19.692L10.284 16.542C10.278 16.116 10.578 16.14 10.566 16.518L10.674 20.55L10.866 14.538C11.274 14.55 11.694 14.562 12.12 14.562C12.522 14.562 12.918 14.556 13.308 14.544L13.5 20.664L13.662 17.46C13.662 17.052 13.938 17.07 13.938 17.436L14.106 21.93L14.274 18.048C14.286 17.664 14.592 17.682 14.598 18.048L14.736 23.19L14.94 14.454V14.448C18.18 14.178 20.52 13.476 20.52 12.714ZM13.728 6.01198C13.956 7.70398 12.228 8.26198 10.986 8.44798C10.998 7.22998 10.98 5.96398 10.866 4.72798C12.33 4.87198 13.62 5.21998 13.728 6.01198ZM5.478 12.462C5.478 11.946 7.392 11.67 9.306 11.382C9.306 12 9.294 12.672 9.276 13.41L9.282 13.692C7.014 13.482 5.478 13.032 5.478 12.462ZM10.896 13.788L10.914 13.29C10.878 11.988 10.962 10.35 10.98 8.60398C12.024 8.71198 13.374 8.99398 13.35 9.74998L13.314 13.794C12.93 13.806 12.534 13.812 12.126 13.812C11.706 13.806 11.298 13.8 10.896 13.788ZM14.964 13.692L14.994 11.388C17.1 11.658 18.834 11.964 18.834 12.462C18.834 13.032 17.25 13.488 14.964 13.692Z" fill="#CE1141"/>
</g>
</g>
</svg>
