<svg width="24" height="24" viewBox="0 0 24 24" fill="none" xmlns="http://www.w3.org/2000/svg">
<g id="Team=IND">
<g id="Group">
<path id="Vector" d="M19.116 6.042C17.91 4.59 16.182 3.78 14.238 3.78H6.468L2.862 20.166L9.498 20.172L10.452 16.206C11.34 16.206 13.686 16.206 13.68 16.206C15.9 16.224 17.724 15.468 18.954 14.028C21.18 11.604 20.784 8.058 19.116 6.042Z" fill="#BEC0C2"/>
<path id="Vector_2" d="M10.104 15.774L9.156 19.74H3.396L6.81 4.212L14.232 4.218C16.08 4.224 17.664 4.968 18.78 6.318C20.424 8.304 20.586 11.604 18.618 13.752C17.412 15.168 15.642 15.792 13.68 15.774H10.104Z" fill="#002D62"/>
<path id="Vector_3" d="M6.048 7.662H9.3C9.672 7.662 10.074 7.974 9.9 8.448C9.792 8.742 9.714 9.084 9.672 9.402C9.642 9.654 9.924 9.81 10.08 9.81L16.71 9.816C16.836 9.816 16.902 9.78 16.902 9.72C16.902 9.66 16.896 9.438 16.872 9.288C16.848 9.144 16.824 9.114 16.704 9.114C15.876 9.114 15.54 8.748 14.676 8.184C13.812 7.626 12.54 7.302 11.448 7.302L6.126 7.296L6.048 7.662Z" fill="#FDBB30"/>
<path id="Vector_4" d="M10.062 11.958C9.94799 11.712 9.83999 11.418 9.77399 11.154C9.68999 10.812 9.40199 10.53 8.90399 10.53H5.41199L5.49599 10.14L16.806 10.146C16.92 10.146 16.896 10.194 16.89 10.32C16.884 10.446 16.854 10.674 16.836 10.812C16.818 10.95 16.704 10.914 16.596 10.92C16.344 10.926 15.87 10.986 15.594 11.19C15.126 11.544 14.124 12.162 13.566 12.342C12.966 12.534 10.71 13.224 10.05 11.952" fill="#FDBB30"/>
<path id="Vector_5" d="M4.79401 13.368L10.698 13.374C10.956 13.374 11.184 13.434 11.358 13.578C11.856 13.992 12.504 14.286 13.188 14.484C13.494 14.574 14.028 14.46 14.502 14.19C15.684 13.524 16.446 12.252 16.692 11.43C16.758 11.214 16.632 11.232 16.464 11.244C15.966 11.28 15.444 11.73 14.754 12.168C14.064 12.606 12.666 13.02 11.334 13.02L4.86601 13.014L4.79401 13.368Z" fill="#FDBB30"/>
<path id="Vector_6" d="M13.452 5.46C13.536 5.448 13.836 5.43 13.998 5.49C15.12 5.934 16.182 7.098 16.626 8.34C16.71 8.58 16.734 8.73 16.626 8.742C16.11 8.796 15.87 8.544 15.27 8.136C14.664 7.728 14.106 7.446 13.344 7.206C12.588 6.966 11.214 6.93 11.034 6.924C10.854 6.918 10.878 6.846 10.956 6.768C11.616 6.114 12.498 5.634 13.452 5.46Z" fill="#FDBB30"/>
<path id="Vector_7" d="M18.834 9.72C18.84 9.768 18.786 9.822 18.726 9.822C18.72 9.822 17.43 9.822 17.43 9.822C17.262 9.822 17.262 9.744 17.256 9.648C17.25 9.552 17.22 9.366 17.22 9.252C17.214 9.144 17.172 9.018 17.322 8.958C17.682 8.808 18.024 8.454 18.18 8.154C18.234 8.052 18.312 7.884 18.396 8.028C18.702 8.508 18.798 9.114 18.834 9.72Z" fill="#FDBB30"/>
<path id="Vector_8" d="M18.372 12.042C18.348 12.084 18.27 12.12 18.24 12.048C18.054 11.544 17.604 11.196 17.292 11.022C17.196 10.968 17.19 10.908 17.202 10.818C17.214 10.728 17.256 10.434 17.262 10.308C17.268 10.212 17.304 10.14 17.382 10.14H18.732C18.78 10.14 18.84 10.182 18.84 10.218C18.834 10.86 18.642 11.496 18.372 12.042Z" fill="#FDBB30"/>
<path id="Vector_9" d="M14.868 14.574C14.772 14.586 14.568 14.556 14.892 14.364C15.87 13.794 16.746 12.456 16.974 11.694C17.064 11.4 17.07 11.388 17.184 11.418C17.334 11.46 17.568 11.664 17.748 11.916C17.928 12.162 18.006 12.648 17.904 12.792C17.208 13.728 16.086 14.394 14.868 14.574Z" fill="#FDBB30"/>
<path id="Vector_10" d="M17.358 8.526C17.13 8.646 17.088 8.628 17.04 8.454C16.614 6.96 15.36 5.856 14.844 5.532C14.748 5.472 14.772 5.43 14.844 5.436C16.074 5.598 17.274 6.27 17.88 7.188C18.228 7.71 17.58 8.406 17.358 8.526Z" fill="#FDBB30"/>
</g>
</g>
</svg>
