<svg width="24" height="24" viewBox="0 0 24 24" fill="none" xmlns="http://www.w3.org/2000/svg">
<g id="Team=LAC">
<g id="Group">
<path id="Vector" d="M21.6 12.03C21.6 17.334 17.298 21.63 12 21.63C6.70199 21.63 2.39999 17.328 2.39999 12.03C2.39999 6.73199 6.70199 2.42999 12 2.42999C17.298 2.42999 21.6 6.72599 21.6 12.03Z" fill="white"/>
<path id="Vector_2" d="M5.06399 11.394L3.22198 11.682C3.40198 6.98399 7.26599 3.23999 12.006 3.23999V3.28799V6.13799V6.98999V7.45799V7.93799L12.048 7.94999L12.18 7.45199H14.478L14.496 7.51199C14.472 7.67999 14.484 8.18399 15.33 8.54399L15.354 8.60999L12.006 8.52599L8.65799 8.60999L8.68199 8.54399C9.52199 8.18399 9.53399 7.67999 9.51599 7.51199L9.53399 7.45199H11.832L11.712 6.99599L10.038 7.04999L10.05 7.00799C10.548 6.72599 10.566 6.32999 10.554 6.18599L10.572 6.13199H11.484L11.22 5.10599C7.94999 5.47199 5.36399 8.09999 5.06399 11.394ZM17.94 8.37599L17.67 9.19199L17.73 9.31199H20.16L20.262 9.00599C19.074 5.74799 16.002 3.38999 12.36 3.24599L12.648 5.09399C14.892 5.29799 16.824 6.55799 17.94 8.37599ZM17.73 14.748L17.67 14.868L17.94 15.684C16.818 17.502 14.892 18.762 12.654 18.972L12.366 20.82C16.002 20.67 19.068 18.318 20.262 15.054L20.16 14.748H17.73ZM15.51 9.07799L15.486 9.00599H12.006H8.52599L8.50199 9.07799C8.49599 9.28799 8.39999 9.94799 7.48799 10.854L7.46398 10.932C7.97399 10.71 8.42999 10.53 8.86199 10.368C9.38999 10.17 9.88199 10.014 10.368 9.88199C10.632 9.80999 10.896 9.74999 11.148 9.69599C11.418 9.64199 11.688 9.59399 11.946 9.55799L12 9.55199L12.054 9.55799C12.276 9.58799 12.504 9.62399 12.738 9.67199C12.954 9.71399 13.182 9.76799 13.41 9.82799C13.824 9.93599 14.25 10.068 14.718 10.23C15.342 10.452 15.96 10.704 16.554 10.962L16.518 10.854C15.612 9.94799 15.51 9.28799 15.51 9.07799ZM13.956 7.01399C13.458 6.73199 13.44 6.33599 13.452 6.19199L13.434 6.13799H12.522L12.3 7.00199L13.974 7.05599L13.956 7.01399ZM13.56 16.146C13.566 16.158 13.572 16.164 13.584 16.176C13.602 16.2 13.632 16.224 13.662 16.242C13.692 16.26 13.734 16.284 13.782 16.308C13.866 16.344 13.968 16.38 14.1 16.41C14.34 16.47 14.61 16.5 14.85 16.524C14.916 16.53 14.982 16.536 15.048 16.542C15.156 16.23 15.288 15.924 15.444 15.612C15.162 15.738 14.862 15.846 14.544 15.936C14.142 16.056 13.794 16.116 13.56 16.146ZM9.91199 16.41C10.044 16.38 10.146 16.344 10.23 16.308C10.278 16.29 10.314 16.266 10.35 16.242C10.38 16.218 10.41 16.194 10.428 16.176C10.434 16.164 10.446 16.158 10.452 16.146C10.218 16.116 9.86999 16.056 9.46799 15.942C9.14999 15.852 8.84999 15.744 8.56799 15.618C8.71799 15.924 8.85599 16.236 8.96399 16.548C9.02999 16.542 9.09599 16.536 9.16199 16.53C9.39599 16.5 9.67199 16.47 9.91199 16.41ZM20.79 12.03V12.036V12.378L18.948 12.666L17.022 12.972C16.608 13.644 16.164 14.31 15.786 14.982C15.738 15.012 15.696 15.036 15.648 15.066C15.036 15.414 14.352 15.624 13.602 15.69C13.668 15.528 13.77 15.372 13.872 15.216C13.926 15.132 13.992 15.042 14.07 14.94C14.136 14.85 14.202 14.76 14.28 14.664C14.472 14.418 14.676 14.16 14.874 13.92C14.97 13.8 15.072 13.674 15.168 13.554L15.39 13.272C15.402 13.26 15.408 13.248 15.42 13.236C15.486 13.152 15.546 13.068 15.606 12.984C15.672 12.894 15.744 12.792 15.81 12.69C15.828 12.66 15.852 12.624 15.87 12.594C15.882 12.576 15.894 12.558 15.906 12.54L15.534 12.432C15.534 12.432 15.534 12.438 15.528 12.438C15.51 12.468 15.492 12.498 15.468 12.528C15.414 12.612 15.348 12.702 15.27 12.81C15.162 12.954 15.012 13.14 14.856 13.326C14.85 13.338 14.838 13.344 14.832 13.356C14.634 13.584 14.424 13.812 14.214 14.028C14.094 14.154 13.974 14.286 13.854 14.412C13.704 14.574 13.536 14.766 13.38 14.97C13.302 15.066 13.23 15.174 13.164 15.276C13.11 15.366 13.038 15.486 12.99 15.618C12.954 15.714 12.906 15.858 12.912 16.032C12.912 16.194 12.984 16.368 13.098 16.488C13.158 16.56 13.236 16.614 13.296 16.656C13.374 16.704 13.446 16.74 13.518 16.77C13.65 16.824 13.794 16.866 13.968 16.896C14.118 16.926 14.268 16.938 14.406 16.95C14.556 16.962 14.706 16.962 14.832 16.968C14.838 16.968 14.844 16.968 14.85 16.968C14.88 16.968 14.904 16.968 14.934 16.968C14.91 17.052 14.892 17.136 14.874 17.22C14.874 17.22 14.874 17.22 14.868 17.22L13.578 17.682L12.78 17.982L12.228 12.246L12.18 11.724L12.078 10.674L12.018 10.692V11.724V12.024V12.162V18.45V20.784V20.832C7.16399 20.832 3.22798 16.896 3.22798 12.048V12.042H5.16598H8.40599H8.91599L8.93399 11.988L8.09399 11.754L7.30199 11.538L7.33199 11.454C8.77799 10.812 10.356 10.194 12.024 9.96599C13.656 10.182 15.234 10.836 16.722 11.478L16.74 11.538L15.948 11.754L15.108 11.988L15.126 12.042H15.636H18.876H20.79V12.03ZM11.364 18.972L11.208 17.964L10.446 17.682L9.16199 17.22H9.15599C9.13799 17.136 9.11999 17.052 9.09599 16.968C9.12599 16.968 9.14999 16.968 9.17999 16.968C9.18599 16.968 9.19199 16.968 9.19799 16.968C9.32399 16.968 9.47399 16.968 9.62399 16.95C9.76199 16.938 9.91199 16.926 10.062 16.896C10.236 16.866 10.374 16.824 10.512 16.77C10.584 16.74 10.656 16.704 10.734 16.656C10.8 16.614 10.872 16.56 10.932 16.488C11.046 16.362 11.112 16.194 11.118 16.032C11.118 15.948 11.118 15.822 11.04 15.618C10.986 15.486 10.92 15.366 10.866 15.276C10.8 15.174 10.728 15.066 10.65 14.97C10.494 14.766 10.32 14.574 10.176 14.412C10.056 14.28 9.93599 14.154 9.81599 14.028C9.61199 13.806 9.39599 13.584 9.19799 13.356C9.19199 13.344 9.17999 13.338 9.17399 13.326C9.01199 13.14 8.86799 12.954 8.75399 12.81C8.67599 12.702 8.60999 12.612 8.55599 12.528C8.53799 12.498 8.51999 12.468 8.50199 12.438C8.50199 12.438 8.50199 12.432 8.49599 12.432L8.12399 12.54C8.13599 12.558 8.14799 12.576 8.15999 12.594C8.17799 12.624 8.20199 12.66 8.21999 12.69C8.28599 12.792 8.35799 12.894 8.42399 12.984C8.48399 13.068 8.54999 13.152 8.60999 13.236C8.61599 13.248 8.62799 13.26 8.63399 13.272L8.85599 13.554C8.95199 13.674 9.05399 13.8 9.14999 13.92C9.34799 14.166 9.55199 14.418 9.74399 14.664C9.82199 14.76 9.88799 14.856 9.95399 14.94C10.032 15.048 10.092 15.132 10.152 15.216C10.254 15.366 10.35 15.528 10.422 15.69C9.67799 15.624 8.98799 15.414 8.38199 15.066C8.33399 15.042 8.28598 15.012 8.24399 14.982C7.85999 14.31 7.42199 13.644 7.00799 12.972L5.07598 12.666C5.36998 16.008 8.02799 18.666 11.364 18.972Z" fill="#12173F"/>
</g>
</g>
</svg>
