<svg width="24" height="24" viewBox="0 0 24 24" fill="none" xmlns="http://www.w3.org/2000/svg">
<g id="Team=LAL">
<g id="Group 3">
<path id="Vector" d="M5.58 8.088C5.58 8.088 7.566 4.842 11.628 4.842C15.69 4.842 17.586 7.992 17.586 7.992H23.1L22.884 9.348C22.884 9.348 22.722 9.888 22.476 9.942H22.854C22.854 9.942 22.98 10.416 22.224 12.054H23.832C23.832 12.054 23.898 14.922 20.43 16.278C20.43 16.278 18.636 16.848 17.718 15.87C17.718 15.87 15.894 19.272 11.64 19.272C7.386 19.272 5.454 15.774 5.454 15.774H0.503998L1.29 14.358H0.755998L1.386 13.194H2.46L2.652 12.75H2.148L3.378 10.482H4.068L4.35 9.792H3.75L4.668 8.088H5.58Z" fill="white"/>
<path id="Vector_2" d="M11.688 18.516C15.168 18.516 17.988 15.654 17.988 12.12C17.988 8.586 15.168 5.724 11.688 5.724C8.208 5.724 5.388 8.586 5.388 12.12C5.388 15.654 8.208 18.516 11.688 18.516Z" fill="#FAB624"/>
<g id="Group">
<path id="Vector_3" d="M16.638 7.986C16.56 7.896 16.446 7.704 15.672 7.026C14.532 6.036 13.026 5.58 11.604 5.58C10.56 5.58 9.64199 5.814 8.63399 6.372C7.33799 7.08 6.80999 7.902 6.67799 8.07C6.58199 8.196 6.56399 8.262 6.62999 8.298C6.67799 8.322 6.76199 8.226 6.83999 8.118C7.22399 7.608 7.72799 7.11 8.25599 6.81C8.42399 6.834 8.65199 7.062 8.74199 7.188C8.39999 7.374 7.83599 7.8 7.62599 7.968C7.43999 8.112 7.37999 8.19 7.42799 8.25C7.46999 8.298 7.61399 8.202 7.72799 8.106C7.93199 7.938 8.53799 7.512 8.83799 7.35C9.04199 7.584 8.97599 8.028 8.90399 8.13C8.86199 8.184 8.86199 8.238 8.90399 8.262C8.94599 8.286 8.99399 8.226 9.05399 8.136C9.19799 7.938 9.13799 7.446 9.01799 7.272C9.38399 7.05 9.91199 6.894 10.23 6.822C10.26 6.876 10.644 8.004 10.716 8.202C10.758 8.316 10.8 8.448 10.878 8.418C10.932 8.4 10.896 8.274 10.848 8.154C10.788 7.998 10.5 7.056 10.41 6.774C10.518 6.714 11.148 6.588 11.31 6.594C11.232 7.008 11.52 7.176 11.856 7.392C12.036 7.506 13.146 8.148 13.38 8.292C13.512 8.376 13.614 8.43 13.644 8.388C13.674 8.34 13.584 8.25 13.458 8.184C13.356 8.124 12.324 7.524 11.892 7.248C11.58 7.056 11.412 6.84 11.49 6.57C11.592 6.54 11.904 6.54 12.228 6.54C14.436 6.558 16.212 7.83 16.41 8.028C16.512 8.13 16.65 8.22 16.704 8.178C16.746 8.16 16.686 8.04 16.638 7.986ZM8.92799 7.11C8.86799 7.008 8.58599 6.756 8.43599 6.702C8.78999 6.444 9.61199 6.066 9.92399 6C9.97799 6.09 10.122 6.474 10.17 6.63C9.89999 6.69 9.16799 6.96 8.92799 7.11ZM11.346 6.402C11.058 6.42 10.536 6.534 10.35 6.588C10.302 6.462 10.17 6.072 10.128 5.952C10.662 5.802 11.274 5.754 11.754 5.79C11.616 5.886 11.394 6.282 11.346 6.402ZM12.78 6.384C12.3 6.348 11.91 6.336 11.568 6.372C11.67 6.126 11.862 5.886 12.018 5.79C12.342 5.802 12.678 5.85 12.954 5.904C13.812 6.078 15.138 6.594 15.714 7.362C14.946 6.846 13.674 6.444 12.78 6.384Z" fill="#0B1A23"/>
<path id="Vector_4" d="M17.118 15.558C17.202 15.408 17.268 15.324 17.196 15.282C17.13 15.246 17.07 15.39 16.992 15.516C16.734 15.966 16.452 16.338 15.816 16.914C15.114 17.556 14.298 17.928 14.016 18.024C13.776 17.352 12.858 14.472 12.834 14.388C12.798 14.262 12.768 14.226 12.726 14.244C12.678 14.262 12.708 14.328 12.732 14.436C12.756 14.544 13.848 17.946 13.884 18.072C13.668 18.18 12.792 18.426 12.174 18.444C11.622 18.462 10.986 18.444 10.662 18.366C10.284 18.06 9.414 16.836 9.09 16.188C8.7 15.42 8.448 14.718 8.382 14.418C8.352 14.274 8.31 14.172 8.238 14.19C8.16 14.208 8.202 14.322 8.25 14.472C8.37 14.868 8.556 15.426 8.958 16.224C9.384 17.07 10.146 18.054 10.368 18.33C9.672 18.18 8.826 17.856 8.022 17.262C7.332 16.746 6.732 16.086 6.432 15.606C6.378 15.522 6.318 15.408 6.246 15.456C6.21 15.48 6.252 15.576 6.306 15.66C6.744 16.44 7.8 17.544 9.162 18.156C10.746 18.864 12.468 18.822 14.022 18.228C15.366 17.694 16.536 16.62 17.118 15.558Z" fill="#0B1A23"/>
</g>
<g id="Group_2">
<path id="Vector_5" d="M14.562 12.78C13.974 13.494 13.638 13.74 13.044 13.74C12.846 13.74 12.738 13.692 12.792 13.596L13.5 12.174H13.77C14.07 12.174 14.028 12.426 13.95 12.768C13.932 12.816 13.974 12.822 14.01 12.78L14.682 11.598C14.718 11.52 14.628 11.508 14.586 11.562C14.25 12.024 13.896 11.988 13.74 11.988H13.614L14.37 10.542H14.676C15.06 10.566 15.24 10.89 15.132 11.676H15.294L15.852 10.578C15.9 10.482 15.798 10.398 15.696 10.398H11.922C11.706 10.398 11.694 10.566 11.904 10.566C12.078 10.566 12.066 10.806 11.91 10.926L10.308 12.198L10.632 13.698C10.656 13.812 10.728 13.866 10.854 13.866H13.98C14.112 13.866 14.166 13.812 14.202 13.758L14.772 12.786C14.838 12.648 14.658 12.66 14.562 12.78ZM12.378 12.09H12.102C12.084 12.09 12.066 12.108 12.066 12.126C12.066 12.144 12.084 12.162 12.102 12.162H12.378C12.474 12.162 12.564 12.174 12.54 12.216L11.82 13.584C11.73 13.752 11.544 13.71 11.514 13.578L11.154 11.73L12.414 10.758C12.54 10.65 12.78 10.476 12.906 10.482H13.176C13.344 10.482 13.398 10.56 13.368 10.662L13.32 10.758C13.29 10.812 13.188 10.818 13.11 10.818H12.948C12.93 10.818 12.912 10.836 12.912 10.854C12.912 10.872 12.93 10.89 12.948 10.89H13.104C13.17 10.89 13.26 10.89 13.224 10.944L12.642 12.054C12.606 12.084 12.486 12.09 12.378 12.09Z" fill="#542C81"/>
<path id="Vector_6" d="M9.79198 13.704C9.70798 13.704 9.64798 13.644 9.62998 13.584C9.59998 13.5 9.60598 13.362 9.63598 13.302L11.094 10.722C11.118 10.674 11.178 10.572 11.25 10.572C11.382 10.572 11.436 10.398 11.214 10.398H10.05C9.83398 10.398 9.83398 10.566 10.038 10.566C10.122 10.566 10.158 10.65 10.134 10.704L9.80998 11.286C9.76798 11.352 9.67798 11.358 9.58798 11.358H9.31198C9.29398 11.358 9.27598 11.376 9.27598 11.394C9.27598 11.412 9.29398 11.43 9.31198 11.43H9.58798C9.66598 11.43 9.72598 11.454 9.67798 11.544L8.60398 13.506C8.52598 13.614 8.37598 13.638 8.38198 13.428L8.76598 10.554C8.78398 10.464 8.75998 10.404 8.65798 10.404H8.07598C8.00398 10.404 7.96198 10.44 7.93198 10.482L7.72798 10.74C7.69798 10.77 7.64398 10.77 7.57798 10.77H7.09198C7.07398 10.77 7.05598 10.788 7.05598 10.806C7.05598 10.824 7.07398 10.842 7.09198 10.842H7.48798C7.55998 10.842 7.64398 10.86 7.61398 10.89L7.05598 11.586C7.03798 11.604 6.98398 11.61 6.94798 11.61H6.78598C6.76798 11.61 6.74998 11.628 6.74998 11.646C6.74998 11.664 6.76798 11.682 6.78598 11.682H6.91798C6.95998 11.682 6.95998 11.7 6.94198 11.718L6.41998 12.372C6.38998 12.396 6.34198 12.402 6.28798 12.402H5.82598C5.80798 12.402 5.78998 12.42 5.78998 12.438C5.78998 12.456 5.80798 12.474 5.82598 12.474H6.22198C6.28198 12.474 6.32998 12.486 6.29998 12.528L5.56198 13.458C5.41798 13.638 4.75198 13.722 4.61998 13.722L7.12798 9.03C7.15198 8.976 7.24798 8.892 7.33798 8.892H7.87198C8.11798 8.892 8.11198 8.724 7.89598 8.724H5.23198C5.01598 8.724 5.00998 8.892 5.25598 8.892H5.75398C5.89798 8.892 5.93998 8.976 5.90398 9.048L5.83198 9.18C5.80798 9.222 5.77198 9.24 5.63998 9.24H4.75798C4.73998 9.24 4.72198 9.258 4.72198 9.276C4.72198 9.294 4.73998 9.312 4.75798 9.312H5.63398C5.68198 9.312 5.75398 9.324 5.71198 9.414L5.58598 9.642C5.56198 9.678 5.50798 9.696 5.44798 9.696H5.05198C5.03398 9.696 5.01598 9.714 5.01598 9.732C5.01598 9.75 5.03398 9.768 5.05198 9.768H5.44798C5.50798 9.768 5.50798 9.804 5.47198 9.858L5.18998 10.386C5.16598 10.434 5.11798 10.44 5.02798 10.44H4.86598C4.84798 10.44 4.82998 10.458 4.82998 10.476C4.82998 10.494 4.84798 10.512 4.86598 10.512H5.02798C5.08798 10.512 5.10598 10.548 5.07598 10.602L4.84798 11.034C4.81198 11.094 4.76398 11.124 4.61398 11.124H3.73798C3.71998 11.124 3.70198 11.142 3.70198 11.16C3.70198 11.178 3.71998 11.196 3.73798 11.196H4.61398C4.71598 11.196 4.75198 11.244 4.70998 11.316L4.25998 12.168C4.22998 12.204 4.15798 12.21 4.03798 12.21H3.15598C3.13798 12.21 3.11998 12.228 3.11998 12.246C3.11998 12.264 3.13798 12.282 3.15598 12.282H4.02598C4.13398 12.282 4.19998 12.288 4.16398 12.342L3.90598 12.834C3.85798 12.912 3.71998 12.912 3.67198 12.912H3.39598C3.37798 12.912 3.35998 12.93 3.35998 12.948C3.35998 12.966 3.37798 12.984 3.39598 12.984H3.67198C3.76798 12.984 3.82198 13.002 3.79798 13.056L3.44998 13.71C3.41998 13.77 3.28198 13.77 3.17998 13.77H1.81798C1.79998 13.77 1.78198 13.788 1.78198 13.806C1.78198 13.824 1.79998 13.842 1.81798 13.842H3.17398C3.26398 13.842 3.37198 13.854 3.33598 13.926L3.11398 14.346C3.08998 14.382 3.01798 14.382 2.90998 14.382H2.63398C2.61598 14.382 2.59798 14.4 2.59798 14.418C2.59798 14.436 2.61598 14.454 2.63398 14.454H2.90998C2.97598 14.454 3.05998 14.46 3.02998 14.514L2.89198 14.778C2.84398 14.844 2.80198 14.904 2.69998 14.904H1.99798C1.75198 14.904 1.75798 15.072 1.97398 15.072H5.96398C6.08398 15.072 6.08398 15.054 6.14398 14.97L6.73198 13.938H9.75598C9.97798 13.878 9.91798 13.71 9.79198 13.704ZM7.41598 13.398C7.38598 13.572 7.21798 13.68 7.00198 13.734L6.77998 13.788L6.96598 13.458C7.01398 13.368 6.90598 13.314 6.79198 13.446C6.01798 14.346 5.77798 14.778 4.58398 14.784H4.25998C4.16398 14.784 4.06198 14.748 4.12198 14.652L4.54198 13.866H6.14398C6.35998 13.866 6.30598 13.698 6.17998 13.692C6.09598 13.692 5.99998 13.638 5.93998 13.536C5.92198 13.506 5.87998 13.392 5.94598 13.308L6.55798 12.492H7.56598L7.41598 13.398ZM7.64998 12.372H6.65998L7.91998 10.71L7.64998 12.372Z" fill="#542C81"/>
<path id="Vector_7" d="M22.776 12.882C22.758 12.798 22.728 12.852 22.674 12.954C22.656 12.984 22.602 12.984 22.554 12.984H22.392C22.374 12.984 22.356 13.002 22.356 13.02C22.356 13.038 22.374 13.056 22.392 13.056H22.554C22.614 13.056 22.614 13.098 22.59 13.158C22.476 13.392 22.368 13.548 22.218 13.74C22.194 13.77 22.134 13.794 22.086 13.794H21.924C21.906 13.794 21.888 13.812 21.888 13.83C21.888 13.848 21.906 13.866 21.924 13.866H22.086C22.164 13.866 22.086 13.914 22.074 13.932C21.798 14.304 21.6 14.472 21.402 14.634C21.378 14.652 21.258 14.646 21.186 14.646H21.024C21.006 14.646 20.988 14.664 20.988 14.682C20.988 14.7 21.006 14.718 21.024 14.718H21.18C21.3 14.718 21.21 14.79 21.192 14.802C20.754 15.162 20.112 15.282 19.818 15.246C18.852 15.126 18.66 14.394 18.588 14.106C18.57 14.046 18.528 13.92 18.51 13.842C18.48 13.686 18.912 13.65 19.038 13.722C19.224 13.848 19.638 13.968 19.98 13.968C20.286 13.968 20.922 13.746 21.102 13.218C21.294 12.672 20.82 12.078 20.61 11.862C20.346 11.598 20.094 11.178 20.202 10.866C20.28 10.638 20.412 10.53 20.7 10.53C21.066 10.53 21.336 10.764 21.336 11.106C21.336 11.136 21.318 11.172 21.294 11.172H21.162C21.144 11.172 21.126 11.19 21.126 11.208C21.126 11.226 21.144 11.244 21.162 11.244H21.288C21.324 11.244 21.342 11.268 21.336 11.316C21.312 11.43 21.306 11.508 21.276 11.616C21.264 11.682 21.36 11.73 21.39 11.682L21.972 10.65C22.014 10.572 21.918 10.548 21.852 10.572C21.69 10.626 21.438 10.668 21.342 10.602C21.126 10.446 20.928 10.35 20.628 10.35C20.112 10.35 19.752 10.476 19.524 10.902C19.506 10.938 19.452 10.932 19.41 10.932H19.308C19.29 10.932 19.272 10.95 19.272 10.968C19.272 10.986 19.29 11.004 19.308 11.004H19.392C19.428 11.004 19.452 11.016 19.434 11.058C19.416 11.094 19.404 11.136 19.392 11.178C19.332 11.364 19.35 11.616 19.446 11.844C19.452 11.862 19.434 11.868 19.398 11.868H19.236C19.218 11.868 19.2 11.886 19.2 11.904C19.2 11.922 19.218 11.94 19.236 11.94H19.398C19.47 11.94 19.488 11.946 19.518 11.988C19.602 12.102 19.686 12.186 19.782 12.318C19.818 12.36 19.674 12.372 19.596 12.372H18.978C18.96 12.372 18.942 12.39 18.942 12.408C18.942 12.426 18.96 12.444 18.978 12.444H19.608C19.71 12.444 19.884 12.444 19.902 12.462C20.058 12.642 20.238 12.912 20.268 13.134C20.274 13.2 20.25 13.23 20.172 13.23H20.088C20.07 13.23 20.052 13.248 20.052 13.266C20.052 13.284 20.07 13.302 20.088 13.302H20.166C20.232 13.302 20.268 13.314 20.25 13.362C20.166 13.62 20.046 13.812 19.548 13.812C19.02 13.812 18.918 13.296 19.068 12.762C19.098 12.654 19.068 12.606 19.02 12.69L18.654 13.266C18.642 13.278 18.612 13.314 18.552 13.314H18.498C18.48 13.314 18.462 13.332 18.462 13.35C18.462 13.368 18.48 13.386 18.498 13.386C18.546 13.386 18.564 13.41 18.546 13.434L18.408 13.638C18.192 13.134 17.82 12.516 17.622 12.288L17.628 12.276C18.114 12.246 18.828 11.79 18.948 11.382C19.146 10.68 18.462 10.416 18.09 10.416H16.446C16.23 10.416 16.212 10.584 16.422 10.584C16.536 10.584 16.632 10.686 16.584 10.782L16.218 11.436C16.188 11.49 16.074 11.49 15.93 11.49H15.768C15.75 11.49 15.732 11.508 15.732 11.526C15.732 11.544 15.75 11.562 15.768 11.562H15.924C16.032 11.562 16.14 11.568 16.11 11.646L15.678 12.42C15.654 12.456 15.6 12.462 15.456 12.462H15.294C15.276 12.462 15.258 12.48 15.258 12.498C15.258 12.516 15.276 12.534 15.294 12.534H15.45C15.57 12.534 15.612 12.552 15.576 12.612L15 13.65C14.928 13.728 14.85 13.74 14.712 13.74C14.508 13.74 14.508 13.908 14.724 13.908H16.128C16.344 13.908 16.296 13.734 16.164 13.734C16.086 13.734 16.008 13.59 16.056 13.512L16.77 12.15H16.842C17.16 12.15 17.238 12.678 17.298 13.242C17.304 13.284 17.226 13.284 17.07 13.284H16.668C16.65 13.284 16.632 13.302 16.632 13.32C16.632 13.338 16.65 13.356 16.668 13.356H17.064C17.172 13.356 17.31 13.356 17.316 13.392C17.346 13.638 17.364 13.866 17.412 14.064C17.43 14.13 17.316 14.118 17.196 14.118H16.68C16.662 14.118 16.644 14.136 16.644 14.154C16.644 14.172 16.662 14.19 16.68 14.19H17.19C17.352 14.19 17.43 14.19 17.436 14.22C17.652 15.024 18.594 15.654 19.506 15.618C20.286 15.588 20.946 15.162 21.282 14.892C21.732 14.532 22.392 13.776 22.662 13.224C22.71 13.104 22.794 12.972 22.776 12.882ZM17.508 11.814C17.394 11.904 17.226 12.006 17.196 11.976C17.148 11.928 17.004 11.826 16.926 11.79L17.574 10.602C17.604 10.56 17.634 10.536 17.706 10.536C17.958 10.536 18.042 10.812 17.922 11.154C17.838 11.394 17.706 11.658 17.508 11.814Z" fill="#542C81"/>
<path id="Vector_8" d="M9.59997 9.342C9.46797 9.516 9.29397 9.552 9.09597 9.552H9.04197L9.38997 8.868C9.40797 8.838 9.44397 8.814 9.49197 8.814C9.53397 8.814 9.52797 8.724 9.47397 8.724H8.92797C8.87997 8.724 8.86197 8.814 8.90997 8.814C8.95797 8.814 8.96397 8.868 8.94597 8.91L8.63997 9.516C8.61597 9.552 8.58597 9.558 8.54397 9.57C8.49597 9.582 8.46597 9.666 8.51997 9.666H9.38997C9.45597 9.666 9.47397 9.642 9.49197 9.618L9.67197 9.348C9.67197 9.318 9.62397 9.312 9.59997 9.342Z" fill="#542C81"/>
<path id="Vector_9" d="M18.252 8.99399L18.33 8.84999C18.366 8.78999 18.306 8.71799 18.222 8.71799H17.208C17.136 8.71799 17.154 8.79599 17.184 8.79599C17.25 8.79599 17.268 8.87399 17.232 8.94599L16.926 9.50999C16.878 9.56399 16.848 9.58799 16.782 9.58799C16.728 9.58799 16.71 9.66599 16.782 9.66599H17.808C17.85 9.66599 17.868 9.64799 17.886 9.62999L18.03 9.44399C18.066 9.39599 17.988 9.39599 17.97 9.41999C17.79 9.59999 17.604 9.59399 17.46 9.59399H17.34L17.484 9.28199H17.514C17.604 9.28199 17.706 9.28199 17.736 9.35399C17.742 9.37199 17.79 9.38399 17.808 9.35399L17.928 9.11399C17.946 9.07799 17.892 9.07199 17.88 9.09599C17.832 9.17999 17.628 9.15599 17.568 9.15599H17.538L17.718 8.80799H17.91C18.036 8.80799 18.132 8.89799 18.168 8.98799C18.18 9.00599 18.24 9.02399 18.252 8.99399Z" fill="#542C81"/>
<path id="Vector_10" d="M22.056 8.75399C22.032 8.76599 21.966 8.77799 21.936 8.75399C21.864 8.69399 21.732 8.65199 21.66 8.65199C21.456 8.65199 21.306 8.69399 21.216 8.88599C21.138 9.05399 21.216 9.18599 21.402 9.27599C21.48 9.31199 21.588 9.35999 21.546 9.45599C21.516 9.52799 21.432 9.53399 21.36 9.53399C21.264 9.53399 21.12 9.46199 21.096 9.32399C21.09 9.27599 21.036 9.28799 21.018 9.31199L20.892 9.55799C20.874 9.59399 20.922 9.62999 20.946 9.60599C20.988 9.55799 21.084 9.55199 21.126 9.58199C21.186 9.62399 21.342 9.69599 21.438 9.69599C21.642 9.69599 21.78 9.64199 21.9 9.46799C22.008 9.29999 21.942 9.14399 21.75 9.05399C21.648 9.00599 21.564 8.92199 21.606 8.83199C21.636 8.77199 21.726 8.78399 21.774 8.78999C21.858 8.80199 21.966 8.88599 21.978 8.95799C21.984 8.98799 22.02 8.99399 22.038 8.96399L22.104 8.80799C22.116 8.76599 22.068 8.74199 22.056 8.75399Z" fill="#542C81"/>
<path id="Vector_11" d="M19.332 9.342C19.2 9.516 19.026 9.552 18.828 9.552H18.774L19.122 8.868C19.14 8.838 19.176 8.814 19.224 8.814C19.266 8.814 19.26 8.724 19.206 8.724H18.66C18.612 8.724 18.594 8.814 18.642 8.814C18.69 8.814 18.696 8.868 18.678 8.91L18.372 9.516C18.348 9.552 18.318 9.558 18.276 9.57C18.228 9.582 18.198 9.666 18.252 9.666H19.122C19.188 9.666 19.206 9.642 19.224 9.618L19.404 9.348C19.404 9.318 19.356 9.312 19.332 9.342Z" fill="#542C81"/>
<path id="Vector_12" d="M20.64 8.808C20.766 8.808 20.862 8.898 20.898 8.988C20.904 9.012 20.97 9.03 20.988 9L21.066 8.856C21.102 8.796 21.042 8.724 20.958 8.724H19.944C19.872 8.724 19.89 8.802 19.92 8.802C19.986 8.802 20.004 8.88 19.968 8.952L19.662 9.516C19.614 9.57 19.584 9.594 19.518 9.594C19.464 9.594 19.446 9.672 19.518 9.672H20.544C20.586 9.672 20.604 9.654 20.622 9.636L20.766 9.45C20.802 9.402 20.724 9.402 20.706 9.426C20.526 9.606 20.34 9.6 20.196 9.6H20.076L20.22 9.288H20.25C20.34 9.288 20.442 9.288 20.472 9.354C20.478 9.372 20.526 9.384 20.544 9.354L20.664 9.114C20.682 9.078 20.628 9.072 20.616 9.096C20.568 9.18 20.364 9.156 20.304 9.156H20.274L20.454 8.808H20.646H20.64Z" fill="#542C81"/>
<path id="Vector_13" d="M15.654 8.724H15.294C15.222 8.724 15.24 8.802 15.27 8.802C15.348 8.802 15.42 8.892 15.378 8.976L15.228 9.246L14.898 8.76C14.874 8.73 14.82 8.712 14.778 8.712H14.424C14.352 8.712 14.364 8.79 14.4 8.79C14.478 8.79 14.454 8.85 14.436 8.886L14.154 9.432C14.136 9.474 14.058 9.48 14.034 9.426L13.818 8.712C13.806 8.682 13.68 8.682 13.644 8.712L13.092 9.168H12.81C12.75 9.168 12.732 9.192 12.732 9.222C12.732 9.252 12.756 9.282 12.816 9.282H12.966L12.816 9.408C12.732 9.468 12.648 9.558 12.594 9.558H12.558C12.504 9.558 12.474 9.564 12.474 9.612C12.474 9.654 12.498 9.672 12.546 9.672H12.99C13.074 9.672 13.056 9.564 13.014 9.564C12.966 9.564 12.888 9.504 12.96 9.42L13.098 9.288H13.362C13.524 9.288 13.626 9.474 13.542 9.528L13.47 9.57C13.434 9.588 13.422 9.672 13.47 9.672H14.34C14.406 9.672 14.394 9.588 14.364 9.588C14.274 9.588 14.316 9.456 14.334 9.426L14.562 8.994L14.88 9.612C14.904 9.654 14.922 9.672 14.958 9.672H15.084C15.126 9.672 15.138 9.648 15.156 9.618L15.522 8.964C15.582 8.844 15.63 8.808 15.702 8.808C15.708 8.808 15.732 8.724 15.654 8.724ZM13.23 9.174L13.566 8.898V9.174H13.23Z" fill="#542C81"/>
<path id="Vector_14" d="M10.524 8.68799C10.218 8.68799 9.906 8.83799 9.846 9.16199C9.792 9.43799 9.984 9.73199 10.326 9.73199C10.65 9.73199 10.944 9.52199 11.01 9.20999C11.064 8.89799 10.83 8.68799 10.524 8.68799ZM10.608 9.27599C10.512 9.46799 10.35 9.58199 10.248 9.52799C10.146 9.47399 10.14 9.28199 10.236 9.08399C10.332 8.89199 10.494 8.77799 10.596 8.83199C10.704 8.88599 10.71 9.07799 10.608 9.27599Z" fill="#542C81"/>
<path id="Vector_15" d="M12.216 8.75399C12.192 8.76599 12.126 8.77799 12.096 8.75399C12.024 8.69399 11.892 8.65199 11.82 8.65199C11.616 8.65199 11.466 8.69399 11.376 8.88599C11.298 9.05399 11.376 9.18599 11.562 9.27599C11.64 9.31199 11.748 9.35999 11.706 9.45599C11.676 9.52799 11.592 9.53399 11.52 9.53399C11.424 9.53399 11.28 9.46199 11.256 9.32399C11.25 9.27599 11.196 9.28799 11.178 9.31199L11.052 9.55799C11.034 9.59399 11.082 9.62999 11.106 9.60599C11.148 9.55799 11.238 9.55199 11.286 9.58199C11.346 9.62399 11.502 9.69599 11.598 9.69599C11.802 9.69599 11.94 9.64199 12.06 9.46799C12.168 9.29999 12.102 9.14399 11.91 9.05399C11.808 9.00599 11.724 8.92199 11.766 8.83199C11.796 8.77199 11.886 8.78399 11.934 8.78999C12.018 8.80199 12.126 8.88599 12.138 8.95799C12.144 8.98799 12.18 8.99399 12.198 8.96399L12.264 8.80799C12.282 8.76599 12.234 8.74199 12.216 8.75399Z" fill="#542C81"/>
<path id="Vector_16" d="M16.686 9.14999H16.296C16.224 9.14999 16.242 9.22799 16.272 9.22799C16.302 9.22799 16.332 9.24599 16.332 9.29399C16.332 9.45599 16.266 9.50999 16.134 9.50999C15.984 9.50999 15.936 9.32399 16.032 9.10799C16.098 8.96399 16.266 8.83799 16.47 8.83799C16.596 8.83799 16.692 8.86799 16.71 8.98199C16.716 9.01199 16.758 9.01199 16.77 8.98199L16.866 8.81399C16.878 8.79599 16.86 8.77199 16.83 8.77199C16.806 8.77199 16.752 8.80199 16.716 8.77799C16.638 8.71799 16.47 8.66399 16.338 8.66399C16.128 8.66399 15.834 8.71199 15.636 9.05399C15.456 9.36599 15.72 9.68999 15.96 9.68999C16.098 9.68999 16.248 9.58799 16.338 9.55199L16.44 9.61799C16.458 9.63599 16.488 9.65999 16.518 9.65999H16.554C16.59 9.65999 16.602 9.61199 16.614 9.58199L16.77 9.20999C16.782 9.17999 16.77 9.14999 16.686 9.14999Z" fill="#542C81"/>
</g>
</g>
</g>
</svg>
