<svg width="24" height="24" viewBox="0 0 24 24" fill="none" xmlns="http://www.w3.org/2000/svg">
<g id="Team=MEM">
<g id="Group">
<path id="Vector" d="M19.734 7.75199C19.956 7.33199 20.058 6.91799 20.058 6.51599C20.058 5.60999 19.548 4.78799 18.834 4.30199C17.838 3.62999 16.35 3.52799 15.3 4.79399C13.764 4.58399 12.474 5.00399 11.982 5.21399C11.49 5.01599 10.2 4.58999 8.66399 4.79399C7.60799 3.53399 6.11399 3.62999 5.12399 4.30199C4.40999 4.78799 3.89999 5.60399 3.89999 6.51599C3.89999 6.91799 4.00199 7.33199 4.22399 7.75199C3.43199 8.89799 2.87399 10.26 2.87399 11.646C2.87399 13.314 3.58799 14.178 3.85799 14.55C3.85799 14.55 3.97199 14.436 4.07399 14.334C4.82999 16.254 6.12599 17.292 7.68599 18.234C7.68599 18.234 7.72199 18.048 7.74599 17.874C9.42599 19.332 10.224 18.972 11.976 20.946C13.716 18.972 14.544 19.32 16.206 17.874C16.236 18.048 16.266 18.234 16.266 18.234C16.962 17.814 18.924 16.758 19.878 14.334C19.974 14.43 20.094 14.55 20.094 14.55C20.262 14.322 21.078 13.41 21.078 11.646C21.084 10.266 20.538 8.89799 19.734 7.75199Z" fill="#707271"/>
<path id="Vector_2" d="M19.254 7.776C20.862 5.316 17.22 2.754 15.462 5.232C13.686 4.92 12.18 5.562 11.982 5.658C11.784 5.568 10.278 4.914 8.50199 5.232C6.74399 2.754 3.10199 5.316 4.70999 7.776C2.87999 10.284 3.05999 12.762 3.91199 13.926L4.25999 13.578C4.25999 13.578 4.75799 15.996 7.39199 17.586L7.48799 17.064C9.10799 18.798 10.59 18.756 11.982 20.34C13.374 18.756 14.856 18.798 16.476 17.064L16.572 17.586C19.206 15.996 19.704 13.578 19.704 13.578L20.052 13.926C20.904 12.756 21.084 10.284 19.254 7.776Z" fill="#12173F"/>
<path id="Vector_3" d="M12 16.98C12 16.98 10.74 16.998 10.548 17.118C10.548 17.118 10.332 17.496 12 17.49C13.59 17.484 13.356 17.19 13.368 17.154C13.356 17.142 12.828 16.98 12 16.98Z" fill="#5D76A9"/>
<path id="Vector_4" d="M10.902 15.51C10.902 15.51 11.094 14.94 11.31 15.12C11.604 15.372 11.982 15.882 11.982 15.93V16.608L11.52 16.632C11.256 16.638 10.398 16.842 10.398 16.842C9.222 13.932 9.87 11.736 10.188 10.944C9.024 11.196 8.832 9.80399 8.832 9.80399C8.952 9.77999 9.132 9.83399 9.336 9.92999C9.642 10.08 10.014 10.332 10.308 10.56C10.392 10.626 10.476 10.692 10.542 10.746C11.334 11.412 11.976 11.28 11.976 11.28V14.124C11.982 14.124 9.672 13.95 10.902 15.51Z" fill="#5D76A9"/>
<path id="Vector_5" d="M13.068 15.51C14.538 14.016 12.138 14.106 11.988 14.13C12.234 14.142 14.094 14.154 13.068 15.51Z" fill="#5D76A9"/>
<path id="Vector_6" d="M14.046 10.998C15.372 14.562 13.692 16.854 13.68 16.866C14.718 14.142 14.052 11.874 13.596 11.028C13.362 11.052 13.08 11.04 13.08 11.04C13.08 11.04 13.434 10.824 13.656 10.62C13.674 10.602 13.692 10.59 13.71 10.572C13.896 10.404 14.256 10.11 14.7 9.93599C14.862 9.87599 15.03 9.82799 15.21 9.80999C15.21 9.80399 15.084 10.986 14.046 10.998Z" fill="#5D76A9"/>
<path id="Vector_7" d="M16.14 6.38399C16.14 6.38399 16.68 5.03399 18.336 5.36399C18.336 5.36399 16.818 4.36199 15.762 6.16799C15.762 6.16799 14.25 5.45999 11.988 6.43799C11.988 6.43799 9.864 5.68799 8.25 6.11399C8.25 6.11399 7.308 4.48199 5.982 5.15399C4.656 5.82599 5.34 7.37999 5.568 7.78199C5.568 7.78199 3.366 10.02 4.194 12.786L4.632 12.234C4.632 12.234 5.262 15.252 6.894 16.2L6.99 15.456C6.99 15.456 8.694 17.508 10.692 18.384C10.878 18.474 11.946 19.002 11.97 19.26V17.826C11.97 17.826 10.584 17.94 10.218 17.298C9.966 16.866 8.37 14.016 9.162 11.034C9.162 11.034 8.394 10.92 8.25 9.62399C8.25 9.62399 7.68 9.34199 6.966 9.40199C6.966 9.40199 8.238 8.99999 9.426 9.46199C10.62 9.92399 10.932 11.094 11.748 10.578L11.97 7.27199L12.222 10.59C13.026 11.112 13.35 9.92999 14.544 9.47399C15.738 9.01199 17.004 9.41399 17.004 9.41399C17.004 9.41399 16.494 9.05399 15.678 8.89199C15 8.75399 13.992 9.19199 13.992 9.19199C13.992 9.19199 14.13 8.25599 14.586 7.75199C14.982 7.31999 15.87 7.22399 16.14 6.38399ZM5.856 7.52999C5.808 7.07999 6.378 6.62999 6.378 6.62999C6.144 6.38999 5.73 6.59399 5.73 6.59399C6.102 5.86799 6.936 6.22199 6.936 6.22199C6.624 5.83199 5.952 5.86199 5.952 5.86199C6.78 5.03999 7.782 6.29999 7.782 6.29999C6.888 6.49799 5.856 7.52999 5.856 7.52999Z" fill="#5D76A9"/>
<path id="Vector_8" d="M10.314 10.56C10.188 10.518 9.97799 10.65 9.85799 10.878C9.46199 10.764 9.32399 10.338 9.34199 9.92999C9.64799 10.08 10.014 10.332 10.314 10.56Z" fill="#FFBB22"/>
<path id="Vector_9" d="M14.196 10.884C14.07 10.644 13.848 10.506 13.722 10.572C13.908 10.404 14.268 10.11 14.712 9.936C14.724 10.338 14.58 10.764 14.196 10.884Z" fill="#FFBB22"/>
</g>
</g>
</svg>
