<svg width="24" height="24" viewBox="0 0 24 24" fill="none" xmlns="http://www.w3.org/2000/svg">
<g id="Team=MIA">
<g id="Layer_2_1_">
<path id="Vector" d="M20.826 7.44001C20.118 6.66001 18.552 6.02401 16.536 5.64001C16.548 5.40601 16.686 5.31001 16.938 5.13601C17.064 5.04601 17.214 4.93801 17.37 4.80001C18.024 4.18201 17.256 3.24001 17.226 3.19201L16.806 2.67601L16.908 3.33001C16.974 3.77401 16.812 3.93601 16.32 4.27801C16.26 4.32001 16.2 4.36801 16.158 4.41601C16.182 4.11601 16.194 3.78001 16.092 3.36001C15.99 2.94001 15.786 2.76601 15.786 2.76601L15.732 3.37201C15.732 3.37801 15.69 3.84601 15.06 4.41601C15.114 4.35601 15.168 4.29601 15.21 4.22401C15.516 3.78001 15.426 3.26401 15.33 2.67601L15.306 2.55601C15.198 1.94401 15.366 1.56001 15.474 1.48801C15.582 1.36201 15.78 1.15201 15.78 1.15201C15.78 1.15201 15.672 1.10401 15.366 1.14001C14.976 1.19401 14.31 1.42801 14.328 1.96801C14.334 2.20201 14.412 2.43001 14.478 2.62801C14.55 2.83801 14.616 3.04201 14.556 3.14401C14.508 3.22801 14.358 3.28801 14.13 3.33601C13.206 3.50401 12.498 3.93601 12.132 4.56001C12.012 4.76401 11.934 4.98601 11.892 5.21401C9.59398 5.22001 7.41598 5.50801 5.72998 6.03001C3.83998 6.61801 2.79598 7.41601 2.71798 8.33401C2.67598 8.82001 2.89198 9.51601 4.10998 10.194L4.10398 10.206L4.45198 10.374L4.63798 10.464C5.19598 10.716 5.85598 10.932 6.58198 11.106C6.31798 11.25 6.07798 11.424 5.86798 11.616C4.69198 12.582 4.01398 14.016 4.01398 15.54C4.01398 16.896 4.54198 18.174 5.50198 19.134C6.46198 20.094 7.73998 20.622 9.09598 20.622C11.502 20.622 13.59 18.918 14.07 16.572C14.484 15.342 14.43 14.028 14.418 13.53C14.376 12.402 14.934 11.778 15.282 11.496C16.89 11.298 18.306 10.944 19.368 10.47L19.542 10.386L19.908 10.212L19.896 10.2C20.748 9.72601 21.222 9.16801 21.276 8.57401C21.3 8.19001 21.15 7.80601 20.826 7.44001ZM19.17 8.43001C19.314 8.59201 19.302 8.69401 19.302 8.72401C19.284 8.91001 19.056 9.12601 18.672 9.33001C17.862 9.75601 16.476 10.08 14.82 10.242C14.892 10.2 14.97 10.152 15.06 10.122L15.09 10.11C15.564 9.91201 16.104 9.69601 16.128 8.91001C16.134 8.79001 16.14 8.40001 16.206 8.26201C16.296 8.08201 16.524 7.81801 16.722 7.74601C16.728 7.74601 16.386 7.68001 16.386 7.68001C16.368 7.68001 16.35 7.68001 16.338 7.67401C16.452 7.59001 16.536 7.49401 16.59 7.39201C17.934 7.67401 18.84 8.05801 19.17 8.43001ZM4.66198 8.62201C4.71598 7.97401 7.05598 7.11601 10.83 6.98401C10.476 7.24801 10.068 7.70401 9.95998 8.44801L9.91798 8.72401C9.89398 8.89801 9.86398 9.07201 9.79798 9.24601C9.65398 9.62401 9.23998 9.94201 8.80798 10.182C7.28398 9.99001 6.01798 9.66601 5.27398 9.27001C4.87198 9.04801 4.64398 8.81401 4.66198 8.62201Z" fill="black"/>
<path id="Vector_2" d="M4.19397 15.912C4.32597 16.584 4.70997 17.382 5.47197 17.916C5.69997 18.078 5.95197 18.204 6.22197 18.306C6.05997 18.03 5.86197 17.742 5.66997 17.46C5.30997 16.926 4.92597 16.368 4.69197 15.774C4.44597 15.156 4.37997 14.514 4.48797 13.866C4.28997 14.388 4.18797 14.958 4.18797 15.558C4.17597 15.672 4.18197 15.786 4.19397 15.912Z" fill="#961A31"/>
<path id="Vector_3" d="M5.01599 15.636C5.23799 16.2 5.60999 16.734 5.95799 17.262C6.23399 17.664 6.49799 18.06 6.70199 18.456C6.92399 18.504 7.15799 18.54 7.39199 18.558C7.14599 18.21 6.93599 17.814 6.75599 17.364C6.05399 15.612 6.15599 13.44 7.03199 12.186C7.48199 11.538 8.02199 11.1 8.72399 10.716C9.31799 10.386 9.69599 10.29 10.08 10.062C10.494 9.81601 10.716 9.40201 10.44 8.47801C10.362 8.20201 10.344 7.99201 10.362 7.82401C10.266 8.01001 10.194 8.22001 10.164 8.46601C10.122 8.73001 10.104 9.01801 9.98999 9.30601C9.62399 10.266 7.85399 10.794 7.61999 10.866C6.94799 11.064 6.40799 11.382 5.98799 11.754C4.75799 12.84 4.54199 14.46 5.01599 15.636Z" fill="#961A31"/>
<path id="Vector_4" d="M12.408 6.972C12.426 7.032 12.444 7.092 12.45 7.146C12.492 7.482 12.396 7.752 11.982 7.818C11.556 7.884 11.412 7.518 11.382 7.218C11.376 7.11 11.388 7.026 11.394 6.972C11.322 6.972 11.256 6.972 11.184 6.978C11.052 7.056 10.872 7.176 10.704 7.344C10.62 7.53 10.518 7.776 10.674 8.364C10.95 9.402 10.83 10.026 10.002 10.386C8.93997 10.842 8.26197 11.112 7.34997 12.252C6.91197 12.798 6.67797 13.698 6.64197 14.604C6.59997 15.486 6.78597 16.428 7.09197 17.196C7.29597 17.712 7.54197 18.162 7.82997 18.54C8.11197 18.528 8.40597 18.492 8.68797 18.426C8.36997 18.06 8.18997 17.604 8.15997 17.1C8.05197 15.414 8.95797 14.712 10.35 13.59L10.974 13.068C13.464 10.956 12.738 8.808 13.008 6.972C12.816 6.984 12.612 6.978 12.408 6.972Z" fill="#961A31"/>
<path id="Vector_5" d="M13.404 7.00801C13.326 7.37401 13.29 7.75801 13.272 8.15401C13.17 9.75601 13.224 11.562 11.196 13.356L10.584 13.854C9.22799 14.94 8.45399 15.618 8.50799 17.094C8.52599 17.58 8.72999 18.006 9.07799 18.342C9.45599 18.228 9.83399 18.066 10.194 17.862C11.958 16.866 13.062 15.366 13.488 13.458C13.758 12.246 13.752 11.262 13.746 10.47C13.746 10.068 13.794 9.28201 13.794 9.28201C13.848 8.78401 13.926 8.09401 14.502 7.17601C14.52 7.14601 14.544 7.11601 14.556 7.08601C14.19 7.05601 13.806 7.02601 13.404 7.00801Z" fill="#961A31"/>
<path id="Vector_6" d="M13.998 12.15C13.944 12.438 13.926 12.762 13.89 13.08C13.872 13.2 13.854 13.32 13.842 13.44C13.836 13.476 13.83 13.506 13.818 13.536C13.374 15.558 12.222 17.124 10.374 18.174C10.056 18.354 9.73199 18.504 9.40799 18.618C9.94799 18.978 10.584 19.086 11.022 19.026C12.684 18.774 13.494 17.694 13.884 16.53C14.286 15.342 14.244 14.07 14.226 13.548C14.16 11.79 15.516 11.142 15.516 11.142C14.46 11.082 14.112 11.544 13.998 12.15Z" fill="#961A31"/>
<path id="Vector_7" d="M12.888 18.624C12.21 19.194 11.478 19.314 11.142 19.368C10.488 19.47 9.71397 19.314 9.02997 18.774C9.01797 18.762 9.00597 18.756 8.99397 18.744C8.69997 18.822 8.40597 18.87 8.11197 18.9C8.78397 19.62 9.65997 20.028 10.854 20.112C10.86 20.112 10.866 20.112 10.872 20.112C11.676 19.794 12.378 19.278 12.912 18.606C12.9 18.618 12.9 18.618 12.888 18.624Z" fill="#961A31"/>
<path id="Vector_8" d="M6.70798 19.83C6.71998 19.464 6.61798 19.092 6.44398 18.732C6.03598 18.612 5.63998 18.444 5.25598 18.21C5.03998 18.078 4.84198 17.88 4.67398 17.694C5.11798 18.6 5.83198 19.344 6.70798 19.83Z" fill="#961A31"/>
<path id="Vector_9" d="M10.092 20.34C9.42598 20.19 8.86198 19.95 8.36998 19.578C8.11198 19.38 7.88398 19.164 7.67398 18.918C7.40398 18.912 7.13998 18.888 6.87598 18.84C7.01998 19.218 7.09798 19.602 7.04998 20.004C7.66798 20.286 8.35798 20.442 9.08398 20.442C9.43798 20.442 9.77398 20.4 10.104 20.334C10.098 20.34 10.098 20.34 10.092 20.34Z" fill="#961A31"/>
<path id="Vector_10" d="M15.786 8.298C15.672 8.676 15.294 8.634 15.192 8.424C15.018 8.1 15.084 7.848 15.264 7.674C15.444 7.5 15.738 7.41 16.02 7.284H16.026C15.696 7.23 15.348 7.176 14.97 7.134C14.964 7.14 14.958 7.146 14.952 7.152C14.916 7.194 14.886 7.224 14.85 7.266C14.256 8.154 14.184 8.814 14.124 9.318L14.106 9.474C14.07 9.744 14.07 10.074 14.076 10.464C14.076 10.518 14.076 10.572 14.076 10.626C14.07 10.758 14.064 10.896 14.058 11.028C14.064 11.028 14.064 11.028 14.064 11.028C14.07 10.974 14.07 10.956 14.07 10.986C14.238 10.458 14.544 10.128 14.982 9.954C15.45 9.762 15.912 9.594 15.936 8.91C15.948 8.628 15.966 8.34 16.032 8.196C16.152 7.932 16.362 7.86 16.362 7.86C16.146 7.842 15.9 7.938 15.786 8.298Z" fill="#961A31"/>
<path id="Vector_11" d="M16.356 5.60401C16.392 5.14801 16.818 5.06401 17.238 4.66801C17.772 4.15801 17.076 3.31201 17.076 3.31201C17.166 3.88201 16.896 4.09801 16.416 4.44001C16.266 4.54801 16.152 4.69801 16.14 4.88401C16.122 5.09401 16.104 5.32201 16.062 5.55601C16.158 5.57401 16.254 5.59201 16.356 5.60401Z" fill="#F9A11E"/>
<path id="Vector_12" d="M14.88 4.81201C14.754 4.90801 14.628 5.01001 14.52 5.10601C14.442 5.18401 14.364 5.25601 14.292 5.33401C14.76 5.37601 15.216 5.43001 15.66 5.49001C15.936 4.97401 16.08 4.39801 15.912 3.40201C15.906 3.40801 15.864 4.08001 14.88 4.81201Z" fill="#F9A11E"/>
<path id="Vector_13" d="M12.252 5.23801C12.786 5.24401 13.32 5.26801 13.83 5.29801C13.848 5.28001 13.866 5.26201 13.878 5.25001C14.226 4.88401 14.76 4.56601 15.042 4.15201C15.324 3.73201 15.216 3.22801 15.108 2.61001C14.922 1.54801 15.378 1.35001 15.378 1.35001C15.378 1.35001 14.478 1.47001 14.496 1.99201C14.52 2.68801 15.24 3.34201 14.16 3.54001C12.972 3.75601 12.234 4.39801 12.072 5.23801C12.132 5.23801 12.186 5.23801 12.252 5.23801Z" fill="#F9A11E"/>
<path id="Vector_14" d="M12.246 5.52C7.27798 5.472 3.13198 6.75 2.98798 8.388C2.93398 9.042 3.51598 9.642 4.55398 10.146C5.19598 10.452 6.01798 10.722 6.95998 10.926C7.15198 10.842 7.34398 10.764 7.55398 10.704C7.71598 10.656 8.02198 10.554 8.35798 10.41C6.96598 10.212 5.84398 9.894 5.14198 9.516C4.62598 9.24 4.35598 8.928 4.38598 8.604C4.48198 7.512 7.96198 6.654 12.156 6.696C16.35 6.738 19.674 7.662 19.578 8.754C19.548 9.048 19.278 9.336 18.798 9.582C17.922 10.044 16.374 10.398 14.49 10.566C14.424 10.656 14.37 10.758 14.322 10.866C15.174 10.542 16.164 11.022 16.164 11.022C16.164 11.022 16.23 11.052 16.278 11.076C17.526 10.854 18.6 10.536 19.404 10.158C20.352 9.708 20.934 9.162 20.982 8.568C21.132 6.93 17.214 5.568 12.246 5.52Z" fill="white"/>
</g>
</g>
</svg>
