<svg width="24" height="24" viewBox="0 0 24 24" fill="none" xmlns="http://www.w3.org/2000/svg">
<g id="Team=MIL">
<g id="Layer_2_2_">
<path id="Vector" d="M8.34001 19.386C8.25001 19.308 8.20801 19.188 8.24401 19.068L9.31801 15.192C9.32401 15.174 9.33601 15.144 9.34201 15.126L8.84401 14.334C8.79601 14.262 8.78401 14.172 8.81401 14.088L8.88601 13.854L8.20201 13.806C7.55401 13.758 7.33201 13.674 7.17601 13.59C6.52801 13.236 6.35401 12.216 6.31801 11.91L6.27001 11.568C6.25201 11.424 6.28801 11.292 6.36601 11.196C6.43201 11.118 6.52201 11.076 6.61801 11.058C5.12401 9.72 3.77401 8.052 4.23601 5.688C4.74601 3.078 6.85201 2.286 6.93601 2.25C6.96601 2.238 7.00201 2.232 7.03801 2.232C7.14601 2.232 7.25401 2.292 7.30201 2.388C7.33801 2.46 7.35001 2.544 7.32601 2.61C8.02201 2.016 8.68201 1.758 8.96401 1.668C8.99401 1.656 9.02401 1.65 9.05401 1.65C9.16801 1.65 9.27601 1.716 9.33001 1.824C9.39601 1.968 9.34201 2.13 9.21601 2.202C8.58601 2.592 8.03401 3.12 7.62001 3.72C8.12401 3.606 8.46601 3.582 8.58601 3.582C8.63401 3.582 8.64601 3.582 8.64601 3.582C8.79601 3.594 8.91601 3.702 8.92801 3.852C8.94601 4.002 8.84401 4.134 8.70001 4.176C8.69401 4.176 7.86601 4.392 6.95401 5.046C6.78001 5.568 6.70201 6.12 6.70201 6.678C6.70801 7.734 7.05001 8.82 7.63801 9.654C7.78201 9.852 7.92001 10.026 8.06401 10.182C8.00401 9.096 8.31001 7.398 10.272 6.606C10.308 6.588 10.35 6.588 10.386 6.588C10.494 6.588 10.608 6.648 10.656 6.75C10.728 6.894 10.674 7.062 10.542 7.14L10.524 7.152C10.218 7.344 9.96001 7.608 9.77401 7.902C9.99001 7.836 10.17 7.818 10.296 7.8L10.314 7.794C10.326 7.794 10.332 7.794 10.35 7.794C10.47 7.794 10.59 7.872 10.632 7.992C10.686 8.124 10.626 8.274 10.518 8.346L10.506 8.352C10.5 8.352 10.494 8.358 10.494 8.358C9.87001 8.718 9.52201 9.144 9.46201 9.618C9.39601 10.134 9.68401 10.62 9.88801 10.89C10.41 10.278 10.752 9.24 10.848 8.838C10.878 8.7 11.004 8.61 11.136 8.61C11.148 8.61 11.154 8.61 11.172 8.61C11.328 8.628 11.436 8.76 11.436 8.91C11.448 10.188 11.106 11.064 10.752 11.634C11.28 11.898 11.796 11.916 11.916 11.916C11.928 11.916 11.946 11.916 11.946 11.916C11.952 11.916 11.964 11.916 11.982 11.916C12.096 11.916 12.606 11.898 13.146 11.628C12.792 11.064 12.45 10.194 12.45 8.91C12.45 8.754 12.564 8.628 12.714 8.61C12.726 8.61 12.732 8.61 12.75 8.61C12.888 8.61 13.008 8.7 13.038 8.838C13.134 9.234 13.482 10.278 14.01 10.884C14.208 10.614 14.496 10.122 14.43 9.612C14.364 9.138 14.016 8.718 13.392 8.358C13.386 8.358 13.374 8.346 13.374 8.346C13.26 8.268 13.2 8.124 13.254 7.992C13.302 7.878 13.41 7.794 13.536 7.794C13.548 7.794 13.554 7.794 13.572 7.794H13.59C13.71 7.812 13.902 7.83 14.112 7.896C13.92 7.608 13.662 7.35 13.356 7.152L13.338 7.14C13.2 7.056 13.152 6.888 13.224 6.75C13.278 6.648 13.38 6.582 13.494 6.582C13.53 6.582 13.572 6.588 13.608 6.6C15.57 7.38 15.894 9.078 15.834 10.164C15.984 10.008 16.116 9.834 16.26 9.636C16.848 8.802 17.184 7.71 17.184 6.654C17.184 6.09 17.094 5.55 16.92 5.022C15.996 4.362 15.174 4.164 15.168 4.158C15.018 4.128 14.928 3.99 14.94 3.834C14.952 3.684 15.072 3.57 15.222 3.558C15.222 3.558 15.24 3.558 15.282 3.558C15.396 3.558 15.738 3.57 16.248 3.69C15.828 3.09 15.282 2.568 14.64 2.184C14.508 2.106 14.454 1.938 14.526 1.806C14.58 1.698 14.682 1.626 14.796 1.626C14.826 1.626 14.856 1.632 14.886 1.644C15.162 1.728 15.828 1.986 16.53 2.574C16.512 2.502 16.518 2.418 16.548 2.352C16.602 2.25 16.704 2.196 16.812 2.196C16.842 2.196 16.884 2.202 16.914 2.214C16.998 2.244 19.11 3.024 19.638 5.622C20.118 7.98 18.774 9.66 17.286 11.01C17.382 11.022 17.472 11.07 17.538 11.148C17.622 11.244 17.652 11.382 17.64 11.52L17.604 11.862C17.568 12.168 17.406 13.194 16.758 13.548C16.602 13.632 16.38 13.716 15.732 13.77L15.042 13.824L15.114 14.058C15.138 14.142 15.126 14.232 15.084 14.304L14.586 15.102C14.598 15.12 14.604 15.15 14.61 15.168L15.714 19.038C15.744 19.152 15.708 19.278 15.618 19.356L11.976 22.32L8.34001 19.386Z" fill="#EDE0C5"/>
<path id="Vector_2" d="M4.53601 5.742C5.02201 3.276 7.05001 2.538 7.05001 2.538C6.30601 3.096 5.55001 4.122 5.24401 5.574C5.55001 5.196 5.83201 4.914 6.16201 4.68C6.98401 2.904 8.38201 2.19 9.06601 1.962C8.17201 2.502 7.42801 3.312 6.97801 4.242C8.01001 3.87 8.62801 3.9 8.62801 3.9C8.62801 3.9 7.70401 4.128 6.69601 4.872C6.50401 5.442 6.39001 6.054 6.39601 6.69C6.40201 7.812 6.76201 8.964 7.39201 9.84C7.74601 10.332 8.08201 10.674 8.50201 10.992C8.35801 10.638 7.82401 7.938 10.38 6.906L10.362 6.918C9.76201 7.314 9.31801 7.92 9.13801 8.64C9.60001 8.19 10.098 8.142 10.356 8.112C10.35 8.112 10.344 8.118 10.344 8.118C7.97401 9.492 9.86401 11.346 9.86401 11.346C10.614 10.722 11.046 9.306 11.136 8.922C11.154 10.41 10.656 11.298 10.32 11.736C11.088 12.258 11.946 12.228 11.946 12.228C11.946 12.228 12.804 12.258 13.566 11.736C13.23 11.304 12.732 10.41 12.732 8.928C12.828 9.318 13.266 10.716 14.016 11.34C14.016 11.34 15.894 9.48 13.518 8.112C13.512 8.112 13.506 8.106 13.506 8.106C13.764 8.136 14.262 8.184 14.724 8.628C14.538 7.914 14.1 7.302 13.482 6.918L13.464 6.906C16.026 7.926 15.504 10.632 15.366 10.986C15.792 10.668 16.128 10.326 16.47 9.828C17.088 8.946 17.442 7.794 17.442 6.672C17.442 6.03 17.328 5.424 17.124 4.86C16.14 4.128 15.21 3.9 15.21 3.9C15.21 3.9 15.834 3.864 16.872 4.23C16.416 3.306 15.672 2.508 14.772 1.968C15.462 2.19 16.866 2.898 17.694 4.668C18.024 4.896 18.312 5.178 18.618 5.55C18.306 4.092 17.55 3.06 16.8 2.52C16.8 2.52 18.828 3.246 19.332 5.712C19.914 8.58 17.622 10.38 15.78 11.928L17.19 11.346C17.286 11.298 17.352 11.4 17.34 11.508L17.304 11.856C17.286 12.042 17.148 13.026 16.608 13.314C16.494 13.38 16.29 13.452 15.708 13.5L14.652 13.572L14.832 14.166L13.794 15.84L14.322 15.276L15.426 19.146L12.45 21.612L13.368 17.382L11.976 19.08L10.584 17.37L11.526 21.594L8.53201 19.146L9.60601 15.27L10.14 15.834L9.10201 14.166L9.27601 13.572L8.20801 13.506C7.62001 13.458 7.42201 13.392 7.30801 13.326C6.77401 13.038 6.63001 12.06 6.61201 11.868L6.56401 11.52C6.54601 11.412 6.61801 11.322 6.71401 11.358L8.13001 11.928C6.27601 10.41 3.97201 8.61 4.53601 5.742ZM17.934 8.79C17.934 8.79 19.104 6.936 18.294 5.904C18.21 5.802 18.12 5.706 18.036 5.604C18.372 6.786 17.934 8.79 17.934 8.79ZM5.97001 8.826C5.97001 8.826 5.52601 6.828 5.85001 5.652C5.76601 5.742 5.67601 5.838 5.59801 5.952C4.80001 6.978 5.97001 8.826 5.97001 8.826Z" fill="#00471A"/>
<path id="Vector_3" d="M15.018 13.074C15.54 13.026 16.14 13.044 16.386 12.906C16.746 12.708 16.842 11.838 16.842 11.838C16.446 12.228 15.594 12.846 15.018 13.074ZM12.582 17.034H11.976H11.37L11.658 17.43H11.976H12.294L12.582 17.034ZM12.912 13.65C13.062 13.794 13.326 13.926 13.644 13.68C13.812 13.548 13.812 13.356 13.8 13.236C13.788 13.176 13.722 13.14 13.668 13.164C13.386 13.296 13.098 13.428 12.942 13.494C12.882 13.524 12.864 13.596 12.912 13.65ZM10.878 15.366L10.71 16.122L11.136 16.686H11.58L11.166 16.08L11.232 15.708C11.418 15.906 11.688 16.032 11.982 16.032C12.276 16.032 12.546 15.9 12.732 15.702L12.798 16.074L12.384 16.68H12.828L13.248 16.11L13.074 15.354C12.672 15.102 12.582 14.736 12.582 14.736L12.3 13.818L11.976 13.974L11.652 13.818L11.376 14.736C11.37 14.748 11.28 15.114 10.878 15.366ZM10.296 13.686C10.62 13.932 10.884 13.794 11.028 13.656C11.082 13.602 11.058 13.536 11.004 13.5C10.848 13.428 10.566 13.302 10.278 13.17C10.218 13.146 10.158 13.182 10.146 13.242C10.122 13.368 10.128 13.56 10.296 13.686ZM7.07401 11.868C7.07401 11.868 7.17601 12.732 7.54801 12.936C7.79401 13.074 8.394 13.05 8.922 13.092C8.334 12.87 7.48201 12.252 7.07401 11.868Z" fill="white"/>
</g>
</g>
</svg>
