<svg width="24" height="24" viewBox="0 0 24 24" fill="none" xmlns="http://www.w3.org/2000/svg">
<g id="Team=MIN">
<g id="Group 1">
<g id="Group">
<path id="Vector" d="M12.012 20.982C8.18999 20.982 4.77599 18.552 3.52199 14.94C1.89599 10.26 4.37999 5.124 9.05999 3.498C10.014 3.168 11.004 3 12.006 3C15.828 3 19.242 5.43 20.496 9.042L20.538 9.162C22.08 13.812 19.596 18.87 14.952 20.478C14.004 20.814 13.014 20.982 12.012 20.982Z" fill="#A0A2A3"/>
<path id="Vector_2" d="M19.416 7.926C18.33 5.946 16.542 4.512 14.37 3.882C13.998 3.774 13.614 3.69 13.23 3.636C9.08399 3.024 5.06999 5.604 3.89999 9.636C3.26999 11.802 3.52199 14.082 4.60799 16.062C5.69399 18.042 7.48799 19.476 9.65399 20.106C10.026 20.214 10.41 20.298 10.794 20.352C11.64 20.478 12.486 20.466 13.296 20.34C13.308 20.346 13.314 20.352 13.326 20.358L13.338 20.334C16.488 19.83 19.2 17.55 20.13 14.352C20.754 12.186 20.502 9.906 19.416 7.926Z" fill="#0C233F"/>
<path id="Vector_3" d="M11.502 9.612C11.502 9.612 11.388 9.924 11.376 10.218C11.376 10.218 10.662 10.326 10.32 10.554C10.32 10.56 11.028 9.846 11.502 9.612Z" fill="#79BC43"/>
<path id="Vector_4" d="M16.302 9.58199C16.38 9.56399 16.44 9.55799 16.482 9.56399C16.47 9.52799 16.446 9.47399 16.398 9.41999C16.338 9.34199 16.242 9.28799 16.242 9.28799C16.308 9.37799 16.308 9.49799 16.302 9.58199Z" fill="white"/>
<path id="Vector_5" d="M15.66 9.906C15.75 9.84 15.834 9.792 15.912 9.75C15.9 9.714 15.876 9.672 15.846 9.612C15.786 9.504 15.624 9.408 15.624 9.408C15.69 9.6 15.678 9.798 15.66 9.906Z" fill="white"/>
<path id="Vector_6" d="M8.01598 14.712C7.40998 14.958 5.97598 14.622 5.97598 14.622C7.42198 14.538 8.83798 13.5 8.83798 13.5C8.83798 13.5 8.83798 13.506 8.83198 13.506C8.40598 14.16 7.82398 14.532 7.82398 14.532C7.89598 14.622 7.95598 14.676 8.01598 14.712Z" fill="#A0A2A3"/>
<path id="Vector_7" d="M15.234 6.078C15.234 6.078 14.88 5.802 14.472 6.234C14.91 5.442 15.162 5.892 15.234 6.078Z" fill="#79BC43"/>
<path id="Vector_8" d="M16.644 9.90001C16.644 9.90001 16.608 9.87601 16.596 9.87001C16.368 9.75001 15.966 10.098 15.702 10.248C15.438 10.392 15.054 10.704 14.862 10.278C14.676 9.85201 15.108 9.18601 15.258 8.76001C15.588 7.83001 15.6 7.28401 15.528 6.99001C15.834 7.33201 15.93 7.99801 15.93 7.99801C15.93 7.99801 16.044 6.75601 15.438 6.43201C15.45 6.47401 15.438 6.63001 15.426 6.75001C15.144 6.80401 14.52 6.73201 14.316 6.62401C13.548 7.44601 12.714 8.59201 12.084 9.64201C11.814 10.2 11.544 10.848 11.478 11.382C11.478 11.382 11.394 11.142 11.37 10.824C11.022 10.956 9.83998 11.538 9.58798 13.32C9.58798 13.32 10.338 12.546 11.172 12.24C11.172 12.24 10.644 13.62 11.652 16.062C11.652 16.062 12.06 14.562 12.912 14.184C13.428 16.746 14.94 16.788 15.378 18.528C15.378 18.528 15.84 17.628 15.282 16.092C15.282 16.092 15.474 16.146 15.636 16.338C15.636 16.338 15.612 15.888 15.192 14.922C14.916 14.406 14.832 13.704 14.832 13.704C14.586 13.926 14.526 14.676 14.526 14.676C13.776 12.642 15.906 10.626 16.296 10.326C16.488 10.182 16.602 10.176 16.674 10.212C16.74 10.062 16.728 9.96601 16.644 9.90001Z" fill="#A0A2A3"/>
</g>
<path id="Vector_9" d="M10.71 5.65799C11.244 5.44199 11.832 5.21399 12.39 5.02799C13.098 4.76999 13.728 4.62599 14.22 4.55399C14.208 4.54799 14.196 4.54799 14.184 4.54199C13.836 4.43999 13.488 4.36199 13.134 4.31399C12.174 4.16999 11.22 4.21799 10.308 4.42199C10.254 4.58999 10.182 4.91999 10.302 5.21999C10.374 5.39999 10.512 5.54399 10.71 5.65799Z" fill="#266092"/>
<path id="Vector_10" d="M6.47402 10.998C6.75002 10.14 7.11602 9.414 7.50602 8.808C7.56602 8.688 7.66202 8.508 7.78202 8.292C6.28802 8.13 4.93202 9.726 4.41002 10.44C3.97802 12.534 4.44602 14.64 5.56802 16.314C5.83202 15.894 6.24002 15.252 6.24002 15.252C5.64002 15.042 5.04002 14.508 5.04002 14.508C5.37602 14.298 5.70602 14.052 6.02402 13.788C6.04202 12.828 6.18602 11.892 6.47402 10.998Z" fill="#266092"/>
<path id="Vector_11" d="M6.77399 6.26399C6.80999 6.26399 6.85199 6.26399 6.89399 6.26399C7.62599 6.22199 8.67599 6.25199 9.27599 6.27599C9.52799 6.16199 9.83399 6.02999 10.176 5.88599C10.026 5.74799 9.91199 5.58599 9.83999 5.39999C9.72599 5.10599 9.72599 4.80599 9.76799 4.56599C8.65799 4.89599 7.63199 5.47799 6.77399 6.26399Z" fill="#266092"/>
<path id="Vector_12" d="M16.128 18.57C16.944 18.06 17.67 17.394 18.258 16.602C17.964 15.138 17.04 13.56 15.804 12.102C15.6 12.588 15.492 13.122 15.48 13.896C15.462 14.82 16.17 15.414 16.212 17.112C16.212 17.112 16.008 16.968 15.924 16.932C15.924 16.932 16.074 17.664 16.128 18.57Z" fill="#266092"/>
<path id="Vector_13" d="M9.594 7.842C9.384 7.944 9.15 8.064 8.922 8.19C9.408 8.508 9.798 8.994 10.116 9.576C10.962 8.922 11.748 8.91 11.748 8.91C11.82 8.82 11.886 8.736 11.952 8.652C11.688 8.472 11.424 8.304 11.154 8.142C10.782 8.01 9.894 7.884 9.594 7.842Z" fill="#266092"/>
<path id="Vector_14" d="M13.62 6.768C13.512 6.756 13.404 6.744 13.29 6.732L13.23 6.726C13.164 6.72 13.092 6.714 13.008 6.708C12.582 6.678 11.898 6.624 11.082 6.342C10.914 6.528 10.776 6.72 10.674 6.888C10.884 7.104 11.286 7.524 11.484 7.746C11.748 7.908 12.012 8.076 12.276 8.256C12.774 7.662 13.206 7.2 13.62 6.768Z" fill="#266092"/>
<path id="Vector_15" d="M4.746 9.264C5.538 8.448 6.72 7.572 8.04 7.83C8.142 7.644 8.25 7.458 8.346 7.29C7.932 7.02 7.68 6.822 6.966 6.762C6.672 6.756 6.432 6.762 6.258 6.774C5.616 7.482 5.1 8.322 4.746 9.264Z" fill="#266092"/>
<path id="Vector_16" d="M19.464 14.16C19.74 13.218 19.824 12.27 19.746 11.346C19.53 10.356 18.792 8.466 16.29 7.422C16.368 8.166 16.206 8.88 16.206 8.88C16.206 8.88 16.668 9.15 16.782 9.66C16.782 9.66 16.842 9.684 16.89 9.756C17.022 9.912 17.19 10.278 16.92 11.004C16.92 11.004 16.764 10.668 16.428 11.028C16.284 11.232 16.158 11.418 16.05 11.604C17.268 13.008 18.222 14.544 18.63 16.038C18.984 15.468 19.266 14.838 19.464 14.16Z" fill="#266092"/>
<path id="Vector_17" d="M14.958 5.50799C15.186 5.59199 15.306 5.72999 15.39 5.92199C15.822 6.10199 16.062 6.46799 16.188 6.88199C17.232 7.27799 18.33 7.90799 19.14 8.91599C18.402 7.20599 17.052 5.77199 15.288 4.95599V4.96799C15.264 4.96799 13.632 4.93199 11.616 5.90999C11.58 5.92799 11.544 5.95199 11.514 5.97599C12.144 6.16199 12.672 6.19799 13.044 6.22199C13.134 6.22799 13.212 6.23399 13.278 6.23999L13.332 6.24599C13.518 6.26399 13.758 6.28799 14.034 6.32999C14.286 5.86199 14.706 5.56199 14.958 5.50799Z" fill="#266092"/>
<path id="Vector_18" d="M9.738 9.91201C9.408 9.27001 8.988 8.76001 8.454 8.49001C8.334 8.57401 8.232 8.66401 8.142 8.75401C7.29 9.95401 6.666 11.502 6.552 13.338C7.914 12.09 9.048 10.602 9.738 9.91201Z" fill="#266092"/>
<path id="Vector_19" d="M10.5 6.168L9.966 6.948C9.966 6.948 10.374 7.23 10.704 7.614C10.122 7.494 9.48 7.386 9.48 7.386L8.466 7.938L8.94 7.146C8.94 7.146 8.622 6.87 8.25 6.636C8.658 6.648 9.426 6.714 9.426 6.714L10.5 6.168Z" fill="#79BC43"/>
</g>
</g>
</svg>
