<svg width="24" height="24" viewBox="0 0 24 24" fill="none" xmlns="http://www.w3.org/2000/svg">
<g id="Team=Default">
<g id="Group">
<path id="Vector" fill-rule="evenodd" clip-rule="evenodd" d="M14.4152 2H9.96679C9.44527 2.00034 8.9452 2.20766 8.57643 2.57643C8.20766 2.9452 8.00034 3.44527 8 3.96679V19.0307C8.00017 19.5525 8.20735 20.0529 8.57609 20.4221C8.94482 20.7913 9.44498 20.9992 9.96679 21H14.4121C14.9343 20.9993 15.435 20.7917 15.8045 20.4226C16.174 20.0535 16.3821 19.5529 16.3833 19.0307V3.96679C16.3824 3.4452 16.1748 2.94524 15.8059 2.57654C15.4369 2.20784 14.9368 2.0005 14.4152 2Z" fill="#FFFFFE"/>
<path id="Vector_2" fill-rule="evenodd" clip-rule="evenodd" d="M13.3119 5.48282L13.3163 5.54758C13.4522 5.6263 13.5207 5.69105 13.6579 5.77866C14.0204 6.00721 14.4673 6.41352 14.4108 7.81211C14.5124 8.11684 14.5575 8.71615 14.6521 8.90851C14.8406 9.28307 14.9669 9.52686 15.0222 9.88047C15.0222 9.88047 15.0761 10.4309 15.1472 10.4709C15.5224 10.556 15.4139 10.5928 15.4691 10.6569C15.5275 10.7325 15.744 10.7286 15.744 10.9305C15.8189 11.0308 15.8748 11.1356 15.9167 11.2441V3.96678C15.9164 3.5685 15.7581 3.18661 15.4767 2.9048C15.1952 2.623 14.8135 2.46428 14.4153 2.46344H12.9779C13.209 2.54597 13.3398 2.64247 13.4154 2.7961C13.6007 2.81198 13.8217 3.22781 13.4776 3.84298C13.6299 3.94456 13.5112 4.09566 13.402 4.27151C13.3703 4.32801 13.3354 4.42832 13.2331 4.42134C13.103 4.69623 12.9449 4.96224 12.8262 4.97874C12.79 5.02318 12.764 5.14127 12.818 5.19713C12.9932 5.27522 13.2065 5.38315 13.3119 5.48282ZM15.9167 12.2301C15.8174 12.4797 15.6453 12.6937 15.4229 12.8442C15.2004 12.9948 14.9378 13.075 14.6692 13.0744C14.4932 13.0745 14.319 13.0399 14.1564 12.9727C13.9938 12.9054 13.846 12.8067 13.7216 12.6823C13.5971 12.5579 13.4984 12.4102 13.431 12.2477C13.3637 12.0851 13.329 11.9109 13.329 11.7349C13.329 11.1032 13.7633 10.5731 14.353 10.4315C14.1988 10.0443 13.8724 9.41766 13.7753 9.2126C13.6839 9.00818 13.463 7.73339 13.4154 7.48135C13.4046 7.42612 12.837 7.81084 12.8357 7.83433C12.8027 7.86607 12.4104 8.892 12.3939 8.94723C12.3856 8.98215 12.385 9.11865 12.385 9.11865C12.385 9.11865 12.578 9.14277 12.6891 9.47988C12.7989 9.81635 13.1335 11.0435 13.1335 11.0435C13.1335 11.0435 13.0433 11.1375 13.0395 11.1324C13.463 12.5494 13.315 13.1595 13.5049 13.5753C13.7436 14.1607 13.8083 14.0839 14.0128 14.5765C14.16 14.9352 14.3238 16.3465 14.3784 16.4087C14.607 16.6988 14.7301 16.9248 14.7301 17.088C14.7301 17.2531 14.5365 17.7387 14.607 18.0219C14.6501 18.1888 14.6724 18.5615 14.7498 18.6326C14.7498 18.6326 14.8209 18.7729 14.786 18.8358C14.7759 18.8567 14.7555 18.8891 14.7651 18.9151C14.8908 19.3595 15.2983 20.1188 14.6387 20.5162H14.6527C15.0064 20.4612 15.3286 20.2809 15.5606 20.0082C15.7926 19.7356 15.919 19.3887 15.9167 19.0307V12.2301Z" fill="#B52532"/>
<path id="Vector_3" fill-rule="evenodd" clip-rule="evenodd" d="M14.2241 18.7418C13.9829 18.526 14.1441 18.4352 14.134 18.3501C13.9753 17.6917 13.4521 17.2937 13.7226 17.0766C13.6559 16.8595 13.5201 16.5865 13.5252 16.5871C12.7106 16.1192 12.0167 15.3593 11.8993 15.2476C11.7564 15.0926 11.5127 14.9365 11.4676 14.8108C11.2714 14.6311 10.3115 13.2693 10.088 12.7678L9.69824 12.7126C9.52048 11.9888 8.92879 11.3813 8.91419 10.6556C8.90911 10.3807 9.03862 9.79286 9.08687 9.67604C9.13448 9.55669 9.36113 9.36179 9.36113 9.36179V9.16752C8.51105 9.19165 8.75547 9.10467 8.60946 8.77391C8.50661 8.54536 8.58025 8.49458 8.61708 8.33586C8.73135 7.86797 9.11036 7.1455 9.26653 6.81728C9.31478 6.65159 9.47858 6.25226 9.47858 6.25226C10.1122 4.96223 10.349 5.05682 11.1013 4.98382L11.1381 4.93049C11.8923 4.89748 11.7685 4.84097 11.8745 4.1147C11.7653 4.16168 11.7323 3.88678 11.7323 3.88678C11.6726 3.47413 11.8466 3.55221 11.9291 3.54396C11.9475 2.86466 12.0167 2.65008 12.5068 2.4628H9.96742C9.7698 2.4628 9.57413 2.50174 9.39158 2.5774C9.20902 2.65307 9.04317 2.76396 8.9035 2.90375C8.76382 3.04354 8.65307 3.20949 8.57756 3.39211C8.50205 3.57473 8.46327 3.77043 8.46344 3.96804V19.0313C8.46344 19.8623 9.13639 20.5359 9.96805 20.5359H14.4152C13.9061 20.2604 14.207 19.736 14.2241 18.7418Z" fill="#253B73"/>
</g>
</g>
</svg>
