<svg width="24" height="24" viewBox="0 0 24 24" fill="none" xmlns="http://www.w3.org/2000/svg">
<g id="Team=NOP">
<g id="Group">
<path id="Vector" d="M23.844 10.446L23.64 10.32C20.508 8.496 15.96 7.59 13.872 7.56H13.842C13.5 7.56 13.26 7.68 13.134 7.914C13.026 8.112 13.038 8.31 13.092 8.484C13.056 8.442 13.002 8.4 12.948 8.358C12.78 8.232 12.582 8.13 12.582 8.13C12.582 8.13 12.606 8.292 12.546 8.274C12.516 8.262 12.48 8.25 12.444 8.232C12.276 8.154 12.03 8.004 12.03 8.004C12.03 8.004 11.778 8.154 11.61 8.232C11.574 8.25 11.538 8.262 11.508 8.274C11.448 8.292 11.472 8.13 11.472 8.13C11.472 8.13 11.274 8.232 11.106 8.358C11.052 8.4 10.998 8.442 10.962 8.484C11.016 8.316 11.028 8.118 10.92 7.914C10.794 7.68 10.56 7.56 10.212 7.56H10.182C8.1 7.596 3.552 8.496 0.420003 10.32L0.216003 10.446C0.216003 10.446 0.522003 11.232 1.284 11.454L1.182 11.502C1.182 11.502 1.614 12.198 2.28 12.342L2.154 12.396C2.154 12.396 2.622 13.158 3.534 13.314L3.402 13.38C3.402 13.38 4.05 14.082 5.052 14.148L4.908 14.256C4.908 14.256 5.568 14.694 6.546 14.808L6.39 14.946C6.39 14.946 8.118 15.576 9.564 15.054C9.966 16.056 10.944 16.74 12.042 16.74C13.14 16.74 14.124 16.062 14.52 15.054C15.966 15.582 17.694 14.946 17.694 14.946L17.538 14.808C18.51 14.7 19.176 14.256 19.176 14.256L19.032 14.148C20.028 14.088 20.682 13.38 20.682 13.38L20.55 13.314C21.462 13.152 21.93 12.396 21.93 12.396L21.804 12.342C22.47 12.198 22.902 11.502 22.902 11.502L22.8 11.454C23.538 11.232 23.844 10.446 23.844 10.446Z" fill="#B4975A"/>
<g id="Group_2">
<g id="Group_3">
<g id="Group_4">
<path id="Vector_2" d="M23.514 10.542C20.448 8.75399 15.948 7.84799 13.866 7.81199C13.614 7.80599 13.446 7.86599 13.356 8.03399C13.212 8.30399 13.416 8.60999 13.5 8.74199C13.686 9.02399 13.938 9.46199 13.938 9.98999C13.938 11.016 13.11 11.772 12.09 11.772C12.066 11.772 12.048 11.772 12.024 11.772C12 11.772 11.982 11.772 11.958 11.772C10.938 11.772 10.11 11.016 10.11 9.98999C10.11 9.46199 10.362 9.02399 10.548 8.74199C10.638 8.60999 10.842 8.30999 10.692 8.03399C10.602 7.87199 10.434 7.81199 10.182 7.81199C8.1 7.84799 3.6 8.75399 0.533997 10.542C0.533997 10.548 1.026 11.388 1.998 11.316C1.848 11.388 1.698 11.466 1.548 11.544C1.548 11.556 1.998 12.282 3.072 12.18C2.892 12.264 2.718 12.348 2.538 12.438C2.538 12.45 3.054 13.17 4.188 13.146C3.93 13.278 3.768 13.362 3.768 13.362C3.768 13.368 4.518 14.088 5.724 13.89C5.592 13.986 5.46 14.088 5.304 14.196C5.304 14.196 6.192 14.682 7.236 14.532C7.104 14.634 6.966 14.736 6.834 14.844C6.834 14.832 8.43 15.282 9.57 14.778C10.548 14.346 11.094 13.29 11.22 13.026C11.412 13.068 11.58 13.092 11.712 13.11C11.712 13.122 11.922 13.14 12.024 13.14C12.126 13.146 12.336 13.128 12.336 13.11C12.462 13.092 12.636 13.068 12.828 13.026C12.954 13.29 13.494 14.352 14.478 14.778C15.618 15.282 17.214 14.826 17.214 14.844C17.082 14.742 16.944 14.634 16.812 14.532C17.856 14.682 18.744 14.196 18.744 14.196C18.588 14.088 18.456 13.986 18.324 13.89C19.53 14.088 20.28 13.368 20.28 13.362C20.28 13.362 20.124 13.278 19.86 13.146C20.994 13.164 21.504 12.444 21.51 12.438C21.33 12.348 21.156 12.264 20.976 12.18C22.05 12.288 22.494 11.556 22.5 11.544C22.35 11.466 22.2 11.394 22.05 11.316C23.028 11.382 23.514 10.548 23.514 10.542Z" fill="#0A2240"/>
<path id="Vector_3" d="M11.148 12.48C11.148 12.48 8.412 11.562 9.6 8.64599C9.6 8.64599 6.702 8.76599 2.736 10.368C2.736 10.368 2.46 10.482 2.298 10.542C2.136 10.602 1.872 10.704 1.5 10.524C1.5 10.524 5.13 8.62799 9.792 8.18399C10.404 8.12399 10.488 8.21999 10.326 8.44799C10.194 8.64599 8.526 10.764 11.148 12.48Z" fill="white"/>
<path id="Vector_4" d="M8.71801 9.474C6.37201 9.78 4.07401 10.596 4.07401 10.596C4.46401 11.292 5.526 10.998 5.526 10.998C7.512 10.434 8.40001 10.242 8.688 10.188C8.676 9.966 8.682 9.732 8.71801 9.474Z" fill="#B4975A"/>
<path id="Vector_5" d="M8.73001 10.614C8.34001 10.692 6.69601 11.028 5.04001 11.646C5.04001 11.646 5.56201 12.24 6.60001 11.946C7.47001 11.7 8.59201 11.34 8.92201 11.238C8.83801 11.052 8.77201 10.842 8.73001 10.614Z" fill="#B4975A"/>
<path id="Vector_6" d="M9.09599 11.568C8.74199 11.682 6.97198 12.258 6.22198 12.546C6.22198 12.546 6.64799 13.122 7.88999 12.636C8.75399 12.294 9.22799 12.096 9.43799 12.006C9.31199 11.874 9.19799 11.73 9.09599 11.568Z" fill="#B4975A"/>
<path id="Vector_7" d="M9.714 12.252C9.402 12.384 8.256 12.888 7.59 13.206C7.59 13.206 8.424 13.614 9.48 12.966L10.134 12.534C9.99 12.456 9.846 12.366 9.714 12.252Z" fill="#B4975A"/>
<path id="Vector_8" d="M10.452 12.708C10.242 12.84 9.37198 13.386 8.94598 13.704C8.94598 13.704 9.66598 14.004 10.41 13.302C10.65 13.074 10.782 12.948 10.854 12.87C10.722 12.828 10.59 12.774 10.452 12.708Z" fill="#B4975A"/>
<g id="Group_5">
<path id="Vector_9" d="M12.912 12.48C12.912 12.48 15.648 11.562 14.46 8.64599C14.46 8.64599 17.358 8.76599 21.324 10.368C21.324 10.368 21.6 10.482 21.762 10.542C21.924 10.602 22.188 10.704 22.56 10.524C22.56 10.524 18.93 8.62799 14.268 8.18399C13.65 8.12399 13.572 8.21999 13.734 8.44799C13.872 8.64599 15.534 10.764 12.912 12.48Z" fill="white"/>
<path id="Vector_10" d="M15.342 9.474C17.688 9.78 19.986 10.596 19.986 10.596C19.596 11.292 18.534 10.998 18.534 10.998C16.548 10.434 15.66 10.242 15.372 10.188C15.39 9.966 15.378 9.732 15.342 9.474Z" fill="#B4975A"/>
<path id="Vector_11" d="M15.33 10.614C15.72 10.692 17.364 11.028 19.02 11.646C19.02 11.646 18.498 12.24 17.46 11.946C16.59 11.7 15.468 11.34 15.138 11.238C15.222 11.052 15.288 10.842 15.33 10.614Z" fill="#B4975A"/>
<path id="Vector_12" d="M14.964 11.568C15.318 11.682 17.088 12.258 17.838 12.546C17.838 12.546 17.412 13.122 16.17 12.636C15.306 12.294 14.832 12.096 14.622 12.006C14.748 11.874 14.862 11.73 14.964 11.568Z" fill="#B4975A"/>
<path id="Vector_13" d="M14.346 12.252C14.658 12.384 15.804 12.888 16.47 13.206C16.47 13.206 15.636 13.614 14.58 12.966L13.926 12.534C14.07 12.456 14.214 12.366 14.346 12.252Z" fill="#B4975A"/>
<path id="Vector_14" d="M13.608 12.708C13.818 12.84 14.688 13.386 15.114 13.704C15.114 13.704 14.394 14.004 13.65 13.302C13.41 13.074 13.278 12.948 13.206 12.87C13.338 12.828 13.47 12.774 13.608 12.708Z" fill="#B4975A"/>
</g>
</g>
<g id="Group_6">
<g id="Group_7">
<g id="Group_8">
<path id="Vector_15" d="M14.274 14.07C14.274 15.312 13.272 16.314 12.03 16.314C10.788 16.314 9.78601 15.312 9.78601 14.07C9.78601 12.834 10.788 11.826 12.03 11.826C13.266 11.832 14.274 12.834 14.274 14.07Z" fill="white"/>
</g>
<g id="Group_9">
<path id="Vector_16" d="M13.806 14.538C13.806 15.522 13.008 16.32 12.03 16.32C11.046 16.32 10.254 15.522 10.254 14.538C10.254 13.554 11.052 12.762 12.03 12.762C13.014 12.756 13.806 13.554 13.806 14.538Z" fill="#B4975A"/>
</g>
<path id="Vector_17" d="M12.03 11.652C10.698 11.652 9.612 12.738 9.612 14.07C9.612 15.402 10.698 16.488 12.03 16.488C13.362 16.488 14.448 15.402 14.448 14.07C14.448 12.738 13.362 11.652 12.03 11.652ZM14.058 13.68C13.908 14.28 13.5 14.766 12.966 15.036C13.008 14.742 13.14 14.448 13.272 14.142C13.464 13.704 13.68 13.218 13.584 12.708C13.824 12.984 13.992 13.314 14.058 13.68ZM10.968 12.3C11.238 12.138 11.55 12.036 11.88 12.012V15.264C11.712 15.252 11.556 15.222 11.4 15.174C11.382 14.772 11.22 14.394 11.058 14.028C10.788 13.422 10.56 12.888 10.968 12.3ZM11.382 15.48C11.544 15.522 11.706 15.552 11.88 15.564V16.14C11.61 16.122 11.352 16.05 11.118 15.936C11.232 15.822 11.352 15.672 11.382 15.48ZM12.18 15.558C12.354 15.546 12.516 15.522 12.678 15.474C12.714 15.666 12.828 15.822 12.942 15.924C12.708 16.038 12.45 16.11 12.18 16.128V15.558ZM12.66 15.168C12.504 15.216 12.348 15.252 12.18 15.264V12.012C12.51 12.036 12.822 12.138 13.092 12.3C13.5 12.894 13.272 13.422 13.002 14.028C12.84 14.394 12.678 14.766 12.66 15.168ZM10.47 12.714C10.38 13.224 10.59 13.704 10.782 14.148C10.914 14.454 11.046 14.748 11.088 15.048C10.554 14.784 10.146 14.292 9.996 13.68C10.068 13.314 10.236 12.984 10.47 12.714ZM9.996 14.436C10.254 14.862 10.644 15.192 11.1 15.378C11.1 15.39 11.1 15.408 11.094 15.42C11.07 15.576 10.944 15.702 10.854 15.768C10.41 15.462 10.092 14.982 9.996 14.436ZM13.212 15.768C13.122 15.696 12.996 15.57 12.972 15.42C12.972 15.408 12.966 15.39 12.966 15.378C13.422 15.186 13.806 14.856 14.07 14.436C13.968 14.988 13.65 15.462 13.212 15.768Z" fill="#0A2240"/>
</g>
<g id="Group_10">
<path id="Vector_18" d="M12.75 8.514C12.75 8.514 12.732 8.592 12.684 8.592C12.636 8.592 12.348 8.454 12.21 8.376C12.15 8.346 12.066 8.298 12.036 8.28C12.036 8.28 11.91 8.346 11.85 8.376C11.712 8.454 11.418 8.592 11.376 8.592C11.328 8.592 11.31 8.514 11.31 8.514C11.31 8.514 10.548 8.976 10.548 10.242C10.548 11.19 11.04 11.616 11.04 11.616L11.106 11.886H11.946H12.114H12.954L13.02 11.616C13.02 11.616 13.512 11.19 13.512 10.242C13.512 8.976 12.75 8.514 12.75 8.514Z" fill="#0A2240"/>
<path id="Vector_19" d="M13.11 9.92401C13.11 9.53401 12.948 9.21001 12.78 9.02401C12.78 9.02401 12.774 9.13801 12.588 9.01201C12.426 8.90401 12.234 8.83801 12.03 8.83801C11.826 8.83801 11.634 8.90401 11.472 9.01201C11.292 9.13801 11.28 9.02401 11.28 9.02401C11.106 9.21601 10.95 9.53401 10.95 9.92401C10.95 10.248 11.028 10.41 11.058 10.458C11.22 10.872 11.592 11.166 12.03 11.166C12.462 11.166 12.834 10.878 12.996 10.47C13.008 10.458 13.11 10.302 13.11 9.92401Z" fill="white"/>
<path id="Vector_20" d="M12.438 10.812C12.438 10.812 12.438 10.806 12.432 10.806C12.432 10.806 12.324 10.602 12.504 10.464C12.504 10.464 12.9 10.548 12.912 10.02C12.912 10.02 12.9 9.966 12.96 9.852C12.96 9.852 12.858 9.756 12.636 9.924C12.414 10.092 12.294 10.566 12.174 10.452C12.054 10.344 12.096 9.726 12.036 9.702C11.976 9.726 12.018 10.344 11.898 10.452C11.778 10.566 11.658 10.092 11.436 9.924C11.214 9.756 11.112 9.852 11.112 9.852C11.166 9.966 11.16 10.02 11.16 10.02C11.172 10.548 11.568 10.464 11.568 10.464C11.742 10.602 11.64 10.806 11.64 10.806C11.64 10.806 11.64 10.812 11.634 10.812C11.16 10.302 10.884 10.368 11.016 10.944C11.148 11.508 11.664 13.92 11.748 14.478C11.736 14.982 11.676 15.162 11.664 15.198L11.61 15.3L11.67 15.414C11.76 15.546 11.826 15.696 11.844 15.75L12.042 16.248L12.234 15.75C12.258 15.69 12.318 15.546 12.408 15.414L12.468 15.306L12.414 15.198C12.396 15.162 12.342 14.988 12.33 14.502C12.396 13.998 12.924 11.514 13.062 10.938C13.188 10.368 12.912 10.302 12.438 10.812Z" fill="#0A2240"/>
<g id="Group_11">
<path id="Vector_21" d="M11.706 13.326C11.538 12.426 11.4 11.76 11.292 11.28C11.208 10.914 11.43 11.058 11.55 11.292L11.706 13.326Z" fill="#CE0E2D"/>
<path id="Vector_22" d="M12.354 13.326C12.528 12.426 12.66 11.76 12.768 11.28C12.852 10.914 12.63 11.058 12.51 11.292L12.354 13.326Z" fill="#CE0E2D"/>
</g>
<g id="Group_12">
<path id="Vector_23" d="M11.436 10.284C11.4 10.272 11.382 10.242 11.394 10.206C11.4 10.194 11.406 10.182 11.418 10.176C11.394 10.152 11.37 10.128 11.34 10.104C11.34 10.104 11.286 10.362 11.514 10.338C11.514 10.338 11.508 10.314 11.49 10.284C11.472 10.29 11.454 10.29 11.436 10.284Z" fill="#CE0E2D"/>
<path id="Vector_24" d="M12.726 10.104C12.696 10.128 12.666 10.152 12.648 10.176C12.66 10.182 12.666 10.194 12.672 10.206C12.684 10.242 12.66 10.272 12.63 10.284C12.612 10.29 12.594 10.284 12.582 10.278C12.564 10.308 12.558 10.332 12.558 10.332C12.78 10.362 12.726 10.104 12.726 10.104Z" fill="#CE0E2D"/>
</g>
<path id="Vector_25" d="M12.138 13.662C12.21 12.276 12.324 11.292 12.324 11.166C12.324 11.124 12.318 11.064 12.3 11.004L12.222 11.268L12.198 10.8C12.156 10.746 12.102 10.698 12.03 10.644H12.024C11.952 10.692 11.904 10.746 11.862 10.8L11.838 11.268L11.754 11.004C11.736 11.064 11.73 11.124 11.73 11.166C11.73 11.286 11.838 12.27 11.916 13.662C11.988 15.048 11.82 15.306 11.82 15.306C11.922 15.45 12.03 15.708 12.03 15.708C12.03 15.708 12.138 15.45 12.24 15.306C12.24 15.306 12.066 15.048 12.138 13.662Z" fill="#CE0E2D"/>
</g>
</g>
</g>
</g>
<g id="Group_13">
<g id="Group_14">
<g id="Group_15">
<path id="Vector_26" d="M23.514 10.542C20.448 8.75399 15.948 7.84799 13.866 7.81199C13.614 7.80599 13.446 7.86599 13.356 8.03399C13.212 8.30399 13.416 8.60999 13.5 8.74199C13.686 9.02399 13.938 9.46199 13.938 9.98999C13.938 11.016 13.11 11.772 12.09 11.772C12.066 11.772 12.048 11.772 12.024 11.772C12 11.772 11.982 11.772 11.958 11.772C10.938 11.772 10.11 11.016 10.11 9.98999C10.11 9.46199 10.362 9.02399 10.548 8.74199C10.638 8.60999 10.842 8.30999 10.692 8.03399C10.602 7.87199 10.434 7.81199 10.182 7.81199C8.1 7.84799 3.6 8.75399 0.533997 10.542C0.533997 10.548 1.026 11.388 1.998 11.316C1.848 11.388 1.698 11.466 1.548 11.544C1.548 11.556 1.998 12.282 3.072 12.18C2.892 12.264 2.718 12.348 2.538 12.438C2.538 12.45 3.054 13.17 4.188 13.146C3.93 13.278 3.768 13.362 3.768 13.362C3.768 13.368 4.518 14.088 5.724 13.89C5.592 13.986 5.46 14.088 5.304 14.196C5.304 14.196 6.192 14.682 7.236 14.532C7.104 14.634 6.966 14.736 6.834 14.844C6.834 14.832 8.43 15.282 9.57 14.778C10.548 14.346 11.094 13.29 11.22 13.026C11.412 13.068 11.58 13.092 11.712 13.11C11.712 13.122 11.922 13.14 12.024 13.14C12.126 13.146 12.336 13.128 12.336 13.11C12.462 13.092 12.636 13.068 12.828 13.026C12.954 13.29 13.494 14.352 14.478 14.778C15.618 15.282 17.214 14.826 17.214 14.844C17.082 14.742 16.944 14.634 16.812 14.532C17.856 14.682 18.744 14.196 18.744 14.196C18.588 14.088 18.456 13.986 18.324 13.89C19.53 14.088 20.28 13.368 20.28 13.362C20.28 13.362 20.124 13.278 19.86 13.146C20.994 13.164 21.504 12.444 21.51 12.438C21.33 12.348 21.156 12.264 20.976 12.18C22.05 12.288 22.494 11.556 22.5 11.544C22.35 11.466 22.2 11.394 22.05 11.316C23.028 11.382 23.514 10.548 23.514 10.542Z" fill="#0A2240"/>
<path id="Vector_27" d="M11.148 12.48C11.148 12.48 8.412 11.562 9.6 8.64599C9.6 8.64599 6.702 8.76599 2.736 10.368C2.736 10.368 2.46 10.482 2.298 10.542C2.136 10.602 1.872 10.704 1.5 10.524C1.5 10.524 5.13 8.62799 9.792 8.18399C10.404 8.12399 10.488 8.21999 10.326 8.44799C10.194 8.64599 8.526 10.764 11.148 12.48Z" fill="white"/>
<path id="Vector_28" d="M8.71801 9.474C6.37201 9.78 4.07401 10.596 4.07401 10.596C4.46401 11.292 5.526 10.998 5.526 10.998C7.512 10.434 8.40001 10.242 8.688 10.188C8.676 9.966 8.682 9.732 8.71801 9.474Z" fill="#B4975A"/>
<path id="Vector_29" d="M8.73001 10.614C8.34001 10.692 6.69601 11.028 5.04001 11.646C5.04001 11.646 5.56201 12.24 6.60001 11.946C7.47001 11.7 8.59201 11.34 8.92201 11.238C8.83801 11.052 8.77201 10.842 8.73001 10.614Z" fill="#B4975A"/>
<path id="Vector_30" d="M9.09599 11.568C8.74199 11.682 6.97198 12.258 6.22198 12.546C6.22198 12.546 6.64799 13.122 7.88999 12.636C8.75399 12.294 9.22799 12.096 9.43799 12.006C9.31199 11.874 9.19799 11.73 9.09599 11.568Z" fill="#B4975A"/>
<path id="Vector_31" d="M9.714 12.252C9.402 12.384 8.256 12.888 7.59 13.206C7.59 13.206 8.424 13.614 9.48 12.966L10.134 12.534C9.99 12.456 9.846 12.366 9.714 12.252Z" fill="#B4975A"/>
<path id="Vector_32" d="M10.452 12.708C10.242 12.84 9.37198 13.386 8.94598 13.704C8.94598 13.704 9.66598 14.004 10.41 13.302C10.65 13.074 10.782 12.948 10.854 12.87C10.722 12.828 10.59 12.774 10.452 12.708Z" fill="#B4975A"/>
<g id="Group_16">
<path id="Vector_33" d="M12.912 12.48C12.912 12.48 15.648 11.562 14.46 8.64599C14.46 8.64599 17.358 8.76599 21.324 10.368C21.324 10.368 21.6 10.482 21.762 10.542C21.924 10.602 22.188 10.704 22.56 10.524C22.56 10.524 18.93 8.62799 14.268 8.18399C13.65 8.12399 13.572 8.21999 13.734 8.44799C13.872 8.64599 15.534 10.764 12.912 12.48Z" fill="white"/>
<path id="Vector_34" d="M15.342 9.474C17.688 9.78 19.986 10.596 19.986 10.596C19.596 11.292 18.534 10.998 18.534 10.998C16.548 10.434 15.66 10.242 15.372 10.188C15.39 9.966 15.378 9.732 15.342 9.474Z" fill="#B4975A"/>
<path id="Vector_35" d="M15.33 10.614C15.72 10.692 17.364 11.028 19.02 11.646C19.02 11.646 18.498 12.24 17.46 11.946C16.59 11.7 15.468 11.34 15.138 11.238C15.222 11.052 15.288 10.842 15.33 10.614Z" fill="#B4975A"/>
<path id="Vector_36" d="M14.964 11.568C15.318 11.682 17.088 12.258 17.838 12.546C17.838 12.546 17.412 13.122 16.17 12.636C15.306 12.294 14.832 12.096 14.622 12.006C14.748 11.874 14.862 11.73 14.964 11.568Z" fill="#B4975A"/>
<path id="Vector_37" d="M14.346 12.252C14.658 12.384 15.804 12.888 16.47 13.206C16.47 13.206 15.636 13.614 14.58 12.966L13.926 12.534C14.07 12.456 14.214 12.366 14.346 12.252Z" fill="#B4975A"/>
<path id="Vector_38" d="M13.608 12.708C13.818 12.84 14.688 13.386 15.114 13.704C15.114 13.704 14.394 14.004 13.65 13.302C13.41 13.074 13.278 12.948 13.206 12.87C13.338 12.828 13.47 12.774 13.608 12.708Z" fill="#B4975A"/>
</g>
</g>
<g id="Group_17">
<g id="Group_18">
<g id="Group_19">
<path id="Vector_39" d="M14.274 14.07C14.274 15.312 13.272 16.314 12.03 16.314C10.788 16.314 9.78601 15.312 9.78601 14.07C9.78601 12.834 10.788 11.826 12.03 11.826C13.266 11.832 14.274 12.834 14.274 14.07Z" fill="white"/>
</g>
<g id="Group_20">
<path id="Vector_40" d="M13.806 14.538C13.806 15.522 13.008 16.32 12.03 16.32C11.046 16.32 10.254 15.522 10.254 14.538C10.254 13.554 11.052 12.762 12.03 12.762C13.014 12.756 13.806 13.554 13.806 14.538Z" fill="#B4975A"/>
</g>
<path id="Vector_41" d="M12.03 11.652C10.698 11.652 9.612 12.738 9.612 14.07C9.612 15.402 10.698 16.488 12.03 16.488C13.362 16.488 14.448 15.402 14.448 14.07C14.448 12.738 13.362 11.652 12.03 11.652ZM14.058 13.68C13.908 14.28 13.5 14.766 12.966 15.036C13.008 14.742 13.14 14.448 13.272 14.142C13.464 13.704 13.68 13.218 13.584 12.708C13.824 12.984 13.992 13.314 14.058 13.68ZM10.968 12.3C11.238 12.138 11.55 12.036 11.88 12.012V15.264C11.712 15.252 11.556 15.222 11.4 15.174C11.382 14.772 11.22 14.394 11.058 14.028C10.788 13.422 10.56 12.888 10.968 12.3ZM11.382 15.48C11.544 15.522 11.706 15.552 11.88 15.564V16.14C11.61 16.122 11.352 16.05 11.118 15.936C11.232 15.822 11.352 15.672 11.382 15.48ZM12.18 15.558C12.354 15.546 12.516 15.522 12.678 15.474C12.714 15.666 12.828 15.822 12.942 15.924C12.708 16.038 12.45 16.11 12.18 16.128V15.558ZM12.66 15.168C12.504 15.216 12.348 15.252 12.18 15.264V12.012C12.51 12.036 12.822 12.138 13.092 12.3C13.5 12.894 13.272 13.422 13.002 14.028C12.84 14.394 12.678 14.766 12.66 15.168ZM10.47 12.714C10.38 13.224 10.59 13.704 10.782 14.148C10.914 14.454 11.046 14.748 11.088 15.048C10.554 14.784 10.146 14.292 9.996 13.68C10.068 13.314 10.236 12.984 10.47 12.714ZM9.996 14.436C10.254 14.862 10.644 15.192 11.1 15.378C11.1 15.39 11.1 15.408 11.094 15.42C11.07 15.576 10.944 15.702 10.854 15.768C10.41 15.462 10.092 14.982 9.996 14.436ZM13.212 15.768C13.122 15.696 12.996 15.57 12.972 15.42C12.972 15.408 12.966 15.39 12.966 15.378C13.422 15.186 13.806 14.856 14.07 14.436C13.968 14.988 13.65 15.462 13.212 15.768Z" fill="#0A2240"/>
</g>
<g id="Group_21">
<path id="Vector_42" d="M12.75 8.514C12.75 8.514 12.732 8.592 12.684 8.592C12.636 8.592 12.348 8.454 12.21 8.376C12.15 8.346 12.066 8.298 12.036 8.28C12.036 8.28 11.91 8.346 11.85 8.376C11.712 8.454 11.418 8.592 11.376 8.592C11.328 8.592 11.31 8.514 11.31 8.514C11.31 8.514 10.548 8.976 10.548 10.242C10.548 11.19 11.04 11.616 11.04 11.616L11.106 11.886H11.946H12.114H12.954L13.02 11.616C13.02 11.616 13.512 11.19 13.512 10.242C13.512 8.976 12.75 8.514 12.75 8.514Z" fill="#0A2240"/>
<path id="Vector_43" d="M13.11 9.92401C13.11 9.53401 12.948 9.21001 12.78 9.02401C12.78 9.02401 12.774 9.13801 12.588 9.01201C12.426 8.90401 12.234 8.83801 12.03 8.83801C11.826 8.83801 11.634 8.90401 11.472 9.01201C11.292 9.13801 11.28 9.02401 11.28 9.02401C11.106 9.21601 10.95 9.53401 10.95 9.92401C10.95 10.248 11.028 10.41 11.058 10.458C11.22 10.872 11.592 11.166 12.03 11.166C12.462 11.166 12.834 10.878 12.996 10.47C13.008 10.458 13.11 10.302 13.11 9.92401Z" fill="white"/>
<path id="Vector_44" d="M12.438 10.812C12.438 10.812 12.438 10.806 12.432 10.806C12.432 10.806 12.324 10.602 12.504 10.464C12.504 10.464 12.9 10.548 12.912 10.02C12.912 10.02 12.9 9.966 12.96 9.852C12.96 9.852 12.858 9.756 12.636 9.924C12.414 10.092 12.294 10.566 12.174 10.452C12.054 10.344 12.096 9.726 12.036 9.702C11.976 9.726 12.018 10.344 11.898 10.452C11.778 10.566 11.658 10.092 11.436 9.924C11.214 9.756 11.112 9.852 11.112 9.852C11.166 9.966 11.16 10.02 11.16 10.02C11.172 10.548 11.568 10.464 11.568 10.464C11.742 10.602 11.64 10.806 11.64 10.806C11.64 10.806 11.64 10.812 11.634 10.812C11.16 10.302 10.884 10.368 11.016 10.944C11.148 11.508 11.664 13.92 11.748 14.478C11.736 14.982 11.676 15.162 11.664 15.198L11.61 15.3L11.67 15.414C11.76 15.546 11.826 15.696 11.844 15.75L12.042 16.248L12.234 15.75C12.258 15.69 12.318 15.546 12.408 15.414L12.468 15.306L12.414 15.198C12.396 15.162 12.342 14.988 12.33 14.502C12.396 13.998 12.924 11.514 13.062 10.938C13.188 10.368 12.912 10.302 12.438 10.812Z" fill="#0A2240"/>
<g id="Group_22">
<path id="Vector_45" d="M11.706 13.326C11.538 12.426 11.4 11.76 11.292 11.28C11.208 10.914 11.43 11.058 11.55 11.292L11.706 13.326Z" fill="#CE0E2D"/>
<path id="Vector_46" d="M12.354 13.326C12.528 12.426 12.66 11.76 12.768 11.28C12.852 10.914 12.63 11.058 12.51 11.292L12.354 13.326Z" fill="#CE0E2D"/>
</g>
<g id="Group_23">
<path id="Vector_47" d="M11.436 10.284C11.4 10.272 11.382 10.242 11.394 10.206C11.4 10.194 11.406 10.182 11.418 10.176C11.394 10.152 11.37 10.128 11.34 10.104C11.34 10.104 11.286 10.362 11.514 10.338C11.514 10.338 11.508 10.314 11.49 10.284C11.472 10.29 11.454 10.29 11.436 10.284Z" fill="#CE0E2D"/>
<path id="Vector_48" d="M12.726 10.104C12.696 10.128 12.666 10.152 12.648 10.176C12.66 10.182 12.666 10.194 12.672 10.206C12.684 10.242 12.66 10.272 12.63 10.284C12.612 10.29 12.594 10.284 12.582 10.278C12.564 10.308 12.558 10.332 12.558 10.332C12.78 10.362 12.726 10.104 12.726 10.104Z" fill="#CE0E2D"/>
</g>
<path id="Vector_49" d="M12.138 13.662C12.21 12.276 12.324 11.292 12.324 11.166C12.324 11.124 12.318 11.064 12.3 11.004L12.222 11.268L12.198 10.8C12.156 10.746 12.102 10.698 12.03 10.644H12.024C11.952 10.692 11.904 10.746 11.862 10.8L11.838 11.268L11.754 11.004C11.736 11.064 11.73 11.124 11.73 11.166C11.73 11.286 11.838 12.27 11.916 13.662C11.988 15.048 11.82 15.306 11.82 15.306C11.922 15.45 12.03 15.708 12.03 15.708C12.03 15.708 12.138 15.45 12.24 15.306C12.24 15.306 12.066 15.048 12.138 13.662Z" fill="#CE0E2D"/>
</g>
</g>
</g>
</g>
</g>
</g>
</svg>
