<svg width="24" height="24" viewBox="0 0 24 24" fill="none" xmlns="http://www.w3.org/2000/svg">
<g id="Team=NYK">
<g id="Group">
<g id="Group_2">
<path id="Vector" d="M11.9438 21.6516L10.3641 19.6031C8.35782 18.9422 6.96095 17.1281 6.8297 15.0141L5.85001 13.7438C4.9172 14.1469 3.98907 14.7797 3.98907 14.7797L1.0547 11.8313L2.2922 9.11719L0.0750122 6.24844H3.59532L4.27501 4.7625L6.01876 4.05938L6.21095 3.53438L7.62189 4.18125L7.95939 3.00938L8.18907 2.93438C9.3047 2.56406 10.5938 2.3625 11.9109 2.35313C11.9485 2.35313 12.3656 2.35781 12.3797 2.35781C12.4266 2.35781 12.6328 2.36719 12.6328 2.36719C13.7484 2.41875 14.7938 2.60625 15.7453 2.92031L15.9797 2.99531L16.2891 4.11563L16.8 3.73125L19.6547 4.74844L20.3438 6.25313H23.8828L21.6469 9.14063L22.8656 11.8125L19.8844 14.8828C19.8844 14.8828 18.7922 14.0859 18.0422 13.7906L17.1422 14.9484C17.0391 17.1094 15.5672 19.0078 13.5 19.6406L11.9438 21.6516Z" fill="white"/>
<g id="Group_3">
<g id="Group_4">
<path id="Vector_2" d="M11.9438 20.2312L22.1203 7.11562H1.84219L11.9438 20.2312Z" fill="#9EA2A2"/>
<path id="Vector_3" d="M1.00314 6.70312L11.9438 20.9062L22.9594 6.70312H1.00314ZM22.1203 7.11563L11.9485 20.2313L1.84221 7.11563H22.1203Z" fill="#1D428A"/>
</g>
</g>
</g>
<g id="Group_5">
<path id="Vector_4" d="M20.6484 8.02969L20.6438 8.02031L20.6344 8.01563L19.9828 7.57969L20.2266 7.11563L20.236 7.10156L20.2313 7.0875L19.3359 5.12344L19.3313 5.10938L19.3172 5.10469L16.9031 4.24688L16.8844 4.24219L16.8703 4.25156L16.2281 4.73906L16.2234 4.74375L16.2188 4.75313L16.111 5.02031C16.111 5.02031 15.1078 4.76719 13.6406 4.62188C13.4906 4.60781 13.0922 4.575 12.45 4.52344L12.3891 4.51875L12.3234 4.51406H12.3094L12.3 4.52344L11.8219 4.99688V4.50938C11.8219 4.50938 10.4672 4.58438 9.58126 4.70625C8.69532 4.82813 7.82345 5.04844 7.82345 5.04844L7.66407 4.70625L7.65939 4.69688L7.65001 4.69219L6.51095 4.17188L6.47814 4.15781L6.46407 4.19063L6.32814 4.54688L6.30001 4.47656L6.28595 4.44844L6.25782 4.4625L4.62657 5.11875L4.61251 5.12344L4.60782 5.1375L1.59845 11.7469L4.06876 14.2219L4.18595 14.1563C4.26095 14.1141 4.36407 14.0531 4.48595 13.9828C4.78595 13.8047 5.19376 13.5656 5.39064 13.4719L5.42814 13.4531C5.68126 13.3313 5.80782 13.2703 7.00782 12.7547L7.10626 12.7172C7.10626 12.7172 7.2422 12.6656 7.49064 12.5813C8.15158 12.3609 9.86251 11.8547 11.5219 11.8547H11.5406C11.6063 11.8547 11.6719 11.8547 11.7375 11.8594C12.8625 11.8922 14.1844 12.1313 15.0891 12.3234C15.9609 12.5109 16.6172 12.6938 16.8047 12.7453L16.9313 12.7828C17.7563 13.1016 18.7688 13.6266 19.7016 14.2266L19.8188 14.3016L22.3172 11.7281L20.6484 8.02969Z" fill="#1D428A"/>
<g id="Group_6">
<path id="Vector_5" d="M20.3813 8.25938L17.9766 6.65625L17.5594 5.48438L18.3047 5.74688L18.6047 6.47813L19.7344 6.83907L19.0781 5.38125L16.9453 4.62188L16.5516 4.92657L17.2594 7.23282L19.5422 8.84532L20.1281 10.3031L19.1766 9.87657L18.8484 8.96719L17.6813 8.625L18.3047 10.6781C18.4969 10.7484 18.6891 10.8234 18.8766 10.8984C19.3969 11.1094 19.9031 11.3391 20.4 11.5969C20.7422 11.775 21.0844 11.9578 21.4172 12.1547L21.9141 11.6438L20.3813 8.25938Z" fill="#F58426"/>
<path id="Vector_6" d="M4.17658 9.34688L4.97814 8.62969L5.17033 8.85469L4.37814 11.1281C4.80939 10.9359 5.25002 10.7625 5.69533 10.6031L6.26721 8.72813L5.77502 7.9125L6.79689 6.9375L7.39689 4.94532L6.66096 4.6125L6.00002 6.49219L4.94064 7.40625L5.90627 4.96875L4.87033 5.38125L2.01096 11.6531L2.45627 12.1031C2.72346 11.9484 2.99064 11.7984 3.26252 11.6578L4.17658 9.34688Z" fill="#F58426"/>
<path id="Vector_7" d="M11.4235 4.87032L10.5469 4.91719L10.1344 9.62344C10.5047 9.58594 10.8844 9.5625 11.2594 9.55313L11.4235 4.87032Z" fill="#F58426"/>
<path id="Vector_8" d="M14.025 8.64844L13.0078 8.5875L12.8438 5.70469L13.7063 5.74688L13.6031 4.95469L12.4453 4.87032L11.925 5.39063V8.99532L12.4688 9.55313C13.0313 9.57188 13.5891 9.61407 14.1375 9.67969L14.025 8.64844Z" fill="#F58426"/>
<path id="Vector_9" d="M8.2547 6.72656L8.62032 8.51719L8.38126 9.87188C8.73751 9.80156 9.09376 9.74531 9.45939 9.69844L10.0313 4.97813L9.21564 5.09531L8.94845 6.64219L8.64376 5.18906L7.68751 5.42813L6.35626 10.3828C6.74064 10.2609 7.1297 10.1531 7.52345 10.0594L8.2547 6.72656Z" fill="#F58426"/>
<path id="Vector_10" d="M15.3328 8.38594L15.6188 7.99688L16.0359 8.34375L16.4203 10.0969C16.8234 10.2 17.2219 10.3125 17.6203 10.4391L16.9031 7.86563L16.1625 7.26094L16.5844 6.69844L16.2328 5.39063L15.3375 5.19375L15.6891 6.51094L15.1313 7.25625L14.7188 5.09063L13.8891 4.9875C13.8891 4.9875 14.3063 8.16094 14.4984 9.72188C14.8734 9.77344 15.2438 9.83907 15.6141 9.91407L15.3328 8.38594Z" fill="#F58426"/>
<g id="Group_7">
<path id="Vector_11" d="M10.261 10.5188C10.261 10.5188 10.6078 10.3172 11.2969 10.2422L11.2735 9.69844C10.8938 9.7125 10.5188 9.73594 10.1438 9.76875C10.1813 9.97969 10.2281 10.2938 10.261 10.5188Z" fill="#9EA2A2"/>
<path id="Vector_12" d="M12.4547 10.2047C12.736 10.2375 13.036 10.3313 13.2985 10.4016C13.5375 10.4578 13.7953 10.5609 14.0063 10.6547L14.1235 9.81563C13.5703 9.74531 13.0453 9.70781 12.4781 9.68906C12.4688 9.85781 12.4688 10.0828 12.4547 10.2047Z" fill="#9EA2A2"/>
<path id="Vector_13" d="M8.82659 11.5313C9.15002 11.2922 9.34221 11.0484 9.67971 10.8422C9.61409 10.5375 9.52971 10.1438 9.46877 9.84376C9.09846 9.89063 8.73752 9.95157 8.37659 10.0219C8.50784 10.4719 8.68596 11.0766 8.82659 11.5313Z" fill="#9EA2A2"/>
<path id="Vector_14" d="M14.2875 10.8281C14.6016 11.0109 14.8454 11.2125 15.1266 11.4891L15.1828 11.5313L15.6235 10.0688C15.2438 9.98907 14.8735 9.92345 14.4844 9.8672L14.2875 10.8281Z" fill="#9EA2A2"/>
<path id="Vector_15" d="M15.6797 12.0938L16.7344 12.3422L17.6203 10.5891C17.2125 10.4578 16.8188 10.3453 16.4016 10.2422L15.6797 12.0938Z" fill="#9EA2A2"/>
<path id="Vector_16" d="M7.21408 12.3422C7.49064 12.2391 7.87033 12.1031 8.23127 12.0047L7.54689 10.2C7.13439 10.2984 6.77346 10.4063 6.37033 10.5328C6.62346 11.1375 6.90939 11.7609 7.21408 12.3422Z" fill="#9EA2A2"/>
<path id="Vector_17" d="M5.62501 12.9938C5.68595 12.9422 6.28126 12.6844 6.69376 12.5109C6.38439 11.9484 6.00939 11.3297 5.69532 10.7578C5.25001 10.9172 4.8422 11.0813 4.41095 11.2734L5.62501 12.9938Z" fill="#9EA2A2"/>
<path id="Vector_18" d="M4.1344 13.7859C4.32659 13.6734 4.52815 13.5563 4.74846 13.425L3.35159 11.7797C3.0844 11.9156 2.8219 12.0609 2.56409 12.2109L4.1344 13.7859Z" fill="#9EA2A2"/>
<path id="Vector_19" d="M17.2922 12.5625C18.1313 12.8859 19.3031 13.5469 19.7672 13.8563C19.9828 13.65 21.15 12.4266 21.3094 12.2578C20.3391 11.6906 19.3219 11.2031 18.2625 10.8141L17.2922 12.5625Z" fill="#9EA2A2"/>
<path id="Vector_20" d="M12.2953 10.1766L11.8969 10.1625L11.8875 9.19219L12.3047 9.62344L12.2953 10.1766Z" fill="#9EA2A2"/>
</g>
</g>
</g>
<g id="Group_8">
<path id="Vector_21" d="M11.986 9.98438C9.3844 9.98438 7.27502 12.0938 7.27502 14.6953C7.27502 17.2969 9.3844 19.4062 11.986 19.4062C14.5875 19.4062 16.6969 17.2969 16.6969 14.6953C16.6969 12.0938 14.5875 9.98438 11.986 9.98438Z" fill="#1D428A"/>
<g id="Group_9">
<path id="Vector_22" d="M12.2766 10.3359C11.9157 10.4625 11.5688 10.6453 11.2219 10.8047C10.9875 10.6641 10.8516 10.6266 10.6922 10.5234C11.1891 10.35 11.7235 10.3219 12.2766 10.3359Z" fill="#F58426"/>
<path id="Vector_23" d="M15.6516 12.3375C14.5407 11.2172 12.8766 11.3016 11.4657 10.9031C11.4657 10.9031 12.2954 10.5094 12.7266 10.3969C13.8797 10.5984 14.9954 11.2875 15.6516 12.3375Z" fill="#F58426"/>
<path id="Vector_24" d="M9.41254 12.5062C8.34847 14.1422 8.20316 16.1578 9.0516 17.925C7.95472 17.0016 7.29847 15.2203 7.79066 13.4859C8.19379 12.9187 8.7141 12.4219 9.41254 12.5062Z" fill="#F58426"/>
<path id="Vector_25" d="M10.5516 13.6688C11.1282 15.3797 11.2547 17.2688 12.7407 18.9891C11.5828 19.2234 10.4297 18.8766 9.51565 18.2953C8.38128 16.6406 8.48909 14.1656 9.62346 12.5625C10.1766 12.7266 10.4766 13.4484 10.5516 13.6688Z" fill="#F58426"/>
<path id="Vector_26" d="M9.75473 12.3844C9.92817 12.1406 10.1204 11.9109 10.3407 11.6953C12.7547 12.375 15.0563 14.8781 15.45 17.3391C15.3329 17.5266 15.061 17.7844 14.8735 17.9672C14.2735 18.5062 13.6125 18.7875 12.9797 18.9375C11.8547 17.7703 11.4797 16.2516 11.086 14.7562C10.7813 13.6078 10.5704 12.7406 9.75942 12.3891L9.75473 12.3844Z" fill="#F58426"/>
<path id="Vector_27" d="M15.3938 12.375C14.2266 11.3484 12.6047 11.4797 11.2407 10.9969C10.9782 11.1562 10.7203 11.3484 10.5 11.5453C12.9141 12.3 15.1032 14.6625 15.6235 17.1C16.0032 16.5516 16.2282 15.9187 16.3219 15.2437C16.3828 14.2125 16.3735 13.2703 15.3938 12.375Z" fill="#F58426"/>
<path id="Vector_28" d="M10.1438 11.6203C9.9094 11.8453 9.73596 12.0656 9.55315 12.3234H9.54846C8.91096 12.1781 8.40471 12.5109 8.00159 12.9234C8.19377 12.4359 8.60159 11.8594 9.02815 11.4797C9.4219 11.4938 9.70784 11.4891 10.1438 11.6203Z" fill="#F58426"/>
<path id="Vector_29" d="M10.3125 11.4703C10.5422 11.2687 10.7625 11.0906 11.0344 10.9266L10.4157 10.6219C10.0032 10.7906 9.56253 11.0109 9.25784 11.2875C9.73128 11.3391 9.93284 11.3672 10.3125 11.4703Z" fill="#F58426"/>
</g>
</g>
<g id="Group_10">
<path id="Vector_30" d="M11.3203 4.20937L11.1281 4.39687L10.8 4.41562L10.6781 4.30781L10.5234 4.43906L10.1672 4.47187L10.0125 4.32187L10.2188 2.92968L10.4859 2.89218L10.3406 4.12031L10.5328 4.09687L10.6828 2.86406L10.95 2.84062L10.8375 4.06406L11.025 4.04531L11.1234 2.82656C11.2359 2.8125 11.2969 2.81718 11.3953 2.80781L11.3203 4.20937Z" fill="#1D428A"/>
<path id="Vector_31" d="M12.1922 2.80312L12.1969 3.67969H12.3703L12.3609 2.80781C12.3609 2.80781 12.5391 2.8125 12.6234 2.82187L12.6562 3.80625L12.4922 3.97031L12.4359 3.975L12.4453 4.39687L12.1547 4.3875L12.15 3.96562L12.0937 3.96094L11.9156 3.77812L11.925 2.80312C12.0141 2.79844 12.1922 2.80312 12.1922 2.80312Z" fill="#1D428A"/>
<path id="Vector_32" d="M10.0266 2.96719L9.97968 3.25312L9.65624 3.31406L9.59531 3.65156C9.71249 3.62812 9.78749 3.61875 9.92812 3.6C9.90937 3.72656 9.90468 3.76875 9.88124 3.88594L9.55312 3.93281L9.49218 4.25625L9.82499 4.20937C9.82499 4.20937 9.79218 4.425 9.77343 4.52344C9.53906 4.55156 9.30468 4.58437 9.07968 4.62656C9.07968 4.62656 9.33281 3.45937 9.39374 3.09844L10.0266 2.96719Z" fill="#1D428A"/>
<path id="Vector_33" d="M8.79844 4.67343L8.46094 4.73906L8.61563 4.10156L8.51251 3.87187L8.24532 4.78593L7.91251 4.86093C8.04844 4.36406 8.19376 3.86718 8.32969 3.375C8.44219 3.3375 8.52657 3.30937 8.62969 3.28125C8.66719 3.36562 8.75626 3.53437 8.75626 3.53437L8.83594 3.225C8.83594 3.225 9.04688 3.16875 9.15001 3.14531L8.79844 4.67343Z" fill="#1D428A"/>
<path id="Vector_34" d="M13.5703 3.075C13.6031 3.47344 13.6688 3.85781 13.7109 4.22812L13.5609 4.45312L13.0828 4.42031L12.9094 4.23281C12.8766 3.825 12.8578 3.41719 12.8344 3.00937C12.8766 2.95312 12.9469 2.90625 12.9984 2.85L13.3969 2.8875L13.5703 3.075ZM13.1203 3.14062L13.2047 4.09219L13.3734 4.10625L13.2844 3.15937L13.1203 3.14062Z" fill="#1D428A"/>
<path id="Vector_35" d="M15.1172 3.21562C15.1781 3.44531 15.2953 3.91406 15.2953 3.91406L15.4078 3.9375L15.4641 3.8625L15.3234 3.27656C15.3234 3.27656 15.4641 3.31406 15.6141 3.36093L15.7641 3.92812L15.6937 4.03125L15.825 4.17656L16.0219 4.86562L15.6937 4.79062L15.5672 4.30781L15.3609 4.26093L15.4734 4.74375L15.1406 4.67812C15.0234 4.15781 14.8125 3.13593 14.8125 3.13593C14.8125 3.13593 14.9859 3.17343 15.1172 3.21562Z" fill="#1D428A"/>
<path id="Vector_36" d="M14.6016 3.27187L14.7094 3.83906L14.6437 3.92812L14.7562 4.05937L14.8547 4.62656L14.5359 4.57031L14.4469 4.10156L14.2547 4.07812L14.3203 4.5375L14.0016 4.49531L13.7906 2.93437L14.4 3.04218L14.6016 3.27187ZM14.1375 3.29062L14.1937 3.68906L14.3719 3.70781L14.2969 3.31875L14.1375 3.29062Z" fill="#1D428A"/>
</g>
</g>
</g>
</svg>
