<svg width="24" height="24" viewBox="0 0 24 24" fill="none" xmlns="http://www.w3.org/2000/svg">
<g id="Team=OKC">
<g id="Layer_2_1_">
<path id="Vector" d="M18.948 10.74C20.616 10.368 22.248 10.122 23.82 9.996C22.074 10.53 20.298 11.124 18.492 11.778C18.654 11.442 18.804 11.094 18.948 10.74ZM1.33798 19.536C2.72998 18.306 4.30198 17.13 6.02398 16.056C6.34798 15.894 6.67198 15.732 6.99598 15.57C7.12798 15.504 7.39198 15.378 7.72198 15.216C7.94398 15.462 8.17198 15.708 8.41198 15.942C5.93998 17.094 3.57598 18.3 1.33798 19.536Z" fill="#057DC1"/>
<path id="Vector_2" d="M19.638 8.682C21.078 8.622 22.476 8.646 23.82 8.748C22.374 8.952 20.898 9.192 19.404 9.462C19.482 9.21 19.56 8.952 19.638 8.682ZM0.119995 14.658C1.734 13.632 3.528 12.696 5.46 11.88C5.526 12.012 5.592 12.138 5.658 12.264C5.556 12.474 5.448 12.69 5.346 12.9C3.552 13.464 1.806 14.046 0.119995 14.658Z" fill="#EE3C33"/>
<path id="Vector_3" d="M10.5 13.902L10.734 13.794L11.34 13.308L11.472 12.936C11.562 13.11 11.604 13.182 11.694 13.362L11.892 13.272C11.898 13.464 11.904 13.65 11.904 13.83C11.466 13.932 10.998 13.986 10.512 13.992L10.5 13.902ZM12.24 13.116C12.492 13.008 12.744 12.894 12.99 12.786L13.11 12.666C13.158 12.672 13.218 12.678 13.278 12.672C13.374 12.654 13.494 12.624 13.626 12.576C13.542 12.882 13.488 13.146 13.47 13.38C13.116 13.506 12.714 13.626 12.258 13.74C12.252 13.542 12.246 13.332 12.24 13.116ZM11.97 6.384C14.694 6.384 16.836 7.02 19.248 8.226C18.066 12.678 15.906 15.666 11.97 18.09C10.494 17.178 9.234 16.158 8.184 14.994C8.652 14.772 9.18 14.52 9.642 14.304C9.828 14.322 10.008 14.328 10.176 14.334C10.164 14.592 10.086 14.778 9.954 14.916C10.032 15 10.104 15.09 10.182 15.174C10.386 14.994 10.518 14.724 10.53 14.34C11.01 14.334 11.472 14.286 11.898 14.19C11.874 14.892 11.778 15.408 11.574 15.612C11.568 15.618 11.562 15.624 11.562 15.63C11.514 15.684 11.466 15.726 11.43 15.762C11.622 15.726 11.814 15.684 12 15.63C12.24 15.132 12.246 14.262 12.246 14.106C12.69 13.992 13.092 13.878 13.446 13.758C13.458 14.166 13.626 14.556 13.938 14.7C14.076 14.598 14.214 14.496 14.346 14.388C14.268 14.4 13.77 14.436 13.782 13.638C14.832 13.242 15.51 12.768 16.11 12.054C16.266 11.694 16.398 11.322 16.488 10.932C15.768 12.066 15.108 12.726 13.818 13.242C13.854 13.014 13.92 12.738 14.028 12.414C14.406 12.258 14.796 12.066 15.036 11.97L15.6 11.376C15.744 10.83 15.882 10.278 16.026 9.732L15.582 9.87L16.104 9.324C16.212 8.892 16.32 8.466 16.428 8.034C16.17 8.07 15.906 8.112 15.648 8.154C15.69 7.938 15.72 7.728 15.738 7.512C15.612 7.482 15.486 7.452 15.36 7.422C15.336 7.662 15.288 7.926 15.216 8.22L15.18 8.226C14.934 8.268 14.688 8.346 14.472 8.532L14.544 8.322C14.124 8.4 13.71 8.472 13.29 8.556L12.876 8.994L12.888 8.958L13.02 8.61C12.606 8.694 12.198 8.784 11.784 8.874C11.7 8.316 11.61 7.818 11.538 7.41C11.424 7.422 11.304 7.44 11.19 7.458C11.268 7.872 11.352 8.382 11.442 8.952L11.148 9.018L10.776 9.408C10.518 9.132 9.99 9.306 9.654 9.39C9.294 9.48 8.934 9.576 8.574 9.672C8.466 9.702 8.358 9.732 8.256 9.768C7.986 9.378 7.734 8.976 7.524 8.55L7.488 8.472C7.38 8.514 7.272 8.562 7.164 8.61L7.212 8.706C7.416 9.126 7.662 9.522 7.926 9.906C7.536 10.08 7.182 10.32 6.87 10.662C6.87 10.662 6.366 11.19 6.306 11.256C6.174 11.406 6.06 11.568 5.964 11.73C5.436 10.662 5.016 9.504 4.698 8.232C7.104 7.02 9.246 6.384 11.97 6.384Z" fill="white"/>
<path id="Vector_4" d="M10.5 13.902L10.734 13.794L11.34 13.308L11.472 12.936C11.562 13.116 11.604 13.182 11.694 13.362L11.892 13.272C11.898 13.464 11.904 13.65 11.904 13.83C11.466 13.932 10.998 13.986 10.512 13.992L10.5 13.902ZM12.24 13.116C12.492 13.008 12.744 12.894 12.99 12.786L13.11 12.666C13.158 12.672 13.218 12.678 13.278 12.672C13.374 12.654 13.494 12.624 13.626 12.576C13.542 12.882 13.488 13.146 13.47 13.38C13.116 13.506 12.714 13.626 12.258 13.74C12.252 13.542 12.246 13.332 12.24 13.116ZM7.488 8.46601C8.688 7.97401 9.918 7.63201 11.19 7.45201C11.268 7.86601 11.352 8.37601 11.442 8.94601L11.148 9.01201L10.776 9.40201C10.518 9.12601 9.99 9.30001 9.654 9.38401C9.294 9.47401 8.934 9.57001 8.574 9.66601C8.466 9.69601 8.358 9.72601 8.256 9.76201C7.986 9.37201 7.734 8.97001 7.524 8.54401L7.488 8.46601ZM7.188 10.344C6.99 9.85201 6.822 9.34201 6.672 8.82601C6.834 8.74801 6.996 8.67601 7.164 8.60401L7.212 8.70001C7.416 9.12001 7.662 9.51601 7.926 9.90001C7.662 10.014 7.416 10.158 7.188 10.344ZM9.954 14.91C9.798 14.73 9.648 14.55 9.504 14.364L9.642 14.298C9.828 14.316 10.008 14.322 10.176 14.328C10.164 14.592 10.086 14.778 9.954 14.91ZM11.43 15.756C11.232 15.792 11.034 15.822 10.83 15.84C10.608 15.624 10.392 15.402 10.182 15.168C10.386 14.988 10.518 14.718 10.53 14.334C11.01 14.328 11.472 14.28 11.898 14.184C11.874 14.886 11.778 15.402 11.574 15.606C11.568 15.612 11.562 15.618 11.562 15.624C11.514 15.678 11.472 15.726 11.43 15.756ZM13.938 14.7C13.356 15.108 12.702 15.426 12 15.624C12.24 15.126 12.246 14.256 12.246 14.1C12.69 13.986 13.092 13.872 13.446 13.752C13.464 14.166 13.626 14.556 13.938 14.7ZM16.11 12.054C15.708 12.96 15.102 13.758 14.346 14.388C14.268 14.4 13.77 14.436 13.782 13.638C14.832 13.242 15.51 12.768 16.11 12.054ZM13.44 7.29001C14.016 7.29001 14.586 7.32001 15.144 7.38001C15.57 7.47001 15.99 7.57801 16.41 7.70401C16.572 8.26201 16.656 8.85601 16.656 9.46201C16.656 9.96601 16.596 10.458 16.488 10.926C15.768 12.06 15.108 12.72 13.818 13.236C13.854 13.008 13.92 12.732 14.028 12.408C14.406 12.252 14.796 12.06 15.036 11.964L15.6 11.37C15.744 10.824 15.882 10.272 16.026 9.72601L15.582 9.86401L16.104 9.31801C16.212 8.88601 16.32 8.46001 16.428 8.02801C16.17 8.06401 15.906 8.10601 15.648 8.14801C15.69 7.93201 15.72 7.72201 15.738 7.50601C15.612 7.47601 15.486 7.44601 15.36 7.41601C15.336 7.65601 15.288 7.92001 15.216 8.21401L15.18 8.22001C14.934 8.26201 14.688 8.34001 14.472 8.52601L14.544 8.31601C14.124 8.39401 13.71 8.46601 13.29 8.55001L12.876 8.98801L12.888 8.95201L13.02 8.60401C12.606 8.68801 12.198 8.77801 11.784 8.86801C11.7 8.31001 11.61 7.81201 11.538 7.40401C12.156 7.33201 12.792 7.29001 13.44 7.29001Z" fill="#EE3C33"/>
<path id="Vector_5" d="M6.62998 10.896C6.28798 10.158 6.00598 9.384 5.77798 8.586C7.79998 7.632 9.88798 7.116 12.108 7.056C13.146 7.068 14.154 7.176 15.138 7.38C14.58 7.32 14.01 7.29 13.434 7.29C12.786 7.29 12.156 7.326 11.526 7.404C11.412 7.416 11.292 7.434 11.178 7.452C9.90598 7.632 8.68198 7.974 7.47598 8.466C7.36798 8.508 7.25998 8.556 7.15198 8.604C6.98998 8.676 6.82198 8.748 6.65998 8.826C6.80998 9.342 6.97798 9.852 7.17598 10.344C7.06198 10.434 6.95398 10.536 6.85198 10.65L6.62998 10.896ZM12.09 17.352C10.932 16.566 9.89998 15.642 9.00598 14.61L9.50398 14.376C9.64798 14.562 9.80398 14.742 9.95398 14.922C10.026 15.006 10.104 15.096 10.182 15.18C10.842 15.906 11.574 16.572 12.372 17.166C12.282 17.22 12.186 17.286 12.09 17.352Z" fill="#F9B82F"/>
<path id="Vector_6" d="M10.5 13.902L10.512 13.986C10.998 13.98 11.466 13.926 11.904 13.824C11.904 13.644 11.898 13.458 11.892 13.266L11.694 13.356C11.61 13.176 11.562 13.11 11.472 12.93L11.34 13.302L10.734 13.788L10.5 13.902ZM12.24 13.116C12.246 13.332 12.252 13.536 12.252 13.734C12.708 13.62 13.11 13.5 13.464 13.374C13.488 13.14 13.536 12.876 13.62 12.57C13.488 12.612 13.368 12.648 13.272 12.666C13.206 12.672 13.152 12.672 13.104 12.66L12.984 12.78C12.738 12.9 12.486 13.008 12.24 13.116ZM11.97 6.38401C9.23999 6.38401 7.10399 7.02001 4.69199 8.22601C5.00399 9.49801 5.42399 10.656 5.95799 11.724C6.05999 11.562 6.16799 11.4 6.29999 11.25C6.35999 11.184 6.86399 10.656 6.86399 10.656C7.17599 10.314 7.52999 10.074 7.91999 9.90001C7.65599 9.51601 7.40999 9.12601 7.20599 8.70001L7.15799 8.604C7.26599 8.556 7.37399 8.51401 7.48199 8.46601L7.51799 8.544C7.72799 8.976 7.97999 9.37801 8.24999 9.76201C8.35199 9.72601 8.45999 9.69601 8.56799 9.66601C8.92799 9.57001 9.28799 9.474 9.64799 9.384C9.97799 9.3 10.506 9.126 10.77 9.402L11.142 9.01201L11.436 8.94601C11.346 8.37601 11.262 7.86 11.184 7.452C11.298 7.434 11.418 7.42201 11.532 7.40401C11.61 7.81201 11.694 8.31601 11.778 8.86801C12.192 8.77801 12.6 8.694 13.014 8.604L12.882 8.952L12.87 8.98801L13.284 8.55001C13.698 8.47201 14.118 8.39401 14.538 8.31601L14.466 8.52601C14.682 8.34601 14.934 8.26201 15.174 8.22001L15.21 8.214C15.282 7.92 15.33 7.65601 15.354 7.416C15.48 7.446 15.606 7.476 15.732 7.506C15.714 7.716 15.684 7.93201 15.642 8.14801C15.9 8.10601 16.164 8.07001 16.422 8.02801C16.314 8.46001 16.206 8.88601 16.098 9.31801L15.576 9.864L16.02 9.72601C15.882 10.272 15.738 10.824 15.594 11.37L15.03 11.964C14.796 12.06 14.4 12.252 14.022 12.408C13.914 12.732 13.848 13.008 13.812 13.236C15.102 12.72 15.762 12.054 16.482 10.926C16.392 11.316 16.266 11.688 16.104 12.048C15.504 12.756 14.82 13.236 13.776 13.632C13.77 14.43 14.262 14.394 14.34 14.382C14.208 14.49 14.07 14.598 13.932 14.694C13.62 14.55 13.458 14.16 13.44 13.752C13.08 13.872 12.684 13.986 12.24 14.1C12.234 14.25 12.234 15.126 11.994 15.624C11.808 15.678 11.616 15.72 11.424 15.756C11.46 15.72 11.508 15.678 11.556 15.624C11.562 15.618 11.562 15.612 11.568 15.606C11.766 15.402 11.868 14.886 11.892 14.184C11.466 14.274 11.004 14.322 10.524 14.334C10.512 14.718 10.38 14.988 10.176 15.168C10.098 15.084 10.02 15 9.94799 14.91C10.08 14.778 10.158 14.586 10.17 14.328C10.002 14.322 9.82199 14.316 9.63599 14.298C9.17399 14.514 8.64599 14.766 8.17799 14.988C9.22799 16.152 10.482 17.166 11.964 18.084C15.906 15.66 18.066 12.672 19.248 8.22001C16.836 7.02 14.694 6.38401 11.97 6.38401ZM4.10999 7.95601C6.71999 6.61201 9.01199 5.88 11.97 5.88C14.928 5.88 17.22 6.61201 19.83 7.95601C18.618 12.84 16.302 16.074 11.97 18.672C10.338 17.694 8.90999 16.548 7.72199 15.216C7.39199 15.372 7.12799 15.504 6.99599 15.57C6.58799 15.774 6.17999 15.978 5.77199 16.188C5.31599 16.422 4.80599 16.776 4.27199 16.638C3.69599 16.386 4.07399 15.684 4.25399 15.282C4.70399 14.268 5.17199 13.266 5.66399 12.27C5.07599 11.166 4.61399 9.96601 4.28999 8.67001L4.10999 7.95601Z" fill="#1E3160"/>
<path id="Vector_7" d="M15.198 8.442C14.946 8.484 14.724 8.562 14.532 8.754C14.376 8.922 14.298 9.114 14.232 9.324C14.034 9.948 13.83 10.578 13.632 11.202C13.554 11.448 13.428 11.898 13.824 11.868C13.962 11.844 14.088 11.79 14.214 11.736C14.616 11.568 15.018 11.394 15.42 11.232C15.522 10.836 15.624 10.446 15.726 10.05C15.516 10.116 15.3 10.182 15.09 10.254C15.042 10.434 14.988 10.608 14.94 10.788C14.79 10.842 14.646 10.896 14.496 10.95C14.682 10.314 14.868 9.678 15.054 9.042C15.186 9.012 15.312 8.988 15.444 8.958C15.414 9.072 15.384 9.18 15.354 9.294C15.546 9.246 15.732 9.204 15.924 9.162C15.996 8.874 16.068 8.586 16.14 8.304C15.828 8.34 15.516 8.388 15.198 8.442ZM13.398 8.748C12.948 9.336 12.504 9.93 12.066 10.524C12.27 9.978 12.48 9.432 12.69 8.892C12.222 8.988 11.76 9.09 11.298 9.192C11.178 9.474 11.058 9.756 10.938 10.032C11.04 10.002 11.136 9.978 11.238 9.948C10.872 10.83 10.518 11.718 10.17 12.606C10.026 12.966 9.882 13.326 9.744 13.692C10.212 13.47 10.674 13.254 11.142 13.038C11.352 12.456 11.568 11.868 11.784 11.286C11.982 11.682 12.18 12.084 12.372 12.48C12.672 12.348 12.978 12.216 13.278 12.084C13.092 11.664 12.906 11.244 12.72 10.83C13.056 10.32 13.392 9.816 13.734 9.312C13.83 9.288 13.926 9.264 14.022 9.246C14.094 9.03 14.166 8.808 14.238 8.592C13.95 8.646 13.674 8.694 13.398 8.748ZM7.842 13.62C7.518 13.764 7.194 13.908 6.87 14.058C7.338 12.972 7.824 11.892 8.334 10.818C8.616 10.728 8.904 10.638 9.192 10.554C8.724 11.568 8.28 12.594 7.842 13.62ZM8.622 9.876C8.01 10.044 7.458 10.308 7.02 10.788C6.768 11.076 6.588 11.406 6.42 11.748C5.928 12.744 5.46 13.752 5.01 14.766C4.89 15.03 4.53 15.672 4.914 15.84C5.34 15.948 5.868 15.594 6.246 15.402C6.654 15.192 7.062 14.988 7.47 14.784C8.166 14.436 8.796 14.016 9.216 13.344C9.384 13.056 9.51 12.756 9.636 12.45C9.9 11.796 10.176 11.136 10.452 10.488C10.554 10.242 10.734 9.936 10.68 9.666C10.566 9.306 9.96 9.528 9.696 9.594C9.336 9.684 8.976 9.774 8.622 9.876Z" fill="white"/>
<path id="Vector_8" d="M16.926 7.902C17.106 7.962 17.286 8.028 17.466 8.094C17.286 8.022 17.106 7.962 16.926 7.902ZM16.896 7.86C17.088 7.92 17.268 7.986 17.442 8.052C17.892 8.22 18.288 8.388 18.612 8.544C17.604 12.012 15.534 14.922 12.612 16.992L12.372 17.154C11.514 16.512 11.01 16.008 11.01 16.008L11.412 15.942C12.636 15.738 13.812 15.186 14.784 14.28C16.44 12.732 17.118 10.524 16.776 8.442C16.77 8.394 16.758 8.346 16.752 8.298L16.746 8.28L16.74 8.256L16.734 8.232L16.728 8.208L16.722 8.184L16.716 8.16L16.71 8.136L16.704 8.112L16.698 8.088L16.692 8.07L16.686 8.046L16.68 8.022L16.674 8.004L16.668 7.986L16.662 7.968C16.644 7.896 16.626 7.83 16.608 7.77C16.716 7.8 16.806 7.83 16.896 7.86Z" fill="#057DC1"/>
</g>
</g>
</svg>
