<svg width="24" height="24" viewBox="0 0 24 24" fill="none" xmlns="http://www.w3.org/2000/svg">
<g id="Team=ORL">
<g id="Layer_2_1_">
<path id="Vector" d="M8.94599 11.304C10.674 11.04 12.402 11.118 13.914 11.754L14.094 11.346C11.652 10.56 8.57399 10.602 6.28199 11.856L6.93599 10.338C4.06199 11.118 2.12399 12.738 0.179993 14.412C1.60199 11.058 4.68599 8.304 8.17199 7.302L7.99799 7.86C11.058 6.864 14.412 6.672 17.124 7.122L16.488 6.3L18.048 6.696L19.05 5.196L19.446 7.044L20.982 7.542C20.982 7.542 19.866 8.01 19.92 8.034C25.722 10.422 23.862 18.366 18.348 18.408C15.558 18.432 13.392 15.906 13.482 13.272C12.06 12.336 10.638 11.886 8.94599 11.304Z" fill="#C2CCD2"/>
<path id="Vector_2" d="M19.344 8.034C19.668 7.896 20.262 7.632 20.262 7.632L20.304 7.614L20.256 7.602C20.256 7.602 19.296 7.284 19.092 7.218C19.062 7.002 18.912 5.958 18.912 5.958L18.906 5.91L18.552 6.48C18.552 6.48 18.354 6.804 18.24 6.978C18.012 6.918 17.022 6.666 17.022 6.666L16.974 6.648L17.004 6.69C17.004 6.69 17.406 7.212 17.652 7.53C16.656 7.314 15.504 7.188 14.184 7.188C13.752 7.188 13.296 7.2 12.834 7.23C11.04 7.332 9.26999 7.668 7.57199 8.28L7.76399 7.704L7.72799 7.716C5.07599 8.544 2.17199 11.04 0.881989 13.494L0.911989 13.518C2.72399 11.814 5.18399 10.452 7.38599 9.96L6.80999 11.304L6.85199 11.28C7.87799 10.782 9.22199 10.566 10.584 10.566C11.976 10.566 13.374 10.794 14.46 11.19L14.046 12.096C13.056 11.64 11.634 11.34 10.446 11.34C10.236 11.34 10.032 11.352 9.83999 11.37L9.83399 11.406C11.238 11.802 12.684 12.252 13.83 13.17C13.824 13.266 13.818 13.362 13.818 13.464C13.818 15.888 15.912 18.078 18.366 18.078C18.384 18.078 18.396 18.078 18.414 18.078C21.12 18.048 23.124 15.564 23.124 12.978C23.124 11.082 22.032 9.114 19.344 8.034Z" fill="black"/>
<path id="Vector_3" d="M17.862 12.474C16.86 12.474 15.858 12.108 14.862 11.742C14.598 12.3 14.46 12.888 14.46 13.482C14.46 13.8 14.496 14.118 14.574 14.442C14.658 14.442 14.736 14.442 14.82 14.442C16.758 14.442 18.816 13.902 20.478 12.918C20.286 12.558 20.046 12.228 19.806 11.91C19.158 12.318 18.51 12.474 17.862 12.474Z" fill="#C2CCD2"/>
<path id="Vector_4" d="M14.754 14.826H14.688C15.294 16.392 16.686 17.436 18.384 17.46C18.924 16.128 19.53 14.664 20.91 13.98C20.838 13.74 20.754 13.506 20.658 13.278C18.876 14.304 16.806 14.826 14.754 14.826Z" fill="#C2CCD2"/>
<path id="Vector_5" d="M18.948 9.906C18.348 9.678 17.958 9.6 17.922 9.594C17.754 9.618 17.52 9.642 17.34 9.678C18.366 10.086 19.122 10.584 19.884 11.43C20.274 11.118 20.616 10.77 20.856 10.344C20.16 9.666 18.846 8.832 15.57 8.58C16.95 8.91 18.222 9.348 18.96 9.876L18.948 9.906Z" fill="#C2CCD2"/>
<path id="Vector_6" d="M9.76801 9.45001C9.96601 9.44401 10.194 9.44401 10.422 9.44401C12.744 9.44401 16.338 9.71401 17.73 11.37L17.706 11.4C17.226 11.136 16.26 10.686 15.66 10.692C15.642 10.692 15.624 10.692 15.606 10.692C15.402 10.92 15.216 11.172 15.054 11.43C15.984 11.778 16.926 12.114 17.862 12.114C18.45 12.114 19.032 11.982 19.608 11.628C17.994 9.87001 15.264 9.10201 12.69 9.10201C11.664 9.09601 10.662 9.21601 9.76801 9.45001Z" fill="#C2CCD2"/>
<path id="Vector_7" d="M20.772 12.738C21.222 12.432 21.612 12.114 21.96 11.7C21.738 11.274 21.354 10.8 21.078 10.56C20.826 11.016 20.496 11.382 20.094 11.712C20.334 12.024 20.586 12.39 20.772 12.738Z" fill="#C2CCD2"/>
<path id="Vector_8" d="M18.78 17.436C19.596 17.34 20.352 17.058 20.982 16.518C21.078 16.152 21.12 15.786 21.12 15.408C21.12 15.048 21.084 14.694 21.018 14.34C19.782 14.934 19.266 16.236 18.78 17.436Z" fill="#C2CCD2"/>
<path id="Vector_9" d="M21.48 15.654C21.48 15.774 21.474 15.9 21.474 16.026C21.954 15.378 22.206 14.814 22.356 13.986C22.002 14.016 21.66 14.076 21.33 14.184C21.432 14.67 21.48 15.156 21.48 15.654Z" fill="#C2CCD2"/>
<path id="Vector_10" d="M20.94 13.08C21.048 13.326 21.144 13.578 21.228 13.836C21.612 13.71 21.984 13.65 22.386 13.626C22.386 13.596 22.386 13.572 22.386 13.542C22.386 13.014 22.308 12.6 22.14 12.096C21.768 12.468 21.378 12.786 20.94 13.08Z" fill="#C2CCD2"/>
<path id="Vector_11" d="M22.386 13.62C21.984 13.644 21.618 13.71 21.228 13.83C21.144 13.578 21.048 13.32 20.94 13.074C21.378 12.78 21.762 12.462 22.134 12.084C22.302 12.594 22.38 13.002 22.38 13.53C22.386 13.566 22.386 13.59 22.386 13.62Z" fill="#C2CCD2"/>
<path id="Vector_12" d="M22.386 13.62C21.984 13.644 21.618 13.71 21.228 13.83C21.144 13.578 21.048 13.32 20.94 13.074C21.378 12.78 21.762 12.462 22.134 12.084C22.302 12.594 22.38 13.002 22.38 13.53C22.386 13.566 22.386 13.59 22.386 13.62Z" fill="#C2CCD2"/>
<path id="Vector_13" d="M21.084 10.56C21.354 10.8 21.744 11.274 21.966 11.7C21.612 12.114 21.228 12.432 20.778 12.738C20.592 12.39 20.34 12.03 20.106 11.712C20.502 11.382 20.826 11.016 21.084 10.56Z" fill="#C2CCD2"/>
<path id="Vector_14" d="M21.084 10.56C21.354 10.8 21.744 11.274 21.966 11.7C21.612 12.114 21.228 12.432 20.778 12.738C20.592 12.39 20.34 12.03 20.106 11.712C20.502 11.382 20.826 11.016 21.084 10.56Z" fill="#C2CCD2"/>
<path id="Vector_15" d="M15.57 8.56799C18.846 8.81999 20.154 9.65399 20.856 10.332C20.622 10.764 20.274 11.106 19.884 11.418C19.128 10.566 18.366 10.08 17.34 9.66599C17.52 9.62999 17.754 9.60599 17.922 9.58199C17.958 9.58799 18.342 9.65999 18.948 9.89399L18.966 9.86399C18.228 9.34799 16.95 8.90399 15.57 8.56799Z" fill="#C2CCD2"/>
<path id="Vector_16" d="M15.57 8.56799C18.846 8.81999 20.154 9.65399 20.856 10.332C20.622 10.764 20.274 11.106 19.884 11.418C19.128 10.566 18.366 10.08 17.34 9.66599C17.52 9.62999 17.754 9.60599 17.922 9.58199C17.958 9.58799 18.342 9.65999 18.948 9.89399L18.966 9.86399C18.228 9.34799 16.95 8.90399 15.57 8.56799Z" fill="#C2CCD2"/>
<path id="Vector_17" d="M14.826 14.448C14.742 14.448 14.664 14.448 14.58 14.448C14.502 14.124 14.466 13.806 14.466 13.488C14.466 12.894 14.598 12.306 14.868 11.748C15.876 12.12 16.872 12.48 17.868 12.48C18.516 12.48 19.164 12.324 19.818 11.916C20.064 12.24 20.304 12.57 20.49 12.924C18.822 13.908 16.764 14.448 14.826 14.448Z" fill="#C2CCD2"/>
<path id="Vector_18" d="M14.826 14.448C14.742 14.448 14.664 14.448 14.58 14.448C14.502 14.124 14.466 13.806 14.466 13.488C14.466 12.894 14.598 12.306 14.868 11.748C15.876 12.12 16.872 12.48 17.868 12.48C18.516 12.48 19.164 12.324 19.818 11.916C20.064 12.24 20.304 12.57 20.49 12.924C18.822 13.908 16.764 14.448 14.826 14.448Z" fill="#C2CCD2"/>
<path id="Vector_19" d="M18.384 17.448C16.686 17.424 15.294 16.386 14.688 14.814H14.754C16.806 14.814 18.87 14.292 20.646 13.254C20.742 13.482 20.832 13.722 20.898 13.956C19.53 14.652 18.93 16.116 18.384 17.448Z" fill="#C2CCD2"/>
<path id="Vector_20" d="M18.384 17.448C16.686 17.424 15.294 16.386 14.688 14.814H14.754C16.806 14.814 18.87 14.292 20.646 13.254C20.742 13.482 20.832 13.722 20.898 13.956C19.53 14.652 18.93 16.116 18.384 17.448Z" fill="#C2CCD2"/>
<path id="Vector_21" d="M21.468 16.026C21.474 15.906 21.474 15.78 21.474 15.654C21.474 15.162 21.426 14.67 21.318 14.184C21.648 14.076 21.996 14.016 22.344 13.986C22.212 14.814 21.948 15.378 21.468 16.026Z" fill="#C2CCD2"/>
<path id="Vector_22" d="M21.468 16.026C21.474 15.906 21.474 15.78 21.474 15.654C21.474 15.162 21.426 14.67 21.318 14.184C21.648 14.076 21.996 14.016 22.344 13.986C22.212 14.814 21.948 15.378 21.468 16.026Z" fill="#C2CCD2"/>
<path id="Vector_23" d="M19.602 11.622C19.026 11.976 18.444 12.108 17.856 12.108C16.92 12.108 15.984 11.766 15.048 11.424C15.21 11.166 15.396 10.908 15.6 10.686C15.618 10.686 15.636 10.686 15.654 10.686C16.254 10.686 17.22 11.13 17.7 11.394L17.724 11.364C16.332 9.71399 12.744 9.43799 10.416 9.43799C10.188 9.43799 9.96599 9.43799 9.76199 9.44399C10.656 9.22199 11.652 9.09599 12.678 9.09599C15.258 9.09599 17.988 9.86999 19.602 11.622Z" fill="#C2CCD2"/>
<path id="Vector_24" d="M19.602 11.622C19.026 11.976 18.444 12.108 17.856 12.108C16.92 12.108 15.984 11.766 15.048 11.424C15.21 11.166 15.396 10.908 15.6 10.686C15.618 10.686 15.636 10.686 15.654 10.686C16.254 10.686 17.22 11.13 17.7 11.394L17.724 11.364C16.332 9.71399 12.744 9.43799 10.416 9.43799C10.188 9.43799 9.96599 9.43799 9.76199 9.44399C10.656 9.22199 11.652 9.09599 12.678 9.09599C15.258 9.09599 17.988 9.86999 19.602 11.622Z" fill="#C2CCD2"/>
<path id="Vector_25" d="M20.982 16.524C20.352 17.058 19.602 17.334 18.78 17.442C19.272 16.242 19.788 14.94 21.018 14.346C21.084 14.7 21.12 15.054 21.12 15.414C21.12 15.786 21.078 16.158 20.982 16.524Z" fill="#C2CCD2"/>
<path id="Vector_26" d="M20.982 16.524C20.352 17.058 19.602 17.334 18.78 17.442C19.272 16.242 19.788 14.94 21.018 14.346C21.084 14.7 21.12 15.054 21.12 15.414C21.12 15.786 21.078 16.158 20.982 16.524Z" fill="#C2CCD2"/>
<path id="Vector_27" d="M17.748 8.388L18.456 8.136L18.996 8.754L18.936 7.95L19.62 7.65L18.876 7.404L18.762 6.606L18.354 7.254L17.592 7.062L18.096 7.71L17.748 8.388Z" fill="#C2CCD2"/>
<path id="Vector_28" d="M13.95 8.964L14.448 8.724L14.856 9.084L14.778 8.538L15.252 8.268L14.706 8.172L14.592 7.638L14.34 8.118L13.794 8.064L14.172 8.46L13.95 8.964Z" fill="white"/>
<path id="Vector_29" d="M8.39398 10.056L8.71198 9.89999L8.98798 10.134L8.93398 9.77399L9.24598 9.59399L8.89198 9.53399L8.81398 9.17999L8.64598 9.50399L8.28598 9.46799L8.53798 9.72599L8.39398 10.056Z" fill="white"/>
<path id="Vector_30" d="M20.7 14.976V14.91L20.238 15.678L20.37 15L20.34 14.982C19.668 15.792 19.41 16.386 19.2 17.106L19.188 17.142L19.224 17.13C19.974 16.872 20.37 16.566 20.526 16.44H20.532V16.434C20.646 16.194 20.694 15.696 20.694 15.096C20.7 15.054 20.7 15.012 20.7 14.976Z" fill="#0B77BD"/>
<path id="Vector_31" d="M19.164 13.194C18.432 13.344 17.574 13.428 16.788 13.428C16.674 13.428 16.554 13.428 16.44 13.422L18.126 12.924L18.12 12.888C17.01 12.834 16.146 12.816 15.06 12.306L15.042 12.3L15.036 12.312C14.874 12.606 14.784 13.008 14.784 13.422C14.784 13.656 14.814 13.89 14.874 14.106L14.88 14.118H14.892C14.892 14.118 14.928 14.118 15 14.118C15.486 14.118 17.478 14.064 19.176 13.218L19.164 13.194Z" fill="#0B77BD"/>
<path id="Vector_32" d="M19.536 14.562C18.684 15.192 18.042 15.702 16.794 15.936C17.952 15.336 18.738 14.916 19.464 14.178L19.44 14.148C18.144 14.898 16.458 15.228 15.258 15.27H15.228L15.246 15.3C16.23 16.854 17.466 16.992 17.874 16.992C17.958 16.992 18.006 16.986 18.006 16.986H18.012L18.018 16.98C18.546 16.152 18.882 15.348 19.56 14.592L19.536 14.562Z" fill="#0B77BD"/>
<path id="Vector_33" d="M21.732 11.598C21.624 11.718 21.516 11.82 21.402 11.928C21.282 11.67 21.144 11.418 20.97 11.178C21.054 11.076 21.138 10.968 21.216 10.854C21.426 11.082 21.612 11.352 21.732 11.598ZM22.182 13.248C22.05 13.266 21.93 13.284 21.81 13.308C21.786 13.116 21.744 12.918 21.696 12.732C21.822 12.624 21.948 12.516 22.08 12.39C22.146 12.672 22.176 12.93 22.182 13.248ZM21.756 15.006L21.75 14.94C21.804 14.67 21.834 14.4 21.846 14.136C21.918 14.118 21.99 14.1 22.062 14.088C21.984 14.418 21.888 14.718 21.756 15.006ZM18.666 9.39C18.606 9.36 18.54 9.33 18.48 9.3C19.482 9.6 20.16 9.984 20.538 10.278C20.478 10.362 20.418 10.446 20.352 10.524C19.884 10.044 19.32 9.648 18.666 9.39Z" fill="white"/>
</g>
</g>
</svg>
