<svg width="24" height="24" viewBox="0 0 24 24" fill="none" xmlns="http://www.w3.org/2000/svg">
<g id="Team=PHI">
<g id="Group">
<g id="Group_2">
<g id="Group_3">
<path id="Vector" d="M16.644 13.572C15.858 13.572 15.054 13.884 14.628 14.544H14.616L14.694 13.404C14.742 12.636 14.916 10.542 15.984 10.542C16.5 10.542 16.38 11.226 16.44 11.532C16.584 12.258 16.896 13.086 17.892 13.086C18.57 13.086 19.278 12.636 19.278 11.724C19.278 10.314 18.096 9.384 16.662 9.384C12.984 9.384 11.502 12.192 11.502 15.594C11.502 18.546 12.648 21.096 15.81 21.096C17.862 21.096 19.524 19.638 19.524 17.184C19.524 15.114 18.426 13.572 16.644 13.572ZM15.552 19.944C14.676 19.944 14.712 18.816 14.712 17.52C14.712 16.218 14.838 15.096 15.552 15.096C16.434 15.096 16.482 16.218 16.482 17.52C16.482 18.816 16.296 19.944 15.552 19.944Z" fill="#1D428A"/>
<path id="Vector_2" d="M4.48801 9.324V13.704C6.94201 14.064 9.87601 13.824 11.946 10.794C12.03 10.668 12.084 10.758 12.03 10.866C11.454 12.042 10.08 13.134 8.89801 14.064C7.75801 14.958 4.71001 18.156 4.75201 20.97C4.75201 21.186 4.76401 21.126 4.95001 20.988C5.87401 20.298 7.68601 20.28 8.80201 20.814C8.95801 20.886 8.97001 20.862 8.95201 20.664C8.73601 18.48 9.22801 16.098 10.164 14.718C10.806 13.758 12.54 11.292 12.84 9.354C12.87 9.156 12.768 9.186 12.516 9.45C10.554 11.526 7.00201 11.472 4.71001 9.276C4.56601 9.138 4.50001 9.204 4.48801 9.324Z" fill="#C8102E"/>
</g>
</g>
<g id="Group_4">
<g id="Group_5">
<path id="Vector_3" d="M8.74202 2.64L8.88602 3.09H9.36002L8.97002 3.366L9.11402 3.81L8.74202 3.54L8.37002 3.81L8.50802 3.366L8.12402 3.09H8.59802L8.74202 2.64Z" fill="#1D428A"/>
<path id="Vector_4" d="M11.538 4.272L11.682 4.716H12.162L11.772 4.998L11.916 5.436L11.544 5.166L11.166 5.436L11.31 4.998L10.92 4.716H11.4L11.538 4.272Z" fill="#1D428A"/>
<path id="Vector_5" d="M10.338 3.012L10.482 3.462H10.962L10.572 3.744L10.716 4.182L10.344 3.906L9.96601 4.182L10.11 3.738L9.72601 3.462H10.2L10.338 3.012Z" fill="#1D428A"/>
<path id="Vector_6" d="M12 5.814L12.138 6.258H12.618L12.234 6.54L12.372 6.978L12 6.708L11.628 6.978L11.772 6.54L11.382 6.258H11.856L12 5.814Z" fill="#1D428A"/>
<path id="Vector_7" d="M11.796 7.446L11.94 7.89H12.414L12.03 8.172L12.174 8.61L11.796 8.34L11.43 8.61L11.568 8.166L11.184 7.89H11.658L11.796 7.446Z" fill="#1D428A"/>
<path id="Vector_8" d="M10.896 8.742L11.04 9.192H11.514L11.13 9.474L11.268 9.912L10.902 9.642L10.524 9.912L10.668 9.474L10.278 9.192H10.758L10.896 8.742Z" fill="#1D428A"/>
<path id="Vector_9" d="M9.48601 9.474L9.63001 9.918H10.098L9.71401 10.2L9.85801 10.638L9.48601 10.368L9.11401 10.638L9.25201 10.2L8.86801 9.918H9.34201L9.48601 9.474Z" fill="#1D428A"/>
<path id="Vector_10" d="M5.89202 4.128L5.74802 4.572H5.27402L5.65802 4.854L5.52002 5.292L5.89202 5.022L6.27002 5.292L6.12602 4.854L6.51602 4.572H6.03602L5.89202 4.128Z" fill="#1D428A"/>
<path id="Vector_11" d="M7.062 3.012L6.924 3.462H6.444L6.834 3.744L6.69 4.182L7.062 3.906L7.44 4.182L7.296 3.738L7.686 3.462H7.206L7.062 3.012Z" fill="#1D428A"/>
<path id="Vector_12" d="M5.34601 5.616L5.20801 6.06H4.73401L5.11801 6.336L4.98001 6.78L5.34601 6.51L5.72401 6.78L5.58001 6.336L5.97001 6.06H5.49601L5.34601 5.616Z" fill="#1D428A"/>
<path id="Vector_13" d="M5.49602 7.242L5.35202 7.686H4.87802L5.26202 7.968L5.12402 8.412L5.49002 8.136L5.86802 8.412L5.72402 7.968L6.10802 7.686H5.63402L5.49602 7.242Z" fill="#1D428A"/>
<path id="Vector_14" d="M6.39002 8.574L6.25201 9.018H5.77802L6.16201 9.3L6.01802 9.738L6.39002 9.468L6.76802 9.738L6.62402 9.3L7.01402 9.018H6.53402L6.39002 8.574Z" fill="#1D428A"/>
<path id="Vector_15" d="M7.80602 9.414L7.66802 9.864H7.18802L7.57802 10.146L7.43402 10.584L7.80602 10.314L8.18402 10.584L8.04002 10.14L8.42402 9.864H7.95002L7.80602 9.414Z" fill="#1D428A"/>
</g>
</g>
</g>
</g>
</svg>
