<svg width="24" height="24" viewBox="0 0 24 24" fill="none" xmlns="http://www.w3.org/2000/svg">
<g id="Team=PHO">
<g id="Layer_2_1_">
<path id="Vector" d="M1.21802 20.376L11.4 14.802L4.49402 20.376L12.87 15.564L12.738 16.53L14.136 15.756L17.286 18.738L18.966 13.692L21.096 13.392L20.16 10.476L22.14 8.75399L19.512 7.64399L20.232 4.58399L17.814 5.69399L16.674 2.95799L14.628 4.99799L11.262 3.23399L10.656 6.54599L7.54802 7.21799L9.39002 8.33399L7.53602 9.26399L9.10802 9.39599L2.64002 14.43L9.15002 10.968L2.16002 16.284L9.59402 12.414L1.66202 18.384L10.41 13.716L1.21802 20.376Z" fill="#F79E1E"/>
<path id="Vector_2" d="M19.848 10.524C19.734 13.32 17.37 15.492 14.574 15.378C11.778 15.264 9.60602 12.9 9.72002 10.104C9.83402 7.30799 12.198 5.13599 14.994 5.24999C17.79 5.36399 19.962 7.72199 19.848 10.524Z" fill="#E46025"/>
<path id="Vector_3" d="M15.402 14.682C12.606 14.568 10.434 12.204 10.548 9.40799C10.602 8.11199 11.136 6.95399 11.976 6.09599C10.674 6.96599 9.79202 8.42399 9.72002 10.104C9.60602 12.9 11.778 15.264 14.574 15.378C16.074 15.438 17.454 14.844 18.426 13.836C17.562 14.412 16.518 14.73 15.402 14.682Z" fill="#B65B27"/>
<path id="Vector_4" d="M19.854 10.368C19.854 10.188 19.848 10.008 19.83 9.82799C19.536 9.62399 19.194 9.46799 18.774 9.41399C18.696 9.40199 18.624 9.39599 18.546 9.38999C18.498 9.05399 18.42 8.72999 18.324 8.40599C18.378 8.41199 18.426 8.41199 18.48 8.41799C18.834 8.44799 19.188 8.48399 19.536 8.53199C19.488 8.39999 19.434 8.27399 19.38 8.15399C18.99 8.09399 18.594 8.05199 18.192 8.01599H18.186C18.054 7.68599 17.904 7.37999 17.718 7.07399C17.976 7.01999 18.21 6.91799 18.396 6.73799C18.306 6.64199 18.198 6.54599 18.096 6.46199C17.934 6.61199 17.724 6.68999 17.478 6.72599C17.442 6.67199 17.4 6.62399 17.364 6.57599C17.022 6.12599 16.62 5.74799 16.182 5.43599C15.798 5.32799 15.402 5.26199 14.988 5.23799C14.964 5.23799 14.946 5.23799 14.916 5.23799C15.684 5.54399 16.374 6.05399 16.926 6.73199C16.398 6.68399 15.792 6.50399 15.192 6.32999C15.012 6.27599 14.838 6.22799 14.676 6.17999C13.65 5.89799 12.864 5.84999 12.276 5.90399C11.838 6.15599 11.442 6.46799 11.094 6.83399C11.73 6.56399 13.02 6.11399 14.586 6.54599C14.748 6.58799 14.922 6.64199 15.102 6.69599C15.792 6.89999 16.566 7.12799 17.238 7.13399C17.424 7.40999 17.58 7.69799 17.712 8.00399C17.58 7.99799 17.448 7.99199 17.316 7.99199C14.064 7.93799 11.268 8.90999 9.72003 10.464C9.73203 10.776 9.76203 11.076 9.82203 11.37C10.26 10.74 10.902 10.176 11.736 9.70199C13.314 8.81999 15.402 8.34599 17.622 8.39399C17.7 8.39399 17.772 8.39999 17.85 8.39999C17.964 8.72399 18.048 9.05399 18.102 9.39599C16.674 9.45599 15.744 10.35 14.676 11.304C13.722 12.162 12.552 13.014 10.848 13.524C11.004 13.722 11.184 13.908 11.37 14.076C12.984 13.434 14.046 12.42 14.946 11.61C15.972 10.692 16.854 9.81599 18.138 9.76799C18.168 10.122 18.168 10.488 18.138 10.854C17.964 12.84 16.818 14.526 15.246 15.354C15.642 15.318 16.038 15.234 16.404 15.102C16.53 15 16.656 14.892 16.77 14.772C17.796 13.764 18.438 12.378 18.564 10.89C18.594 10.518 18.594 10.146 18.564 9.77999C18.63 9.78599 18.696 9.79199 18.762 9.80399C19.23 9.87599 19.578 10.104 19.854 10.368Z" fill="black"/>
</g>
</g>
</svg>
