<svg width="24" height="24" viewBox="0 0 24 24" fill="none" xmlns="http://www.w3.org/2000/svg">
<g id="Team=POR">
<g id="Group">
<path id="Vector" d="M18.054 7.88401C17.79 7.49401 17.49 7.12801 17.154 6.792C17.01 6.64801 16.86 6.51001 16.704 6.37801L19.98 3.10201H10.44L6.75601 6.78601L6.75001 6.792C6.42001 7.12801 6.11401 7.49401 5.85001 7.88401C5.58601 8.28 5.35801 8.70001 5.17201 9.13201C4.78801 10.038 4.59601 11.004 4.59601 11.994C4.59601 12.99 4.78801 13.95 5.17201 14.856C5.35801 15.294 5.58601 15.714 5.85001 16.104C6.11401 16.494 6.41401 16.86 6.75001 17.196C6.89401 17.34 7.04401 17.478 7.20001 17.61L3.92401 20.886H13.464L17.16 17.19C17.49 16.86 17.79 16.494 18.054 16.11C18.318 15.714 18.546 15.294 18.732 14.862C19.116 13.956 19.308 12.99 19.308 12C19.308 11.004 19.116 10.044 18.732 9.13801C18.546 8.70001 18.318 8.274 18.054 7.88401Z" fill="black"/>
<path id="Vector_2" d="M16.728 7.218C16.584 7.074 16.434 6.936 16.284 6.81L12.282 10.812C12.48 10.866 12.666 10.974 12.822 11.13C13.308 11.616 13.308 12.396 12.822 12.882L5.39401 20.298H6.26401L13.248 13.314C13.968 12.594 13.974 11.424 13.254 10.698L13.686 10.266C14.646 11.232 14.64 12.786 13.68 13.746L7.13401 20.298H8.00401L14.118 14.184C15.318 12.984 15.324 11.034 14.124 9.834L14.556 9.402C15.996 10.848 15.99 13.182 14.55 14.622L8.86801 20.304H9.73801L14.982 15.06C16.662 13.38 16.668 10.656 14.988 8.97L15.42 8.538C17.334 10.464 17.334 13.578 15.414 15.498L10.602 20.31H11.472L15.846 15.936C18.006 13.776 18.012 10.272 15.852 8.106L16.29 7.668C18.69 10.074 18.684 13.968 16.284 16.368L12.348 20.304H13.218L16.722 16.8C19.368 14.148 19.368 9.864 16.728 7.218Z" fill="white"/>
<path id="Vector_3" d="M7.18201 16.782C7.32601 16.926 7.47601 17.064 7.62601 17.19L11.628 13.188C11.43 13.134 11.244 13.026 11.088 12.87C10.602 12.384 10.602 11.604 11.088 11.118L18.522 3.696H17.652L10.662 10.686C9.94201 11.406 9.93601 12.576 10.656 13.302L10.224 13.734C9.27001 12.768 9.27001 11.214 10.23 10.254L16.788 3.696H15.918L9.79201 9.816C8.59201 11.016 8.58601 12.966 9.78601 14.166L9.35401 14.598C7.91401 13.152 7.92001 10.818 9.36001 9.378L15.048 3.69H14.178L8.92201 8.946C7.24201 10.626 7.23601 13.35 8.91601 15.036L8.48401 15.468C6.57001 13.542 6.57001 10.428 8.49001 8.508L13.308 3.69H12.438L8.05201 8.076C5.89201 10.236 5.88601 13.74 8.04601 15.906L7.60801 16.344C5.20801 13.938 5.21401 10.044 7.61401 7.644L11.562 3.696H10.692L7.17601 7.212C4.54201 9.852 4.54201 14.142 7.18201 16.782Z" fill="#CF0A2C"/>
</g>
</g>
</svg>
