<svg width="24" height="24" viewBox="0 0 24 24" fill="none" xmlns="http://www.w3.org/2000/svg">
<g id="Team=SAC">
<g id="Layer_2_1_">
<path id="Vector" d="M20.028 2.64L17.742 4.938L15.828 3.03L13.914 4.938L12 3.024L10.092 4.932L8.184 3.024L6.276 4.938L4.056 2.688V12.846C4.056 17.268 7.602 20.862 12.018 20.862C16.434 20.862 20.028 17.268 20.028 12.846V2.64Z" fill="white"/>
<path id="Vector_2" d="M4.76999 14.238C4.95599 15.198 5.33399 16.092 5.87999 16.92C6.21599 16.332 6.87599 15.618 8.18399 15.306C8.08799 14.97 7.99799 14.616 7.91999 14.244L4.76999 14.238Z" fill="#63717A"/>
<path id="Vector_3" d="M6.40201 17.604C7.81201 19.26 9.84601 20.208 11.982 20.22C11.778 20.118 11.586 20.004 11.388 19.878C10.482 19.29 9.23401 18.15 8.43001 16.032C7.16401 16.314 6.62401 17.034 6.40201 17.604Z" fill="#63717A"/>
<path id="Vector_4" d="M9.216 15.93C9.792 17.37 10.656 18.474 11.784 19.218C12.534 19.71 13.254 19.926 13.722 20.034C14.91 19.764 16.014 19.188 16.932 18.378C16.212 18.3 15.462 17.886 14.688 17.448C13.464 16.764 11.946 15.912 9.888 15.912C9.672 15.9 9.444 15.906 9.216 15.93Z" fill="#63717A"/>
<path id="Vector_5" d="M12.3 10.494H9.66602V13.638H10.764V11.112H11.586V13.638H12.63V10.938C12.63 10.704 12.48 10.494 12.3 10.494Z" fill="#592D81"/>
<path id="Vector_6" d="M13.086 10.494V13.194C13.086 13.434 13.236 13.638 13.41 13.638H15.138H16.05V11.724H15V13.008H14.178V11.094H16.056V10.488L13.086 10.494Z" fill="#592D81"/>
<path id="Vector_7" d="M6.73801 10.494L6.14401 11.772H5.80201V10.494H4.70401V13.644H5.80201V12.378H6.14401L6.73801 13.644H7.83001L7.06801 12.078L7.83001 10.494H6.73801Z" fill="#592D81"/>
<path id="Vector_8" d="M9.24601 10.494H8.11801V13.638H9.24601V10.494Z" fill="#592D81"/>
<path id="Vector_9" d="M19.38 11.352V10.5H16.482V11.94C16.482 12.18 16.632 12.372 16.806 12.372H18.282V13.056H16.476V13.65H19.374V12.204C19.374 11.982 19.248 11.772 19.086 11.772H17.562V11.112H18.324V11.352H19.38Z" fill="#592D81"/>
<path id="Vector_10" d="M16.29 7.31399H15.372L17.274 5.39999L15.828 3.95399L13.914 5.86199L12 3.95399L8.65201 7.31399H7.72201L9.63601 5.39399L8.19001 3.95399L6.28801 5.86199L4.70401 4.29599V7.42799V9.92399H19.38V7.49999V4.22399L16.29 7.31399Z" fill="#592D81"/>
<path id="Vector_11" d="M7.91399 9.31799C7.91399 9.39599 7.97399 9.46799 8.06399 9.46799H8.87999V9.25199H8.20799V8.53799H8.87999V8.31599H7.90799V9.31799H7.91399Z" fill="white"/>
<path id="Vector_12" d="M6.564 8.31V9.468H6.858V9.168H7.236V9.468H7.53V8.454C7.53 8.37 7.464 8.304 7.362 8.304H6.564V8.31ZM7.236 8.946H6.858V8.532H7.236V8.946Z" fill="white"/>
<path id="Vector_13" d="M18.678 8.31H18C17.922 8.31 17.85 8.37 17.85 8.46V9.324C17.85 9.402 17.91 9.474 18 9.474H18.678C18.756 9.474 18.828 9.408 18.828 9.324V8.46C18.834 8.37 18.768 8.31 18.678 8.31ZM18.534 9.24H18.162V8.526H18.534V9.24Z" fill="white"/>
<path id="Vector_14" d="M5.22 8.85C5.22 8.928 5.28 9 5.37 9H5.892V9.252H5.22V9.474H6.192V8.928C6.192 8.856 6.138 8.784 6.054 8.778H6.048H5.514V8.526H6.186V8.304H5.22V8.85Z" fill="white"/>
<path id="Vector_15" d="M11.4 8.31H10.578V9.468H10.872V9.168H11.25V9.468H11.544V8.454C11.55 8.37 11.478 8.31 11.4 8.31ZM11.244 8.946H10.866V8.532H11.244V8.946Z" fill="white"/>
<path id="Vector_16" d="M16.548 8.526H16.89V9.468H17.184V8.526H17.52V8.31H16.548V8.526Z" fill="white"/>
<path id="Vector_17" d="M13.44 8.31H11.946V9.468H12.24V8.532H12.612V9.468H12.912V8.532H13.284V9.468H13.578V8.454C13.584 8.37 13.518 8.31 13.44 8.31Z" fill="white"/>
<path id="Vector_18" d="M16.098 8.31H15.27V9.468H15.564V8.532H15.942V9.468H16.236V8.454C16.248 8.37 16.182 8.31 16.098 8.31Z" fill="white"/>
<path id="Vector_19" d="M13.992 9.318C13.992 9.396 14.052 9.468 14.142 9.468H14.964V9.252H14.292V9H14.964V8.778H14.292V8.52H14.964V8.304H13.992V9.318Z" fill="white"/>
<path id="Vector_20" d="M10.038 9.042H10.2V8.448C10.2 8.364 10.134 8.298 10.032 8.298H9.22198V9.456H9.51599V9.036H9.73198L9.91198 9.456H10.2L10.038 9.042ZM9.90599 8.82H9.52799V8.526H9.90599V8.82Z" fill="white"/>
<path id="Vector_21" d="M9.72601 15.126C11.286 15.096 12.84 15.492 14.808 16.608C16.266 17.436 16.908 17.688 17.346 17.586C17.748 17.49 18.126 17.244 18.786 15.858C19.038 15.324 19.218 14.7 19.302 14.238H8.70001C8.77201 14.562 8.85001 14.88 8.94601 15.168C9.19801 15.144 9.46801 15.126 9.72601 15.126Z" fill="#63717A"/>
</g>
</g>
</svg>
