<svg width="24" height="24" viewBox="0 0 24 24" fill="none" xmlns="http://www.w3.org/2000/svg">
<g id="Team=SAS">
<g id="Layer_2_1_">
<path id="Vector" d="M17.364 3.17999L16.224 5.20799L16.026 6.82799L13.986 10.452H11.316L13.308 6.93599V3.17999H11.244L10.152 5.18999L9.96 6.82799L7.056 12L7.548 13.218H9.354L8.532 15.306L6.984 13.644L7.17 16.086L4.5 16.194L6.624 17.694L5.112 19.95L7.554 19.152L8.556 21.57L9.324 18.936L12.054 19.638L10.29 17.598L12.456 15.81L10.218 15.954L12.642 13.218H15.822L19.344 6.97799V3.17999H17.364Z" fill="white"/>
<path id="Vector_2" d="M17.364 3.17999L16.224 5.20799L16.026 6.82799L13.986 10.452H11.316L13.308 6.93599V3.17999H11.244L10.152 5.18999L9.96 6.82799L7.056 12L7.548 13.218H9.354L8.532 15.306L6.984 13.644L7.17 16.086L4.5 16.194L6.624 17.694L5.112 19.95L7.554 19.152L8.556 21.57L9.324 18.936L12.054 19.638L10.29 17.598L12.456 15.81L10.218 15.954L12.642 13.218H15.822L19.344 6.97799V3.17999H17.364Z" fill="black"/>
<path id="Vector_3" d="M16.938 4.986H17.904L18.576 3.726H17.646L16.938 4.986Z" fill="#C2CCD2"/>
<path id="Vector_4" d="M10.872 4.992L11.91 4.986L12.576 3.726H11.568L10.872 4.992Z" fill="#C2CCD2"/>
<path id="Vector_5" d="M10.626 6.57599H11.562L11.646 5.49599H10.746L10.626 6.57599Z" fill="#C2CCD2"/>
<path id="Vector_6" d="M16.668 6.57599H17.61L17.694 5.49599H16.788L16.668 6.57599Z" fill="#C2CCD2"/>
<path id="Vector_7" d="M16.47 7.224L14.358 10.944H9.28799L11.4 7.224H10.404L7.85399 11.724H10.686L8.54399 16.518L7.65599 15.528L7.70399 16.692L6.26999 16.776L7.42199 17.586L6.59999 18.804L7.92599 18.372L8.47199 19.686L8.88599 18.258L10.362 18.636L9.41399 17.532L10.584 16.566L8.77199 16.65L12.102 11.73H14.94L17.448 7.23L16.47 7.224ZM8.17799 17.868C7.93799 17.868 7.74599 17.676 7.74599 17.442C7.74599 17.202 7.93799 17.016 8.17799 17.016C8.41799 17.016 8.60399 17.208 8.60399 17.442C8.60399 17.676 8.41199 17.868 8.17799 17.868Z" fill="#C2CCD2"/>
</g>
</g>
</svg>
