<svg width="24" height="24" viewBox="0 0 24 24" fill="none" xmlns="http://www.w3.org/2000/svg">
<g id="Team=TOR">
<g id="Group">
<g id="Clip path group">
<mask id="mask0_3243_2573" style="mask-type:luminance" maskUnits="userSpaceOnUse" x="3" y="3" width="18" height="18">
<g id="SVGID_2_">
<path id="Vector" d="M21 3.036H3V20.964H21V3.036Z" fill="white"/>
</g>
</mask>
<g mask="url(#mask0_3243_2573)">
<path id="Vector_2" d="M15.03 20.352C15.042 20.37 15.054 20.394 15.06 20.388C15.108 20.388 15.198 20.37 15.198 20.37L15.288 20.328L15.552 20.226C15.552 20.226 16.206 19.914 16.212 19.914L16.326 19.854L16.386 19.83L16.458 19.782L16.572 19.71L16.71 19.632L16.89 19.518L17.202 19.302L17.352 19.182L17.568 19.026L17.766 18.882L17.862 18.816L17.994 18.696L18.132 18.558L18.348 18.324L18.6 18.078L18.894 17.742L19.056 17.526L19.11 17.448L19.284 17.232L19.62 16.746L19.716 16.584L19.944 16.134L20.076 15.888L20.292 15.444L20.412 15.174L20.538 14.76C20.538 14.76 20.688 14.214 20.772 13.926C20.784 13.896 20.784 13.866 20.766 13.836C20.718 13.77 20.682 13.686 20.64 13.614C20.616 13.578 20.586 13.536 20.562 13.506C20.538 13.476 20.484 13.398 20.46 13.374C20.436 13.344 20.406 13.32 20.376 13.302C20.304 13.236 20.244 13.17 20.184 13.128C20.154 13.11 20.13 13.092 20.106 13.074C19.92 12.93 19.734 12.822 19.524 12.726C19.434 12.69 19.344 12.654 19.254 12.624C19.188 12.6 19.086 12.576 19.02 12.564C18.984 12.558 18.948 12.558 18.918 12.576C18.888 12.594 18.888 12.642 18.882 12.684C18.87 12.798 18.864 12.924 18.858 13.038C18.846 13.158 18.84 13.272 18.828 13.392C18.816 13.5 18.81 13.608 18.804 13.71C18.786 13.854 18.768 13.992 18.738 14.13C18.69 14.394 18.63 14.652 18.576 14.91C18.564 14.982 18.552 15.054 18.522 15.126C18.474 15.234 18.438 15.348 18.42 15.468C18.372 15.714 18.282 15.948 18.198 16.182C18.132 16.374 18.06 16.566 17.952 16.74C17.946 16.752 17.94 16.764 17.934 16.776C17.88 16.896 17.832 17.016 17.778 17.136C17.742 17.214 17.694 17.286 17.658 17.358C17.616 17.454 17.562 17.544 17.508 17.634C17.418 17.778 17.322 17.91 17.244 18.06C17.19 18.162 17.124 18.258 17.058 18.354C17.04 18.378 17.022 18.402 17.01 18.426C16.956 18.504 16.908 18.588 16.848 18.666C16.734 18.81 16.614 18.954 16.494 19.098C16.422 19.188 16.338 19.266 16.254 19.35C16.182 19.428 16.11 19.506 16.038 19.578C16.026 19.596 16.002 19.608 15.984 19.62C15.942 19.656 15.894 19.692 15.852 19.734C15.756 19.83 15.66 19.92 15.552 19.992C15.504 20.022 15.456 20.058 15.414 20.094C15.306 20.196 15.174 20.274 15.03 20.352Z" fill="#BC2126"/>
</g>
</g>
<g id="Clip path group_2">
<mask id="mask1_3243_2573" style="mask-type:luminance" maskUnits="userSpaceOnUse" x="3" y="3" width="18" height="18">
<g id="SVGID_2__2">
<path id="Vector_3" d="M21 3.036H3V20.964H21V3.036Z" fill="white"/>
</g>
</mask>
<g mask="url(#mask1_3243_2573)">
<path id="Vector_4" d="M20.88 13.338C20.886 13.338 20.886 13.332 20.886 13.32C20.886 13.296 20.892 13.26 20.892 13.26L20.958 12.69L20.994 12.156V11.628V11.544L20.934 10.944C20.934 10.944 20.862 10.404 20.802 10.122C20.784 10.026 20.718 9.972 20.64 9.936C20.61 9.924 20.586 9.906 20.556 9.9C20.496 9.882 20.43 9.852 20.376 9.84C20.238 9.804 20.112 9.762 19.974 9.738C19.812 9.708 19.65 9.696 19.482 9.678C19.344 9.666 19.212 9.66 19.074 9.66C18.966 9.66 18.9 9.66 18.792 9.66C18.732 9.66 18.672 9.66 18.648 9.696C18.624 9.732 18.642 9.798 18.648 9.858C18.666 9.99 18.69 10.056 18.714 10.188C18.78 10.572 18.846 10.956 18.864 11.352C18.87 11.526 18.882 11.706 18.888 11.88C18.888 11.928 18.888 11.964 18.888 12.012C18.888 12.042 18.894 12.078 18.912 12.096C18.93 12.12 18.954 12.126 18.978 12.132C19.014 12.144 19.044 12.144 19.074 12.156C19.11 12.168 19.17 12.18 19.212 12.192C19.368 12.24 19.536 12.3 19.686 12.36C19.794 12.402 19.896 12.468 19.998 12.522C20.01 12.528 20.022 12.534 20.034 12.546C20.094 12.588 20.154 12.636 20.214 12.678C20.352 12.78 20.502 12.882 20.61 13.026C20.628 13.05 20.658 13.08 20.682 13.104C20.724 13.14 20.796 13.278 20.85 13.338C20.868 13.338 20.88 13.338 20.88 13.338Z" fill="#BC2126"/>
</g>
</g>
<g id="Clip path group_3">
<mask id="mask2_3243_2573" style="mask-type:luminance" maskUnits="userSpaceOnUse" x="3" y="3" width="18" height="18">
<g id="SVGID_2__3">
<path id="Vector_5" d="M21 3.036H3V20.964H21V3.036Z" fill="white"/>
</g>
</mask>
<g mask="url(#mask2_3243_2573)">
<path id="Vector_6" d="M16.866 6.93601C16.92 6.93601 16.968 6.93001 17.01 6.92401C17.04 6.92401 17.07 6.91801 17.082 6.88801C17.094 6.85801 17.07 6.82201 17.064 6.81001C17.052 6.78601 16.95 6.60001 16.95 6.60001L16.848 6.44401L16.428 5.83201L16.338 5.73001L16.254 5.62201L16.116 5.46601L15.774 5.09401L15.624 4.95001L15.096 4.45801L14.664 4.12201L14.508 4.03801L13.998 3.72601L13.644 3.53401L13.578 3.50401L13.29 3.39601L12.858 3.23401L12.822 3.22801L12.684 3.19201L12.648 3.18601L12.528 3.15601L12.27 3.10801L12.15 3.10201L11.922 3.06001L11.646 3.04201L11.55 3.03001H11.376L11.088 3.03601L10.806 3.06601L10.584 3.07201L10.392 3.09601L10.194 3.13801L10.044 3.18601L9.79799 3.23401H9.74399L9.51599 3.31801L9.37799 3.35401L9.29399 3.40201L9.09599 3.45601L8.99999 3.51001L8.87999 3.55801L8.58599 3.68401L8.20799 3.82801L8.08199 3.88801L7.81799 4.03201L7.58999 4.18201L7.37399 4.29601L7.29599 4.34401L7.06199 4.47001L7.02599 4.49401L6.75599 4.70401L6.53399 4.85401L6.49199 4.88401L6.23999 5.08201L6.14999 5.16001C6.14999 5.16001 6.01799 5.27401 6.01199 5.29201L6.10799 5.26201C6.10799 5.26201 6.28199 5.19601 6.28199 5.20201C6.28799 5.20201 6.31799 5.20801 6.31799 5.20801L6.56399 5.10601H6.59999L6.86999 4.99801C6.86999 4.99801 7.01399 4.95001 7.01399 4.95601C7.01399 4.96201 7.15799 4.90201 7.15799 4.90201L7.36199 4.83001L7.84799 4.64401H7.88999L8.14199 4.55401L8.33999 4.47601L8.36999 4.49401C8.36999 4.49401 8.74799 4.50601 8.75399 4.50601L8.99399 4.52401L8.99999 4.53001L9.49199 4.57201L9.49799 4.56601L10.176 4.60201L10.182 4.62001L10.422 4.82401H10.44L10.686 5.06401L10.71 5.05201L11.04 5.04001L11.058 5.02801L11.91 5.07601L11.916 5.09401L12.294 5.31001H12.312L12.978 5.63401L12.984 5.67001L13.362 5.52001L13.92 5.70601L14.016 5.86201L14.22 5.87401L14.418 6.09601H14.436L14.592 6.27601V6.28801H14.616L15.054 6.39001L15.216 6.64201L15.624 6.78601C15.624 6.78601 16.062 6.90001 16.284 6.92401C16.476 6.96001 16.71 6.94801 16.866 6.93601Z" fill="#BC2126"/>
</g>
</g>
<g id="Clip path group_4">
<mask id="mask3_3243_2573" style="mask-type:luminance" maskUnits="userSpaceOnUse" x="3" y="3" width="18" height="18">
<g id="SVGID_2__4">
<path id="Vector_7" d="M21 3.036H3V20.964H21V3.036Z" fill="white"/>
</g>
</mask>
<g mask="url(#mask3_3243_2573)">
<path id="Vector_8" d="M20.646 9.51001C20.634 9.44401 20.586 9.31801 20.586 9.31801L20.562 9.24601L20.538 9.16201L20.466 8.94601L20.4 8.76001L20.19 8.29801L20.094 8.07001L19.974 7.80601L19.83 7.57201L19.8 7.50601L19.704 7.31401L19.614 7.17001L19.578 7.12201L18.972 6.30001C18.972 6.30001 18.912 6.22801 18.882 6.19801C18.87 6.18001 18.864 6.16801 18.846 6.16801C18.846 6.16801 18.846 6.16801 18.84 6.16801C18.84 6.16801 18.654 6.47401 18.576 6.55801C18.498 6.64201 18.342 6.78601 18.342 6.78601C18.342 6.78601 18.21 6.89401 18.186 6.91201C18.162 6.93001 18.06 6.99601 18.06 6.99601L17.922 7.07401C17.922 7.07401 17.82 7.12201 17.802 7.12801C17.784 7.13401 17.766 7.14001 17.754 7.15801C17.742 7.17001 17.742 7.18201 17.742 7.20601C17.748 7.22401 17.754 7.24201 17.76 7.26001C17.814 7.37401 17.868 7.49401 17.928 7.61401C18.024 7.78201 18.078 7.96801 18.156 8.14201C18.18 8.20201 18.204 8.26201 18.228 8.32201C18.282 8.47801 18.33 8.64001 18.378 8.79601C18.396 8.86801 18.42 8.93401 18.444 9.00601C18.462 9.07801 18.48 9.14401 18.498 9.21601C18.51 9.26401 18.54 9.28201 18.588 9.28201C18.636 9.28201 18.678 9.28201 18.726 9.27601C18.888 9.27001 19.05 9.26401 19.212 9.26401C19.26 9.26401 19.584 9.29401 19.584 9.29401C19.584 9.29401 19.698 9.30601 19.758 9.31801C19.884 9.34201 20.004 9.36601 20.13 9.39601C20.232 9.42001 20.34 9.45601 20.436 9.49801C20.484 9.52201 20.532 9.53401 20.586 9.54601C20.604 9.55201 20.628 9.55201 20.628 9.55201C20.646 9.53401 20.652 9.51601 20.646 9.51001Z" fill="#BC2126"/>
</g>
</g>
<g id="Clip path group_5">
<mask id="mask4_3243_2573" style="mask-type:luminance" maskUnits="userSpaceOnUse" x="3" y="3" width="18" height="18">
<g id="SVGID_2__5">
<path id="Vector_9" d="M21 3.036H3V20.964H21V3.036Z" fill="white"/>
</g>
</mask>
<g mask="url(#mask4_3243_2573)">
<path id="Vector_10" d="M18.522 5.88C18.516 5.856 18.474 5.79 18.474 5.79L18.444 5.736L18.354 5.634L18.294 5.55L18.186 5.442C18.186 5.442 18.162 5.424 18.15 5.412C17.958 5.256 17.568 4.944 17.568 4.938L17.46 4.854L17.262 4.68L16.254 4.074L15.462 3.696C15.462 3.696 15.042 3.528 15.042 3.534L14.886 3.48L14.37 3.3L14.004 3.21L13.65 3.132L13.596 3.126L13.566 3.156L13.578 3.174C13.578 3.174 13.614 3.192 13.632 3.198C13.74 3.24 13.854 3.282 13.962 3.324C14.034 3.354 14.1 3.39 14.178 3.414C14.232 3.432 14.274 3.45 14.322 3.474C14.49 3.57 14.658 3.672 14.826 3.768C14.928 3.828 15.018 3.9 15.102 3.978C15.168 4.038 15.234 4.098 15.312 4.14C15.348 4.158 15.378 4.188 15.408 4.218C15.426 4.23 15.444 4.248 15.462 4.26C15.558 4.338 15.666 4.41 15.756 4.506C15.846 4.608 15.948 4.704 16.044 4.8C16.134 4.89 16.23 4.98 16.308 5.088C16.374 5.172 16.44 5.256 16.518 5.334C16.662 5.478 16.776 5.652 16.908 5.802C16.926 5.82 16.932 5.844 16.95 5.868C17.034 6 17.112 6.144 17.214 6.27C17.286 6.354 17.352 6.45 17.4 6.552C17.43 6.612 17.472 6.672 17.514 6.726C17.538 6.756 17.574 6.774 17.592 6.774C17.61 6.774 17.646 6.756 17.646 6.756L17.718 6.726C17.718 6.726 17.814 6.684 17.844 6.672C17.874 6.654 17.94 6.624 17.958 6.6C17.982 6.582 18.078 6.516 18.132 6.462C18.186 6.414 18.294 6.288 18.294 6.288L18.372 6.186L18.504 5.964C18.504 5.958 18.528 5.904 18.522 5.88Z" fill="#BC2126"/>
</g>
</g>
<g id="Clip path group_6">
<mask id="mask5_3243_2573" style="mask-type:luminance" maskUnits="userSpaceOnUse" x="3" y="3" width="18" height="18">
<g id="SVGID_2__6">
<path id="Vector_11" d="M21 3.036H3V20.964H21V3.036Z" fill="white"/>
</g>
</mask>
<g mask="url(#mask5_3243_2573)">
<path id="Vector_12" d="M18.102 9.234C18.048 9.066 18.006 8.91 17.946 8.742C17.898 8.604 17.862 8.46601 17.796 8.34001C17.76 8.26201 17.742 8.178 17.712 8.094C17.694 8.052 17.676 8.016 17.664 7.974C17.592 7.764 17.49 7.59 17.388 7.392C17.382 7.38 17.376 7.374 17.37 7.356C17.358 7.338 17.352 7.32001 17.328 7.30801C17.304 7.29601 17.28 7.30201 17.238 7.30801C17.154 7.32001 17.046 7.326 16.998 7.326C16.956 7.326 16.788 7.33801 16.656 7.35001L16.626 7.33801H16.542H16.464L16.026 7.28401C15.87 7.26001 15.504 7.17001 15.504 7.17001L15.24 7.08001L14.91 6.966L14.886 6.97801L14.376 6.936L14.358 6.94801L14.07 6.726H14.04L13.86 6.56401L13.854 6.52801L13.656 6.49801L13.638 6.50401L13.476 6.45001L13.458 6.432L13.08 6.462L12.738 6.32401L11.556 6.38401L11.538 6.372L11.316 6.39001L11.292 6.40801L10.71 6.45001L10.692 6.43801L9.86401 6.91801L9.85201 6.95401L9.81601 6.99001L9.79801 6.97801L9.38401 6.942L9.36001 6.95401L8.62201 6.96001L8.604 6.95401L8.394 6.94801L8.32801 6.912L7.55401 7.512V7.53001L7.28401 7.74601L6.97801 7.602L6.96001 7.60801L6.84601 7.572C6.84601 7.572 6.28801 7.71001 6.29401 7.71601C6.30001 7.71601 5.77801 7.632 5.77801 7.632L5.74201 7.602L5.64601 7.704L5.43601 7.80601L5.43001 7.824L5.01601 8.142L4.42801 8.56801L3.76801 9.06001L3.46801 9.27601L3.45001 9.402L3.32401 9.69001L3.27001 9.942L3.18601 10.446L3.13801 10.668L3.12001 10.932L3.04801 11.478L3.01801 12.678L3.04801 12.75L3.06601 13.08C3.06601 13.08 3.07201 13.14 3.08401 13.14L4.55401 11.622L5.03401 11.424L5.43601 11.406L5.68201 11.124L5.70601 11.07L5.73601 11.082L6.39601 11.01L6.42601 10.992H6.67201L6.70801 11.004L6.78601 10.896L7.08001 10.71L7.39801 10.494L8.28601 10.506L8.29201 10.524L8.64001 10.56L8.91001 10.506L9.40801 9.99601H9.42001L9.81601 9.61801L10.41 9.54001L10.434 9.52201L10.458 9.54601L10.764 9.69001L10.788 9.672L11.058 9.63601L11.07 9.61801L11.328 9.57601L11.352 9.564L11.634 9.804L11.652 9.78601L12.228 9.774L12.276 9.73801L12.738 9.76201L12.762 9.76801L12.834 9.75001L12.846 9.732L13.032 9.64801H13.056L13.266 9.55201L13.284 9.534L13.512 9.45001L13.53 9.42601L14.16 9.18601L14.166 9.174L14.28 9.13801L14.304 9.114L14.334 9.15001L14.52 9.24001H14.574L14.778 9.354L14.79 9.33601L14.85 9.30601H14.856L14.958 9.25801L14.964 9.252L15.108 9.21601L15.486 9.31201L15.564 9.294L15.63 9.34201L15.906 9.384L16.176 9.48601L16.332 9.474L16.38 9.51001L16.422 9.48601C16.422 9.48601 16.956 9.42001 17.22 9.39601C17.394 9.38401 17.568 9.36601 17.742 9.34801C17.838 9.33601 17.934 9.33001 18.036 9.31801C18.096 9.31801 18.12 9.294 18.102 9.234Z" fill="#BC2126"/>
</g>
</g>
<g id="Clip path group_7">
<mask id="mask6_3243_2573" style="mask-type:luminance" maskUnits="userSpaceOnUse" x="3" y="3" width="18" height="18">
<g id="SVGID_2__7">
<path id="Vector_13" d="M21 3.036H3V20.964H21V3.036Z" fill="white"/>
</g>
</mask>
<g mask="url(#mask6_3243_2573)">
<path id="Vector_14" d="M18.492 11.964C18.492 11.928 18.486 11.904 18.486 11.868C18.48 11.766 18.474 11.664 18.468 11.562C18.468 11.526 18.462 11.49 18.462 11.46C18.456 11.334 18.45 11.208 18.438 11.076C18.42 10.914 18.396 10.752 18.372 10.596C18.354 10.47 18.33 10.344 18.306 10.224C18.282 10.092 18.264 9.97801 18.234 9.84601C18.204 9.71401 18.18 9.696 18.042 9.714C18.03 9.714 18.018 9.714 18.006 9.72C17.958 9.732 17.886 9.738 17.838 9.744C17.574 9.78 17.334 9.792 17.07 9.822L16.32 10.086L15.24 10.056L15.12 10.02V10.038L14.802 10.272L14.76 10.278L14.508 10.512L14.496 10.548L13.848 10.632L13.254 11.088H13.194L12.876 11.274L12.75 11.286L12.624 11.388L12.594 11.364L11.988 11.322L11.886 11.442V11.46L11.364 12.03L11.358 12.06H11.34L10.68 12.816L10.494 12.822L10.482 12.84L9.93599 12.936H9.89399L9.88199 12.96C9.87599 12.96 8.98199 13.458 8.98199 13.458L8.57999 13.41L8.49599 13.44L8.09399 13.416L7.69799 13.848L7.45799 13.896L7.31999 13.89L7.18199 13.95L7.09799 13.938L7.10399 13.956L6.59999 14.34L6.55199 14.346L5.77799 14.946L5.78399 14.982L5.30399 16.14L5.32199 16.188L4.52999 16.26L4.27199 16.482L4.24799 16.566L4.60199 17.052L4.85999 17.448L5.08199 17.736L5.44799 18.132C5.44799 18.132 5.44799 18.162 5.45999 18.162C5.46599 18.168 5.50799 18.168 5.50799 18.168C5.50799 18.168 5.72399 18.24 5.72999 18.24L5.99999 18.324L6.00599 18.336L6.02999 18.33L6.47399 18.504H6.50999L6.53399 18.534H6.57599C6.58199 18.534 6.68399 18.606 6.68399 18.606L6.86999 18.504H6.88199L6.96599 18.45L7.64399 18.618L8.14199 18.366L9.24599 18.258L9.69599 17.532C9.76799 17.46 9.89999 17.328 9.89999 17.328H9.91799L10.074 17.184C10.074 17.178 10.074 17.166 10.074 17.166L10.356 16.908L10.488 16.77L10.518 16.752C10.524 16.752 10.668 16.596 10.668 16.596L10.794 16.47L10.824 16.464L10.794 16.35L10.92 15.882L11.166 15.81L11.178 15.798L11.25 15.78V15.738L11.58 15.198L11.61 15.186L11.748 14.922L11.976 14.796L12.006 14.76L12.048 14.766C12.048 14.766 12.18 14.688 12.186 14.688H12.198L12.444 14.58L12.462 14.55L13.272 14.178L13.32 14.172L13.332 14.13L13.362 14.106L13.446 13.824L13.704 13.716L13.998 13.68L14.268 13.494L14.652 13.512L14.688 13.542L14.706 13.518L15.24 13.278V13.206L15.372 12.96L15.636 12.888L15.648 12.87L16.008 12.792L16.146 12.63L16.164 12.624C16.164 12.624 16.248 12.546 16.248 12.54L16.494 12.576L16.506 12.588L16.644 12.606L16.728 12.618C16.728 12.618 17.094 12.45 17.244 12.39C17.31 12.366 17.37 12.348 17.43 12.33C17.514 12.3 17.598 12.27 17.682 12.24C17.724 12.228 17.766 12.216 17.808 12.204L17.976 12.174L18.174 12.138L18.294 12.132C18.294 12.132 18.354 12.126 18.372 12.12C18.39 12.114 18.426 12.114 18.456 12.096C18.48 12.072 18.48 12.048 18.486 12.024C18.492 12.006 18.492 11.994 18.492 11.964Z" fill="#BC2126"/>
</g>
</g>
<g id="Clip path group_8">
<mask id="mask7_3243_2573" style="mask-type:luminance" maskUnits="userSpaceOnUse" x="3" y="3" width="18" height="18">
<g id="SVGID_2__8">
<path id="Vector_15" d="M21 3.036H3V20.964H21V3.036Z" fill="white"/>
</g>
</mask>
<g mask="url(#mask7_3243_2573)">
<path id="Vector_16" d="M18.486 12.672C18.486 12.642 18.492 12.594 18.468 12.57C18.444 12.546 18.414 12.54 18.396 12.54C18.378 12.54 18.282 12.552 18.282 12.552L18.126 12.576C18.108 12.576 18.09 12.582 18.072 12.588C17.976 12.612 17.886 12.63 17.79 12.654C17.688 12.684 17.58 12.714 17.484 12.756C17.382 12.804 17.262 12.84 17.16 12.888C17.124 12.906 16.776 13.074 16.62 13.152L16.416 13.368L16.41 13.416L16.386 13.404L16.26 13.41L16.254 13.422L15.84 13.56V13.608L15.798 13.65V13.674L15.606 14.016H15.582L15.576 14.052C15.576 14.052 15.54 14.118 15.492 14.19L14.622 14.748H14.604L14.472 14.856L14.382 15.222L14.298 15.306L13.956 16.56L14.004 16.704L13.5 16.944H13.416L13.32 17.382L13.302 17.394L13.176 17.79L13.182 17.814L13.134 18.156L13.116 18.18L13.134 18.21L12.648 18.978L12.612 18.99L12.492 19.176L12.486 19.212L12.072 19.794L11.634 20.052L11.658 20.088C11.658 20.094 11.634 20.262 11.634 20.262L11.67 20.328L11.61 20.346L11.292 20.532L11.262 20.526L10.8 20.802L10.746 20.886C10.746 20.892 10.926 20.91 10.926 20.91L11.226 20.934L11.43 20.946L11.67 20.952L11.778 20.958L11.958 20.964L12.138 20.958L12.786 20.88L13.17 20.814L13.458 20.736L13.776 20.646L14.178 20.484L14.208 20.466L14.322 20.4C14.322 20.4 14.646 20.226 14.796 20.118C15.048 19.926 15.3 19.74 15.528 19.524C15.606 19.452 15.684 19.374 15.762 19.296C15.834 19.224 15.906 19.152 15.984 19.08C15.996 19.068 16.014 19.056 16.02 19.038C16.044 18.978 16.092 18.936 16.134 18.894C16.164 18.864 16.194 18.834 16.218 18.792C16.266 18.714 16.344 18.66 16.404 18.594C16.458 18.546 16.506 18.486 16.548 18.426C16.626 18.318 16.698 18.204 16.77 18.096C16.866 17.946 16.974 17.808 17.058 17.652C17.148 17.484 17.232 17.322 17.328 17.16C17.406 17.022 17.49 16.884 17.55 16.734C17.652 16.488 17.754 16.248 17.85 16.002C17.952 15.738 18.03 15.474 18.102 15.204C18.156 15 18.186 14.796 18.258 14.598C18.27 14.574 18.27 14.544 18.276 14.52C18.306 14.352 18.33 14.19 18.36 14.028C18.384 13.872 18.408 13.716 18.426 13.56C18.444 13.452 18.462 13.35 18.468 13.242C18.48 13.092 18.486 12.948 18.492 12.798C18.492 12.78 18.492 12.75 18.492 12.75C18.492 12.75 18.48 12.702 18.486 12.672Z" fill="#BC2126"/>
</g>
</g>
</g>
</g>
</svg>
