<svg width="24" height="24" viewBox="0 0 24 24" fill="none" xmlns="http://www.w3.org/2000/svg">
<g id="Team=UTA">
<g id="Group 2">
<path id="Vector" d="M22.56 4.88401L20.502 9.30001H12.258L9.66 14.868H7.332C7.35 14.592 7.404 14.31 7.494 14.04C7.716 13.368 8.136 12.816 8.664 12.42C8.802 12.576 8.928 12.75 9.042 12.93C9.06 12.96 9.096 12.954 9.108 12.93L12.864 4.87801H22.56V4.88401Z" fill="black"/>
<path id="Vector_2" d="M3.468 16.596C3.234 17.064 2.898 17.466 2.49 17.772C2.148 17.376 1.878 16.914 1.704 16.386C1.584 16.032 1.518 15.678 1.5 15.324H3.816C3.786 15.762 3.672 16.194 3.468 16.596Z" fill="black"/>
<path id="Vector_3" d="M5.34598 15.324V19.176C4.39798 19.122 3.50398 18.738 2.80798 18.102C3.25198 17.76 3.61198 17.316 3.87598 16.8C4.10998 16.332 4.24198 15.834 4.27198 15.324H5.34598Z" fill="black"/>
<path id="Vector_4" d="M3.654 14.04C3.744 14.31 3.798 14.592 3.816 14.868H1.5C1.548 13.962 1.902 13.104 2.49 12.426C3.012 12.822 3.426 13.374 3.654 14.04Z" fill="black"/>
<path id="Vector_5" d="M5.34598 11.022V14.874H4.27198C4.25398 14.55 4.18798 14.22 4.08598 13.902C3.83998 13.158 3.38398 12.546 2.80798 12.102C3.22198 11.718 3.71998 11.418 4.28998 11.226C4.63798 11.106 4.99198 11.04 5.34598 11.022Z" fill="black"/>
<path id="Vector_6" d="M6.876 14.868H5.802V11.016C6.75 11.07 7.65 11.448 8.346 12.09C7.752 12.546 7.308 13.17 7.062 13.896C6.954 14.22 6.894 14.544 6.876 14.868Z" fill="black"/>
<path id="Vector_7" d="M8.346 18.108C7.932 18.486 7.434 18.786 6.87 18.978C6.516 19.098 6.156 19.164 5.802 19.182V15.33H6.87C6.9 15.84 7.032 16.338 7.266 16.806C7.53 17.322 7.896 17.766 8.346 18.108Z" fill="black"/>
<path id="Vector_8" d="M9.66 15.324C9.612 16.23 9.258 17.094 8.664 17.778C8.25 17.472 7.914 17.07 7.68 16.596C7.476 16.194 7.362 15.762 7.332 15.324H9.66Z" fill="black"/>
</g>
</g>
</svg>
