<svg width="24" height="24" viewBox="0 0 24 24" fill="none" xmlns="http://www.w3.org/2000/svg">
<g id="Team=WAS">
<g id="Layer_2_2_">
<path id="Vector" d="M12.018 3.20399H12C7.146 3.20399 3.216 7.13399 3.198 11.988V12.006C3.198 16.86 7.128 20.796 11.982 20.808H11.988H11.994C16.848 20.808 20.784 16.878 20.796 12.024V12.018V12.012C20.802 7.15199 16.872 3.20999 12.018 3.20399Z" fill="white"/>
<path id="Vector_2" d="M21 11.976C20.988 7.02 16.962 3 12.006 3H12H11.982C7.02 3.012 3 7.038 3 11.994V12.006V12.012C3.006 16.98 7.032 21 11.994 21.006H12H12.006C16.974 21 20.988 16.974 20.994 12.018C20.994 12.012 20.994 12.012 20.994 12.006C20.994 12 21 11.988 21 11.976ZM20.802 12.012C20.796 16.872 16.866 20.802 12 20.802H11.994H11.988C7.134 20.796 3.204 16.86 3.204 12.006V11.988C3.21 7.134 7.152 3.204 12.006 3.204H12.024C16.878 3.216 20.802 7.152 20.802 12.006V12.012Z" fill="#C4CDD3"/>
<path id="Vector_3" d="M9.05999 10.002C9.97799 9.084 10.356 8.022 10.356 8.022L10.56 7.278L10.608 7.104L9.66599 6.576C9.66599 6.576 9.11999 6.198 7.89599 6.906C6.46799 7.752 5.30399 8.844 4.69799 9.996C4.36199 10.632 4.09799 11.382 3.95999 12.216C4.00199 13.806 4.50599 15.276 5.34599 16.512C5.11199 14.22 7.32599 11.712 9.05999 10.002Z" fill="#002B5C"/>
<path id="Vector_4" d="M16.116 6.91201C14.898 6.19801 14.346 6.58201 14.346 6.58201L13.404 7.11001L13.452 7.28401L13.656 8.02801C13.656 8.02801 14.04 9.09601 14.952 10.008C16.68 11.712 18.876 14.208 18.66 16.494C19.494 15.252 19.998 13.758 20.022 12.156C19.884 11.346 19.62 10.632 19.296 10.008C18.702 8.85001 17.538 7.75801 16.116 6.91201Z" fill="#002B5C"/>
<path id="Vector_5" d="M13.17 5.544C16.38 5.904 18.492 7.722 19.578 9.342C18.762 7.008 16.89 5.166 14.544 4.392C14.034 4.536 13.458 4.86 13.17 5.544Z" fill="#E21936"/>
<path id="Vector_6" d="M10.842 5.544C10.554 4.866 9.97799 4.542 9.45599 4.392C7.09199 5.184 5.21399 7.032 4.40399 9.384C5.48999 7.758 7.60799 5.904 10.842 5.544Z" fill="#E21936"/>
<path id="Vector_7" d="M11.37 5.44201L12.012 4.50001L12.648 5.44201C12.906 4.74601 13.308 4.36201 13.716 4.14601C13.164 4.02601 12.594 3.96001 12.018 3.96001C11.43 3.96001 10.866 4.02601 10.308 4.14001C10.71 4.36201 11.112 4.74601 11.37 5.44201Z" fill="#E21936"/>
<path id="Vector_8" d="M16.368 12.486C15.066 10.38 12.102 8.24399 12 8.17799C11.904 8.24399 8.94599 10.38 7.63199 12.486C5.86799 15.336 6.10199 16.986 6.55799 17.922C7.69199 18.972 9.12599 19.686 10.728 19.938L11.418 10.2L11.988 9.62999L11.994 9.62399L12 9.62999L12.57 10.2L13.272 19.92L13.26 19.926C14.868 19.674 16.314 18.942 17.448 17.886C17.91 16.956 18.12 15.312 16.368 12.486Z" fill="#002B5C"/>
<path id="Vector_9" d="M12.582 10.2L12.012 9.62399L12.018 20.646L13.26 19.932L13.272 19.926L12.582 10.2Z" fill="#C4CDD3"/>
<path id="Vector_10" d="M12.006 7.43401L11.754 7.62L10.704 8.38801L10.98 7.386L11.028 7.212L11.118 6.876L10.818 6.714L9.828 6.18C10.32 6.072 10.83 6 11.352 5.964L11.604 5.946L11.616 5.92801L11.712 5.724L11.73 5.694L12.012 5.13L12.3 5.724L12.306 5.736L12.402 5.94L12.414 5.95801L12.666 5.976C13.182 6.006 13.686 6.072 14.19 6.192L13.2 6.726L12.9 6.88801L12.99 7.224L13.038 7.39801L13.314 8.4L12.264 7.632L12.012 7.446V7.44H12.006V7.43401Z" fill="#C4CDD3"/>
<path id="Vector_11" d="M12.018 7.43399L12.27 7.62599L13.32 8.39399L13.044 7.39199L12.996 7.21799L12.906 6.88199L13.206 6.71999L14.196 6.18599C13.704 6.07799 13.194 6.00599 12.672 5.96999L12.42 5.95199L12.408 5.93399L12.312 5.72999L12.306 5.71799L12.018 5.12399L11.736 5.68799L11.718 5.71799L11.622 5.92199L11.61 5.93999L11.358 5.95799C10.842 5.98799 10.338 6.05399 9.83398 6.17399L10.824 6.70799L11.124 6.86999L11.04 7.20599L10.992 7.37999L10.716 8.38199L11.766 7.61399L12.018 7.42799V7.42199V7.43399Z" fill="#C4CDD3"/>
</g>
</g>
</svg>
